<svg width="21" height="20" viewBox="0 0 21 20" fill="none" xmlns="http://www.w3.org/2000/svg">
<path fill-rule="evenodd" clip-rule="evenodd" d="M10.5 18C12.6217 18 14.6566 17.1571 16.1569 15.6569C17.6571 14.1566 18.5 12.1217 18.5 10C18.5 7.87827 17.6571 5.84344 16.1569 4.34315C14.6566 2.84285 12.6217 2 10.5 2C8.37827 2 6.34344 2.84285 4.84315 4.34315C3.34285 5.84344 2.5 7.87827 2.5 10C2.5 12.1217 3.34285 14.1566 4.84315 15.6569C6.34344 17.1571 8.37827 18 10.5 18ZM14.207 8.707C14.3892 8.5184 14.49 8.2658 14.4877 8.0036C14.4854 7.7414 14.3802 7.49059 14.1948 7.30518C14.0094 7.11977 13.7586 7.0146 13.4964 7.01233C13.2342 7.01005 12.9816 7.11084 12.793 7.293L9.5 10.586L8.207 9.293C8.0184 9.11084 7.7658 9.01005 7.5036 9.01233C7.2414 9.0146 6.99059 9.11977 6.80518 9.30518C6.61977 9.49059 6.5146 9.7414 6.51233 10.0036C6.51005 10.2658 6.61084 10.5184 6.793 10.707L8.793 12.707C8.98053 12.8945 9.23484 12.9998 9.5 12.9998C9.76516 12.9998 10.0195 12.8945 10.207 12.707L14.207 8.707Z" fill="#61DA56"/>
</svg>
