<svg width="203" height="202" viewBox="0 0 203 202" fill="none" xmlns="http://www.w3.org/2000/svg">
<rect x="1.5" y="1" width="200" height="200" rx="100" fill="#F9FAFB"/>
<path d="M88.6667 96.6667L96.3101 89.0234C96.9352 88.3985 97.7829 88.0475 98.6667 88.0475C99.5506 88.0475 100.398 88.3985 101.023 89.0234L108.667 96.6667M105.333 93.3334L107.977 90.6901C108.602 90.0652 109.45 89.7141 110.333 89.7141C111.217 89.7141 112.065 90.0652 112.69 90.6901L115.333 93.3334M105.333 83.3334H105.35M92.0001 103.333H112C112.884 103.333 113.732 102.982 114.357 102.357C114.982 101.732 115.333 100.884 115.333 100V80.0001C115.333 79.116 114.982 78.2682 114.357 77.6431C113.732 77.0179 112.884 76.6667 112 76.6667H92.0001C91.116 76.6667 90.2682 77.0179 89.6431 77.6431C89.0179 78.2682 88.6667 79.116 88.6667 80.0001V100C88.6667 100.884 89.0179 101.732 89.6431 102.357C90.2682 102.982 91.116 103.333 92.0001 103.333Z" stroke="#6B7280" stroke-width="2" stroke-linecap="round" stroke-linejoin="round"/>
<path d="M38.0858 126V115.536H40.8858C42.4858 115.536 43.7338 115.968 44.6298 116.832C45.5258 117.696 45.9738 118.992 45.9738 120.72C45.9738 121.584 45.8565 122.347 45.6218 123.008C45.3978 123.669 45.0671 124.224 44.6298 124.672C44.2031 125.109 43.6805 125.44 43.0618 125.664C42.4538 125.888 41.7605 126 40.9818 126H38.0858ZM39.9418 124.496H40.7578C41.8245 124.496 42.6405 124.192 43.2058 123.584C43.7818 122.965 44.0698 122.011 44.0698 120.72C44.0698 119.44 43.7818 118.507 43.2058 117.92C42.6298 117.333 41.8138 117.04 40.7578 117.04H39.9418V124.496ZM47.9258 126V118.144H49.4458L49.5738 119.536H49.6378C49.9151 119.024 50.2511 118.635 50.6458 118.368C51.0405 118.091 51.4458 117.952 51.8618 117.952C52.2351 117.952 52.5338 118.005 52.7578 118.112L52.4378 119.712C52.2991 119.669 52.1711 119.637 52.0538 119.616C51.9365 119.595 51.7925 119.584 51.6218 119.584C51.3125 119.584 50.9871 119.707 50.6458 119.952C50.3045 120.187 50.0111 120.603 49.7658 121.2V126H47.9258ZM56.9543 126.192C56.4636 126.192 55.9943 126.101 55.5463 125.92C55.0983 125.739 54.6983 125.472 54.3463 125.12C54.005 124.768 53.733 124.336 53.5303 123.824C53.3276 123.312 53.2263 122.731 53.2263 122.08C53.2263 121.429 53.3276 120.848 53.5303 120.336C53.733 119.824 54.005 119.392 54.3463 119.04C54.6983 118.688 55.0983 118.421 55.5463 118.24C55.9943 118.048 56.4636 117.952 56.9543 117.952C57.445 117.952 57.9143 118.048 58.3623 118.24C58.821 118.421 59.221 118.688 59.5623 119.04C59.9036 119.392 60.1756 119.824 60.3783 120.336C60.5916 120.848 60.6983 121.429 60.6983 122.08C60.6983 122.731 60.5916 123.312 60.3783 123.824C60.1756 124.336 59.9036 124.768 59.5623 125.12C59.221 125.472 58.821 125.739 58.3623 125.92C57.9143 126.101 57.445 126.192 56.9543 126.192ZM56.9543 124.688C57.5303 124.688 57.9836 124.453 58.3143 123.984C58.645 123.504 58.8103 122.869 58.8103 122.08C58.8103 121.28 58.645 120.645 58.3143 120.176C57.9836 119.696 57.5303 119.456 56.9543 119.456C56.3783 119.456 55.925 119.696 55.5943 120.176C55.2743 120.645 55.1143 121.28 55.1143 122.08C55.1143 122.869 55.2743 123.504 55.5943 123.984C55.925 124.453 56.3783 124.688 56.9543 124.688ZM62.5196 129.104V118.144H64.0396L64.1676 118.976H64.2316C64.5622 118.699 64.9302 118.459 65.3356 118.256C65.7409 118.053 66.1622 117.952 66.5996 117.952C67.0902 117.952 67.5222 118.048 67.8956 118.24C68.2796 118.421 68.6049 118.688 68.8716 119.04C69.1382 119.392 69.3409 119.813 69.4796 120.304C69.6182 120.795 69.6876 121.344 69.6876 121.952C69.6876 122.624 69.5916 123.227 69.3996 123.76C69.2182 124.283 68.9729 124.725 68.6636 125.088C68.3542 125.44 67.9969 125.712 67.5916 125.904C67.1862 126.096 66.7649 126.192 66.3276 126.192C65.9862 126.192 65.6449 126.117 65.3036 125.968C64.9622 125.819 64.6316 125.605 64.3116 125.328L64.3596 126.64V129.104H62.5196ZM65.9436 124.672C66.4662 124.672 66.9036 124.448 67.2556 124C67.6076 123.541 67.7836 122.864 67.7836 121.968C67.7836 121.179 67.6502 120.565 67.3836 120.128C67.1169 119.691 66.6849 119.472 66.0876 119.472C65.5329 119.472 64.9569 119.765 64.3596 120.352V124.016C64.6476 124.261 64.9249 124.432 65.1916 124.528C65.4582 124.624 65.7089 124.672 65.9436 124.672ZM74.9139 126V115.536H81.2339V117.104H76.7699V120.064H80.5779V121.632H76.7699V126H74.9139ZM82.9102 126V118.144H84.7502V126H82.9102ZM83.8382 116.768C83.5075 116.768 83.2355 116.672 83.0222 116.48C82.8089 116.288 82.7022 116.037 82.7022 115.728C82.7022 115.419 82.8089 115.168 83.0222 114.976C83.2355 114.773 83.5075 114.672 83.8382 114.672C84.1689 114.672 84.4409 114.773 84.6542 114.976C84.8675 115.168 84.9742 115.419 84.9742 115.728C84.9742 116.037 84.8675 116.288 84.6542 116.48C84.4409 116.672 84.1689 116.768 83.8382 116.768ZM88.8897 126.192C88.2284 126.192 87.7644 125.995 87.4977 125.6C87.231 125.205 87.0977 124.667 87.0977 123.984V114.704H88.9377V124.08C88.9377 124.304 88.9804 124.464 89.0657 124.56C89.151 124.645 89.2417 124.688 89.3377 124.688C89.3804 124.688 89.4177 124.688 89.4497 124.688C89.4924 124.688 89.551 124.677 89.6257 124.656L89.8657 126.032C89.6204 126.139 89.295 126.192 88.8897 126.192ZM94.8014 126.192C94.2574 126.192 93.7508 126.101 93.2814 125.92C92.8121 125.728 92.4014 125.456 92.0494 125.104C91.6974 124.752 91.4201 124.325 91.2174 123.824C91.0254 123.312 90.9294 122.731 90.9294 122.08C90.9294 121.44 91.0308 120.864 91.2334 120.352C91.4361 119.84 91.7028 119.408 92.0334 119.056C92.3748 118.704 92.7641 118.432 93.2014 118.24C93.6388 118.048 94.0868 117.952 94.5454 117.952C95.0788 117.952 95.5481 118.043 95.9534 118.224C96.3588 118.405 96.6948 118.661 96.9614 118.992C97.2388 119.323 97.4468 119.717 97.5854 120.176C97.7241 120.635 97.7934 121.136 97.7934 121.68C97.7934 121.861 97.7828 122.032 97.7614 122.192C97.7508 122.352 97.7348 122.48 97.7134 122.576H92.7214C92.8068 123.28 93.0521 123.824 93.4574 124.208C93.8734 124.581 94.4014 124.768 95.0414 124.768C95.3828 124.768 95.6974 124.72 95.9854 124.624C96.2841 124.517 96.5774 124.373 96.8654 124.192L97.4894 125.344C97.1161 125.589 96.7001 125.792 96.2414 125.952C95.7828 126.112 95.3028 126.192 94.8014 126.192ZM92.7054 121.328H96.1934C96.1934 120.72 96.0601 120.245 95.7934 119.904C95.5374 119.552 95.1374 119.376 94.5934 119.376C94.1241 119.376 93.7134 119.541 93.3614 119.872C93.0094 120.203 92.7908 120.688 92.7054 121.328ZM105.522 126.192C105.063 126.192 104.674 126.123 104.354 125.984C104.045 125.845 103.789 125.653 103.586 125.408C103.394 125.152 103.25 124.853 103.154 124.512C103.069 124.16 103.026 123.771 103.026 123.344V119.6H101.906V118.224L103.122 118.144L103.346 116H104.882V118.144H106.882V119.6H104.882V123.344C104.882 124.261 105.25 124.72 105.986 124.72C106.125 124.72 106.263 124.704 106.402 124.672C106.551 124.64 106.685 124.597 106.802 124.544L107.122 125.904C106.909 125.979 106.663 126.043 106.386 126.096C106.119 126.16 105.831 126.192 105.522 126.192ZM111.501 126.192C111.011 126.192 110.541 126.101 110.093 125.92C109.645 125.739 109.245 125.472 108.893 125.12C108.552 124.768 108.28 124.336 108.077 123.824C107.875 123.312 107.773 122.731 107.773 122.08C107.773 121.429 107.875 120.848 108.077 120.336C108.28 119.824 108.552 119.392 108.893 119.04C109.245 118.688 109.645 118.421 110.093 118.24C110.541 118.048 111.011 117.952 111.501 117.952C111.992 117.952 112.461 118.048 112.909 118.24C113.368 118.421 113.768 118.688 114.109 119.04C114.451 119.392 114.723 119.824 114.925 120.336C115.139 120.848 115.245 121.429 115.245 122.08C115.245 122.731 115.139 123.312 114.925 123.824C114.723 124.336 114.451 124.768 114.109 125.12C113.768 125.472 113.368 125.739 112.909 125.92C112.461 126.101 111.992 126.192 111.501 126.192ZM111.501 124.688C112.077 124.688 112.531 124.453 112.861 123.984C113.192 123.504 113.357 122.869 113.357 122.08C113.357 121.28 113.192 120.645 112.861 120.176C112.531 119.696 112.077 119.456 111.501 119.456C110.925 119.456 110.472 119.696 110.141 120.176C109.821 120.645 109.661 121.28 109.661 122.08C109.661 122.869 109.821 123.504 110.141 123.984C110.472 124.453 110.925 124.688 111.501 124.688ZM122.606 126.192C121.763 126.192 121.15 125.925 120.766 125.392C120.382 124.848 120.19 124.075 120.19 123.072V118.144H122.03V122.832C122.03 123.483 122.126 123.941 122.318 124.208C122.51 124.475 122.819 124.608 123.246 124.608C123.587 124.608 123.886 124.523 124.142 124.352C124.408 124.181 124.691 123.904 124.99 123.52V118.144H126.83V126H125.326L125.182 124.848H125.134C124.792 125.253 124.419 125.579 124.014 125.824C123.619 126.069 123.15 126.192 122.606 126.192ZM129.16 129.104V118.144H130.68L130.808 118.976H130.872C131.203 118.699 131.571 118.459 131.976 118.256C132.382 118.053 132.803 117.952 133.24 117.952C133.731 117.952 134.163 118.048 134.536 118.24C134.92 118.421 135.246 118.688 135.512 119.04C135.779 119.392 135.982 119.813 136.12 120.304C136.259 120.795 136.328 121.344 136.328 121.952C136.328 122.624 136.232 123.227 136.04 123.76C135.859 124.283 135.614 124.725 135.304 125.088C134.995 125.44 134.638 125.712 134.232 125.904C133.827 126.096 133.406 126.192 132.968 126.192C132.627 126.192 132.286 126.117 131.944 125.968C131.603 125.819 131.272 125.605 130.952 125.328L131 126.64V129.104H129.16ZM132.584 124.672C133.107 124.672 133.544 124.448 133.896 124C134.248 123.541 134.424 122.864 134.424 121.968C134.424 121.179 134.291 120.565 134.024 120.128C133.758 119.691 133.326 119.472 132.728 119.472C132.174 119.472 131.598 119.765 131 120.352V124.016C131.288 124.261 131.566 124.432 131.832 124.528C132.099 124.624 132.35 124.672 132.584 124.672ZM139.983 126.192C139.322 126.192 138.858 125.995 138.591 125.6C138.325 125.205 138.191 124.667 138.191 123.984V114.704H140.031V124.08C140.031 124.304 140.074 124.464 140.159 124.56C140.245 124.645 140.335 124.688 140.431 124.688C140.474 124.688 140.511 124.688 140.543 124.688C140.586 124.688 140.645 124.677 140.719 124.656L140.959 126.032C140.714 126.139 140.389 126.192 139.983 126.192ZM145.751 126.192C145.261 126.192 144.791 126.101 144.343 125.92C143.895 125.739 143.495 125.472 143.143 125.12C142.802 124.768 142.53 124.336 142.327 123.824C142.125 123.312 142.023 122.731 142.023 122.08C142.023 121.429 142.125 120.848 142.327 120.336C142.53 119.824 142.802 119.392 143.143 119.04C143.495 118.688 143.895 118.421 144.343 118.24C144.791 118.048 145.261 117.952 145.751 117.952C146.242 117.952 146.711 118.048 147.159 118.24C147.618 118.421 148.018 118.688 148.359 119.04C148.701 119.392 148.973 119.824 149.175 120.336C149.389 120.848 149.495 121.429 149.495 122.08C149.495 122.731 149.389 123.312 149.175 123.824C148.973 124.336 148.701 124.768 148.359 125.12C148.018 125.472 147.618 125.739 147.159 125.92C146.711 126.101 146.242 126.192 145.751 126.192ZM145.751 124.688C146.327 124.688 146.781 124.453 147.111 123.984C147.442 123.504 147.607 122.869 147.607 122.08C147.607 121.28 147.442 120.645 147.111 120.176C146.781 119.696 146.327 119.456 145.751 119.456C145.175 119.456 144.722 119.696 144.391 120.176C144.071 120.645 143.911 121.28 143.911 122.08C143.911 122.869 144.071 123.504 144.391 123.984C144.722 124.453 145.175 124.688 145.751 124.688ZM153.033 126.192C152.34 126.192 151.78 125.984 151.353 125.568C150.926 125.141 150.713 124.581 150.713 123.888C150.713 123.472 150.798 123.104 150.969 122.784C151.15 122.453 151.428 122.171 151.801 121.936C152.185 121.701 152.665 121.504 153.241 121.344C153.828 121.184 154.526 121.061 155.337 120.976C155.326 120.773 155.294 120.581 155.241 120.4C155.198 120.208 155.118 120.043 155.001 119.904C154.894 119.755 154.75 119.643 154.569 119.568C154.388 119.483 154.164 119.44 153.897 119.44C153.513 119.44 153.134 119.515 152.761 119.664C152.398 119.813 152.041 119.995 151.689 120.208L151.017 118.976C151.454 118.699 151.945 118.459 152.489 118.256C153.033 118.053 153.62 117.952 154.249 117.952C155.23 117.952 155.961 118.245 156.441 118.832C156.932 119.408 157.177 120.245 157.177 121.344V126H155.657L155.529 125.136H155.465C155.113 125.435 154.734 125.685 154.329 125.888C153.934 126.091 153.502 126.192 153.033 126.192ZM153.625 124.752C153.945 124.752 154.233 124.677 154.489 124.528C154.756 124.379 155.038 124.165 155.337 123.888V122.128C154.804 122.192 154.356 122.277 153.993 122.384C153.63 122.491 153.337 122.613 153.113 122.752C152.889 122.88 152.729 123.029 152.633 123.2C152.537 123.371 152.489 123.552 152.489 123.744C152.489 124.096 152.596 124.352 152.809 124.512C153.022 124.672 153.294 124.752 153.625 124.752ZM162.131 126.192C161.139 126.192 160.35 125.835 159.763 125.12C159.187 124.395 158.899 123.381 158.899 122.08C158.899 121.44 158.99 120.864 159.171 120.352C159.363 119.84 159.614 119.408 159.923 119.056C160.232 118.704 160.584 118.432 160.979 118.24C161.384 118.048 161.8 117.952 162.227 117.952C162.675 117.952 163.054 118.032 163.363 118.192C163.672 118.341 163.982 118.549 164.291 118.816L164.227 117.552V114.704H166.067V126H164.547L164.419 125.152H164.355C164.067 125.44 163.731 125.685 163.347 125.888C162.963 126.091 162.558 126.192 162.131 126.192ZM162.579 124.672C163.166 124.672 163.715 124.379 164.227 123.792V120.128C163.95 119.883 163.678 119.712 163.411 119.616C163.155 119.52 162.894 119.472 162.627 119.472C162.115 119.472 161.683 119.696 161.331 120.144C160.979 120.592 160.803 121.232 160.803 122.064C160.803 122.917 160.952 123.568 161.251 124.016C161.56 124.453 162.003 124.672 162.579 124.672Z" fill="#6B7280"/>
<rect x="1.5" y="1" width="200" height="200" rx="100" stroke="#E5E7EB" stroke-width="2" stroke-linecap="round" stroke-dasharray="5 5"/>
</svg>
