<svg width="8" height="8" viewBox="0 0 8 8" fill="none" xmlns="http://www.w3.org/2000/svg">
<path fill-rule="evenodd" clip-rule="evenodd" d="M7.99999 4.00002C7.99999 4.9548 7.6207 5.87048 6.94557 6.54561C6.27044 7.22074 5.35477 7.60002 4.39999 7.60002C3.44521 7.60002 2.52953 7.22074 1.8544 6.54561C1.17927 5.87048 0.799988 4.9548 0.799988 4.00002C0.799988 3.04524 1.17927 2.12957 1.8544 1.45444C2.52953 0.779309 3.44521 0.400024 4.39999 0.400024C5.35477 0.400024 6.27044 0.779309 6.94557 1.45444C7.6207 2.12957 7.99999 3.04524 7.99999 4.00002ZM4.84999 2.20002C4.84999 2.31937 4.80258 2.43383 4.71819 2.51822C4.63379 2.60261 4.51933 2.65002 4.39999 2.65002C4.28064 2.65002 4.16618 2.60261 4.08179 2.51822C3.9974 2.43383 3.94999 2.31937 3.94999 2.20002C3.94999 2.08068 3.9974 1.96622 4.08179 1.88183C4.16618 1.79743 4.28064 1.75002 4.39999 1.75002C4.51933 1.75002 4.63379 1.79743 4.71819 1.88183C4.80258 1.96622 4.84999 2.08068 4.84999 2.20002ZM3.94999 3.55002C3.83064 3.55002 3.71618 3.59743 3.63179 3.68183C3.5474 3.76622 3.49999 3.88068 3.49999 4.00002C3.49999 4.11937 3.5474 4.23383 3.63179 4.31822C3.71618 4.40261 3.83064 4.45002 3.94999 4.45002V5.80002C3.94999 5.91937 3.9974 6.03383 4.08179 6.11822C4.16618 6.20261 4.28064 6.25002 4.39999 6.25002H4.84999C4.96933 6.25002 5.08379 6.20261 5.16819 6.11822C5.25258 6.03383 5.29999 5.91937 5.29999 5.80002C5.29999 5.68068 5.25258 5.56622 5.16819 5.48183C5.08379 5.39743 4.96933 5.35002 4.84999 5.35002V4.00002C4.84999 3.88068 4.80258 3.76622 4.71819 3.68183C4.63379 3.59743 4.51933 3.55002 4.39999 3.55002H3.94999Z" fill="#1F2A37"/>
</svg>
