<svg width="9" height="8" viewBox="0 0 9 8" fill="none" xmlns="http://www.w3.org/2000/svg">
<path fill-rule="evenodd" clip-rule="evenodd" d="M8.1 4.00002C8.1 4.9548 7.72072 5.87048 7.04559 6.54561C6.37045 7.22074 5.45478 7.60002 4.5 7.60002C3.54522 7.60002 2.62955 7.22074 1.95442 6.54561C1.27929 5.87048 0.900002 4.9548 0.900002 4.00002C0.900002 3.04524 1.27929 2.12957 1.95442 1.45444C2.62955 0.779309 3.54522 0.400024 4.5 0.400024C5.45478 0.400024 6.37045 0.779309 7.04559 1.45444C7.72072 2.12957 8.1 3.04524 8.1 4.00002V4.00002ZM4.95 2.20002C4.95 2.31937 4.90259 2.43383 4.8182 2.51822C4.73381 2.60261 4.61935 2.65002 4.5 2.65002C4.38065 2.65002 4.26619 2.60261 4.1818 2.51822C4.09741 2.43383 4.05 2.31937 4.05 2.20002C4.05 2.08068 4.09741 1.96622 4.1818 1.88183C4.26619 1.79743 4.38065 1.75002 4.5 1.75002C4.61935 1.75002 4.73381 1.79743 4.8182 1.88183C4.90259 1.96622 4.95 2.08068 4.95 2.20002ZM4.05 3.55002C3.93065 3.55002 3.81619 3.59743 3.7318 3.68183C3.64741 3.76622 3.6 3.88068 3.6 4.00002C3.6 4.11937 3.64741 4.23383 3.7318 4.31822C3.81619 4.40261 3.93065 4.45002 4.05 4.45002V5.80002C4.05 5.91937 4.09741 6.03383 4.1818 6.11822C4.26619 6.20261 4.38065 6.25002 4.5 6.25002H4.95C5.06935 6.25002 5.18381 6.20261 5.2682 6.11822C5.35259 6.03383 5.4 5.91937 5.4 5.80002C5.4 5.68068 5.35259 5.56622 5.2682 5.48183C5.18381 5.39743 5.06935 5.35002 4.95 5.35002V4.00002C4.95 3.88068 4.90259 3.76622 4.8182 3.68183C4.73381 3.59743 4.61935 3.55002 4.5 3.55002H4.05Z" fill="#D96EF2"/>
</svg>
