<svg width="20" height="21" viewBox="0 0 20 21" fill="none" xmlns="http://www.w3.org/2000/svg">
<path d="M17.5 18L12.5 13M14.1667 8.83333C14.1667 9.59938 14.0158 10.3579 13.7226 11.0657C13.4295 11.7734 12.9998 12.4164 12.4581 12.9581C11.9164 13.4998 11.2734 13.9295 10.5657 14.2226C9.85792 14.5158 9.09938 14.6667 8.33333 14.6667C7.56729 14.6667 6.80875 14.5158 6.10101 14.2226C5.39328 13.9295 4.75022 13.4998 4.20854 12.9581C3.66687 12.4164 3.23719 11.7734 2.94404 11.0657C2.65088 10.3579 2.5 9.59938 2.5 8.83333C2.5 7.28624 3.11458 5.80251 4.20854 4.70854C5.30251 3.61458 6.78624 3 8.33333 3C9.88043 3 11.3642 3.61458 12.4581 4.70854C13.5521 5.80251 14.1667 7.28624 14.1667 8.83333Z" stroke="#111928" stroke-width="2" stroke-linecap="round" stroke-linejoin="round"/>
</svg>
