<svg width="43" height="24" viewBox="0 0 43 24" fill="none" xmlns="http://www.w3.org/2000/svg">
<path d="M29.7599 1.58076C29.2462 2.13058 29.2976 2.95533 29.7599 3.50515L35.9754 9.82818L1.23283 9.82818C0.513683 9.82818 3.36106e-06 10.378 3.32741e-06 11.1478L3.2505e-06 12.9072C3.21926e-06 13.622 0.513683 14.2268 1.23283 14.2268L35.9754 14.2268L29.8113 20.4948C29.2976 21.0447 29.2976 21.8694 29.7599 22.4192L30.89 23.6289C31.4037 24.1237 32.1742 24.1237 32.6365 23.6289L42.6533 12.9072C43.1156 12.4124 43.1156 11.5876 42.6533 11.0928L32.6365 0.371134C32.1742 -0.123712 31.4037 -0.123712 30.89 0.371134L29.7599 1.58076Z" fill="#52525B"/>
</svg>
