<svg width="24" height="34" viewBox="0 0 24 34" fill="none" xmlns="http://www.w3.org/2000/svg">
<path d="M22.4192 20.0517C21.8694 19.538 21.0447 19.5893 20.4948 20.0517L14.1718 26.2672L14.1718 1.52458C14.1718 0.805431 13.622 0.291751 12.8522 0.291751L11.0928 0.291751C10.378 0.291751 9.7732 0.80543 9.7732 1.52458L9.7732 26.2672L3.50515 20.103C2.95533 19.5893 2.13058 19.5893 1.58076 20.0517L0.371135 21.1818C-0.12371 21.6954 -0.12371 22.466 0.371135 22.9283L11.0928 32.945C11.5876 33.4073 12.4124 33.4073 12.9072 32.945L23.6289 22.9283C24.1237 22.466 24.1237 21.6954 23.6289 21.1818L22.4192 20.0517Z" fill="#D1D5DB"/>
</svg>
