<svg xmlns="http://www.w3.org/2000/svg" width="100%" height="100%" viewBox="0 0 65 62" fill="none">
<path d="M4.64893 35.7024C6.11377 37.0793 8.31104 36.9417 9.77588 35.7024L26.6216 19.0413V58.5598C26.6216 60.4875 28.0864 61.8645 30.1372 61.8645H34.8247C36.729 61.8645 38.3403 60.4875 38.3403 58.5598V19.0413L55.0396 35.5647C56.5044 36.9417 58.7017 36.9417 60.1665 35.7024L63.3892 32.6731C64.7075 31.2961 64.7075 29.2307 63.3892 27.9915L34.8247 1.14087C33.5064 -0.0983887 31.3091 -0.0983887 29.9907 1.14087L1.42627 27.9915C0.10791 29.2307 0.10791 31.2961 1.42627 32.6731L4.64893 35.7024Z" fill="currentColor"/>
</svg>
