<svg width="24" height="24" viewBox="0 0 24 24" fill="none" xmlns="http://www.w3.org/2000/svg">
    <rect x="4" y="4" width="16" height="16" rx="1" stroke="white" stroke-width="2"/>
    <path d="M8.41699 12.0903L8.94732 11.56L8.41699 11.0297L7.88666 11.56L8.41699 12.0903ZM11.913 15.5864L12.4434 16.1167L12.9737 15.5864L12.4434 15.056L11.913 15.5864ZM7.88666 12.6207L11.3827 16.1167L12.4434 15.056L8.94732 11.56L7.88666 12.6207ZM11.3827 15.056L10.2174 16.2214L11.278 17.2821L12.4434 16.1167L11.3827 15.056ZM7.78197 13.786L8.94732 12.6207L7.88666 11.56L6.72131 12.7253L7.78197 13.786ZM7.78198 16.2214C7.10946 15.5489 7.10946 14.4585 7.78197 13.786L6.72131 12.7253C5.46302 13.9836 5.46302 16.0238 6.72132 17.2821L7.78198 16.2214ZM10.2174 16.2214C9.54484 16.8939 8.45449 16.8939 7.78198 16.2214L6.72132 17.2821C7.97961 18.5403 10.0197 18.5403 11.278 17.2821L10.2174 16.2214Z" fill="white"/>
    <path d="M9.4999 12.4996L11.1479 10.8516" stroke="white" stroke-width="1.5"/>
    <path d="M11.4994 14.5001L13.1475 12.8521" stroke="white" stroke-width="1.5"/>
    <path d="M4.5 19.5L7.5 16.5" stroke="white" stroke-width="1.5"/>
    <path d="M12 8.5L11.4697 9.03033L10.9393 8.5L11.4697 7.96967L12 8.5ZM15.496 11.996L16.0264 12.5264L15.496 13.0567L14.9657 12.5264L15.496 11.996ZM12.5303 7.96967L16.0264 11.4657L14.9657 12.5264L11.4697 9.03033L12.5303 7.96967ZM14.9657 11.4657L16.1311 10.3004L17.1917 11.361L16.0264 12.5264L14.9657 11.4657ZM13.6957 7.86498L12.5303 9.03033L11.4697 7.96967L12.635 6.80432L13.6957 7.86498ZM16.1311 7.86498C15.4585 7.19247 14.3682 7.19247 13.6957 7.86498L12.635 6.80432C13.8933 5.54602 15.9334 5.54602 17.1917 6.80432L16.1311 7.86498ZM16.1311 10.3004C16.8036 9.62785 16.8036 8.5375 16.1311 7.86498L17.1917 6.80432C18.45 8.06262 18.45 10.1027 17.1917 11.361L16.1311 10.3004Z" fill="white"/>
    <path d="M19 5L16.5 7.5" stroke="white" stroke-width="1.5"/>
</svg>
