<svg width="24" height="24" viewBox="0 0 24 24" fill="none" xmlns="http://www.w3.org/2000/svg">
    <path d="M18.2222 20H5.77778C5.30628 20 4.8541 19.7893 4.5207 19.4142C4.1873 19.0391 4 18.5304 4 18V6C4 5.46957 4.1873 4.96086 4.5207 4.58579C4.8541 4.21071 5.30628 4 5.77778 4H18.2222C18.6937 4 19.1459 4.21071 19.4793 4.58579C19.8127 4.96086 20 5.46957 20 6V18C20 18.5304 19.8127 19.0391 19.4793 19.4142C19.1459 19.7893 18.6937 20 18.2222 20Z" stroke="white" stroke-width="2" stroke-linecap="round" stroke-linejoin="round"/>
    <path d="M17 17L15 15M16.3333 11.6667C16.3333 12.2795 16.2126 12.8863 15.9781 13.4525C15.7436 14.0187 15.3998 14.5332 14.9665 14.9665C14.5332 15.3998 14.0187 15.7436 13.4525 15.9781C12.8863 16.2126 12.2795 16.3333 11.6667 16.3333C11.0538 16.3333 10.447 16.2126 9.88081 15.9781C9.31462 15.7436 8.80018 15.3998 8.36683 14.9665C7.93349 14.5332 7.58975 14.0187 7.35523 13.4525C7.12071 12.8863 7 12.2795 7 11.6667C7 10.429 7.49167 9.242 8.36683 8.36683C9.242 7.49167 10.429 7 11.6667 7C12.9043 7 14.0913 7.49167 14.9665 8.36683C15.8417 9.242 16.3333 10.429 16.3333 11.6667Z" stroke="white" stroke-width="2" stroke-linecap="round" stroke-linejoin="round"/>
</svg>
