<svg viewBox="0 0 14 14" fill="none" xmlns="http://www.w3.org/2000/svg">
<path fill-rule="evenodd" clip-rule="evenodd" d="M10.9598 10.9602C9.90962 12.0104 8.48524 12.6004 7.00002 12.6004C5.51481 12.6004 4.09043 12.0104 3.04023 10.9602C1.99002 9.90999 1.40002 8.4856 1.40002 7.00039C1.40002 5.51518 1.99002 4.0908 3.04023 3.04059C4.09043 1.99039 5.51481 1.40039 7.00002 1.40039C8.48524 1.40039 9.90962 1.99039 10.9598 3.04059C12.01 4.0908 12.6 5.51518 12.6 7.00039C12.6 8.4856 12.01 9.90999 10.9598 10.9602ZM4.90002 6.30039C4.51342 6.30039 4.20002 5.98699 4.20002 5.60039C4.20002 5.21379 4.51343 4.90039 4.90002 4.90039L9.10002 4.90039C9.48662 4.90039 9.80002 5.21379 9.80002 5.60039C9.80002 5.98699 9.48662 6.30039 9.10002 6.30039H4.90002ZM4.90002 9.10039C4.51342 9.10039 4.20002 8.78699 4.20002 8.40039C4.20002 8.01379 4.51343 7.70039 4.90002 7.70039H9.10002C9.48662 7.70039 9.80002 8.01379 9.80002 8.40039C9.80002 8.78699 9.48662 9.10039 9.10002 9.10039H4.90002Z" fill="currentColor"/>
</svg>
