<svg width="16" height="16" viewBox="0 0 16 16" fill="none" xmlns="http://www.w3.org/2000/svg">
<path fill-rule="evenodd" clip-rule="evenodd" d="M15.6004 8.00039C15.6004 10.016 14.7997 11.9491 13.3744 13.3744C11.9491 14.7997 10.016 15.6004 8.00039 15.6004C5.98475 15.6004 4.05166 14.7997 2.62638 13.3744C1.2011 11.9491 0.400391 10.016 0.400391 8.00039C0.400391 5.98475 1.2011 4.05166 2.62638 2.62638C4.05166 1.2011 5.98475 0.400391 8.00039 0.400391C10.016 0.400391 11.9491 1.2011 13.3744 2.62638C14.7997 4.05166 15.6004 5.98475 15.6004 8.00039ZM8.95039 11.8004C8.95039 12.0523 8.8503 12.294 8.67214 12.4721C8.49398 12.6503 8.25235 12.7504 8.00039 12.7504C7.74844 12.7504 7.5068 12.6503 7.32864 12.4721C7.15048 12.294 7.05039 12.0523 7.05039 11.8004C7.05039 11.5484 7.15048 11.3068 7.32864 11.1286C7.5068 10.9505 7.74844 10.8504 8.00039 10.8504C8.25235 10.8504 8.49398 10.9505 8.67214 11.1286C8.8503 11.3068 8.95039 11.5484 8.95039 11.8004ZM8.00039 3.25039C7.74844 3.25039 7.5068 3.35048 7.32864 3.52864C7.15048 3.7068 7.05039 3.94844 7.05039 4.20039V8.00039C7.05039 8.25235 7.15048 8.49398 7.32864 8.67214C7.5068 8.8503 7.74844 8.95039 8.00039 8.95039C8.25235 8.95039 8.49398 8.8503 8.67214 8.67214C8.8503 8.49398 8.95039 8.25235 8.95039 8.00039V4.20039C8.95039 3.94844 8.8503 3.7068 8.67214 3.52864C8.49398 3.35048 8.25235 3.25039 8.00039 3.25039Z" fill="currentColor"/>
</svg>
