<svg xmlns="http://www.w3.org/2000/svg" width="17" height="15" viewBox="0 0 17 15" fill="none">
<path d="M3.18744 1.5C3.18744 1.23478 3.0755 0.98043 2.87624 0.792893C2.67698 0.605357 2.40673 0.5 2.12493 0.5C1.84313 0.5 1.57288 0.605357 1.37362 0.792893C1.17436 0.98043 1.06242 1.23478 1.06242 1.5V8.768C0.739399 8.94354 0.471165 9.19602 0.284672 9.50004C0.0981798 9.80407 0 10.1489 0 10.5C0 10.8511 0.0981798 11.1959 0.284672 11.5C0.471165 11.804 0.739399 12.0565 1.06242 12.232V13.5C1.06242 13.7652 1.17436 14.0196 1.37362 14.2071C1.57288 14.3946 1.84313 14.5 2.12493 14.5C2.40673 14.5 2.67698 14.3946 2.87624 14.2071C3.0755 14.0196 3.18744 13.7652 3.18744 13.5V12.232C3.51046 12.0565 3.7787 11.804 3.96519 11.5C4.15168 11.1959 4.24986 10.8511 4.24986 10.5C4.24986 10.1489 4.15168 9.80407 3.96519 9.50004C3.7787 9.19602 3.51046 8.94354 3.18744 8.768V1.5ZM9.56251 1.5C9.56251 1.23478 9.45057 0.98043 9.25131 0.792893C9.05205 0.605357 8.7818 0.5 8.5 0.5C8.2182 0.5 7.94795 0.605357 7.74869 0.792893C7.54943 0.98043 7.43749 1.23478 7.43749 1.5V2.768C7.11447 2.94354 6.84624 3.19602 6.65974 3.50004C6.47325 3.80407 6.37507 4.14894 6.37507 4.5C6.37507 4.85106 6.47325 5.19593 6.65974 5.49996C6.84624 5.80398 7.11447 6.05646 7.43749 6.232V13.5C7.43749 13.7652 7.54943 14.0196 7.74869 14.2071C7.94795 14.3946 8.2182 14.5 8.5 14.5C8.7818 14.5 9.05205 14.3946 9.25131 14.2071C9.45057 14.0196 9.56251 13.7652 9.56251 13.5V6.232C9.88553 6.05646 10.1538 5.80398 10.3403 5.49996C10.5267 5.19593 10.6249 4.85106 10.6249 4.5C10.6249 4.14894 10.5267 3.80407 10.3403 3.50004C10.1538 3.19602 9.88553 2.94354 9.56251 2.768V1.5ZM14.8751 0.5C15.1569 0.5 15.4271 0.605357 15.6264 0.792893C15.8256 0.98043 15.9376 1.23478 15.9376 1.5V8.768C16.2606 8.94354 16.5288 9.19602 16.7153 9.50004C16.9018 9.80407 17 10.1489 17 10.5C17 10.8511 16.9018 11.1959 16.7153 11.5C16.5288 11.804 16.2606 12.0565 15.9376 12.232V13.5C15.9376 13.7652 15.8256 14.0196 15.6264 14.2071C15.4271 14.3946 15.1569 14.5 14.8751 14.5C14.5933 14.5 14.323 14.3946 14.1238 14.2071C13.9245 14.0196 13.8126 13.7652 13.8126 13.5V12.232C13.4895 12.0565 13.2213 11.804 13.0348 11.5C12.8483 11.1959 12.7501 10.8511 12.7501 10.5C12.7501 10.1489 12.8483 9.80407 13.0348 9.50004C13.2213 9.19602 13.4895 8.94354 13.8126 8.768V1.5C13.8126 1.23478 13.9245 0.98043 14.1238 0.792893C14.323 0.605357 14.5933 0.5 14.8751 0.5Z" fill="#6B7280"/>
</svg>