<svg width="23" height="20" viewBox="0 0 23 20" fill="none" xmlns="http://www.w3.org/2000/svg">
<path d="M4.28559 1.42857C4.28559 1.04969 4.13508 0.686328 3.86717 0.418419C3.59926 0.15051 3.2359 0 2.85702 0C2.47814 0 2.11477 0.15051 1.84686 0.418419C1.57896 0.686328 1.42845 1.04969 1.42845 1.42857V11.8114C0.994139 12.0622 0.633492 12.4229 0.382748 12.8572C0.132005 13.2915 0 13.7842 0 14.2857C0 14.7872 0.132005 15.2799 0.382748 15.7142C0.633492 16.1485 0.994139 16.5092 1.42845 16.76V18.5714C1.42845 18.9503 1.57896 19.3137 1.84686 19.5816C2.11477 19.8495 2.47814 20 2.85702 20C3.2359 20 3.59926 19.8495 3.86717 19.5816C4.13508 19.3137 4.28559 18.9503 4.28559 18.5714V16.76C4.71989 16.5092 5.08054 16.1485 5.33129 15.7142C5.58203 15.2799 5.71403 14.7872 5.71403 14.2857C5.71403 13.7842 5.58203 13.2915 5.33129 12.8572C5.08054 12.4229 4.71989 12.0622 4.28559 11.8114V1.42857ZM12.857 1.42857C12.857 1.04969 12.7065 0.686328 12.4386 0.418419C12.1707 0.15051 11.8073 0 11.4284 0C11.0496 0 10.6862 0.15051 10.4183 0.418419C10.1504 0.686328 9.99987 1.04969 9.99987 1.42857V3.24C9.56557 3.49078 9.20492 3.85145 8.95418 4.28578C8.70343 4.7201 8.57143 5.21278 8.57143 5.71429C8.57143 6.21579 8.70343 6.70847 8.95418 7.14279C9.20492 7.57712 9.56557 7.9378 9.99987 8.18857V18.5714C9.99987 18.9503 10.1504 19.3137 10.4183 19.5816C10.6862 19.8495 11.0496 20 11.4284 20C11.8073 20 12.1707 19.8495 12.4386 19.5816C12.7065 19.3137 12.857 18.9503 12.857 18.5714V8.18857C13.2913 7.9378 13.652 7.57712 13.9027 7.14279C14.1535 6.70847 14.2855 6.21579 14.2855 5.71429C14.2855 5.21278 14.1535 4.7201 13.9027 4.28578C13.652 3.85145 13.2913 3.49078 12.857 3.24V1.42857ZM19.9999 0C20.3788 0 20.7421 0.15051 21.01 0.418419C21.2779 0.686328 21.4284 1.04969 21.4284 1.42857V11.8114C21.8628 12.0622 22.2234 12.4229 22.4741 12.8572C22.7249 13.2915 22.8569 13.7842 22.8569 14.2857C22.8569 14.7872 22.7249 15.2799 22.4741 15.7142C22.2234 16.1485 21.8628 16.5092 21.4284 16.76V18.5714C21.4284 18.9503 21.2779 19.3137 21.01 19.5816C20.7421 19.8495 20.3788 20 19.9999 20C19.621 20 19.2576 19.8495 18.9897 19.5816C18.7218 19.3137 18.5713 18.9503 18.5713 18.5714V16.76C18.137 16.5092 17.7763 16.1485 17.5256 15.7142C17.2749 15.2799 17.1429 14.7872 17.1429 14.2857C17.1429 13.7842 17.2749 13.2915 17.5256 12.8572C17.7763 12.4229 18.137 12.0622 18.5713 11.8114V1.42857C18.5713 1.04969 18.7218 0.686328 18.9897 0.418419C19.2576 0.15051 19.621 0 19.9999 0Z" fill="currentColor"/>
</svg>
