<svg width="16" height="14" viewBox="0 0 16 14" fill="none" xmlns="http://www.w3.org/2000/svg">
<path d="M14.5 0H1.5C0.671875 0 0 0.671875 0 1.5V12.5C0 13.3281 0.671875 14 1.5 14H14.5C15.3281 14 16 13.3281 16 12.5V1.5C16 0.671875 15.3281 0 14.5 0ZM4 3.625C4 3.83125 3.83125 4 3.625 4H2.375C2.16875 4 2 3.83125 2 3.625V2.375C2 2.16875 2.16875 2 2.375 2H3.625C3.83125 2 4 2.16875 4 2.375V3.625ZM14 3.625C14 3.83125 13.8313 4 13.625 4H5.875C5.66875 4 5.5 3.83125 5.5 3.625V2.375C5.5 2.16875 5.66875 2 5.875 2H13.625C13.8313 2 14 2.16875 14 2.375V3.625Z" fill="white" />
</svg>
