<svg width="21" height="22" viewBox="0 0 21 22" fill="currentColor" xmlns="http://www.w3.org/2000/svg">
<path d="M0.5 21.4133C0.55147 21.0947 0.701708 20.8002 0.92951 20.5715C1.15731 20.3429 1.45118 20.1915 1.76963 20.1388C1.93197 20.1388 1.95822 19.0947 1.98933 11.3273C2.02433 2.57794 2.02627 2.51184 2.28584 2.02771C2.58128 1.41016 3.08094 0.913593 3.70031 0.621983C4.18055 0.404222 4.52955 0.386719 8.42689 0.386719C13.1642 0.386719 13.2322 0.397416 14.0235 1.2986C14.7828 2.16381 14.7692 2.0413 14.7692 8.04918V13.5292L15.3603 13.6711C15.9603 13.8258 16.4903 14.1789 16.864 14.6732C17.2377 15.1675 17.4331 15.7737 17.4183 16.3931C17.5009 17.375 17.7235 17.7046 18.3059 17.7046C18.531 17.6957 18.7463 17.6095 18.9154 17.4605C19.1507 17.2253 19.1594 17.0542 19.1594 12.6426C19.1594 8.70636 19.1341 8.0735 18.9805 8.0735C18.6967 8.0735 17.9491 7.35021 17.673 6.80969C17.4633 6.40862 17.3981 5.94759 17.4883 5.5041L17.5563 4.69333L17.0158 4.16254C16.4442 3.60161 16.3402 3.22539 16.6668 2.89875C17.0732 2.49239 17.36 2.66446 18.9514 4.27239L20.5 5.83755V11.3788C20.5 14.8678 20.4524 17.0882 20.3717 17.3789C20.1467 18.0286 19.6826 18.5681 19.0739 18.8877C18.6489 19.0379 18.1909 19.0685 17.7498 18.9761C17.3087 18.8836 16.9014 18.6718 16.5725 18.3637C16.1863 17.861 15.9809 17.2428 15.9892 16.609C15.9967 16.3071 15.9506 16.0062 15.8531 15.7204C15.7675 15.5486 15.6452 15.3978 15.4949 15.2785C15.3445 15.1592 15.1698 15.0744 14.9831 15.0302C14.7886 15.0302 14.7692 15.2295 14.7692 17.5889V20.1505H15.0861C15.3287 20.1709 15.5631 20.2483 15.7702 20.3763C15.9773 20.5043 16.1513 20.6795 16.278 20.8874C16.7378 21.6651 17.2851 21.6145 8.48911 21.6145C1.35549 21.6145 0.5 21.5941 0.5 21.4259V21.4133ZM12.5469 5.82006C12.5741 3.58412 12.5469 3.1029 12.3913 2.86278L12.2027 2.57113H8.43273C5.16825 2.57113 4.64135 2.5964 4.47122 2.76556C4.3011 2.93471 4.27679 3.37413 4.27679 5.75492V8.55276L8.39287 8.52068L12.5089 8.48858L12.5469 5.82006Z" fill="currentColor"/>
</svg>
