<svg width="17" height="18" viewBox="0 0 17 18" fill="none" xmlns="http://www.w3.org/2000/svg">
<path d="M8.5 0.5C3.80508 0.5 0 4.30508 0 9C0 13.6949 3.80508 17.5 8.5 17.5C13.1949 17.5 17 13.6949 17 9C17 4.30508 13.1949 0.5 8.5 0.5ZM8.5 13.7812C7.90234 13.7812 7.4375 13.3164 7.4375 12.7188C7.4375 12.1211 7.87246 11.6562 8.5 11.6562C9.06777 11.6562 9.5625 12.1211 9.5625 12.7188C9.5625 13.3164 9.06777 13.7812 8.5 13.7812ZM10.7943 9.06641L9.29688 9.99609V10.0625C9.29688 10.4941 8.93164 10.8594 8.5 10.8594C8.06836 10.8594 7.70312 10.4941 7.70312 10.0625V9.53125C7.70312 9.26562 7.83594 9 8.10156 8.83398L9.99414 7.70508C10.2266 7.57227 10.3594 7.33984 10.3594 7.07422C10.3594 6.67578 9.99746 6.34375 9.59902 6.34375H7.90234C7.47402 6.34375 7.17188 6.67578 7.17188 7.07422C7.17188 7.50586 6.80664 7.87109 6.375 7.87109C5.94336 7.87109 5.57812 7.50586 5.57812 7.07422C5.57812 5.7793 6.60742 4.75 7.87246 4.75H9.56914C10.9238 4.75 11.9531 5.7793 11.9531 7.07422C11.9531 7.87109 11.5215 8.63477 10.7943 9.06641Z" fill="currentColor"/>
</svg>
