<svg width="16" height="16" viewBox="0 0 16 16" fill="none" xmlns="http://www.w3.org/2000/svg">
<path d="M14.3125 7.06238H12.9062C12.388 7.06238 11.9687 7.4822 11.9687 7.99988C11.9687 8.51755 12.388 8.93738 12.9062 8.93738H14.3125C14.8308 8.93738 15.25 8.51755 15.25 7.99988C15.25 7.4822 14.8311 7.06238 14.3125 7.06238ZM7.75 3.78113C8.26768 3.78113 8.6875 3.36189 8.6875 2.84363V1.43738C8.6875 0.919116 8.26768 0.499878 7.75 0.499878C7.23232 0.499878 6.8125 0.919116 6.8125 1.43738V2.84363C6.8125 3.36189 7.23145 3.78113 7.75 3.78113ZM3.53125 7.99988C3.53125 7.4822 3.11201 7.06238 2.59375 7.06238H1.1875C0.669238 7.06238 0.25 7.48132 0.25 7.99988C0.25 8.51843 0.669238 8.93738 1.1875 8.93738H2.59375C3.11201 8.93738 3.53125 8.51843 3.53125 7.99988ZM12.0596 5.01746L13.0539 4.02312C13.4204 3.65662 13.4201 3.06335 13.054 2.69744C12.688 2.33152 12.0946 2.33093 11.7281 2.69739L10.7337 3.69173C10.3672 4.05823 10.3675 4.65149 10.7336 5.01741C11.0986 5.38367 11.6934 5.38367 12.0596 5.01746ZM3.44043 5.01746C3.80693 5.38396 4.4002 5.38337 4.76641 5.01741C5.13262 4.6512 5.13262 4.05794 4.76627 3.69173L3.77148 2.69656C3.40498 2.33005 2.81172 2.33064 2.44551 2.6966C2.0793 3.06257 2.08018 3.65515 2.44668 4.02136L3.44043 5.01746ZM7.75 5.18738C6.1709 5.18738 4.9375 6.42078 4.9375 7.99988C4.9375 9.5532 6.19668 10.8124 7.75 10.8124C9.30332 10.8124 10.5625 9.5532 10.5625 7.99988C10.5625 6.42078 9.30273 5.18738 7.75 5.18738ZM12.0596 10.9823C11.6931 10.6158 11.0998 10.6164 10.7336 10.9824C10.3674 11.3486 10.3674 11.9418 10.7337 12.3081L11.7281 13.3024C12.0946 13.6689 12.6878 13.6683 13.054 13.3023C13.4203 12.9364 13.4203 12.3429 13.0539 11.9767L12.0596 10.9823ZM3.44043 10.9823L2.44609 11.9766C2.07959 12.3431 2.07988 12.9364 2.44596 13.3023C2.81203 13.6682 3.40543 13.6688 3.77193 13.3024L4.76627 12.308C5.13277 11.9415 5.13248 11.3483 4.76641 10.9823C4.40137 10.6161 3.80664 10.6161 3.44043 10.9823ZM7.75 12.2186C7.23232 12.2186 6.8125 12.6379 6.8125 13.1561V14.5624C6.8125 15.0806 7.23232 15.4999 7.75 15.4999C8.26768 15.4999 8.6875 15.0806 8.6875 14.5624V13.1561C8.6875 12.6376 8.26855 12.2186 7.75 12.2186Z" fill="#3535DC"/>
</svg>
