<svg width="10" height="11" viewBox="0 0 10 11" fill="none" xmlns="http://www.w3.org/2000/svg">
<path d="M9.71875 0.771484L6.53125 0.774805C6.45666 0.774805 6.38512 0.804436 6.33238 0.857181C6.27963 0.909926 6.25 0.981463 6.25 1.05605V1.70664C6.24999 1.74406 6.25745 1.7811 6.27194 1.81559C6.28642 1.85009 6.30765 1.88135 6.33437 1.90754C6.36109 1.93374 6.39277 1.95433 6.42754 1.96813C6.46232 1.98193 6.49951 1.98864 6.53691 1.98789L7.975 1.93477L8.01523 1.975L2.56875 7.42168C2.5469 7.44345 2.52956 7.46933 2.51773 7.49782C2.5059 7.5263 2.49982 7.55685 2.49982 7.5877C2.49982 7.61854 2.5059 7.64909 2.51773 7.67757C2.52956 7.70606 2.5469 7.73194 2.56875 7.75371L3.01797 8.20293C3.03974 8.22478 3.06562 8.24212 3.09411 8.25395C3.12259 8.26578 3.15314 8.27186 3.18398 8.27186C3.21483 8.27186 3.24538 8.26578 3.27386 8.25395C3.30235 8.24212 3.32823 8.22478 3.35 8.20293L8.79648 2.75625L8.83672 2.79648L8.78359 4.23457C8.78284 4.27198 8.78956 4.30916 8.80335 4.34394C8.81715 4.37872 8.83775 4.4104 8.86394 4.43712C8.89013 4.46384 8.92139 4.48506 8.95589 4.49955C8.99039 4.51403 9.02743 4.52149 9.06484 4.52148H9.71543C9.79002 4.52148 9.86156 4.49185 9.9143 4.43911C9.96705 4.38636 9.99668 4.31483 9.99668 4.24023L10 1.05273C10 0.978142 9.97037 0.906605 9.91762 0.853861C9.86488 0.801116 9.79334 0.771484 9.71875 0.771484V0.771484ZM8.4375 6.39648H8.125C8.04212 6.39648 7.96263 6.42941 7.90403 6.48801C7.84542 6.54662 7.8125 6.6261 7.8125 6.70898V9.7168C7.8125 9.74788 7.80015 9.77768 7.77818 9.79966C7.7562 9.82164 7.72639 9.83398 7.69531 9.83398H1.05469C1.02361 9.83398 0.9938 9.82164 0.971823 9.79966C0.949847 9.77768 0.9375 9.74788 0.9375 9.7168V3.07617C0.9375 3.04509 0.949847 3.01528 0.971823 2.99331C0.9938 2.97133 1.02361 2.95898 1.05469 2.95898H4.0625C4.14538 2.95898 4.22487 2.92606 4.28347 2.86746C4.34208 2.80885 4.375 2.72936 4.375 2.64648V2.33398C4.375 2.2511 4.34208 2.17162 4.28347 2.11301C4.22487 2.05441 4.14538 2.02148 4.0625 2.02148H0.9375C0.68886 2.02148 0.450403 2.12026 0.274587 2.29607C0.098772 2.47189 0 2.71034 0 2.95898L0 9.83398C0 10.0826 0.098772 10.3211 0.274587 10.4969C0.450403 10.6727 0.68886 10.7715 0.9375 10.7715H7.8125C8.06114 10.7715 8.2996 10.6727 8.47541 10.4969C8.65123 10.3211 8.75 10.0826 8.75 9.83398V6.70898C8.75 6.6261 8.71708 6.54662 8.65847 6.48801C8.59987 6.42941 8.52038 6.39648 8.4375 6.39648Z" fill="currentColor"/>
</svg>
