<svg width="15" height="18" viewBox="0 0 15 18" fill="none" xmlns="http://www.w3.org/2000/svg">
<path fill-rule="evenodd" clip-rule="evenodd" d="M2.25039 7.94961V5.84961C2.25039 4.45722 2.80351 3.12186 3.78808 2.1373C4.77265 1.15273 6.108 0.599609 7.50039 0.599609C8.89278 0.599609 10.2281 1.15273 11.2127 2.1373C12.1973 3.12186 12.7504 4.45722 12.7504 5.84961V7.94961C13.3073 7.94961 13.8415 8.17086 14.2353 8.56469C14.6291 8.95851 14.8504 9.49265 14.8504 10.0496V15.2996C14.8504 15.8566 14.6291 16.3907 14.2353 16.7845C13.8415 17.1784 13.3073 17.3996 12.7504 17.3996H2.25039C1.69344 17.3996 1.15929 17.1784 0.765466 16.7845C0.37164 16.3907 0.150391 15.8566 0.150391 15.2996V10.0496C0.150391 9.49265 0.37164 8.95851 0.765466 8.56469C1.15929 8.17086 1.69344 7.94961 2.25039 7.94961ZM10.6504 5.84961V7.94961H4.35039V5.84961C4.35039 5.01418 4.68227 4.21296 5.273 3.62222C5.86374 3.03148 6.66496 2.69961 7.50039 2.69961C8.33582 2.69961 9.13704 3.03148 9.72778 3.62222C10.3185 4.21296 10.6504 5.01418 10.6504 5.84961Z" fill="currentColor"/>
</svg>
