<svg width="16" height="16" viewBox="0 0 16 16" fill="none" xmlns="http://www.w3.org/2000/svg">
<path fill-rule="evenodd" clip-rule="evenodd" d="M15.2008 8.00078C15.2008 9.91034 14.4422 11.7417 13.0919 13.0919C11.7417 14.4422 9.91034 15.2008 8.00078 15.2008C6.09122 15.2008 4.25987 14.4422 2.90961 13.0919C1.55935 11.7417 0.800781 9.91034 0.800781 8.00078C0.800781 6.09122 1.55935 4.25987 2.90961 2.90961C4.25987 1.55935 6.09122 0.800781 8.00078 0.800781C9.91034 0.800781 11.7417 1.55935 13.0919 2.90961C14.4422 4.25987 15.2008 6.09122 15.2008 8.00078V8.00078ZM8.00078 5.30078C7.84265 5.30063 7.68727 5.34214 7.55028 5.42114C7.4133 5.50014 7.29955 5.61383 7.22048 5.75078C7.16339 5.85687 7.08558 5.95042 6.99167 6.02587C6.89775 6.10133 6.78964 6.15717 6.67375 6.19007C6.55785 6.22297 6.43653 6.23227 6.31698 6.21742C6.19742 6.20256 6.08206 6.16386 5.97775 6.10359C5.87343 6.04333 5.78227 5.96273 5.70968 5.86658C5.63709 5.77043 5.58454 5.66069 5.55515 5.54386C5.52575 5.42702 5.52012 5.30548 5.53857 5.18642C5.55703 5.06737 5.5992 4.95323 5.66258 4.85078C5.95978 4.33608 6.4185 3.93383 6.9676 3.7064C7.51671 3.47897 8.12551 3.43907 8.6996 3.5929C9.27369 3.74673 9.78098 4.08569 10.1428 4.5572C10.5046 5.02872 10.7008 5.60644 10.7008 6.20078C10.7009 6.75934 10.5279 7.3042 10.2056 7.76035C9.8832 8.21649 9.42735 8.56147 8.90078 8.74778V8.90078C8.90078 9.13948 8.80596 9.36839 8.63718 9.53718C8.46839 9.70596 8.23948 9.80078 8.00078 9.80078C7.76209 9.80078 7.53317 9.70596 7.36438 9.53718C7.1956 9.36839 7.10078 9.13948 7.10078 8.90078V8.00078C7.10078 7.76209 7.1956 7.53317 7.36438 7.36438C7.53317 7.1956 7.76209 7.10078 8.00078 7.10078C8.23948 7.10078 8.46839 7.00596 8.63718 6.83718C8.80596 6.66839 8.90078 6.43948 8.90078 6.20078C8.90078 5.96209 8.80596 5.73317 8.63718 5.56438C8.46839 5.3956 8.23948 5.30078 8.00078 5.30078ZM8.00078 12.5008C8.23948 12.5008 8.46839 12.406 8.63718 12.2372C8.80596 12.0684 8.90078 11.8395 8.90078 11.6008C8.90078 11.3621 8.80596 11.1332 8.63718 10.9644C8.46839 10.7956 8.23948 10.7008 8.00078 10.7008C7.76209 10.7008 7.53317 10.7956 7.36438 10.9644C7.1956 11.1332 7.10078 11.3621 7.10078 11.6008C7.10078 11.8395 7.1956 12.0684 7.36438 12.2372C7.53317 12.406 7.76209 12.5008 8.00078 12.5008V12.5008Z" fill="currentColor"/>
</svg>
