<svg width="16" height="16" viewBox="0 0 16 16" fill="none" xmlns="http://www.w3.org/2000/svg">
    <path fill-rule="evenodd" clip-rule="evenodd" d="M9.49024 1.17C9.11024 -0.39 6.89024 -0.39 6.51024 1.17C6.45351 1.40442 6.34223 1.62213 6.18546 1.80541C6.02869 1.9887 5.83087 2.13238 5.60808 2.22477C5.3853 2.31716 5.14384 2.35564 4.90338 2.33709C4.66291 2.31854 4.43022 2.24347 4.22424 2.118C2.85224 1.282 1.28224 2.852 2.11824 4.224C2.65824 5.11 2.17924 6.266 1.17124 6.511C-0.389762 6.89 -0.389762 9.111 1.17124 9.489C1.40572 9.54581 1.62346 9.65719 1.80675 9.81407C1.99004 9.97096 2.13368 10.1689 2.22598 10.3918C2.31828 10.6147 2.35663 10.8563 2.33791 11.0968C2.31919 11.3373 2.24392 11.5701 2.11824 11.776C1.28224 13.148 2.85224 14.718 4.22424 13.882C4.43018 13.7563 4.66289 13.6811 4.90342 13.6623C5.14396 13.6436 5.38551 13.682 5.60842 13.7743C5.83132 13.8666 6.02928 14.0102 6.18617 14.1935C6.34305 14.3768 6.45443 14.5945 6.51124 14.829C6.89024 16.39 9.11124 16.39 9.48924 14.829C9.54624 14.5946 9.65773 14.377 9.81464 14.1939C9.97156 14.0107 10.1695 13.8672 10.3923 13.7749C10.6152 13.6826 10.8566 13.6442 11.0971 13.6628C11.3376 13.6815 11.5702 13.7565 11.7762 13.882C13.1482 14.718 14.7182 13.148 13.8822 11.776C13.7568 11.57 13.6817 11.3373 13.6631 11.0969C13.6445 10.8564 13.6829 10.6149 13.7751 10.3921C13.8674 10.1692 14.011 9.97133 14.1941 9.81441C14.3773 9.65749 14.5949 9.546 14.8292 9.489C16.3902 9.11 16.3902 6.889 14.8292 6.511C14.5948 6.45419 14.377 6.34281 14.1937 6.18593C14.0104 6.02904 13.8668 5.83109 13.7745 5.60818C13.6822 5.38527 13.6438 5.14372 13.6626 4.90318C13.6813 4.66265 13.7566 4.42994 13.8822 4.224C14.7182 2.852 13.1482 1.282 11.7762 2.118C11.5703 2.24368 11.3376 2.31895 11.0971 2.33767C10.8565 2.35639 10.615 2.31804 10.3921 2.22574C10.1692 2.13344 9.9712 1.9898 9.81431 1.80651C9.65742 1.62323 9.54604 1.40548 9.48924 1.171L9.49024 1.17ZM8.00024 11C8.79589 11 9.55895 10.6839 10.1216 10.1213C10.6842 9.55871 11.0002 8.79565 11.0002 8C11.0002 7.20435 10.6842 6.44129 10.1216 5.87868C9.55895 5.31607 8.79589 5 8.00024 5C7.20459 5 6.44153 5.31607 5.87892 5.87868C5.31631 6.44129 5.00024 7.20435 5.00024 8C5.00024 8.79565 5.31631 9.55871 5.87892 10.1213C6.44153 10.6839 7.20459 11 8.00024 11Z" fill="currentColor" />
</svg>