<svg width="12" height="12" viewBox="0 0 12 12" fill="none" xmlns="http://www.w3.org/2000/svg">
<path d="M9.74986 4.50002C10.2067 4.50003 10.6528 4.36097 11.0287 4.10131C11.4046 3.84166 11.6926 3.47373 11.8543 3.04644C12.016 2.61915 12.0439 2.15276 11.9341 1.70928C11.8243 1.26581 11.5821 0.86626 11.2397 0.563778C10.8973 0.261296 10.4709 0.0702119 10.0172 0.0159361C9.5636 -0.0383397 9.10418 0.0467648 8.70008 0.259932C8.29599 0.4731 7.96636 0.804229 7.75503 1.20929C7.54371 1.61434 7.4607 2.07413 7.51705 2.52751L3.81194 4.38002C3.49411 4.07353 3.09312 3.86733 2.65893 3.7871C2.22474 3.70687 1.77654 3.75615 1.37016 3.92882C0.96378 4.10148 0.617184 4.38989 0.373547 4.75812C0.12991 5.12635 0 5.55812 0 5.99965C0 6.44118 0.12991 6.87295 0.373547 7.24117C0.617184 7.6094 0.96378 7.89781 1.37016 8.07048C1.77654 8.24314 2.22474 8.29243 2.65893 8.21219C3.09312 8.13196 3.49411 7.92576 3.81194 7.61928L7.51705 9.47178C7.45142 9.99846 7.57409 10.5314 7.86339 10.9764C8.15269 11.4214 8.58998 11.7497 9.09799 11.9035C9.606 12.0573 10.152 12.0265 10.6395 11.8166C11.127 11.6068 11.5247 11.2313 11.7621 10.7567C11.9996 10.282 12.0616 9.73868 11.9373 9.2227C11.8129 8.70673 11.5101 8.25134 11.0824 7.93701C10.6547 7.62268 10.1297 7.46965 9.60011 7.50497C9.07052 7.54029 8.57046 7.76169 8.18832 8.13003L4.48321 6.27752C4.50591 6.09322 4.50591 5.90682 4.48321 5.72252L8.18832 3.87001C8.59183 4.26002 9.14234 4.50002 9.74986 4.50002Z" fill="#7D8795"/>
</svg>
