<svg viewBox="0 0 32 32" fill="none" xmlns="http://www.w3.org/2000/svg">
<circle cx="16" cy="16.4785" r="13" fill="#0E9F6E"/>
<path d="M13.6434 21.4884C13.9291 21.774 14.4147 21.774 14.7003 21.4884L23.0983 13.0905C23.3839 12.8048 23.3839 12.3192 23.0983 12.0336L22.0699 11.0052C21.7843 10.7196 21.3273 10.7196 21.0416 11.0052L14.1862 17.8607L10.9584 14.6615C10.6727 14.3759 10.2157 14.3759 9.93005 14.6615L8.90173 15.6898C8.61609 15.9755 8.61609 16.4611 8.90173 16.7467L13.6434 21.4884Z" fill="white"/>
<path d="M16 26.9785C10.201 26.9785 5.5 22.2775 5.5 16.4785H0.5C0.5 25.0389 7.43959 31.9785 16 31.9785V26.9785ZM26.5 16.4785C26.5 22.2775 21.799 26.9785 16 26.9785V31.9785C24.5604 31.9785 31.5 25.0389 31.5 16.4785H26.5ZM16 5.97852C21.799 5.97852 26.5 10.6795 26.5 16.4785H31.5C31.5 7.9181 24.5604 0.978516 16 0.978516V5.97852ZM16 0.978516C7.43959 0.978516 0.5 7.9181 0.5 16.4785H5.5C5.5 10.6795 10.201 5.97852 16 5.97852V0.978516Z" fill="#DEF7EC"/>
</svg>
