<?xml version="1.0" encoding="utf-8"?>
<!-- Generator: Adobe Illustrator 26.2.0, SVG Export Plug-In . SVG Version: 6.00 Build 0)  -->
<svg version="1.1" id="Layer_1" xmlns="http://www.w3.org/2000/svg" xmlns:xlink="http://www.w3.org/1999/xlink" x="0px" y="0px" width="24" height="24" viewBox="0 0 24 24" xml:space="preserve">
    <g>
        <path d="M12,2c0.4,0,0.7,0.1,1,0.4c0,0,0,0,0,0l8.8,8.8c0.3,0.3,0.3,0.8,0,1.1c0,0,0,0,0,0L13,21.1c-0.3,0.3-0.6,0.4-1,0.4
		c-0.4,0-0.7-0.1-1-0.4c0,0,0,0,0,0l-8.8-8.8c-0.3-0.3-0.3-0.8,0-1.1c0,0,0,0,0,0L11,2.4C11.3,2.1,11.6,2,12,2 M12,0L12,0
		c-0.9,0-1.8,0.4-2.4,1L0.8,9.8C0.3,10.3,0,11,0,11.8c0,0.7,0.3,1.5,0.8,2l8.8,8.8c0.7,0.7,1.5,1,2.4,1c0.9,0,1.8-0.4,2.4-1l8.8-8.8
		c0.5-0.5,0.8-1.2,0.8-2c0-0.7-0.3-1.5-0.8-2L14.4,1C13.8,0.4,12.9,0,12,0L12,0z" fill="#FBFBFB" />
    </g>
    <path d="M12.2,15.8c-1.8,0-2.3-1.9-2.4-2.1l-1.7,0.7c0.6,2.2,2.3,2.8,3,3v1.3h1.8v-1.2c0.5-0.1,3-0.6,3-3.2c0-1.4-0.6-2.6-3-3.4
	c-1.8-0.6-2.6-1-2.6-1.9c0-1,1.1-1.4,1.8-1.4c1.3,0,1.8,1,1.9,1.3l1.6-0.7c-0.1-0.4-0.8-1.9-2.7-2.2V4.6h-1.8v1.3
	c-2.6,0.6-2.6,2.9-2.6,3c0,2.3,2.2,2.9,3.3,3.3c1.6,0.6,2.3,1.1,2.3,2C14.1,15.3,13.1,15.8,12.2,15.8z" fill="#FBFBFB" />
</svg>