<svg width="22" height="22" viewBox="0 0 22 22" fill="none" xmlns="http://www.w3.org/2000/svg">
<g clip-path="url(#clip0_595_45346)">
<path opacity="0.4" d="M17.875 11.6875C17.6031 11.6875 17.3372 11.7681 17.1111 11.9192C16.885 12.0703 16.7087 12.2851 16.6047 12.5363C16.5006 12.7876 16.4734 13.064 16.5264 13.3307C16.5795 13.5975 16.7104 13.8425 16.9027 14.0348C17.095 14.2271 17.34 14.358 17.6068 14.4111C17.8735 14.4641 18.1499 14.4369 18.4012 14.3328C18.6524 14.2288 18.8672 14.0525 19.0183 13.8264C19.1694 13.6003 19.25 13.3344 19.25 13.0625C19.25 12.6978 19.1051 12.3481 18.8473 12.0902C18.5894 11.8324 18.2397 11.6875 17.875 11.6875ZM18.5625 1.375L2.75 1.375C2.02065 1.375 1.32118 1.66473 0.805456 2.18046C0.289731 2.69618 0 3.39565 0 4.125C0 4.48967 0.144866 4.83941 0.402728 5.09727C0.660591 5.35513 1.01033 5.5 1.375 5.5L3.4375 5.5C3.25516 5.5 3.0803 5.42757 2.95136 5.29864C2.82243 5.1697 2.75 4.99484 2.75 4.8125C2.75 4.63016 2.82243 4.4553 2.95136 4.32636C3.0803 4.19743 3.25516 4.125 3.4375 4.125L19.9375 4.125C20.1198 4.125 20.2947 4.05257 20.4236 3.92364C20.5526 3.7947 20.625 3.61984 20.625 3.4375C20.625 2.89049 20.4077 2.36589 20.0209 1.97909C19.6341 1.5923 19.1095 1.375 18.5625 1.375Z" fill="#0000B0"/>
<path d="M19.8172 5.5L1.375 5.5C1.01033 5.5 0.660591 5.35513 0.402728 5.09727C0.144866 4.83941 0 4.48967 0 4.125L0 17.875C0 18.6043 0.289731 19.3038 0.805456 19.8195C1.32118 20.3353 2.02065 20.625 2.75 20.625L19.8172 20.625C21.0203 20.625 22 19.6999 22 18.5625L22 7.5625C22 6.42512 21.0212 5.5 19.8172 5.5ZM17.875 14.4375C17.6031 14.4375 17.3372 14.3569 17.1111 14.2058C16.885 14.0547 16.7087 13.8399 16.6047 13.5887C16.5006 13.3374 16.4734 13.061 16.5264 12.7943C16.5795 12.5275 16.7104 12.2825 16.9027 12.0902C17.095 11.8979 17.34 11.767 17.6068 11.7139C17.8735 11.6609 18.1499 11.6881 18.4012 11.7922C18.6524 11.8962 18.8672 12.0725 19.0183 12.2986C19.1694 12.5247 19.25 12.7906 19.25 13.0625C19.25 13.4272 19.1051 13.7769 18.8473 14.0348C18.5894 14.2926 18.2397 14.4375 17.875 14.4375Z" fill="white"/>
</g>
<defs>
<clipPath id="clip0_595_45346">
<rect width="22" height="22" fill="white"/>
</clipPath>
</defs>
</svg>
