<svg width="13" height="12" viewBox="0 0 13 12" fill="none" xmlns="http://www.w3.org/2000/svg">
<path fill-rule="evenodd" clip-rule="evenodd" d="M0.292787 0.465884C0.480314 0.28414 0.734622 0.182042 0.999786 0.182042C1.26495 0.182042 1.51926 0.28414 1.70679 0.465884L5.99979 4.62773L10.2928 0.465884C10.385 0.373291 10.4954 0.299436 10.6174 0.248628C10.7394 0.197821 10.8706 0.171077 11.0034 0.169958C11.1362 0.16884 11.2678 0.193368 11.3907 0.242113C11.5136 0.290858 11.6253 0.362843 11.7192 0.453867C11.8131 0.544891 11.8873 0.653132 11.9376 0.772274C11.9879 0.891416 12.0132 1.01907 12.012 1.1478C12.0109 1.27652 11.9833 1.40373 11.9309 1.52201C11.8785 1.64028 11.8023 1.74726 11.7068 1.83669L7.41379 5.99854L11.7068 10.1604C11.8889 10.3432 11.9897 10.5881 11.9875 10.8423C11.9852 11.0965 11.88 11.3396 11.6946 11.5194C11.5092 11.6991 11.2584 11.8011 10.9962 11.8033C10.734 11.8055 10.4814 11.7078 10.2928 11.5312L5.99979 7.36934L1.70679 11.5312C1.51818 11.7078 1.26558 11.8055 1.00339 11.8033C0.741188 11.8011 0.490376 11.6991 0.304968 11.5194C0.11956 11.3396 0.0143906 11.0965 0.0121121 10.8423C0.00983372 10.5881 0.110629 10.3432 0.292787 10.1604L4.58579 5.99854L0.292787 1.83669C0.105316 1.65489 0 1.40835 0 1.15128C0 0.894221 0.105316 0.647683 0.292787 0.465884Z" fill="#F8B4B4"/>
</svg>
