<svg width="17" height="16" viewBox="0 0 17 16" fill="none" xmlns="http://www.w3.org/2000/svg">
<path d="M15.5984 8.00039C15.5984 9.88343 14.8504 11.6893 13.5189 13.0208C12.1874 14.3524 10.3815 15.1004 8.49844 15.1004C6.6154 15.1004 4.80949 14.3524 3.47798 13.0208C2.14647 11.6893 1.39844 9.88343 1.39844 8.00039C1.39844 6.11735 2.14647 4.31144 3.47798 2.97993C4.80949 1.64842 6.6154 0.900391 8.49844 0.900391C10.3815 0.900391 12.1874 1.64842 13.5189 2.97993C14.8504 4.31144 15.5984 6.11735 15.5984 8.00039ZM9.52374 12.8257C9.79567 12.5538 9.94844 12.185 9.94844 11.8004C9.94844 11.4158 9.79567 11.047 9.52374 10.7751C9.25181 10.5032 8.883 10.3504 8.49844 10.3504C8.11387 10.3504 7.74506 10.5032 7.47313 10.7751C7.20121 11.047 7.04844 11.4158 7.04844 11.8004C7.04844 12.185 7.20121 12.5538 7.47313 12.8257C7.74506 13.0976 8.11387 13.2504 8.49844 13.2504C8.883 13.2504 9.25181 13.0976 9.52374 12.8257ZM8.49844 2.75039C8.11387 2.75039 7.74506 2.90316 7.47313 3.17509C7.20121 3.44701 7.04844 3.81583 7.04844 4.20039V8.00039C7.04844 8.38495 7.20121 8.75377 7.47313 9.02569C7.74506 9.29762 8.11387 9.45039 8.49844 9.45039C8.883 9.45039 9.25181 9.29762 9.52374 9.0257C9.79567 8.75377 9.94844 8.38496 9.94844 8.00039V4.20039C9.94844 3.81583 9.79567 3.44701 9.52374 3.17509C9.25181 2.90316 8.883 2.75039 8.49844 2.75039Z" fill="#E02424" stroke="#E02424"/>
</svg>
