<svg xmlns="http://www.w3.org/2000/svg" viewBox="0 0 200 200"><defs><style>.cls-1{fill:#43b649;}.cls-2{fill:#3ee028;}.cls-3{fill:#646091;}.cls-4{fill:#8277a9;}.cls-5{fill:#fff;}</style></defs><g id="Isolation_Mode" data-name="Isolation Mode"><path class="cls-1" d="M187.74,89.47h0V86.51H12.26v2.95h0v0h0a7,7,0,0,0,2.08,5l76.83,76.83a12.48,12.48,0,0,0,17.66,0l76.83-76.83a7.08,7.08,0,0,0,2.08-5h0Z"/><path class="cls-2" d="M108.83,4.66l76.83,76.83a7.1,7.1,0,0,1,0,10l-76.83,76.83a12.5,12.5,0,0,1-17.66,0L14.34,91.53a7.1,7.1,0,0,1,0-10L91.17,4.66A12.48,12.48,0,0,1,108.83,4.66Z"/><path class="cls-3" d="M187.74,113.49v-3H12.26v3h0a7.07,7.07,0,0,0,2.08,5l76.83,76.83a12.48,12.48,0,0,0,17.66,0l76.83-76.83a7.08,7.08,0,0,0,2.08-5h0Z"/><path class="cls-4" d="M48.37,46.4H157a7.1,7.1,0,0,1,7.1,7.1V162.16a12.49,12.49,0,0,1-12.49,12.49H43a7.1,7.1,0,0,1-7.1-7.1V58.89A12.49,12.49,0,0,1,48.37,46.4Z" transform="translate(92.56 259.39) rotate(-135)"/><path class="cls-5" d="M134.88,90a34.88,34.88,0,0,0-69.74,0c0,.09,0,.19,0,.26v63.6a3.88,3.88,0,0,0,7.76,0V142.56a3.87,3.87,0,0,1,7.74,0v5.34a3.87,3.87,0,0,0,7.74,0v-5.34a3.87,3.87,0,1,1,7.74,0V144a3.88,3.88,0,0,0,7.76,0v-1.47a3.87,3.87,0,1,1,7.74,0v5.34a3.87,3.87,0,1,0,7.73,0v-5.34a3.88,3.88,0,0,1,7.76,0v11.28a3.87,3.87,0,0,0,7.74,0V90.26A.54.54,0,0,0,134.88,90ZM87.15,95.57c-3.44,0-6.2-3.19-6.2-7.12s2.79-7.11,6.2-7.11,6.19,3.18,6.19,7.11S90.58,95.57,87.15,95.57Zm13.13,10.05c-3.1,0-5.63-1.86-5.63-4.15s2.53-.89,5.63-.89,5.64-1.38,5.64.89S103.4,105.62,100.28,105.62Zm12.59-10.05c-3.44,0-6.2-3.19-6.2-7.12s2.77-7.11,6.2-7.11,6.22,3.18,6.22,7.11S116.32,95.57,112.87,95.57Z"/></g></svg>