<svg xmlns="http://www.w3.org/2000/svg" id="Layer_1" data-name="Layer 1" viewBox="0 0 150 150"><defs><style>.cls-1{fill:#8277a9;}.cls-2{fill:#fff;}</style></defs><path class="cls-1" d="M150,75A75,75,0,0,1,22,128,75,75,0,1,1,150,75Z"/><path class="cls-2" d="M109.88,58.25a34.88,34.88,0,0,0-69.74,0c0,.1,0,.19,0,.26v63.6a3.88,3.88,0,0,0,7.76,0V110.81a3.87,3.87,0,1,1,7.74,0v5.34a3.87,3.87,0,1,0,7.74,0v-5.34a3.87,3.87,0,1,1,7.74,0v1.47a3.88,3.88,0,0,0,7.76,0v-1.47a3.87,3.87,0,1,1,7.74,0v5.34a3.87,3.87,0,1,0,7.73,0v-5.34a3.88,3.88,0,0,1,7.76,0v11.28a3.87,3.87,0,0,0,7.74,0V58.52A.56.56,0,0,0,109.88,58.25ZM62.15,63.82c-3.44,0-6.2-3.19-6.2-7.12s2.79-7.11,6.2-7.11,6.19,3.19,6.19,7.11S65.58,63.82,62.15,63.82ZM75.28,73.87c-3.1,0-5.63-1.85-5.63-4.15s2.53-.89,5.63-.89,5.64-1.38,5.64.89S78.4,73.87,75.28,73.87ZM87.87,63.82c-3.44,0-6.2-3.19-6.2-7.12s2.77-7.11,6.2-7.11,6.22,3.19,6.22,7.11S91.32,63.82,87.87,63.82Z"/></svg>