<svg xmlns="http://www.w3.org/2000/svg" viewBox="0 0 200 200"><defs><style>.cls-1{fill:#bc3c35;}.cls-2{fill:#dd463a;}.cls-3{fill:#646091;}.cls-4{fill:#8277a9;}.cls-5{fill:#fff;}</style></defs><g id="Isolation_Mode" data-name="Isolation Mode"><path class="cls-1" d="M187.74,110.4s-174.48-.62-174.82.12l-.66-.19v3h0a7,7,0,0,0,2.07,5.14l76.83,76.83a12.48,12.48,0,0,0,17.66,0l76.83-76.83a7,7,0,0,0,2.08-5Z"/><path class="cls-2" d="M48.37,46.28H157a7.1,7.1,0,0,1,7.1,7.1V162a12.49,12.49,0,0,1-12.49,12.49H43a7.1,7.1,0,0,1-7.1-7.1V58.76A12.49,12.49,0,0,1,48.37,46.28Z" transform="translate(92.65 259.17) rotate(-135)"/><path class="cls-3" d="M187.74,89.47h0V86.51H12.26v2.95h0v0h0a7,7,0,0,0,2.08,5l76.83,76.83a12.48,12.48,0,0,0,17.66,0l76.83-76.83a7.08,7.08,0,0,0,2.08-5h0Z"/><path class="cls-4" d="M48.37,22.39H157a7.1,7.1,0,0,1,7.1,7.1V138.14a12.49,12.49,0,0,1-12.49,12.49H43a7.1,7.1,0,0,1-7.1-7.1V34.87A12.49,12.49,0,0,1,48.37,22.39Z" transform="translate(109.54 218.39) rotate(-135)"/><path class="cls-5" d="M134.88,65a34.88,34.88,0,0,0-69.74,0c0,.09,0,.19,0,.26v63.59a3.88,3.88,0,0,0,7.76,0V117.52a3.87,3.87,0,0,1,7.74,0v5.34a3.87,3.87,0,0,0,7.74,0v-5.34a3.87,3.87,0,0,1,7.74,0V119a3.88,3.88,0,0,0,7.76,0v-1.47a3.87,3.87,0,0,1,7.74,0v5.34a3.87,3.87,0,0,0,7.73,0v-5.34a3.88,3.88,0,0,1,7.76,0v11.27a3.87,3.87,0,0,0,7.74,0V65.22A.54.54,0,0,0,134.88,65ZM87.15,70.52c-3.44,0-6.2-3.18-6.2-7.11s2.79-7.11,6.2-7.11,6.19,3.18,6.19,7.11S90.58,70.52,87.15,70.52Zm13.13,10.06c-3.1,0-5.63-1.86-5.63-4.15s2.53-.9,5.63-.9,5.64-1.37,5.64.9S103.4,80.58,100.28,80.58Zm12.59-10.06c-3.44,0-6.2-3.18-6.2-7.11s2.77-7.11,6.2-7.11,6.22,3.18,6.22,7.11S116.32,70.52,112.87,70.52Z"/></g></svg>