<?xml version="1.0" encoding="utf-8"?>
<!-- Generator: Adobe Illustrator 26.0.2, SVG Export Plug-In . SVG Version: 6.00 Build 0)  -->
<svg version="1.1" id="Layer_1" xmlns="http://www.w3.org/2000/svg" xmlns:xlink="http://www.w3.org/1999/xlink" x="0px" y="0px"
	 viewBox="0 0 200 200" style="enable-background:new 0 0 200 200;" xml:space="preserve">
<style type="text/css">
	.st0{fill:#21DD53;}
	.st1{fill:#1AA66E;}
	.st2{fill:#136F88;}
	.st3{fill:#0C37A3;}
	.st4{fill:#0500BD;}
	.st5{fill:#FFFFFF;}
</style>
<g id="Layer_1_00000032607871018279710710000005758970535293352841_">
</g>
<g id="Isolation_Mode">
	<g>
		<g>
			<path class="st0" d="M175.4,175.4C159,191.8,137.6,200,116.1,200s-43-8.2-59.3-24.6s-24.6-37.9-24.6-59.3s8.2-43,24.6-59.3
				s37.9-24.6,59.3-24.6s43,8.2,59.3,24.6S200,94.6,200,116.1S191.8,159,175.4,175.4z"/>
			<path class="st1" d="M48.7,48.7C64.8,32.6,86.1,24.1,108,24.1s43.3,8.5,59.3,24.6S192,86.1,192,108s-8.5,43.3-24.6,59.3
				S129.9,192,108,192s-43.3-8.5-59.3-24.6S24.1,129.9,24.1,108S32.6,64.8,48.7,48.7z"/>
			<path class="st2" d="M40.7,40.7c15.8-15.8,37-24.6,59.3-24.6s43.6,8.8,59.3,24.6s24.6,37,24.6,59.3s-8.8,43.6-24.6,59.3
				s-37,24.6-59.3,24.6s-43.6-8.8-59.3-24.6s-24.6-37-24.6-59.3S24.9,56.4,40.7,40.7z"/>
			<path class="st3" d="M32.6,32.6C48.1,17.1,69.2,8,92,8s43.9,9.1,59.3,24.6s24.6,36.6,24.6,59.3s-9.1,43.9-24.6,59.3
				s-36.6,24.6-59.3,24.6s-43.9-9.1-59.3-24.6S8,114.7,8,92S17.1,48.1,32.6,32.6z"/>
			<path class="st4" d="M167.8,83.9c0,23.2-9.4,44.2-24.6,59.3c-15.2,15.2-36.2,24.6-59.3,24.6s-44.2-9.4-59.3-24.6
				C9.4,128.1,0,107.1,0,83.9s9.4-44.2,24.6-59.3S60.7,0,83.9,0C130.3,0,167.8,37.6,167.8,83.9z"/>
			<path id="Path_7142" class="st5" d="M123.5,64.9C123.1,43,105,25.6,83.2,26c-21.3,0.4-38.5,17.5-38.9,38.9c0,0.1,0,0.2,0,0.3v0.6
				l0,0v71.7c0.1,2.4,2.1,4.4,4.5,4.3c2.4,0,4.3-2,4.3-4.3v-12.8c0-2.4,2-4.4,4.4-4.4c2.4,0,4.4,2,4.4,4.4v6.1c0,2.4,2,4.4,4.4,4.4
				c2.4,0,4.4-2,4.4-4.4l0,0v-6.1c0-2.4,2-4.4,4.4-4.4l0,0c2.4,0,4.4,2,4.4,4.4v1.7c0.1,2.4,2.1,4.4,4.5,4.3c2.4,0,4.3-2,4.3-4.3
				v-1.7c0-2.4,2-4.4,4.4-4.4s4.4,2,4.4,4.4v6.1c0,2.4,2,4.4,4.4,4.4s4.4-2,4.4-4.4l0,0l0,0v-6.1c0-2.4,2-4.4,4.4-4.4l0,0
				c2.4,0,4.4,2,4.4,4.4l0,0v12.8c0,2.4,2,4.4,4.4,4.4s4.4-2,4.4-4.4l0,0V65.2C123.5,65.1,123.5,65,123.5,64.9z M69.3,71.2
				c-3.9,0-7-3.6-7-8.1s3.2-8.1,7-8.1c3.9,0,7,3.6,7,8.1S73.2,71.2,69.3,71.2L69.3,71.2z M84.2,82.6c-3.5,0-6.4-2.1-6.4-4.7
				s2.9-1,6.4-1s6.4-1.6,6.4,1S87.8,82.6,84.2,82.6L84.2,82.6z M98.5,71.2c-3.9,0-7-3.6-7-8.1s3.1-8.1,7-8.1s7.1,3.6,7.1,8.1
				S102.4,71.2,98.5,71.2L98.5,71.2z"/>
		</g>
	</g>
</g>
</svg>
