<svg viewBox="0 0 1100 1100" fill="none" xmlns="http://www.w3.org/2000/svg">
<path d="M1100 550C1100 853.757 853.757 1100 550 1100C246.243 1100 0 853.757 0 550C0 246.243 246.243 0 550 0C853.757 0 1100 246.243 1100 550Z" fill="black"/>
<path d="M846.2 368.854C843.1 205.054 707.9 74.9543 544.1 78.0543C384.7 81.0543 256.3 209.354 253.2 368.754C253.2 369.554 253 370.354 253 370.954V911.754C253.5 929.954 268.4 944.354 286.7 944.054C304.3 943.754 318.5 929.354 319 911.754V815.854C319 797.654 333.8 782.954 351.9 782.954C370.1 782.954 384.8 797.754 384.8 815.854V861.254C384.8 879.454 399.6 894.154 417.7 894.154C435.9 894.154 450.6 879.354 450.6 861.254V815.854C450.6 797.654 465.4 782.954 483.5 782.954C501.7 782.954 516.4 797.754 516.4 815.854V828.354C516.9 846.554 531.8 860.954 550.1 860.654C567.7 860.354 581.9 845.954 582.4 828.354V815.854C582.4 797.654 597.2 782.954 615.3 782.954C633.4 782.954 648.2 797.754 648.2 815.854V861.254C648.2 879.454 663 894.154 681.1 894.154C699.2 894.154 714 879.354 714 861.254V815.854C714 797.654 728.8 782.954 746.9 782.954C765.1 782.954 780 797.654 780 815.854V911.754C780 929.954 794.8 944.654 812.9 944.654C831 944.654 845.8 929.854 845.8 911.754V371.154C846.2 370.354 846.2 369.554 846.2 368.854ZM440.3 416.254C411.1 416.254 387.6 389.154 387.6 355.754C387.6 322.354 411.3 295.254 440.3 295.254C469.3 295.254 493 322.354 493 355.754C493 389.154 469.5 416.254 440.3 416.254ZM552 501.754C525.6 501.754 504.1 485.954 504.1 466.454C504.1 446.954 525.6 458.854 552 458.854C578.4 458.854 599.9 447.154 599.9 466.454C599.9 485.854 578.5 501.754 552 501.754ZM659 416.254C629.8 416.254 606.3 389.154 606.3 355.754C606.3 322.354 629.9 295.254 659 295.254C688.1 295.254 711.9 322.354 711.9 355.754C711.9 389.154 688.4 416.254 659 416.254Z" fill="white"/>
</svg>
