<svg xmlns="http://www.w3.org/2000/svg" viewBox="0 0 200 200"><defs><style>.cls-1{fill:#43b649;}.cls-2{fill:#3ee028;}.cls-3{fill:#050083;}.cls-4{fill:#020ab9;}.cls-5{font-size:58px;fill:#fff;font-family:Akkurat-Bold;font-weight:700;}.cls-6{letter-spacing:-0.02em;}</style></defs><g id="Isolation_Mode" data-name="Isolation Mode"><path class="cls-1" d="M187.74,89.47h0V86.51H12.26v2.95h0v0h0a7,7,0,0,0,2.08,5l76.83,76.83a12.48,12.48,0,0,0,17.66,0l76.83-76.83a7.08,7.08,0,0,0,2.08-5h0Z"/><path class="cls-2" d="M108.83,4.66l76.83,76.83a7.1,7.1,0,0,1,0,10l-76.83,76.83a12.5,12.5,0,0,1-17.66,0L14.34,91.53a7.1,7.1,0,0,1,0-10L91.17,4.66A12.48,12.48,0,0,1,108.83,4.66Z"/></g><g id="Layer_6" data-name="Layer 6"><path class="cls-3" d="M187.74,113.49v-3H12.26v3h0a7.07,7.07,0,0,0,2.08,5l76.83,76.83a12.48,12.48,0,0,0,17.66,0l76.83-76.83a7.08,7.08,0,0,0,2.08-5h0Z"/><path class="cls-4" d="M48.37,46.4H157a7.1,7.1,0,0,1,7.1,7.1V162.16a12.49,12.49,0,0,1-12.49,12.49H43a7.1,7.1,0,0,1-7.1-7.1V58.89A12.49,12.49,0,0,1,48.37,46.4Z" transform="translate(92.56 259.39) rotate(-135)"/><text class="cls-5" transform="translate(42.29 130.32)"><tspan class="cls-6">A</tspan><tspan x="36.19" y="0">UD</tspan></text></g></svg>