<?xml version="1.0" encoding="UTF-8" standalone="no"?>
<!-- Created with Inkscape (http://www.inkscape.org/) -->

<svg
   xmlns:dc="http://purl.org/dc/elements/1.1/"
   xmlns:cc="http://creativecommons.org/ns#"
   xmlns:rdf="http://www.w3.org/1999/02/22-rdf-syntax-ns#"
   xmlns:svg="http://www.w3.org/2000/svg"
   xmlns="http://www.w3.org/2000/svg"
   xmlns:sodipodi="http://sodipodi.sourceforge.net/DTD/sodipodi-0.dtd"
   xmlns:inkscape="http://www.inkscape.org/namespaces/inkscape"
   width="210mm"
   height="180mm"
   viewBox="0 0 210 180"
   version="1.1"
   id="svg8"
   inkscape:version="0.92.3 (2405546, 2018-03-11)"
   sodipodi:docname="balancer_logo.svg">
  <defs
     id="defs2" />
  <!-- <sodipodi:namedview
     id="base"
     pagecolor="#ffffff"
     bordercolor="#666666"
     borderopacity="1.0"
     inkscape:pageopacity="0.0"
     inkscape:pageshadow="2"
     inkscape:zoom="0.7"
     inkscape:cx="238.40446"
     inkscape:cy="489.31639"
     inkscape:document-units="mm"
     inkscape:current-layer="layer1"
     showgrid="false"
     inkscape:window-width="1920"
     inkscape:window-height="1027"
     inkscape:window-x="1912"
     inkscape:window-y="7"
     inkscape:window-maximized="1" /> -->
  <metadata
     id="metadata5">
    <rdf:RDF>
      <cc:Work
         rdf:about="">
        <dc:format>image/svg+xml</dc:format>
        <dc:type
           rdf:resource="http://purl.org/dc/dcmitype/StillImage" />
        <dc:title></dc:title>
      </cc:Work>
    </rdf:RDF>
  </metadata>
  <g
     inkscape:label="Layer 1"
     inkscape:groupmode="layer"
     id="layer1"
     transform="translate(0,-117)">
    <path
       fill="currentColor"
       style="stroke-width:0.99999994"
       d="M 93.387231,290.58483 C 62.667139,289.00426 38.487944,284.03714 21.157709,275.7466 3.1776712,267.14524 -2.0150904,256.84838 6.5148457,246.71112 11.634133,240.62716 28.542353,232.81886 45.87769,228.53311 c 13.065238,-3.23014 14.997585,-3.34199 29.249501,-1.69339 19.503693,2.25612 42.874619,2.25793 61.077859,0.004 13.20294,-1.63414 15.42306,-1.51101 28.49958,1.58114 60.08808,14.20855 57.29589,44.24097 -5.31851,57.20399 -16.63847,3.44466 -48.64745,5.84789 -65.998889,4.95516 z M 68.637601,218.93918 C 20.309144,210.19421 8.7807684,189.57539 44.6083,175.96199 c 14.65114,-5.56698 27.41421,-6.86505 64.52864,-6.56289 37.3132,0.30387 37.70659,0.34752 55.97616,6.22881 12.81482,4.12531 23.52258,12.39928 23.52258,18.17607 0,8.48941 -13.30277,17.06039 -35.73721,23.02552 -15.01228,3.99157 -66.707608,5.28596 -84.260869,2.10968 z M 75.4458,161.73417 C 63.408897,159.3446 54.877261,156.17586 48.768415,151.826 c -3.578343,-2.54802 -4.216581,-3.95687 -3.836461,-8.46837 0.649973,-7.71334 9.633218,-12.95837 29.098303,-16.98963 25.576824,-5.29696 65.983533,-2.45936 82.314123,5.78066 20.39545,10.29102 12.23107,22.57452 -19.33442,29.08923 -16.32922,3.37012 -45.887687,3.60839 -61.56416,0.49606 z"
       id="path826"
       inkscape:connector-curvature="0" />
  </g>
</svg>
