<svg width="24" height="15" viewBox="0 0 24 15" fill="none" xmlns="http://www.w3.org/2000/svg">
    <path d="M15.0588 7.49995C15.0588 11.6421 11.6878 15 7.52946 15C3.37103 15 0 11.6421 0 7.49995C0 3.35784 3.37103 0 7.52946 0C11.6878 0 15.0588 3.35784 15.0588 7.49995" fill="#00007A"/>
    <path d="M7.41664 2.72656L7.35938 2.92045V8.54666L7.41664 8.6036L10.0385 7.05988L7.41664 2.72656Z" fill="white"/>
    <path d="M7.41483 2.72656L4.79297 7.05988L7.41483 8.60362V5.87283V2.72656Z" fill="white"/>
    <path d="M7.41508 9.4531L7.38281 9.49229V11.4965L7.41508 11.5904L10.0385 7.91016L7.41508 9.4531Z" fill="white"/>
    <path d="M7.41483 11.5904V9.4531L4.79297 7.91016L7.41483 11.5904Z" fill="white"/>
    <path d="M7.41406 8.6038L10.0359 7.0601L7.41406 5.87305V8.6038Z" fill="white"/>
    <path d="M4.79297 7.0601L7.41479 8.60382V5.87305L4.79297 7.0601Z" fill="white"/>
    <ellipse cx="16.4708" cy="7.5" rx="7.52941" ry="7.5" fill="#FCB500"/>
    <path d="M18.9321 5.96176C18.8504 5.0901 18.0945 4.80143 17.1374 4.71938L17.1346 3.50807L16.3963 3.50781L16.3975 4.68548C16.2061 4.68541 16.0018 4.68855 15.8056 4.69649L15.8028 3.51241L15.0644 3.51216L15.0656 4.71707C14.9032 4.72342 14.7455 4.72176 14.5959 4.72492L14.5943 4.71851L13.5761 4.71976L13.5742 5.50327C13.5742 5.50327 14.1179 5.49064 14.1083 5.50666C14.3142 5.48269 14.5007 5.62696 14.5312 5.83046L14.5339 7.20521C14.5613 7.20522 14.5886 7.20523 14.6111 7.21325L14.542 7.21002L14.5461 9.13595C14.5348 9.28175 14.4109 9.38746 14.2726 9.381C14.2822 9.39222 13.7321 9.37921 13.7321 9.37921L13.5838 10.2604L14.5474 10.2591C14.7259 10.2624 14.9028 10.2593 15.075 10.2641L15.0745 11.4899L15.8129 11.4901L15.8101 10.2788C16.0095 10.2837 16.2074 10.2821 16.3988 10.2822L16.4 11.4871L17.1383 11.4874L17.1403 10.268C18.3805 10.198 19.2525 9.88583 19.3575 8.72262C19.4446 7.78852 19.004 7.36698 18.2996 7.2017C18.7291 6.97913 18.9963 6.59949 18.9321 5.96176ZM17.8985 8.57471C17.9014 9.4864 16.3315 9.38652 15.8248 9.38314L15.8222 7.76324C16.3289 7.76662 17.8989 7.62136 17.8985 8.57471ZM17.5583 6.28975C17.5613 7.11973 16.2519 7.02314 15.8353 7.0246L15.8358 5.55372C16.246 5.55386 17.5538 5.42613 17.5583 6.28975Z" fill="white"/>
</svg>
