<svg viewBox="0 0 32 32" fill="none" xmlns="http://www.w3.org/2000/svg">
<circle cx="16" cy="16" r="16" fill="#FCB500"/>
<path d="M21.2292 12.72C21.0555 10.8604 19.4492 10.2446 17.4155 10.0695L17.4095 7.48541L15.8406 7.48486L15.8431 9.99722C15.4364 9.99708 15.0022 10.0038 14.5852 10.0207L14.5793 7.49468L13.0103 7.49414L13.0129 10.0646C12.6676 10.0782 12.3326 10.0746 12.0147 10.0814L12.0113 10.0677L9.84762 10.0703L9.84363 11.7418C9.84363 11.7418 10.999 11.7149 10.9785 11.7491C11.416 11.6979 11.8124 12.0057 11.8772 12.4398L11.883 15.3726C11.9411 15.3727 11.9992 15.3727 12.0471 15.3898L11.9001 15.3829L11.9089 19.4916C11.8849 19.8026 11.6216 20.0281 11.3277 20.0143C11.3482 20.0383 10.1792 20.0105 10.1792 20.0105L9.86405 21.8904L11.9115 21.8877C12.291 21.8947 12.667 21.888 13.0327 21.8983L13.0318 24.5132L14.6007 24.5138L14.5948 21.9296C15.0186 21.94 15.4391 21.9368 15.8458 21.9369L15.8484 24.5074L17.4173 24.5079L17.4216 21.9067C20.0571 21.7572 21.91 21.0913 22.133 18.6098C22.3183 16.6171 21.382 15.7177 19.885 15.3652C20.7978 14.8903 21.3655 14.0804 21.2292 12.72ZM19.0328 18.2942C19.039 20.2392 15.7029 20.0261 14.6262 20.0189L14.6206 16.5631C15.6973 16.5703 19.0335 16.2604 19.0328 18.2942ZM18.3099 13.4197C18.3161 15.1903 15.5338 14.9842 14.6485 14.9873L14.6495 11.8495C15.5212 11.8498 18.3002 11.5773 18.3099 13.4197Z" fill="white"/>
</svg>
