<svg xmlns="http://www.w3.org/2000/svg" viewBox="0 0 150 150"><defs><style>.cls-1{fill:#f7931a;}.cls-2{fill:#fff;}</style></defs><g id="Layer_1" data-name="Layer 1"><path class="cls-1" d="M150,75A75,75,0,0,1,22,128,75,75,0,1,1,150,75Z"/></g><g id="Isolation_Mode" data-name="Isolation Mode"><path id="Path_384" data-name="Path 384" class="cls-2" d="M111.61,65.46c1.53-10.23-6.25-15.74-16.92-19.41l3.46-13.87-8.44-2.1-3.37,13.5C84.13,43,81.85,42.51,79.58,42L83,28.4l-8.43-2.1L71.08,40.16c-1.84-.42-3.64-.83-5.39-1.27v0L54.05,35.94l-2.24,9s6.25,1.45,6.13,1.53a4.49,4.49,0,0,1,3.93,4.91L57.93,67.18a9,9,0,0,1,.88.28l-.89-.22L52.39,89.35a3.07,3.07,0,0,1-3.85,2h0c.09.12-6.13-1.53-6.13-1.53L38.2,99.49l11,2.74c2,.51,4,1,6,1.55l-3.49,14,8.43,2.1L63.59,106c2.3.63,4.53,1.2,6.73,1.75L66.9,121.6l8.44,2.1,3.49-14c14.39,2.72,25.22,1.62,29.77-11.39,3.67-10.48-.18-16.53-7.75-20.47,5.51-1.27,9.66-4.9,10.77-12.39Zm-19.28,27c-2.6,10.48-20.25,4.81-26,3.39L71,77.31C76.72,78.74,95.06,81.57,92.33,92.5ZM95,65.31c-2.38,9.53-17.07,4.69-21.83,3.5L77.32,52C82.08,53.15,97.43,55.36,95,65.31Z"/></g></svg>