<svg xmlns="http://www.w3.org/2000/svg" viewBox="0 0 198.43 198.43"><defs><style>.cls-1{fill:#bc3c35;}.cls-2{fill:#d37b1c;}.cls-3{fill:#dd463a;}.cls-4{fill:#f7931a;}.cls-5{fill:#fff;}</style></defs><g id="Isolation_Mode" data-name="Isolation Mode"><path class="cls-1" d="M49.59,50.55H154a6.82,6.82,0,0,1,6.82,6.82V161.81a12,12,0,0,1-12,12H44.41A6.82,6.82,0,0,1,37.58,167V62.56a12,12,0,0,1,12-12Z" transform="translate(90.04 261.66) rotate(-135)"/><polygon class="cls-1" points="183.54 112.18 183.52 108.63 179.13 110.4 178.77 118.8 183.54 112.18"/><polygon class="cls-2" points="183.54 89.13 183.52 86.08 179.13 89.38 178.77 95.61 183.54 89.13"/><polygon class="cls-1" points="14.9 112.18 14.92 108.63 19.31 110.4 19.67 118.8 14.9 112.18"/><polygon class="cls-2" points="14.9 89.13 14.92 86.08 19.31 89.38 19.67 95.61 14.9 89.13"/><path class="cls-3" d="M49.59,47.58H154a6.82,6.82,0,0,1,6.82,6.82V158.83a12,12,0,0,1-12,12H44.41A6.82,6.82,0,0,1,37.58,164V59.58a12,12,0,0,1,12-12Z" transform="translate(92.15 256.58) rotate(-135)"/><path class="cls-2" d="M49.59,27.46H154a6.82,6.82,0,0,1,6.82,6.82V138.71a12,12,0,0,1-12,12H44.41a6.82,6.82,0,0,1-6.82-6.82V39.46a12,12,0,0,1,12-12Z" transform="translate(106.37 222.23) rotate(-135)"/><path class="cls-4" d="M49.59,24.62H154a6.82,6.82,0,0,1,6.82,6.82V135.87a12,12,0,0,1-12,12H44.41A6.82,6.82,0,0,1,37.58,141V36.62a12,12,0,0,1,12-12Z" transform="translate(108.38 217.38) rotate(-135)"/><path id="Path_384" data-name="Path 384" class="cls-5" d="M129.2,74.72c1.47-9.84-6-15.12-16.26-18.65l3.33-13.33-8.12-2-3.23,13c-2.13-.53-4.32-1-6.5-1.53l3.26-13.06-8.11-2L90.25,50.4c-1.77-.4-3.5-.8-5.18-1.22v0L73.88,46.35,71.72,55s6,1.39,5.9,1.47a4.32,4.32,0,0,1,3.78,4.71L77.61,76.38a5.88,5.88,0,0,1,.84.27l-.85-.22L72.28,97.69a3,3,0,0,1-3.7,1.93h0c.08.12-5.9-1.47-5.9-1.47l-4,9.29,10.56,2.63c2,.49,3.89,1,5.78,1.49L71.62,125l8.1,2L83,113.71c2.22.61,4.37,1.16,6.47,1.68l-3.28,13.29,8.11,2,3.36-13.45c13.83,2.61,24.23,1.56,28.61-11,3.53-10.07-.18-15.88-7.45-19.67,5.3-1.22,9.29-4.71,10.35-11.91Zm-18.52,26c-2.51,10.07-19.47,4.62-25,3.26l4.45-17.86C95.67,87.49,113.3,90.2,110.68,100.71Zm2.51-26.13c-2.29,9.16-16.41,4.5-21,3.36l4-16.19C100.82,62.89,115.57,65,113.19,74.58Z"/></g></svg>