<svg xmlns="http://www.w3.org/2000/svg" viewBox="0 0 198.43 198.43"><defs><style>.cls-1{fill:#43b649;}.cls-2{fill:#3ee028;}.cls-3{fill:#d37b1c;}.cls-4{fill:#f7931a;}.cls-5{fill:#fff;}</style></defs><g id="Isolation_Mode" data-name="Isolation Mode"><path class="cls-1" d="M49.57,27.38H154a6.82,6.82,0,0,1,6.82,6.82V138.63a12,12,0,0,1-12,12H44.39a6.82,6.82,0,0,1-6.82-6.82V39.38a12,12,0,0,1,12-12Z" transform="translate(106.41 222.08) rotate(-135)"/><polygon class="cls-1" points="183.53 89 183.5 85.45 179.11 87.23 178.76 95.63 183.53 89"/><polygon class="cls-1" points="14.88 89 14.91 85.45 19.3 87.23 19.65 95.63 14.88 89"/><path class="cls-2" d="M107.69,7.36,181.53,81.2a6.81,6.81,0,0,1,0,9.65L107.69,164.7a12,12,0,0,1-17,0L16.87,90.85a6.81,6.81,0,0,1,0-9.65L90.71,7.36A12,12,0,0,1,107.69,7.36Z"/><polygon class="cls-3" points="183.53 112 183.5 108.96 179.11 112.26 178.76 118.48 183.53 112"/><polygon class="cls-3" points="14.88 112 14.91 108.96 19.3 112.26 19.65 118.48 14.88 112"/><path class="cls-3" d="M49.57,50.34H154a6.82,6.82,0,0,1,6.82,6.82V161.59a12,12,0,0,1-12,12H44.39a6.82,6.82,0,0,1-6.82-6.82V62.34a12,12,0,0,1,12-12Z" transform="translate(90.17 261.28) rotate(-135)"/><path class="cls-4" d="M49.57,47.49H154a6.82,6.82,0,0,1,6.82,6.82V158.75a12,12,0,0,1-12,12H44.39a6.82,6.82,0,0,1-6.82-6.82V59.5A12,12,0,0,1,49.57,47.49Z" transform="translate(92.18 256.43) rotate(-135)"/><path id="Path_384" data-name="Path 384" class="cls-5" d="M132.3,97.87c1.47-9.84-6-15.13-16.26-18.66l3.32-13.33-8.11-2-3.23,13c-2.13-.53-4.33-1-6.5-1.53l3.26-13.06-8.11-2L93.35,73.55c-1.77-.41-3.5-.8-5.18-1.22v0L77,69.49l-2.16,8.67s6,1.38,5.89,1.46a4.31,4.31,0,0,1,3.78,4.72L80.71,99.52a5.88,5.88,0,0,1,.84.27l-.86-.21-5.31,21.25a3,3,0,0,1-3.7,1.93h0c.08.12-5.89-1.47-5.89-1.47l-4,9.28L72.3,133.2l5.77,1.5-3.35,13.47,8.1,2,3.32-13.33c2.22.6,4.36,1.16,6.47,1.68l-3.28,13.28,8.11,2,3.36-13.46C114.63,143,125,142,129.41,129.44c3.53-10.07-.18-15.88-7.46-19.67,5.3-1.22,9.3-4.7,10.36-11.91Zm-18.53,26c-2.5,10.08-19.46,4.62-25,3.27l4.45-17.86C98.76,110.63,116.39,113.35,113.77,123.85Zm2.51-26.13c-2.28,9.16-16.4,4.51-21,3.37l4-16.2C103.92,86,118.67,88.16,116.28,97.72Z"/></g></svg>