<?xml version="1.0" encoding="utf-8"?>
<!-- Generator: Adobe Illustrator 25.4.1, SVG Export Plug-In . SVG Version: 6.00 Build 0)  -->
<svg version="1.1" xmlns="http://www.w3.org/2000/svg" xmlns:xlink="http://www.w3.org/1999/xlink" x="0px" y="0px"
	 viewBox="0 0 200 200" style="enable-background:new 0 0 200 200;" xml:space="preserve">
<style type="text/css">
	.st0{fill:#FFFFFF;}
	.st1{fill:#21DD53;}
	.st2{fill:#1AA66E;}
	.st3{fill:#136F88;}
	.st4{fill:#0C37A3;}
	.st5{fill:#0500BD;}
	.st6{fill:#F15025;}
	.st7{fill:#B63C4B;}
	.st8{fill:#7B2871;}
	.st9{fill:#401497;}
</style>
<g id="Layer_1">
</g>
<g id="Isolation_Mode">
	<g>
		<g>
			<path class="st1" d="M175.4,175.4C159,191.8,137.6,200,116.1,200s-43-8.2-59.3-24.6s-24.6-37.9-24.6-59.3s8.2-43,24.6-59.3
				s37.9-24.6,59.3-24.6s43,8.2,59.3,24.6S200,94.6,200,116.1S191.8,159,175.4,175.4z"/>
			<path class="st2" d="M48.7,48.7C64.8,32.6,86.1,24.1,108,24.1s43.3,8.5,59.3,24.6S192,86.1,192,108s-8.5,43.3-24.6,59.3
				S129.9,192,108,192s-43.3-8.5-59.3-24.6S24.1,129.9,24.1,108S32.6,64.8,48.7,48.7z"/>
			<path class="st3" d="M40.7,40.7c15.8-15.8,37-24.6,59.3-24.6s43.6,8.8,59.3,24.6s24.6,37,24.6,59.3s-8.8,43.6-24.6,59.3
				s-37,24.6-59.3,24.6s-43.6-8.8-59.3-24.6s-24.6-37-24.6-59.3S24.9,56.4,40.7,40.7z"/>
			<path class="st4" d="M32.6,32.6C48.1,17.1,69.2,8,92,8s43.9,9.1,59.3,24.6s24.6,36.6,24.6,59.3s-9.1,43.9-24.6,59.3
				s-36.6,24.6-59.3,24.6s-43.9-9.1-59.3-24.6S8,114.7,8,92S17.1,48.1,32.6,32.6z"/>
			<path class="st5" d="M167.8,83.9c0,23.2-9.4,44.2-24.6,59.3c-15.2,15.2-36.2,24.6-59.3,24.6s-44.2-9.4-59.3-24.6
				C9.4,128.1,0,107.1,0,83.9s9.4-44.2,24.6-59.3S60.7,0,83.9,0C130.3,0,167.8,37.6,167.8,83.9z"/>
		</g>
		<g id="Path_384_00000175318979622048149290000016732103917904177041_">
			<path class="st0" d="M130.8,71.7c2-13.1-8-20.1-21.7-24.8l4.4-17.8l-10.8-2.7l-4.3,17.3c-2.8-0.7-5.8-1.4-8.7-2l4.3-17.4
				l-10.8-2.7l-4.4,17.7c-2.4-0.5-4.7-1.1-6.9-1.6v-0.1l-14.9-3.7l-2.9,11.5c0,0,8,1.8,7.8,2c3.1,0.4,5.3,3.2,5,6.3l-5,20.2
				c0.4,0.1,0.8,0.2,1.1,0.4L62,74L55,102.3c-0.7,2.1-2.9,3.2-4.9,2.6c0,0,0,0,0,0c0.1,0.2-7.9-2-7.9-2l-5.4,12.4l14.1,3.5
				c2.6,0.7,5.2,1.3,7.7,2l-4.5,18l10.8,2.7l4.4-17.8c2.9,0.8,5.8,1.5,8.6,2.2l-4.4,17.7l10.8,2.7l4.5-17.9
				c18.4,3.5,32.3,2.1,38.1-14.6c4.7-13.4-0.2-21.2-9.9-26.2C124.1,85.9,129.4,81.3,130.8,71.7L130.8,71.7z M106.1,106.3
				c-3.3,13.4-25.9,6.2-33.3,4.3l5.9-23.8C86.1,88.7,109.6,92.3,106.1,106.3z M109.5,71.5c-3,12.2-21.8,6-27.9,4.5l5.4-21.6
				C93,55.9,112.6,58.8,109.5,71.5z"/>
		</g>
	</g>
</g>
</svg>
