<svg xmlns="http://www.w3.org/2000/svg" viewBox="0 0 200 200"><defs><style>.cls-1{fill:#bc3c35;}.cls-2{fill:#dd463a;}.cls-3{fill:#d80027;}.cls-4{fill:#050083;}.cls-5{fill:#020ab9;}.cls-6{font-size:60px;fill:#fff;font-family:Akkurat-Bold;font-weight:700;}.cls-7{letter-spacing:-0.02em;}</style></defs><g id="Isolation_Mode" data-name="Isolation Mode"><path class="cls-1" d="M187.74,110.4s-174.48-.62-174.82.12l-.66-.19v3h0a7,7,0,0,0,2.07,5.14l76.83,76.83a12.48,12.48,0,0,0,17.66,0l76.83-76.83a7,7,0,0,0,2.08-5Z"/><path class="cls-2" d="M48.37,46.28H157a7.1,7.1,0,0,1,7.1,7.1V162a12.49,12.49,0,0,1-12.49,12.49H43a7.1,7.1,0,0,1-7.1-7.1V58.76A12.49,12.49,0,0,1,48.37,46.28Z" transform="translate(92.65 259.17) rotate(-135)"/><path class="cls-3" d="M100,148.74A62.24,62.24,0,1,0,37.76,86.51,62.24,62.24,0,0,0,100,148.74Z"/><path class="cls-4" d="M187.57,90h0V87h-175v3h0a7.11,7.11,0,0,0,2.07,5l76.62,76.83a12.44,12.44,0,0,0,17.61,0L185.5,95a7.11,7.11,0,0,0,2.07-5h0Z"/><path class="cls-5" d="M48.37,22.39H157a7.1,7.1,0,0,1,7.1,7.1V138.14a12.49,12.49,0,0,1-12.49,12.49H43a7.1,7.1,0,0,1-7.1-7.1V34.87A12.49,12.49,0,0,1,48.37,22.39Z" transform="translate(109.54 218.39) rotate(-135)"/><text class="cls-6" transform="translate(42.52 107.75)">CH<tspan class="cls-7" x="80.58" y="0">F</tspan></text></g></svg>