<svg id="Layer_1" data-name="Layer 1" xmlns="http://www.w3.org/2000/svg" viewBox="0 0 150 150"><defs><style>.cls-1{fill:#f5ac37;}.cls-2{fill:#fefefd;}</style></defs><path class="cls-1" d="M150,75A75,75,0,0,1,22,128,75,75,0,1,1,150,75Z"/><path class="cls-2" d="M79,80.07h27.27c.58,0,.86,0,.9-.75a52.9,52.9,0,0,0,0-8.35c0-.54-.27-.76-.86-.76H52.05c-.67,0-.86.22-.86.86v8c0,1,0,1,1.08,1H79Zm25.13-19.19a1,1,0,0,0,0-.63,18.06,18.06,0,0,0-1.63-2.83,22.66,22.66,0,0,0-3.31-4.17,10.76,10.76,0,0,0-2.07-2,32.17,32.17,0,0,0-13.45-6.81A33.14,33.14,0,0,0,76,43.6H52c-.67,0-.76.27-.76.85V60.37c0,.67,0,.86.86.86h51.76s.45-.09.54-.36h-.22Zm0,28.52a11.05,11.05,0,0,0-2.3,0H52.09c-.67,0-.9,0-.9.9v15.57c0,.72,0,.9.9.9h23a11.66,11.66,0,0,0,3.28-.23,33.87,33.87,0,0,0,9.73-2.15,17.68,17.68,0,0,0,3.27-1.52h.31a29.13,29.13,0,0,0,12.52-12.6s.31-.68,0-.86ZM42.18,114.84V90c0-.59,0-.67-.72-.67H31.72c-.53,0-.75,0-.75-.72V80.13h10.4c.58,0,.81,0,.81-.76V70.94c0-.54,0-.67-.72-.67H31.72c-.53,0-.75,0-.75-.72v-7.9c0-.49,0-.62.71-.62h9.64c.67,0,.86,0,.86-.86V36c0-.72,0-.89.9-.89H76.72a50.7,50.7,0,0,1,7.26.8,43.83,43.83,0,0,1,14,5.21,39.25,39.25,0,0,1,7.89,6.1,42.31,42.31,0,0,1,4.8,6,35.75,35.75,0,0,1,3.5,6.86,1.17,1.17,0,0,0,1.34.95h8c1,0,1,0,1.08,1v7.35c0,.72-.27.9-1,.9h-6.19c-.63,0-.81,0-.76.81a44.92,44.92,0,0,1,0,8.2c0,.76,0,.86.86.86h7.08c.31.4,0,.8,0,1.21a10.29,10.29,0,0,1,0,1.57V88.3c0,.76-.22,1-.9,1h-8.47a1.13,1.13,0,0,0-1.31.86,36,36,0,0,1-9.42,13.73,53.78,53.78,0,0,1-4.79,3.85l-5.39,3A48.08,48.08,0,0,1,83.8,114a54.39,54.39,0,0,1-10.5.86H42.17v-.05Z"/></svg>