<svg xmlns="http://www.w3.org/2000/svg" viewBox="0 0 200 200"><defs><style>.cls-1{fill:#43b649;}.cls-2{fill:#3ee028;}.cls-3{fill:none;}.cls-4{fill:#dd7800;}.cls-5{fill:#f5ac37;}.cls-6{fill:#fefefd;}</style></defs><g id="Isolation_Mode" data-name="Isolation Mode"><path class="cls-1" d="M187.74,89.47h0V86.51H12.26v2.95h0v0h0a7,7,0,0,0,2.08,5l76.83,76.83a12.48,12.48,0,0,0,17.66,0l76.83-76.83a7.08,7.08,0,0,0,2.08-5h0Z"/><path class="cls-2" d="M108.83,4.66l76.83,76.83a7.1,7.1,0,0,1,0,10l-76.83,76.83a12.5,12.5,0,0,1-17.66,0L14.34,91.53a7.1,7.1,0,0,1,0-10L91.17,4.66A12.48,12.48,0,0,1,108.83,4.66Z"/><line class="cls-3" x1="117.96" y1="138.96" x2="117.96" y2="138.96"/><path class="cls-4" d="M187.74,113.49v-3H12.26v3h0a7.07,7.07,0,0,0,2.08,5l76.83,76.83a12.48,12.48,0,0,0,17.66,0l76.83-76.83a7.08,7.08,0,0,0,2.08-5h0Z"/><path class="cls-5" d="M48.37,46.4H157a7.1,7.1,0,0,1,7.1,7.1V162.16a12.49,12.49,0,0,1-12.49,12.49H43a7.1,7.1,0,0,1-7.1-7.1V58.89A12.49,12.49,0,0,1,48.37,46.4Z" transform="translate(92.56 259.39) rotate(-135)"/><path class="cls-5" d="M100,48a62.49,62.49,0,1,1-62.49,62.48A62.48,62.48,0,0,1,100,48Z"/><path class="cls-6" d="M102.3,114.93h23.75c.5,0,.74,0,.78-.66a46.31,46.31,0,0,0,0-7.26c0-.47-.24-.66-.75-.66H78.83c-.58,0-.74.19-.74.74v7c0,.9,0,.9.93.9H102.3Zm21.88-16.71a.75.75,0,0,0,0-.55,16.15,16.15,0,0,0-1.41-2.46,20.29,20.29,0,0,0-2.89-3.64,10,10,0,0,0-1.8-1.76,28.1,28.1,0,0,0-11.72-5.93,29,29,0,0,0-6.64-.71h-21c-.58,0-.66.24-.66.75V97.78c0,.58,0,.75.74.75H123.9s.39-.08.47-.32h-.19Zm0,24.84a8.36,8.36,0,0,0-2,0H78.87c-.58,0-.78,0-.78.78v13.55c0,.63,0,.78.78.78h20a9.72,9.72,0,0,0,2.85-.19,30,30,0,0,0,8.48-1.87,15.72,15.72,0,0,0,2.85-1.33h.27a25.43,25.43,0,0,0,10.9-11s.27-.59,0-.75ZM70.24,145.2V123.61c0-.51,0-.58-.62-.58H61.14c-.47,0-.66,0-.66-.63V115h9.06c.5,0,.7,0,.7-.66V107c0-.47,0-.59-.62-.59H61.14c-.47,0-.66,0-.66-.62V98.9c0-.44,0-.55.62-.55h8.4c.58,0,.74,0,.74-.75v-21c0-.62,0-.78.78-.78h29.29a44.74,44.74,0,0,1,6.33.7A38.19,38.19,0,0,1,118.86,81a34.46,34.46,0,0,1,6.87,5.31,37.93,37.93,0,0,1,4.18,5.2,31.11,31.11,0,0,1,3.05,6,1,1,0,0,0,1.17.83h7c.89,0,.89,0,.93.86v6.4c0,.63-.23.78-.86.78h-5.38c-.55,0-.71,0-.67.71a38.7,38.7,0,0,1,0,7.14c0,.66,0,.74.75.74h6.16c.27.35,0,.71,0,1.06a6.27,6.27,0,0,1,0,1.37v4.72c0,.67-.19.86-.78.86h-7.38a1,1,0,0,0-1.13.75,31.4,31.4,0,0,1-8.2,12,46.54,46.54,0,0,1-4.18,3.36l-4.69,2.57a42,42,0,0,1-9.21,2.93,48.27,48.27,0,0,1-9.14.75H70.23v0Z"/></g></svg>