<svg xmlns="http://www.w3.org/2000/svg" viewBox="0 0 200 200"><defs><style>.cls-1{fill:#bc3c35;}.cls-2{fill:#dd463a;}.cls-3{fill:#d17700;}.cls-4{fill:#f5ac37;}.cls-5{fill:#fefefd;}</style></defs><g id="Isolation_Mode" data-name="Isolation Mode"><path class="cls-1" d="M187.74,110.4s-174.48-.62-174.82.12l-.66-.19v3h0a7,7,0,0,0,2.07,5.14l76.83,76.83a12.48,12.48,0,0,0,17.66,0l76.83-76.83a7,7,0,0,0,2.08-5Z"/><path class="cls-2" d="M48.37,46.28H157a7.1,7.1,0,0,1,7.1,7.1V162a12.49,12.49,0,0,1-12.49,12.49H43a7.1,7.1,0,0,1-7.1-7.1V58.76A12.49,12.49,0,0,1,48.37,46.28Z" transform="translate(92.65 259.17) rotate(-135)"/><path class="cls-3" d="M187.74,89.47h0V86.51H12.26v2.95h0v0h0a7,7,0,0,0,2.08,5l76.83,76.83a12.48,12.48,0,0,0,17.66,0l76.83-76.83a7.08,7.08,0,0,0,2.08-5h0Z"/><path class="cls-4" d="M48.37,22.39H157a7.1,7.1,0,0,1,7.1,7.1V138.14a12.49,12.49,0,0,1-12.49,12.49H43a7.1,7.1,0,0,1-7.1-7.1V34.87A12.49,12.49,0,0,1,48.37,22.39Z" transform="translate(109.54 218.39) rotate(-135)"/><path class="cls-5" d="M101.12,91.44h27.27c.58,0,.86,0,.9-.76a52.78,52.78,0,0,0,0-8.34c0-.54-.27-.76-.86-.76H74.17c-.67,0-.86.22-.86.86v8c0,1,0,1,1.08,1h26.73Zm25.13-19.2a.94.94,0,0,0,0-.62,17.62,17.62,0,0,0-1.63-2.83,23.06,23.06,0,0,0-3.31-4.18,11,11,0,0,0-2.07-2,32.31,32.31,0,0,0-13.45-6.82,33.14,33.14,0,0,0-7.63-.8H74.07c-.67,0-.76.27-.76.85V71.74c0,.67,0,.86.86.86h51.76s.45-.09.54-.36Zm0,28.53a11.05,11.05,0,0,0-2.3,0H74.21c-.67,0-.9,0-.9.9v15.57c0,.71,0,.89.9.89h23a11.3,11.3,0,0,0,3.28-.22,34.2,34.2,0,0,0,9.73-2.15,17.72,17.72,0,0,0,3.27-1.53h.31a29.08,29.08,0,0,0,12.52-12.6s.31-.67,0-.85ZM64.3,126.21v-24.8c0-.59,0-.67-.72-.67H53.84c-.53,0-.75,0-.75-.72V91.5h10.4c.58,0,.81,0,.81-.76V82.3c0-.53,0-.67-.72-.67H53.84c-.53,0-.75,0-.75-.71V73c0-.49,0-.63.71-.63h9.64c.67,0,.86,0,.86-.85V47.36c0-.72,0-.9.9-.9H98.84a52.19,52.19,0,0,1,7.26.81,44,44,0,0,1,14,5.2,40,40,0,0,1,7.89,6.1,42.4,42.4,0,0,1,4.8,6,35.75,35.75,0,0,1,3.5,6.86,1.18,1.18,0,0,0,1.34.95h8c1,0,1,0,1.08,1v7.36c0,.72-.27.9-1,.9H139.6c-.63,0-.81,0-.76.8a45,45,0,0,1,0,8.21c0,.76,0,.85.86.85h7.08c.31.4,0,.81,0,1.22a10.29,10.29,0,0,1,0,1.57v5.43c0,.76-.22,1-.9,1h-8.47a1.13,1.13,0,0,0-1.31.86,35.94,35.94,0,0,1-9.42,13.72,52.16,52.16,0,0,1-4.79,3.86l-5.39,3a48.62,48.62,0,0,1-10.58,3.36,56,56,0,0,1-10.5.86H64.29v0Z"/></g></svg>