<svg id="Layer_1" data-name="Layer 1" xmlns="http://www.w3.org/2000/svg" viewBox="0 0 150 150"><defs><style>.cls-1{fill:#fff707;}.cls-2{fill:#231f20;}</style></defs><path class="cls-1" d="M150,75A75,75,0,0,1,22,128,75,75,0,1,1,150,75Z"/><path class="cls-2" d="M123.31,105.57H110.06c0-.35,0-.66,0-1a52.32,52.32,0,0,0-2.42-15.85,33.94,33.94,0,0,0-7.47-12.8,31.5,31.5,0,0,0-13.87-8.51,40.67,40.67,0,0,0-10.1-1.7,39.13,39.13,0,0,0-11.16,1A28.46,28.46,0,0,0,46.72,80.18,42.9,42.9,0,0,0,41.81,92.4,64.92,64.92,0,0,0,40.13,103c-.05.66-.09,1.32-.14,2,0,.2-.05.4-.09.63H26.69c0-.31,0-.58,0-.85a94.38,94.38,0,0,1,2.72-17.85,58.47,58.47,0,0,1,7-16.68A40.1,40.1,0,0,1,52.36,55.49a43.74,43.74,0,0,1,12.26-4l.72-.15-.64-1.05a12.5,12.5,0,0,1-1.89-5.52,6.53,6.53,0,0,1,.35-2.91,2.79,2.79,0,0,1,3.75-1.79A7.11,7.11,0,0,1,69.77,42c.24.25.46.51.78.86,0-.3,0-.48,0-.67a16,16,0,0,1,1-5.64,8.79,8.79,0,0,1,1.72-2.94,3.62,3.62,0,0,1,5.78,0,9.67,9.67,0,0,1,2.25,4.71c.25,1.22.35,2.48.53,3.75l.29-.22c.57-.45,1.12-.93,1.71-1.36a3.43,3.43,0,0,1,.93-.43,2.54,2.54,0,0,1,3.3,1.42,7.37,7.37,0,0,1,.49,3.83,13.39,13.39,0,0,1-1.85,5.9,3.33,3.33,0,0,0-.13.32l.85.23a43.95,43.95,0,0,1,31.07,26.48,59.66,59.66,0,0,1,3.88,13.88,77.17,77.17,0,0,1,1,12.7Z"/><path class="cls-2" d="M83.33,89.23c0-1,0-2.06,0-3.08a2.69,2.69,0,1,1,5.37-.07c0,.87,0,1.74,0,2.6,0,1.24,0,2.47,0,3.7a2.68,2.68,0,0,1-5.36.2c0-1.11,0-2.23,0-3.35Z"/><path class="cls-2" d="M62.87,89.22c0-1.09,0-2.19,0-3.28A2.6,2.6,0,0,1,65,83.4a2.66,2.66,0,0,1,3.21,2.21s0,.09,0,.14c0,2.32,0,4.65,0,7A2.41,2.41,0,0,1,66.52,95a2.63,2.63,0,0,1-3.64-2.32c-.05-1.14,0-2.29,0-3.43Z"/></svg>