<svg xmlns="http://www.w3.org/2000/svg" viewBox="0 0 200 200"><defs><style>.cls-1{fill:#43b649;}.cls-2{fill:#3ee028;}.cls-3{fill:#d3c800;}.cls-4{fill:#fff707;}.cls-5{fill:#231f20;}</style></defs><g id="Isolation_Mode" data-name="Isolation Mode"><path class="cls-1" d="M187.74,89.47h0V86.51H12.26v2.95h0v0h0a7,7,0,0,0,2.08,5l76.83,76.83a12.48,12.48,0,0,0,17.66,0l76.83-76.83a7.08,7.08,0,0,0,2.08-5h0Z"/><path class="cls-2" d="M108.83,4.66l76.83,76.83a7.1,7.1,0,0,1,0,10l-76.83,76.83a12.5,12.5,0,0,1-17.66,0L14.34,91.53a7.1,7.1,0,0,1,0-10L91.17,4.66A12.48,12.48,0,0,1,108.83,4.66Z"/><path class="cls-3" d="M187.74,113.49v-3H12.26v3h0a7.07,7.07,0,0,0,2.08,5l76.83,76.83a12.48,12.48,0,0,0,17.66,0l76.83-76.83a7.08,7.08,0,0,0,2.08-5h0Z"/><path class="cls-4" d="M48.37,46.4H157a7.1,7.1,0,0,1,7.1,7.1V162.16a12.49,12.49,0,0,1-12.49,12.49H43a7.1,7.1,0,0,1-7.1-7.1V58.89A12.49,12.49,0,0,1,48.37,46.4Z" transform="translate(92.56 259.39) rotate(-135)"/><path class="cls-5" d="M148.31,135.2H135.06c0-.35,0-.67,0-1a52.23,52.23,0,0,0-2.42-15.85,34.06,34.06,0,0,0-7.47-12.81,31.48,31.48,0,0,0-13.87-8.5,40.22,40.22,0,0,0-10.1-1.7,39.49,39.49,0,0,0-11.16,1A28.46,28.46,0,0,0,71.72,109.8,43,43,0,0,0,66.81,122a64.8,64.8,0,0,0-1.68,10.54c0,.66-.09,1.32-.14,2,0,.21,0,.41-.09.64H51.69c0-.32,0-.59,0-.85a94.61,94.61,0,0,1,2.72-17.86,58.41,58.41,0,0,1,7-16.67A40,40,0,0,1,77.36,85.12a43.76,43.76,0,0,1,12.26-4c.22,0,.44-.09.72-.15l-.64-1a12.59,12.59,0,0,1-1.89-5.53,6.49,6.49,0,0,1,.35-2.9,2.79,2.79,0,0,1,3.75-1.79,6.91,6.91,0,0,1,2.86,1.94c.24.24.46.5.78.86,0-.3,0-.49,0-.67a16,16,0,0,1,1-5.65,8.89,8.89,0,0,1,1.72-2.94,3.63,3.63,0,0,1,5.78,0A9.58,9.58,0,0,1,106.29,68c.25,1.22.35,2.47.53,3.75l.29-.22c.57-.46,1.12-.94,1.71-1.36a3.43,3.43,0,0,1,.93-.43,2.53,2.53,0,0,1,3.3,1.42,7.37,7.37,0,0,1,.49,3.83,13.43,13.43,0,0,1-1.85,5.9,2.49,2.49,0,0,0-.13.32l.85.22a43.95,43.95,0,0,1,31.07,26.48,59.74,59.74,0,0,1,3.88,13.89,77.17,77.17,0,0,1,.95,12.7Z"/><path class="cls-5" d="M108.33,118.85c0-1,0-2,0-3.08a2.69,2.69,0,1,1,5.37-.06c0,.86,0,1.73,0,2.6,0,1.23,0,2.47,0,3.7a2.68,2.68,0,0,1-5.36.2c0-1.12,0-2.24,0-3.36Z"/><path class="cls-5" d="M87.87,118.85c0-1.1,0-2.19,0-3.29A2.6,2.6,0,0,1,90,113a2.66,2.66,0,0,1,3.21,2.22s0,.09,0,.13c0,2.33,0,4.66,0,7a2.41,2.41,0,0,1-1.65,2.24,2.64,2.64,0,0,1-3.64-2.33c0-1.14,0-2.28,0-3.42Z"/></g></svg>