<svg xmlns="http://www.w3.org/2000/svg" viewBox="0 0 200 200"><defs><style>.cls-1{fill:#bc3c35;}.cls-2{fill:#dd463a;}.cls-3{fill:#d3c800;}.cls-4{fill:#fff707;}.cls-5{fill:#231f20;}</style></defs><g id="Isolation_Mode" data-name="Isolation Mode"><path class="cls-1" d="M187.74,110.4s-174.48-.62-174.82.12l-.66-.19v3h0a7,7,0,0,0,2.07,5.14l76.83,76.83a12.48,12.48,0,0,0,17.66,0l76.83-76.83a7,7,0,0,0,2.08-5Z"/><path class="cls-2" d="M48.37,46.28H157a7.1,7.1,0,0,1,7.1,7.1V162a12.49,12.49,0,0,1-12.49,12.49H43a7.1,7.1,0,0,1-7.1-7.1V58.76A12.49,12.49,0,0,1,48.37,46.28Z" transform="translate(92.65 259.17) rotate(-135)"/><path class="cls-3" d="M187.74,89.47h0V86.51H12.26v2.95h0v0h0a7,7,0,0,0,2.08,5l76.83,76.83a12.48,12.48,0,0,0,17.66,0l76.83-76.83a7.08,7.08,0,0,0,2.08-5h0Z"/><path class="cls-4" d="M48.37,22.39H157a7.1,7.1,0,0,1,7.1,7.1V138.14a12.49,12.49,0,0,1-12.49,12.49H43a7.1,7.1,0,0,1-7.1-7.1V34.87A12.49,12.49,0,0,1,48.37,22.39Z" transform="translate(109.54 218.39) rotate(-135)"/><path class="cls-5" d="M148.31,111.18H135.06c0-.35,0-.66,0-1a52.32,52.32,0,0,0-2.42-15.85,33.94,33.94,0,0,0-7.47-12.8A31.5,31.5,0,0,0,111.29,73a40.67,40.67,0,0,0-10.1-1.7,39.13,39.13,0,0,0-11.16,1A28.46,28.46,0,0,0,71.72,85.79,42.9,42.9,0,0,0,66.81,98a64.92,64.92,0,0,0-1.68,10.55c0,.66-.09,1.32-.14,2,0,.2,0,.4-.09.63H51.69c0-.31,0-.58,0-.85a94.61,94.61,0,0,1,2.72-17.86,58.53,58.53,0,0,1,7-16.67A40.1,40.1,0,0,1,77.36,61.1a43.74,43.74,0,0,1,12.26-4l.72-.15L89.7,55.9a12.55,12.55,0,0,1-1.89-5.52,6.53,6.53,0,0,1,.35-2.91,2.79,2.79,0,0,1,3.75-1.79,7.11,7.11,0,0,1,2.86,1.94c.24.25.46.51.78.86,0-.3,0-.48,0-.67a16.05,16.05,0,0,1,1-5.65,8.85,8.85,0,0,1,1.72-2.93,3.62,3.62,0,0,1,5.78,0,9.67,9.67,0,0,1,2.25,4.71c.25,1.22.35,2.48.53,3.75l.29-.22c.57-.45,1.12-.93,1.71-1.36a3.43,3.43,0,0,1,.93-.43,2.54,2.54,0,0,1,3.3,1.42,7.37,7.37,0,0,1,.49,3.83,13.39,13.39,0,0,1-1.85,5.9,3.33,3.33,0,0,0-.13.32c.3.08.57.16.85.22a44,44,0,0,1,31.07,26.48,59.88,59.88,0,0,1,3.88,13.89,77.17,77.17,0,0,1,.95,12.7Z"/><path class="cls-5" d="M108.33,94.84c0-1,0-2.06,0-3.08a2.69,2.69,0,1,1,5.37-.07c0,.87,0,1.74,0,2.6,0,1.24,0,2.47,0,3.7a2.68,2.68,0,0,1-5.36.2c0-1.11,0-2.23,0-3.35Z"/><path class="cls-5" d="M87.87,94.83c0-1.09,0-2.19,0-3.28A2.62,2.62,0,0,1,90,89a2.67,2.67,0,0,1,3.21,2.22s0,.09,0,.14c0,2.32,0,4.65,0,7a2.41,2.41,0,0,1-1.65,2.24,2.63,2.63,0,0,1-3.64-2.32c0-1.14,0-2.29,0-3.43Z"/></g></svg>