<svg xmlns="http://www.w3.org/2000/svg" viewBox="0 0 150 150"><defs><style>.cls-1{fill:#5f668b;}.cls-2{fill:#fff;}</style></defs><g id="Layer_1" data-name="Layer 1"><path class="cls-1" d="M150,75A75,75,0,0,1,22,128,75,75,0,1,1,150,75Z"/></g><g id="Isolation_Mode" data-name="Isolation Mode"><path id="path4542-2" class="cls-2" d="M57.63,106.72c-8.85-12.53-16.07-22.8-16-22.84s7.32,4.17,16.18,9.36l16.12,9.43v13.41c0,7.37,0,13.4-.08,13.4S66.49,119.24,57.63,106.72ZM76,116.13V102.7l16.12-9.44c8.87-5.2,16.16-9.42,16.2-9.37s-31.67,45-32.09,45.44c-.17.17-.23-3.45-.23-13.2ZM57.57,86.28c-8.91-5.22-16.23-9.55-16.26-9.64s32.36-14.42,32.5-14.28.06,7.59,0,16.75l-.06,16.67ZM76,79.07c0-9.22,0-16.76.13-16.76s32.37,14.1,32.53,14.25S84.22,91.18,77.28,95.11L76,95.83ZM92,66.82,76,59.86V40.14c0-10.84.08-19.62.18-19.51.41.47,32,53.19,31.85,53.19s-7.33-3.15-16.09-7ZM42.33,73.51c0-.12,31.28-52.77,31.49-53,0-.05.08,8.78.08,19.62V59.86L58.31,66.68c-17.58,7.7-16,7-16,6.83Z"/></g></svg>