<svg viewBox="0 0 32 32" fill="none" xmlns="http://www.w3.org/2000/svg">
<path d="M32 15.9999C32 24.8365 24.8367 32 16.0001 32C7.16344 32 0 24.8365 0 15.9999C0 7.1634 7.16344 0 16.0001 0C24.8366 0 32 7.1634 32 15.9999Z" fill="#00007A"/>
<path d="M15.7532 5.81836L15.6315 6.23199V18.2346L15.7532 18.356L21.3246 15.0628L15.7532 5.81836Z" fill="white"/>
<path d="M15.7532 5.81836L10.1818 15.0628L15.7532 18.3561V12.5304V5.81836Z" fill="white"/>
<path d="M15.7533 20.1676L15.6847 20.2512V24.5268L15.7533 24.7271L21.3281 16.876L15.7533 20.1676Z" fill="white"/>
<path d="M15.7532 24.7271V20.1676L10.1818 16.876L15.7532 24.7271Z" fill="white"/>
<path d="M15.7532 18.3573L21.3246 15.0641L15.7532 12.5317V18.3573Z" fill="white"/>
<path d="M10.1818 15.0641L15.7531 18.3574V12.5317L10.1818 15.0641Z" fill="white"/>
</svg>
