<?xml version="1.0" encoding="utf-8"?>
<!-- Generator: Adobe Illustrator 25.4.1, SVG Export Plug-In . SVG Version: 6.00 Build 0)  -->
<svg version="1.1" xmlns="http://www.w3.org/2000/svg" xmlns:xlink="http://www.w3.org/1999/xlink" x="0px" y="0px"
	 viewBox="0 0 200 200" style="enable-background:new 0 0 200 200;" xml:space="preserve">
<style type="text/css">
	.st0{fill:#FFFFFF;}
	.st1{fill:#21DD53;}
	.st2{fill:#1AA66E;}
	.st3{fill:#136F88;}
	.st4{fill:#0C37A3;}
	.st5{fill:#0500BD;}
	.st6{fill:#F15025;}
	.st7{fill:#B63C4B;}
	.st8{fill:#7B2871;}
	.st9{fill:#401497;}
</style>
<g id="Layer_1">
</g>
<g id="Isolation_Mode">
	<g>
		<g>
			<path class="st6" d="M175.4,175.4C159,191.8,137.6,200,116.1,200s-43-8.2-59.3-24.6s-24.6-37.9-24.6-59.3s8.2-43,24.6-59.3
				s37.9-24.6,59.3-24.6s43,8.2,59.3,24.6S200,94.6,200,116.1S191.8,159,175.4,175.4z"/>
			<path class="st7" d="M48.7,48.7C64.8,32.6,86.1,24.1,108,24.1s43.3,8.5,59.3,24.6S192,86.1,192,108s-8.5,43.3-24.6,59.3
				S129.9,192,108,192s-43.3-8.5-59.3-24.6S24.1,129.9,24.1,108S32.6,64.8,48.7,48.7z"/>
			<path class="st8" d="M40.7,40.7c15.8-15.8,37-24.6,59.3-24.6s43.6,8.8,59.3,24.6s24.6,37,24.6,59.3s-8.8,43.6-24.6,59.3
				s-37,24.6-59.3,24.6s-43.6-8.8-59.3-24.6s-24.6-37-24.6-59.3S24.9,56.4,40.7,40.7z"/>
			<path class="st9" d="M32.6,32.6C48.1,17.1,69.2,8,92,8s43.9,9.1,59.3,24.6s24.6,36.6,24.6,59.3s-9.1,43.9-24.6,59.3
				s-36.6,24.6-59.3,24.6s-43.9-9.1-59.3-24.6S8,114.7,8,92S17.1,48.1,32.6,32.6z"/>
			<path class="st5" d="M167.8,83.9c0,23.2-9.4,44.2-24.6,59.3c-15.2,15.2-36.2,24.6-59.3,24.6s-44.2-9.4-59.3-24.6
				C9.4,128.1,0,107.1,0,83.9s9.4-44.2,24.6-59.3S60.7,0,83.9,0C130.3,0,167.8,37.6,167.8,83.9z"/>
		</g>
		<g id="path4542-2_00000095322614658960131040000013703532460223263378_">
			<path class="st0" d="M61.9,124.2c-11.2-15.9-20.4-28.9-20.4-29c0-0.1,9.3,5.3,20.5,11.9l20.5,12v17c0,9.4,0,17-0.1,17
				C82.4,153.1,73.1,140.1,61.9,124.2z M85.2,136.1v-17.1l20.5-12c11.3-6.6,20.5-12,20.6-11.9c0.1,0.1-40.2,57.2-40.7,57.7
				C85.3,153.1,85.2,148.5,85.2,136.1L85.2,136.1z M61.8,98.2C50.5,91.6,41.2,86.1,41.1,86c-0.1-0.2,41.1-18.3,41.3-18.1
				c0.1,0.1,0.1,9.6,0,21.3l-0.1,21.2L61.8,98.2z M85.2,89.1c0-11.7,0.1-21.3,0.2-21.3c0.3,0,41.1,17.9,41.3,18.1
				c0.1,0.1-31.1,18.6-39.9,23.6l-1.6,0.9V89.1z M105.5,73.5l-20.2-8.8v-25c0-13.8,0.1-24.9,0.2-24.8c0.5,0.6,40.6,67.5,40.5,67.5
				C125.8,82.4,116.6,78.4,105.5,73.5L105.5,73.5z M42.4,82c0-0.2,39.7-67,40-67.3c0.1-0.1,0.1,11.1,0.1,24.9v25l-19.8,8.7
				C40.4,83.1,42.4,82.3,42.4,82L42.4,82z"/>
		</g>
	</g>
</g>
</svg>
