<svg xmlns="http://www.w3.org/2000/svg" viewBox="0 0 198.43 198.43"><defs><style>.cls-1{fill:#bc3c35;}.cls-2{fill:#444966;}.cls-3{fill:#dd463a;}.cls-4{fill:#5f668b;}.cls-5{fill:#fff;}</style></defs><g id="Isolation_Mode" data-name="Isolation Mode"><path class="cls-1" d="M50.18,50.55H154.61a6.82,6.82,0,0,1,6.82,6.82V161.81a12,12,0,0,1-12,12H45A6.82,6.82,0,0,1,38.18,167V62.56a12,12,0,0,1,12-12Z" transform="translate(91.06 262.08) rotate(-135)"/><polygon class="cls-1" points="184.14 112.18 184.11 108.63 179.72 110.4 179.37 118.8 184.14 112.18"/><polygon class="cls-2" points="184.14 89.13 184.11 86.08 179.72 89.38 179.37 95.61 184.14 89.13"/><polygon class="cls-1" points="15.49 112.18 15.52 108.63 19.91 110.4 20.26 118.8 15.49 112.18"/><polygon class="cls-2" points="15.49 89.13 15.52 86.08 19.91 89.38 20.26 95.61 15.49 89.13"/><path class="cls-3" d="M50.18,47.58H154.61a6.82,6.82,0,0,1,6.82,6.82V158.83a12,12,0,0,1-12,12H45A6.82,6.82,0,0,1,38.18,164V59.58a12,12,0,0,1,12-12Z" transform="translate(93.17 257) rotate(-135)"/><path class="cls-2" d="M50.18,27.46H154.61a6.82,6.82,0,0,1,6.82,6.82V138.71a12,12,0,0,1-12,12H45a6.82,6.82,0,0,1-6.82-6.82V39.46a12,12,0,0,1,12-12Z" transform="translate(107.39 222.66) rotate(-135)"/><path class="cls-4" d="M50.18,24.62H154.61a6.82,6.82,0,0,1,6.82,6.82V135.87a12,12,0,0,1-12,12H45A6.82,6.82,0,0,1,38.18,141V36.62a12,12,0,0,1,12-12Z" transform="translate(109.4 217.8) rotate(-135)"/><path id="path4542-2" class="cls-5" d="M82.44,118c-8.85-12.52-16.07-22.8-16-22.84s7.32,4.17,16.18,9.36l16.12,9.44v13.4c0,7.37,0,13.4-.08,13.4S91.3,130.48,82.44,118Zm18.4,9.42V113.94L117,104.5c8.87-5.19,16.16-9.41,16.2-9.37s-31.67,45-32.09,45.45c-.17.17-.23-3.46-.23-13.2ZM82.38,97.53C73.47,92.31,66.15,88,66.12,87.88s32.36-14.41,32.5-14.27.06,7.58,0,16.75L98.59,107Zm18.45-7.22c0-9.22.06-16.76.13-16.76s32.38,14.1,32.54,14.26S109,102.43,102.09,106.36l-1.26.71Zm16-12.24-15.94-7V51.39c0-10.85.08-19.63.17-19.52.42.47,32,53.2,31.86,53.19s-7.33-3.15-16.09-7ZM67.14,84.75c0-.12,31.28-52.77,31.49-53,0-.05.08,8.78.07,19.62V71.1L83.12,77.93c-17.58,7.69-16,7-16,6.83Z"/></g></svg>