<svg xmlns="http://www.w3.org/2000/svg" viewBox="0 0 198.43 198.43"><defs><style>.cls-1{fill:#43b649;}.cls-2{fill:#3ee028;}.cls-3{fill:#444966;}.cls-4{fill:#5f668b;}.cls-5{fill:#fff;}</style></defs><g id="Isolation_Mode" data-name="Isolation Mode"><path class="cls-1" d="M50.17,27.38H154.6a6.82,6.82,0,0,1,6.82,6.82V138.63a12,12,0,0,1-12,12H45a6.82,6.82,0,0,1-6.82-6.82V39.38a12,12,0,0,1,12-12Z" transform="translate(107.43 222.51) rotate(-135)"/><polygon class="cls-1" points="184.13 89 184.1 85.45 179.71 87.23 179.36 95.63 184.13 89"/><polygon class="cls-1" points="15.48 89 15.51 85.45 19.9 87.23 20.25 95.63 15.48 89"/><path class="cls-2" d="M108.28,7.36,182.13,81.2a6.83,6.83,0,0,1,0,9.65L108.28,164.7a12,12,0,0,1-17,0L17.47,90.85a6.81,6.81,0,0,1,0-9.65L91.31,7.36A12,12,0,0,1,108.28,7.36Z"/><polygon class="cls-3" points="184.13 112 184.1 108.96 179.71 112.26 179.36 118.48 184.13 112"/><polygon class="cls-3" points="15.48 112 15.51 108.96 19.9 112.26 20.25 118.48 15.48 112"/><path class="cls-3" d="M50.17,50.34H154.6a6.82,6.82,0,0,1,6.82,6.82V161.59a12,12,0,0,1-12,12H45a6.82,6.82,0,0,1-6.82-6.82V62.34a12,12,0,0,1,12-12Z" transform="translate(91.19 261.7) rotate(-135)"/><path class="cls-4" d="M50.17,47.49H154.6a6.82,6.82,0,0,1,6.82,6.82V158.75a12,12,0,0,1-12,12H45a6.82,6.82,0,0,1-6.82-6.82V59.5a12,12,0,0,1,12-12Z" transform="translate(93.2 256.85) rotate(-135)"/><path id="path4542-2" class="cls-5" d="M82.43,140.84c-8.85-12.52-16.07-22.8-16-22.84s7.32,4.17,16.19,9.36l16.11,9.43V150.2c0,7.37,0,13.4-.08,13.4S91.29,153.36,82.43,140.84Zm18.4,9.41V136.82L117,127.38c8.87-5.19,16.15-9.42,16.19-9.37s-31.66,45-32.08,45.45c-.17.17-.23-3.46-.23-13.2ZM82.37,120.41c-8.92-5.22-16.23-9.56-16.26-9.65S98.47,96.35,98.6,96.48s.06,7.59,0,16.75l0,16.67Zm18.45-7.22c0-9.22.06-16.76.13-16.76s32.38,14.1,32.53,14.25-24.46,14.63-31.4,18.56l-1.26.71Zm16-12.24-15.93-7V74.26c0-10.84.07-19.62.17-19.51.42.47,32,53.2,31.86,53.19s-7.33-3.15-16.09-7Zm-49.64,6.68c0-.12,31.28-52.77,31.48-53,0,0,.08,8.78.08,19.62V94L83.1,100.8c-17.57,7.7-16,7-16,6.84Z"/></g></svg>