<svg width="18" height="19" viewBox="0 0 18 19" fill="none" xmlns="http://www.w3.org/2000/svg">
<g clip-path="url(#clip0)">
<path d="M3.74091 9.07101C3.74089 8.97053 3.76073 8.87103 3.79928 8.77823C3.83783 8.68543 3.89433 8.60117 3.96555 8.53027C4.03676 8.45938 4.12128 8.40325 4.21425 8.36512C4.30722 8.32698 4.4068 8.30759 4.50729 8.30806L5.77787 8.31223C5.98046 8.31223 6.17476 8.39271 6.31801 8.53596C6.46126 8.67921 6.54174 8.87351 6.54174 9.0761V13.8806C6.68487 13.8382 6.86844 13.793 7.06954 13.7458C7.20916 13.713 7.3336 13.6339 7.42267 13.5215C7.51174 13.409 7.56022 13.2698 7.56026 13.1264V7.16676C7.56025 7.06643 7.58 6.96708 7.61839 6.87439C7.65678 6.78169 7.71304 6.69747 7.78398 6.62652C7.85492 6.55557 7.93914 6.49929 8.03183 6.46088C8.12451 6.42248 8.22386 6.40271 8.32419 6.4027H9.59729C9.79987 6.40274 9.99414 6.48323 10.1374 6.62647C10.2806 6.76972 10.3611 6.96399 10.3612 7.16658V12.6981C10.3612 12.6981 10.6798 12.5691 10.9904 12.438C11.1057 12.3892 11.2041 12.3075 11.2733 12.2032C11.3425 12.0988 11.3795 11.9764 11.3796 11.8512V5.25675C11.3796 5.15644 11.3994 5.05711 11.4377 4.96443C11.4761 4.87175 11.5324 4.78755 11.6033 4.71661C11.6742 4.64568 11.7584 4.58941 11.8511 4.55102C11.9438 4.51263 12.0431 4.49288 12.1434 4.49288H13.4165C13.6191 4.49288 13.8134 4.57335 13.9567 4.7166C14.0999 4.85986 14.1804 5.05415 14.1804 5.25675V10.6869C15.2842 9.88702 16.4028 8.92488 17.2905 7.76801C17.4193 7.60009 17.5045 7.40289 17.5386 7.19402C17.5726 6.98515 17.5545 6.77109 17.4857 6.57096C16.885 4.82051 15.7584 3.2983 14.2598 2.21248C12.7612 1.12666 10.9638 0.530221 9.1133 0.504722C4.12342 0.437691 -0.000446995 4.51095 4.31765e-05 9.50144C-0.00485627 11.0806 0.407299 12.6331 1.19484 14.0018C1.30344 14.189 1.46322 14.3414 1.6554 14.4409C1.84759 14.5405 2.06419 14.5831 2.27977 14.5639C2.52063 14.5427 2.82049 14.5127 3.17696 14.4709C3.33212 14.4532 3.47537 14.3791 3.57942 14.2626C3.68347 14.1462 3.74106 13.9956 3.74121 13.8394V9.07101" fill="#21325B"/>
<path d="M3.71491 16.7779C5.05687 17.7541 6.64273 18.3401 8.29705 18.471C9.95137 18.6019 11.6097 18.2726 13.0884 17.5195C14.5672 16.7665 15.8089 15.619 16.676 14.2041C17.5431 12.7892 18.0019 11.1619 18.0017 9.50243C18.0017 9.29528 17.992 9.09045 17.9782 8.88672C14.6915 13.7884 8.62292 16.08 3.71484 16.7781" fill="#979695"/>
</g>
<defs>
<clipPath id="clip0">
<rect width="18" height="17.9936" fill="white" transform="translate(0 0.503906)"/>
</clipPath>
</defs>
</svg>
