<svg viewBox="0 0 32 32" fill="none" xmlns="http://www.w3.org/2000/svg">
<path d="M32 15.9999C32 24.8365 24.8367 32 16.0001 32C7.16344 32 0 24.8365 0 15.9999C0 7.1634 7.16344 0 16.0001 0C24.8366 0 32 7.1634 32 15.9999" fill="#FFD90F"/>
<path d="M20.8503 23.7879L20.3801 21.6527C20.3534 21.5272 20.2862 21.4332 20.1785 21.3707C20.0621 21.3079 19.9458 21.2992 19.8295 21.344L19.7622 21.3707L19.6009 21.411C19.5292 21.4286 19.4464 21.449 19.3524 21.4713C19.2584 21.4937 19.1489 21.5159 19.0233 21.5384C18.8985 21.5608 18.7658 21.5811 18.6273 21.599C18.4886 21.6165 18.3389 21.6325 18.1776 21.646C18.0162 21.6592 17.8553 21.666 17.694 21.666C16.5568 21.666 15.5338 21.3594 14.6252 20.7461C13.7164 20.1326 13.0471 19.3022 12.6174 18.2549H17.8146C17.9133 18.2549 18.0028 18.2214 18.0831 18.1541C18.1639 18.0871 18.2132 18.0043 18.2307 17.9055L18.553 16.4013C18.58 16.2674 18.553 16.1464 18.4727 16.0388C18.3832 15.9313 18.271 15.8775 18.1369 15.8775H11.9729C11.946 15.2687 11.946 14.7987 11.9729 14.4673H18.5266C18.7686 14.4673 18.9117 14.3511 18.9564 14.1183L19.2787 12.5872C19.3054 12.4619 19.2745 12.3456 19.1847 12.2381C19.1044 12.1307 18.9925 12.0767 18.8492 12.0767H12.5638C13.0115 11.074 13.6829 10.2861 14.5784 9.71308C15.4737 9.13991 16.4854 8.85349 17.6135 8.85349C17.6495 8.83561 17.7814 8.84013 18.0096 8.86694C18.2378 8.89366 18.3679 8.90495 18.3991 8.90043C18.43 8.89601 18.5469 8.90951 18.7481 8.94065C18.9496 8.97198 19.0504 8.98769 19.0504 8.98769L19.2854 9.03464C19.3528 9.04818 19.4042 9.05919 19.44 9.06827L19.4937 9.08163C19.61 9.11761 19.7172 9.10632 19.8161 9.04818C19.9146 8.98981 19.9773 8.90264 20.0043 8.78627L20.5818 6.65092C20.6085 6.5345 20.595 6.42706 20.5416 6.32861C20.4609 6.22098 20.3713 6.15386 20.2728 6.12709C19.4491 5.9212 18.5803 5.81818 17.6673 5.81818C15.6615 5.81818 13.8688 6.39136 12.2885 7.53723C10.7082 8.68321 9.61808 10.1965 9.01818 12.0766H7.70216C7.57676 12.0766 7.47388 12.1168 7.39326 12.1974C7.31287 12.2779 7.27246 12.3809 7.27246 12.5063V14.0373C7.27246 14.1626 7.31273 14.2656 7.39326 14.346C7.47393 14.4267 7.57695 14.4668 7.70216 14.4668H8.60203C8.57498 14.8967 8.5707 15.3665 8.58848 15.8771H7.70216C7.58579 15.8771 7.48508 15.9196 7.40003 16.0046C7.31503 16.0896 7.27246 16.1904 7.27246 16.3066V17.8243C7.27246 17.9409 7.31503 18.0413 7.40003 18.1266C7.48513 18.2117 7.58579 18.2538 7.70216 18.2538H8.97806C9.54211 20.2325 10.6076 21.8062 12.1745 22.9745C13.7414 24.1433 15.5724 24.7273 17.6673 24.7273C17.8376 24.7273 18.0098 24.7231 18.1845 24.7138C18.3595 24.7048 18.5226 24.6912 18.6748 24.6736C18.827 24.6558 18.977 24.6359 19.1248 24.6133C19.2724 24.5908 19.4068 24.5688 19.5275 24.546C19.6484 24.5238 19.7626 24.5015 19.8699 24.4792C19.9774 24.4566 20.0737 24.4322 20.1589 24.4052C20.2439 24.3787 20.3152 24.3583 20.3736 24.3452C20.4319 24.3317 20.4789 24.3157 20.5144 24.2982L20.5818 24.2846C20.6803 24.2489 20.7564 24.1839 20.81 24.0897C20.8638 23.9962 20.877 23.8953 20.8503 23.7879Z" fill="white"/>
</svg>
