<svg viewBox="0 0 22 22" fill="none" xmlns="http://www.w3.org/2000/svg">
<g clip-path="url(#clip0_6125_284816)">
<path d="M19.294 19.2937C17.49 21.0977 15.136 21.9997 12.771 21.9997C10.406 21.9997 8.04099 21.0977 6.24799 19.2937C4.45499 17.4897 3.54199 15.1247 3.54199 12.7707C3.54199 10.4167 4.44399 8.04071 6.24799 6.24771C8.05199 4.4547 10.417 3.5417 12.771 3.5417C15.125 3.5417 17.501 4.4437 19.294 6.24771C21.087 8.05171 22 10.4057 22 12.7707C22 15.1357 21.098 17.4897 19.294 19.2937Z" fill="#21DD53"/>
<path d="M5.35737 5.35681C7.12837 3.58581 9.47137 2.65081 11.8804 2.65081C14.2894 2.65081 16.6434 3.58581 18.4034 5.35681C20.1634 7.12781 21.1204 9.47081 21.1204 11.8798C21.1204 14.2888 20.1854 16.6428 18.4144 18.4028C16.6434 20.1628 14.2894 21.1198 11.8804 21.1198C9.47137 21.1198 7.11737 20.1848 5.35737 18.4138C3.59737 16.6428 2.65137 14.2888 2.65137 11.8798C2.65137 9.47081 3.58637 7.12781 5.35737 5.35681Z" fill="#1AA66E"/>
<path d="M4.47748 4.47694C6.21548 2.73894 8.54748 1.77094 11.0005 1.77094C13.4535 1.77094 15.7965 2.73894 17.5235 4.47694C19.2505 6.21494 20.2295 8.54694 20.2295 10.9999C20.2295 13.4529 19.2615 15.7959 17.5235 17.5229C15.7855 19.2499 13.4535 20.2289 11.0005 20.2289C8.54748 20.2289 6.20448 19.2609 4.47748 17.5229C2.75048 15.7849 1.77148 13.4529 1.77148 10.9999C1.77148 8.54694 2.73948 6.20394 4.47748 4.47694Z" fill="#136F88"/>
<path d="M3.58588 3.58605C5.29088 1.88105 7.61188 0.880051 10.1199 0.880051C12.6279 0.880051 14.9489 1.88105 16.6429 3.58605C18.3369 5.29105 19.3489 7.61205 19.3489 10.1091C19.3489 12.6061 18.3479 14.9381 16.6429 16.6321C14.9379 18.3261 12.6169 19.3381 10.1199 19.3381C7.62288 19.3381 5.29088 18.3371 3.59688 16.6321C1.90288 14.9271 0.879883 12.6171 0.879883 10.1201C0.879883 7.62305 1.88088 5.29105 3.58588 3.58605Z" fill="#0C37A3"/>
<path d="M18.458 9.229C18.458 11.781 17.424 14.091 15.752 15.752C14.08 17.424 11.77 18.458 9.229 18.458C6.688 18.458 4.367 17.424 2.706 15.752C1.034 14.091 0 11.781 0 9.229C0 6.677 1.034 4.367 2.706 2.706C4.378 1.045 6.677 0 9.229 0C14.333 0 18.458 4.136 18.458 9.229Z" fill="#0500BD"/>
<path d="M13.3347 15.3542L13.0115 13.8863C12.9931 13.7999 12.947 13.7353 12.8729 13.6924C12.7929 13.6492 12.7129 13.6432 12.633 13.674L12.5867 13.6924L12.4758 13.72C12.4265 13.7322 12.3696 13.7462 12.3049 13.7615C12.2403 13.7769 12.165 13.7922 12.0787 13.8077C11.9929 13.8231 11.9016 13.837 11.8065 13.8493C11.7111 13.8614 11.6082 13.8723 11.4973 13.8816C11.3863 13.8907 11.2757 13.8953 11.1648 13.8953C10.383 13.8953 9.67969 13.6846 9.05499 13.2629C8.43019 12.8412 7.97006 12.2703 7.67464 11.5502H11.2477C11.3156 11.5502 11.3771 11.5272 11.4323 11.4809C11.4879 11.4349 11.5218 11.378 11.5338 11.31L11.7554 10.2759C11.774 10.1838 11.7554 10.1006 11.7002 10.0267C11.6386 9.95277 11.5615 9.91577 11.4693 9.91577H7.23153C7.21306 9.49723 7.21306 9.1741 7.23153 8.9463H11.7372C11.9036 8.9463 12.002 8.86636 12.0327 8.70631L12.2543 7.65372C12.2726 7.56757 12.2514 7.48763 12.1897 7.4137C12.1345 7.33983 12.0575 7.30274 11.959 7.30274H7.63781C7.94558 6.61336 8.4072 6.0717 9.02281 5.67774C9.63836 5.28369 10.3339 5.08677 11.1095 5.08677C11.1342 5.07448 11.2249 5.07759 11.3818 5.09602C11.5387 5.11439 11.6281 5.12215 11.6496 5.11905C11.6708 5.11601 11.7512 5.12529 11.8895 5.1467C12.0281 5.16824 12.0974 5.17904 12.0974 5.17904L12.2589 5.21131C12.3052 5.22063 12.3406 5.22819 12.3652 5.23443L12.4021 5.24362C12.4821 5.26836 12.5557 5.2606 12.6237 5.22063C12.6915 5.18049 12.7346 5.12057 12.7531 5.04056L13.1502 3.57251C13.1685 3.49247 13.1592 3.4186 13.1225 3.35092C13.0671 3.27692 13.0054 3.23077 12.9377 3.21237C12.3715 3.07082 11.7742 3 11.1465 3C9.76746 3 8.535 3.39406 7.44852 4.18185C6.36208 4.9697 5.61261 6.01007 5.20018 7.30264H4.29542C4.2092 7.30264 4.13848 7.33029 4.08305 7.38569C4.02778 7.44102 4 7.51185 4 7.59806V8.65065C4 8.7368 4.02768 8.80763 4.08305 8.8629C4.13851 8.91836 4.20933 8.94594 4.29542 8.94594H4.91408C4.89548 9.24149 4.89254 9.56447 4.90476 9.91551H4.29542C4.21541 9.91551 4.14617 9.94472 4.0877 10.0032C4.02927 10.0616 4 10.1309 4 10.2108V11.2542C4 11.3343 4.02927 11.4034 4.0877 11.4621C4.14621 11.5205 4.21541 11.5495 4.29542 11.5495H5.1726C5.56038 12.9098 6.29294 13.9918 7.37013 14.795C8.44739 15.5985 9.70618 16 11.1465 16C11.2635 16 11.3819 15.9971 11.502 15.9907C11.6223 15.9845 11.7344 15.9752 11.8391 15.9631C11.9437 15.9509 12.0469 15.9372 12.1485 15.9217C12.2499 15.9062 12.3423 15.891 12.4253 15.8754C12.5085 15.8601 12.587 15.8448 12.6607 15.8295C12.7347 15.8139 12.8008 15.7972 12.8594 15.7786C12.9178 15.7603 12.9669 15.7464 13.007 15.7373C13.0471 15.728 13.0794 15.7171 13.1039 15.705L13.1501 15.6957C13.2179 15.6711 13.2702 15.6264 13.3071 15.5617C13.3441 15.4974 13.3531 15.428 13.3347 15.3542Z" fill="white"/>
</g>
<defs>
<clipPath id="clip0_6125_284816">
<rect width="22" height="22" fill="white"/>
</clipPath>
</defs>
</svg>
