<svg id="Layer_1" data-name="Layer 1" xmlns="http://www.w3.org/2000/svg" viewBox="0 0 150 150"><defs><style>.cls-1{fill:#4a9772;}.cls-2{fill:#fff;}</style></defs><path class="cls-1" d="M150,75A75,75,0,0,1,22,128,75,75,0,1,1,150,75Z"/><path d="M74.92,115.1c7.7,0,15.39,0,23.08,0,5.07,0,10.15.19,15.19-.2,5.83-.45,8.44-6,5.29-10.92-7-11.06-14.21-22-21.31-33.06a8.67,8.67,0,0,0-7.73-4.21h-29a8.49,8.49,0,0,0-7.52,4.07c-1.53,2.36-3,4.72-4.56,7.07-5.59,8.66-11.22,17.3-16.76,26-3.21,5.06-.58,10.43,5.37,11.13a29.41,29.41,0,0,0,3.25.11Zm-.11-58.71v0h7.06l.54,0c4.14-.32,5.87-3.49,3.76-7q-3.53-5.94-7.23-11.79c-2.27-3.57-5.62-3.6-8,0-2.55,3.84-5,7.74-7.45,11.66-2.28,3.69-.6,7,3.72,7.19C69.74,56.5,72.28,56.39,74.81,56.39Z"/><path class="cls-2" d="M74.92,115.1H40.17a29.41,29.41,0,0,1-3.25-.11c-6-.7-8.58-6.07-5.37-11.13,5.54-8.7,11.17-17.34,16.76-26,1.52-2.35,3-4.71,4.56-7.07a8.49,8.49,0,0,1,7.52-4.07H89.44a8.67,8.67,0,0,1,7.73,4.21c7.1,11,14.27,22,21.31,33.06,3.15,4.94.54,10.47-5.29,10.92-5,.39-10.12.19-15.19.2C90.31,115.12,82.62,115.1,74.92,115.1Z"/><path class="cls-2" d="M74.81,56.39c-2.53,0-5.07.11-7.6,0-4.32-.23-6-3.5-3.72-7.19,2.43-3.92,4.9-7.82,7.45-11.66,2.38-3.56,5.73-3.53,8,0q3.7,5.85,7.23,11.79c2.11,3.55.38,6.72-3.76,7l-.54,0H74.81Z"/></svg>