<svg xmlns="http://www.w3.org/2000/svg" viewBox="0 0 200 200"><defs><style>.cls-1{fill:#43b649;}.cls-2{fill:#3ee028;}.cls-3{fill:#217f4e;}.cls-4{fill:#4a9772;}.cls-5{fill:#fff;}</style></defs><g id="Isolation_Mode" data-name="Isolation Mode"><path class="cls-1" d="M187.74,89.47h0V86.51H12.26v2.95h0v0h0a7,7,0,0,0,2.08,5l76.83,76.83a12.48,12.48,0,0,0,17.66,0l76.83-76.83a7.08,7.08,0,0,0,2.08-5h0Z"/><path class="cls-2" d="M108.83,4.66l76.83,76.83a7.1,7.1,0,0,1,0,10l-76.83,76.83a12.5,12.5,0,0,1-17.66,0L14.34,91.53a7.1,7.1,0,0,1,0-10L91.17,4.66A12.48,12.48,0,0,1,108.83,4.66Z"/></g><g id="Layer_6" data-name="Layer 6"><path class="cls-3" d="M187.51,113.49v-3H12v3h0a7.11,7.11,0,0,0,2.07,5l76.83,76.83a12.48,12.48,0,0,0,17.66,0l76.83-76.83a7,7,0,0,0,2.08-5h0Z"/><path class="cls-4" d="M48.14,46.4H156.79a7.1,7.1,0,0,1,7.1,7.1V162.16a12.49,12.49,0,0,1-12.49,12.49H42.75a7.1,7.1,0,0,1-7.1-7.1V58.89A12.49,12.49,0,0,1,48.14,46.4Z" transform="translate(92.17 259.22) rotate(-135)"/><path d="M99.7,139.69c7.69,0,15.38,0,23.07,0,5.07,0,10.15.19,15.19-.2,5.83-.45,8.44-6,5.3-10.92-7-11.06-14.22-22-21.32-33.06a8.63,8.63,0,0,0-7.73-4.2h-29a8.49,8.49,0,0,0-7.52,4.07c-1.53,2.36-3,4.72-4.56,7.07-5.59,8.67-11.22,17.3-16.75,26-3.22,5.06-.59,10.43,5.36,11.13a29.51,29.51,0,0,0,3.26.11ZM99.58,81v0h7.06l.54,0c4.15-.32,5.88-3.49,3.77-7q-3.54-5.94-7.24-11.79c-2.27-3.57-5.62-3.6-8,0-2.56,3.84-5,7.74-7.46,11.66-2.28,3.69-.6,7,3.72,7.19C94.51,81.09,97.05,81,99.58,81Z"/><path class="cls-5" d="M99.7,139.69H65a29.51,29.51,0,0,1-3.26-.11c-5.95-.7-8.58-6.07-5.36-11.13,5.53-8.7,11.16-17.33,16.75-26,1.52-2.35,3-4.71,4.56-7.07a8.49,8.49,0,0,1,7.52-4.07h29.05a8.63,8.63,0,0,1,7.73,4.2c7.1,11,14.27,22,21.32,33.06,3.14,4.94.53,10.47-5.3,10.92-5,.39-10.12.19-15.19.2C115.08,139.71,107.39,139.69,99.7,139.69Z"/><path class="cls-5" d="M99.58,81c-2.53,0-5.07.11-7.6,0-4.32-.23-6-3.5-3.72-7.19,2.43-3.92,4.9-7.82,7.46-11.66,2.37-3.56,5.72-3.53,8,0Q107.42,68,111,73.94c2.11,3.55.38,6.72-3.77,7l-.54,0H99.58Z"/></g></svg>