<svg xmlns="http://www.w3.org/2000/svg" viewBox="0 0 200 200"><defs><style>.cls-1{fill:#bc3c35;}.cls-2{fill:#dd463a;}.cls-3{fill:#217f4e;}.cls-4{fill:#4a9772;}.cls-5{fill:#fff;}</style></defs><g id="Isolation_Mode" data-name="Isolation Mode"><path class="cls-1" d="M187.74,110.4s-174.48-.62-174.82.12l-.66-.19v3h0a7,7,0,0,0,2.07,5.14l76.83,76.83a12.48,12.48,0,0,0,17.66,0l76.83-76.83a7,7,0,0,0,2.08-5Z"/><path class="cls-2" d="M48.37,46.28H157a7.1,7.1,0,0,1,7.1,7.1V162a12.49,12.49,0,0,1-12.49,12.49H43a7.1,7.1,0,0,1-7.1-7.1V58.76A12.49,12.49,0,0,1,48.37,46.28Z" transform="translate(92.65 259.17) rotate(-135)"/><path class="cls-3" d="M187.74,89.47h0V86.51H12.26v2.95h0v0h0a7,7,0,0,0,2.08,5l76.83,76.83a12.48,12.48,0,0,0,17.66,0l76.83-76.83a7.08,7.08,0,0,0,2.08-5h0Z"/><path class="cls-4" d="M48.37,22.39H157a7.1,7.1,0,0,1,7.1,7.1V138.14a12.49,12.49,0,0,1-12.49,12.49H43a7.1,7.1,0,0,1-7.1-7.1V34.87A12.49,12.49,0,0,1,48.37,22.39Z" transform="translate(109.54 218.39) rotate(-135)"/></g><g id="Layer_6" data-name="Layer 6"><path d="M99.92,115.67c7.7,0,15.39,0,23.08,0,5.07,0,10.15.19,15.19-.2,5.83-.45,8.44-6,5.29-10.92-7-11.06-14.21-22-21.31-33.07a8.66,8.66,0,0,0-7.73-4.2q-14.52,0-29,0a8.48,8.48,0,0,0-7.52,4.08c-1.53,2.35-3,4.71-4.56,7.07-5.59,8.66-11.22,17.3-16.76,26-3.21,5.06-.58,10.44,5.37,11.13a27.16,27.16,0,0,0,3.25.12Q82.56,115.69,99.92,115.67ZM99.81,57h0c2.35,0,4.7,0,7.06,0a4.87,4.87,0,0,0,.54,0c4.14-.32,5.87-3.49,3.76-7q-3.53-6-7.23-11.8c-2.27-3.57-5.62-3.59-8,0-2.55,3.84-5,7.73-7.45,11.65-2.28,3.7-.6,7,3.72,7.19C94.74,57.08,97.28,57,99.81,57Z"/><path class="cls-5" d="M99.92,115.67q-17.37,0-34.75,0a27.16,27.16,0,0,1-3.25-.12c-6-.69-8.58-6.07-5.37-11.13,5.54-8.69,11.17-17.33,16.76-26,1.52-2.36,3-4.72,4.56-7.07a8.48,8.48,0,0,1,7.52-4.08q14.52,0,29.05,0a8.66,8.66,0,0,1,7.73,4.2c7.1,11,14.27,22,21.31,33.07,3.15,4.94.54,10.47-5.29,10.92-5,.39-10.12.18-15.19.2C115.31,115.69,107.62,115.67,99.92,115.67Z"/><path class="cls-5" d="M99.81,57c-2.53,0-5.07.11-7.6,0-4.32-.23-6-3.49-3.72-7.19,2.43-3.92,4.9-7.81,7.45-11.65,2.38-3.56,5.73-3.54,8,0q3.7,5.85,7.23,11.8c2.11,3.54.38,6.71-3.76,7a4.87,4.87,0,0,1-.54,0c-2.36,0-4.71,0-7.06,0Z"/></g></svg>