<svg xmlns="http://www.w3.org/2000/svg" viewBox="0 0 150 150"><defs><style>.cls-1{fill:#231f20;}.cls-2{fill:#fff;}</style></defs><g id="Layer_1" data-name="Layer 1"><path class="cls-1" d="M150,75A75,75,0,0,1,22,128,75,75,0,1,1,150,75Z"/></g><g id="Isolation_Mode" data-name="Isolation Mode"><path class="cls-2" d="M104.05,94c-1-1-1.17-1.67-.45-3,5.87-10.71,5.92-21.53.21-32.31a2.13,2.13,0,0,1,.44-3c3.27-3.31,6.44-6.7,9.78-10.2l-10-9.53L93.36,47.17c-.47-.23-.75-.35-1-.51q-16.65-9.57-33.57-.5A2,2,0,0,1,56,45.68c-3.26-3.19-6.58-6.3-10-9.58l-9.54,10c3.31,3.14,6.38,6.19,9.6,9.09,1.25,1.12,1.24,1.9.46,3.36-5.72,10.56-5.82,21.25-.23,31.88.77,1.48.66,2.27-.48,3.4-3.44,3.44-6.75,7-10.25,10.69l10,9.52c3.87-4.06,7.61-8,11.31-11.83,11.73,6.83,23.33,7.3,35.12.86.51-.28,1.75.17,2.29.66,3.54,3.25,7,6.6,10.76,10.19l9.52-10C110.9,100.51,107.52,97.21,104.05,94Zm-28.94.51A19.83,19.83,0,1,1,94.93,74.6,19.84,19.84,0,0,1,75.11,94.51Z"/></g></svg>