<svg xmlns="http://www.w3.org/2000/svg" viewBox="0 0 200 200"><defs><style>.cls-1{fill:#43b649;}.cls-2{fill:#3ee028;}.cls-3{fill:#231f20;}.cls-4{fill:#fff;}</style></defs><g id="Isolation_Mode" data-name="Isolation Mode"><path class="cls-1" d="M187.74,89.47h0V86.51H12.26v2.95h0v0h0a7,7,0,0,0,2.08,5l76.83,76.83a12.48,12.48,0,0,0,17.66,0l76.83-76.83a7.08,7.08,0,0,0,2.08-5h0Z"/><path class="cls-2" d="M108.83,4.66l76.83,76.83a7.1,7.1,0,0,1,0,10l-76.83,76.83a12.5,12.5,0,0,1-17.66,0L14.34,91.53a7.1,7.1,0,0,1,0-10L91.17,4.66A12.48,12.48,0,0,1,108.83,4.66Z"/><path d="M187.83,113.49v-3H12.36v3h0a7.11,7.11,0,0,0,2.07,5l76.83,76.83a12.48,12.48,0,0,0,17.66,0l76.83-76.83a7,7,0,0,0,2.08-5h0Z"/><path class="cls-3" d="M48.46,46.4H157.12a7.1,7.1,0,0,1,7.1,7.1V162.16a12.49,12.49,0,0,1-12.49,12.49H43.07a7.1,7.1,0,0,1-7.1-7.1V58.89A12.49,12.49,0,0,1,48.46,46.4Z" transform="translate(92.72 259.45) rotate(-135)"/><path class="cls-4" d="M129.15,126.67c-1.06-1-1.17-1.68-.46-3,5.88-10.71,5.92-21.53.22-32.31a2.12,2.12,0,0,1,.44-3c3.26-3.31,6.44-6.7,9.78-10.2l-10-9.53-10.7,11.19c-.46-.23-.75-.35-1-.51q-16.64-9.57-33.56-.5a2,2,0,0,1-2.82-.48c-3.25-3.19-6.58-6.3-10-9.58l-9.53,10c3.3,3.15,6.37,6.2,9.59,9.09,1.25,1.12,1.25,1.91.46,3.36-5.72,10.56-5.81,21.25-.23,31.89.78,1.47.66,2.26-.47,3.39-3.44,3.45-6.75,7-10.26,10.69l10,9.52,11.31-11.83c11.73,6.83,23.33,7.3,35.12.86.51-.28,1.75.17,2.29.66,3.55,3.25,7,6.6,10.76,10.19l9.53-10C136,133.17,132.62,129.87,129.15,126.67Zm-28.94.5A19.83,19.83,0,1,1,120,107.26,19.85,19.85,0,0,1,100.21,127.17Z"/></g></svg>