<svg xmlns="http://www.w3.org/2000/svg" viewBox="0 0 200 200"><defs><style>.cls-1{fill:#bc3c35;}.cls-2{fill:#dd463a;}.cls-3{fill:#231f20;}.cls-4{fill:#fff;}</style></defs><g id="Isolation_Mode" data-name="Isolation Mode"><path class="cls-1" d="M187.74,110.4s-174.48-.62-174.82.12l-.66-.19v3h0a7,7,0,0,0,2.07,5.14l76.83,76.83a12.48,12.48,0,0,0,17.66,0l76.83-76.83a7,7,0,0,0,2.08-5Z"/><path class="cls-2" d="M48.37,46.28H157a7.1,7.1,0,0,1,7.1,7.1V162a12.49,12.49,0,0,1-12.49,12.49H43a7.1,7.1,0,0,1-7.1-7.1V58.76A12.49,12.49,0,0,1,48.37,46.28Z" transform="translate(92.65 259.17) rotate(-135)"/><path d="M187.74,89.47h0V86.51H12.26v2.95h0v0h0a7,7,0,0,0,2.08,5l76.83,76.83a12.48,12.48,0,0,0,17.66,0l76.83-76.83a7.08,7.08,0,0,0,2.08-5h0Z"/><path class="cls-3" d="M48.37,22.39H157a7.1,7.1,0,0,1,7.1,7.1V138.14a12.49,12.49,0,0,1-12.49,12.49H43a7.1,7.1,0,0,1-7.1-7.1V34.87A12.49,12.49,0,0,1,48.37,22.39Z" transform="translate(109.54 218.39) rotate(-135)"/><path class="cls-4" d="M129.05,102.65a2,2,0,0,1-.45-3c5.87-10.71,5.92-21.53.21-32.31a2.13,2.13,0,0,1,.44-3c3.27-3.31,6.44-6.71,9.78-10.2l-10-9.53-10.7,11.18c-.46-.23-.75-.35-1-.5q-16.65-9.59-33.57-.51A2,2,0,0,1,81,54.33C77.7,51.14,74.38,48,71,44.75l-9.53,10c3.3,3.15,6.37,6.2,9.59,9.09,1.25,1.13,1.24,1.91.46,3.36-5.72,10.56-5.82,21.25-.23,31.89.77,1.47.66,2.26-.48,3.4-3.44,3.44-6.75,7-10.25,10.68l10,9.52c3.87-4,7.61-8,11.31-11.83,11.73,6.84,23.33,7.3,35.12.86a2.72,2.72,0,0,1,2.29.67c3.54,3.24,7,6.6,10.76,10.19l9.53-10C135.9,109.15,132.52,105.85,129.05,102.65Zm-28.94.51a19.83,19.83,0,1,1,19.82-19.92A19.85,19.85,0,0,1,100.11,103.16Z"/></g></svg>