<svg xmlns="http://www.w3.org/2000/svg" viewBox="0 0 200 200"><defs><style>.cls-1{fill:#bc3c35;}.cls-2{fill:#dd463a;}.cls-3{fill:#c1843a;}.cls-4{fill:#e7a848;}.cls-5{fill:#fff;}</style></defs><g id="Isolation_Mode" data-name="Isolation Mode"><path class="cls-1" d="M187.74,110.4s-174.48-.62-174.82.12l-.66-.19v3h0a7,7,0,0,0,2.07,5.14l76.83,76.83a12.48,12.48,0,0,0,17.66,0l76.83-76.83a7,7,0,0,0,2.08-5Z"/><path class="cls-2" d="M48.37,46.28H157a7.1,7.1,0,0,1,7.1,7.1V162a12.49,12.49,0,0,1-12.49,12.49H43a7.1,7.1,0,0,1-7.1-7.1V58.76A12.49,12.49,0,0,1,48.37,46.28Z" transform="translate(92.65 259.17) rotate(-135)"/><path class="cls-3" d="M187.74,89.47h0V86.51H12.26v2.95h0v0h0a7,7,0,0,0,2.08,5l76.83,76.83a12.48,12.48,0,0,0,17.66,0l76.83-76.83a7.08,7.08,0,0,0,2.08-5h0Z"/><path class="cls-4" d="M48.37,22.39H157a7.1,7.1,0,0,1,7.1,7.1V138.14a12.49,12.49,0,0,1-12.49,12.49H43a7.1,7.1,0,0,1-7.1-7.1V34.87A12.49,12.49,0,0,1,48.37,22.39Z" transform="translate(109.54 218.39) rotate(-135)"/><path class="cls-5" d="M107.81,51.84h1q.31,0,.3-.3V40.48c0-.72,0-.67.66-.67h6.78c.19,0,.37,0,.56,0V51.42c0,.42,0,.43.36.43h11.42l.72,0v6.46c0,.49,0,.49.48.49h5.74c.79,0,.69-.09.69.67V79c0,.2,0,.4,0,.61h0l-.61,0h-5.74a1.6,1.6,0,0,0-.57,0v6.85c.77,0,1.51,0,2.25,0l4.62,0,5.47,0c.24,0,.48,0,.72,0v27.19c0,.66.08.58-.6.58h-5.18c-.45,0-.46,0-.46.46v6.4c-.22,0-.44,0-.66,0H124.63l-.66,0H117.4c-.21,0-.3.08-.29.3v.39q0,4.69,0,9.41a1.68,1.68,0,0,1-.55,0h-7.17c-.18,0-.26-.1-.26-.28s0-.29,0-.44V122c0-.13,0-.26,0-.39s-.11-.37-.36-.36a6,6,0,0,0-1,0l-6.55,0c-.23,0-.36.06-.33.31s0,.26,0,.39v9.4a2.09,2.09,0,0,1-.61,0H93.24c-.23,0-.35-.09-.34-.33s0-.3,0-.45V122c0-.13,0-.26,0-.39,0-.28-.12-.37-.37-.35H80.27c-.69,0-.69,0-.69-.7,0-2,0-3.94,0-5.9v-.39c0-.19.1-.27.28-.28h7a.19.19,0,0,0,.21-.2c0-.15,0-.3,0-.45V59.59c0-.46,0-.47-.47-.47H80c-.4,0-.43,0-.43-.4,0-2.16,0-4.31,0-6.47,0-.27.09-.42.38-.4H92.6c.21,0,.3-.09.29-.3V40.63a3.38,3.38,0,0,0,0-.45c0-.3.13-.38.4-.38l7.52,0,.11,0V51.15c0,.13,0,.26,0,.39s.08.32.32.32C103.43,51.84,105.62,51.84,107.81,51.84Zm0,14c-.13,0-.26,0-.39,0h-6c-.59,0-.5,0-.5.53V79.21c0,.23,0,.42.33.42l6.56,0,10.14,0c.42,0,.42,0,.42-.51q0-6.4,0-12.82c0-.51,0-.51-.53-.51-1.59,0-3.19,0-4.79,0Zm0,41.54.33,0h14.19c.27,0,.38-.11.37-.37s0-.22,0-.33V94.23c0-.13,0-.26,0-.39s-.08-.3-.3-.3H107.81l-6.56,0c-.29,0-.36.11-.33.36a2.61,2.61,0,0,1,0,.28V106.7c0,.11,0,.23,0,.34s.09.31.33.31Z"/><path class="cls-5" d="M69,114a1.71,1.71,0,0,1-.55,0H57.79c-.48,0-.48,0-.49-.51v-45c0-.93-.09-.84.83-.85H68.31a3,3,0,0,1,.67,0V114Z"/><path class="cls-5" d="M69,61l-.61,0H57.85c-.54,0-.55,0-.55-.56V54.9c0-.49,0-.5.5-.5H68.65l.33,0Z"/></g></svg>