<svg xmlns="http://www.w3.org/2000/svg" viewBox="0 0 200 200"><defs><style>.cls-1{fill:#43b649;}.cls-2{fill:#3ee028;}.cls-3{fill:#c1843a;}.cls-4{fill:#e7a848;}.cls-5{fill:#fff;}</style></defs><g id="Isolation_Mode" data-name="Isolation Mode"><path class="cls-1" d="M187.74,89.47h0V86.51H12.26v2.95h0v0h0a7,7,0,0,0,2.08,5l76.83,76.83a12.48,12.48,0,0,0,17.66,0l76.83-76.83a7.08,7.08,0,0,0,2.08-5h0Z"/><path class="cls-2" d="M108.83,4.66l76.83,76.83a7.1,7.1,0,0,1,0,10l-76.83,76.83a12.5,12.5,0,0,1-17.66,0L14.34,91.53a7.1,7.1,0,0,1,0-10L91.17,4.66A12.48,12.48,0,0,1,108.83,4.66Z"/><path class="cls-3" d="M187.74,113.49v-3H12.26v3h0a7.07,7.07,0,0,0,2.08,5l76.83,76.83a12.48,12.48,0,0,0,17.66,0l76.83-76.83a7.08,7.08,0,0,0,2.08-5h0Z"/><path class="cls-4" d="M48.37,46.4H157a7.1,7.1,0,0,1,7.1,7.1V162.16a12.49,12.49,0,0,1-12.49,12.49H43a7.1,7.1,0,0,1-7.1-7.1V58.89A12.49,12.49,0,0,1,48.37,46.4Z" transform="translate(92.56 259.39) rotate(-135)"/><path class="cls-5" d="M107.81,76.77h1q.31,0,.3-.3V65.41c0-.72,0-.67.66-.67h6.78c.19,0,.37,0,.56,0V76.35c0,.42,0,.43.36.43h11.42l.72,0v6.46c0,.49,0,.49.48.49h5.74c.79,0,.69-.09.69.67v19.5c0,.2,0,.4,0,.61h0l-.61,0h-5.74a1.6,1.6,0,0,0-.57,0v6.85c.77,0,1.51,0,2.25,0l4.62,0,5.47,0c.24,0,.48,0,.72,0v27.19c0,.66.08.58-.6.58h-5.18c-.45,0-.46,0-.46.46v6.4c-.22,0-.44,0-.66,0H124.63l-.66,0-6.46,0h-.11c-.21,0-.3.08-.29.3v.39q0,4.69,0,9.41a1.68,1.68,0,0,1-.55,0h-7.17c-.18,0-.26-.09-.26-.27s0-.3,0-.45v-8.67c0-.13,0-.26,0-.39s-.11-.37-.36-.36a6,6,0,0,0-1,0l-6.55,0c-.23,0-.36.06-.33.31s0,.26,0,.39v9.4a2.09,2.09,0,0,1-.61,0H93.24c-.23,0-.35-.09-.34-.33s0-.3,0-.45V146.9c0-.13,0-.26,0-.39s-.12-.37-.37-.35H80.27c-.69,0-.69,0-.69-.7,0-2,0-3.93,0-5.9v-.39a.26.26,0,0,1,.28-.28h7a.19.19,0,0,0,.21-.2c0-.15,0-.3,0-.45V84.52c0-.46,0-.47-.47-.47H81.73c-.57,0-1.15,0-1.72,0-.4,0-.43,0-.43-.4,0-2.16,0-4.31,0-6.47,0-.27.09-.42.38-.4s.3,0,.45,0H92.6c.21,0,.3-.09.29-.3V65.56a3.38,3.38,0,0,0,0-.45c0-.3.13-.38.4-.38l7.52,0,.11,0V76.08c0,.13,0,.26,0,.39s.08.32.32.32Zm0,14-.39,0h-6c-.59,0-.5,0-.5.53v12.92c0,.23,0,.42.33.42,2.19,0,4.38,0,6.56,0H118c.42,0,.42,0,.42-.51q0-6.41,0-12.81c0-.52,0-.52-.53-.52h-10Zm0,41.54.33,0h14.19c.27,0,.38-.11.37-.37,0-.11,0-.22,0-.33V119.16c0-.13,0-.26,0-.39s-.08-.3-.3-.29H107.81l-6.56,0c-.29,0-.36.11-.33.36a2.62,2.62,0,0,1,0,.28v12.52c0,.11,0,.23,0,.34s.09.31.33.31Z"/><path class="cls-5" d="M69,138.88a1.71,1.71,0,0,1-.55,0H57.79c-.48,0-.48,0-.49-.51v-45c0-.93-.09-.84.83-.84,3.39,0,6.79,0,10.18,0a2.49,2.49,0,0,1,.67,0v46.27Z"/><path class="cls-5" d="M69,85.92l-.61,0H57.85c-.54,0-.55,0-.55-.56V79.83c0-.49,0-.5.5-.5,3.62,0,7.23,0,10.85,0,.11,0,.22,0,.33,0Z"/></g></svg>