<svg id="Layer_1" data-name="Layer 1" xmlns="http://www.w3.org/2000/svg" viewBox="0 0 150 150"><defs><style>.cls-1{fill:#e7a848;}.cls-2{fill:#fff;}</style></defs><path class="cls-1" d="M150,75A75,75,0,0,1,22,128,75,75,0,1,1,150,75Z"/><path class="cls-2" d="M82.81,41.24l1,0q.31,0,.3-.3V29.89c0-.72,0-.67.66-.67h6.78c.19,0,.37,0,.56,0V40.82c0,.43,0,.44.36.44h11.42l.72,0v6.46c0,.49,0,.49.48.49h5.74c.79,0,.69-.08.69.67v19.5c0,.21,0,.41,0,.62l0,0L111,69h-5.74a1.4,1.4,0,0,0-.57,0v6.85h2.25l4.62,0,5.47,0c.24,0,.48,0,.72,0v27.18c0,.66.08.59-.6.59h-5.18c-.45,0-.46,0-.46.45v6.41c-.22,0-.44,0-.66,0H99.63l-.66,0H92.4c-.21,0-.3.08-.29.29v.39q0,4.71,0,9.41a1.45,1.45,0,0,1-.55,0q-3.39,0-6.78,0h-.39c-.18,0-.26-.1-.26-.28s0-.29,0-.44v-8.68c0-.12,0-.25,0-.38s-.11-.38-.36-.36a6,6,0,0,0-1,0l-6.55,0c-.23,0-.36.06-.33.31s0,.26,0,.39v9.4a2.09,2.09,0,0,1-.61,0q-3.36,0-6.74,0h-.33c-.23,0-.35-.09-.34-.32s0-.3,0-.45v-8.64c0-.13,0-.26,0-.39s-.12-.36-.37-.35H55.27c-.69,0-.69,0-.69-.7q0-3,0-5.91v-.39a.25.25,0,0,1,.28-.27h7a.2.2,0,0,0,.21-.21c0-.14,0-.29,0-.44V49c0-.45,0-.46-.47-.46H55c-.4,0-.43,0-.43-.4,0-2.15,0-4.3,0-6.46,0-.27.09-.42.38-.4s.3,0,.45,0H67.6c.21,0,.3-.1.29-.3V30a3.38,3.38,0,0,0,0-.45c0-.3.13-.38.4-.38h7.52l.11,0V40.56c0,.13,0,.26,0,.39s.08.32.32.32C78.43,41.25,80.62,41.25,82.81,41.24Zm0,14-.39,0h-6c-.59,0-.5,0-.5.53V68.62c0,.23,0,.42.33.42l6.56,0L93,69c.42,0,.42,0,.42-.51q0-6.4,0-12.82c0-.51,0-.51-.53-.52H88.05Zm0,41.54H97.33c.27,0,.38-.11.37-.36s0-.22,0-.33V83.64c0-.13,0-.26,0-.39s-.08-.31-.3-.3h-13l-1.56,0-6.56,0c-.29,0-.36.12-.33.37a2.43,2.43,0,0,1,0,.27V96.11c0,.11,0,.22,0,.33s.09.32.33.32Z"/><path class="cls-2" d="M44,103.36a1.71,1.71,0,0,1-.55,0H32.79c-.48,0-.48,0-.49-.51v-45c0-.94-.09-.85.83-.85H43.31a2.14,2.14,0,0,1,.67,0v46.27Z"/><path class="cls-2" d="M44,50.39l-.61,0H32.85c-.54,0-.55,0-.55-.55V44.3c0-.49,0-.5.5-.5H43.65c.11,0,.22,0,.33,0Z"/></svg>