<svg xmlns="http://www.w3.org/2000/svg" viewBox="0 0 200 200"><defs><style>.cls-1{fill:#bc3c35;}.cls-2{fill:#dd463a;}.cls-3{fill:#050083;}.cls-4{fill:#020ab9;}.cls-5{font-size:58px;fill:#fff;font-family:Akkurat-Bold;font-weight:700;}.cls-6{letter-spacing:-0.01em;}</style></defs><g id="Isolation_Mode" data-name="Isolation Mode"><path class="cls-1" d="M187.74,110.4s-174.48-.62-174.82.12l-.66-.19v3h0a7,7,0,0,0,2.07,5.14l76.83,76.83a12.48,12.48,0,0,0,17.66,0l76.83-76.83a7,7,0,0,0,2.08-5Z"/><path class="cls-2" d="M48.37,46.28H157a7.1,7.1,0,0,1,7.1,7.1V162a12.49,12.49,0,0,1-12.49,12.49H43a7.1,7.1,0,0,1-7.1-7.1V58.76A12.49,12.49,0,0,1,48.37,46.28Z" transform="translate(92.65 259.17) rotate(-135)"/></g><g id="Layer_6" data-name="Layer 6"><path class="cls-3" d="M187.74,89.47h0V86.51H12.26v2.95h0v0h0a7,7,0,0,0,2.08,5l76.83,76.83a12.48,12.48,0,0,0,17.66,0l76.83-76.83a7.08,7.08,0,0,0,2.08-5h0Z"/><path class="cls-4" d="M48.37,22.39H157a7.1,7.1,0,0,1,7.1,7.1V138.14a12.49,12.49,0,0,1-12.49,12.49H43a7.1,7.1,0,0,1-7.1-7.1V34.87A12.49,12.49,0,0,1,48.37,22.39Z" transform="translate(109.54 218.39) rotate(-135)"/><text class="cls-5" transform="translate(36.14 106.03)">K<tspan class="cls-6" x="39.32" y="0">R</tspan><tspan x="77.14" y="0">W</tspan></text></g></svg>