<svg xmlns="http://www.w3.org/2000/svg" viewBox="0 0 198.43 198.43"><defs><style>.cls-1{fill:#bc3c35;}.cls-2{fill:#003974;}.cls-3{fill:#dd463a;}.cls-4{fill:#375bd2;}.cls-5{fill:#fff;}</style></defs><g id="Isolation_Mode" data-name="Isolation Mode"><path class="cls-1" d="M49.79,50.55H154.22A6.82,6.82,0,0,1,161,57.38V161.81a12,12,0,0,1-12,12H44.61A6.82,6.82,0,0,1,37.78,167V62.56a12,12,0,0,1,12-12Z" transform="translate(90.38 261.8) rotate(-135)"/><polygon class="cls-1" points="183.74 112.18 183.72 108.63 179.32 110.4 178.97 118.8 183.74 112.18"/><polygon class="cls-2" points="183.74 89.13 183.72 86.08 179.32 89.38 178.97 95.61 183.74 89.13"/><polygon class="cls-1" points="15.1 112.18 15.12 108.63 19.51 110.4 19.86 118.8 15.1 112.18"/><polygon class="cls-2" points="15.1 89.13 15.12 86.08 19.51 89.38 19.86 95.61 15.1 89.13"/><path class="cls-3" d="M49.79,47.58H154.22A6.82,6.82,0,0,1,161,54.4V158.83a12,12,0,0,1-12,12H44.61A6.82,6.82,0,0,1,37.78,164V59.58a12,12,0,0,1,12-12Z" transform="translate(92.49 256.72) rotate(-135)"/><path class="cls-2" d="M49.79,27.46H154.22A6.82,6.82,0,0,1,161,34.28V138.71a12,12,0,0,1-12,12H44.61a6.82,6.82,0,0,1-6.82-6.82V39.46a12,12,0,0,1,12-12Z" transform="translate(106.71 222.38) rotate(-135)"/><path class="cls-4" d="M49.79,24.62H154.22A6.82,6.82,0,0,1,161,31.44V135.87a12,12,0,0,1-12,12H44.61A6.82,6.82,0,0,1,37.78,141V36.62a12,12,0,0,1,12-12Z" transform="translate(108.72 217.52) rotate(-135)"/><g id="Layer_2" data-name="Layer 2"><g id="Layer_1-2" data-name="Layer 1-2"><path class="cls-5" d="M99.42,59.67l23,13.22V99.45l-23,13.31-23-13.19V73l23-13.35m0-19.49L91,45.05,68,58.4l-8.45,4.87v46.08L68,114.22l23,13.22,8.44,4.87,8.45-4.87,22.94-13.32,8.45-4.87V63.11l-8.45-4.87-23-13.19-8.44-4.87Z"/></g></g></g></svg>