<svg xmlns="http://www.w3.org/2000/svg" viewBox="0 0 198.43 198.43"><defs><style>.cls-1{fill:#43b649;}.cls-2{fill:#3ee028;}.cls-3{fill:#003974;}.cls-4{fill:#375bd2;}.cls-5{fill:#fff;}</style></defs><g id="Isolation_Mode" data-name="Isolation Mode"><path class="cls-1" d="M49.77,27.38H154.2A6.82,6.82,0,0,1,161,34.2V138.63a12,12,0,0,1-12,12H44.59a6.82,6.82,0,0,1-6.82-6.82V39.38a12,12,0,0,1,12-12Z" transform="translate(106.75 222.23) rotate(-135)"/><polygon class="cls-1" points="183.73 89 183.7 85.45 179.31 87.23 178.96 95.63 183.73 89"/><polygon class="cls-1" points="15.08 89 15.11 85.45 19.5 87.23 19.85 95.63 15.08 89"/><path class="cls-2" d="M107.89,7.36,181.73,81.2a6.83,6.83,0,0,1,0,9.65L107.89,164.7a12,12,0,0,1-17,0L17.07,90.85a6.81,6.81,0,0,1,0-9.65L90.91,7.36A12,12,0,0,1,107.89,7.36Z"/><polygon class="cls-3" points="183.73 112 183.7 108.96 179.31 112.26 178.96 118.48 183.73 112"/><polygon class="cls-3" points="15.08 112 15.11 108.96 19.5 112.26 19.85 118.48 15.08 112"/><path class="cls-3" d="M49.77,50.34H154.2A6.82,6.82,0,0,1,161,57.16V161.59a12,12,0,0,1-12,12H44.59a6.82,6.82,0,0,1-6.82-6.82V62.34a12,12,0,0,1,12-12Z" transform="translate(90.51 261.42) rotate(-135)"/><path class="cls-4" d="M49.77,47.49H154.2A6.82,6.82,0,0,1,161,54.32V158.75a12,12,0,0,1-12,12H44.59a6.82,6.82,0,0,1-6.82-6.82V59.5a12,12,0,0,1,12-12Z" transform="translate(92.52 256.57) rotate(-135)"/><g id="Layer_2" data-name="Layer 2"><g id="Layer_1-2" data-name="Layer 1-2"><path class="cls-5" d="M99.41,82.55l23,13.21v26.57l-23,13.3-23-13.18V95.89l23-13.34m0-19.49L91,67.93,68,81.28l-8.45,4.87v46.07L68,137.1l23,13.21,8.45,4.88,8.44-4.88,23-13.31,8.45-4.87V86l-8.45-4.87-23-13.19-8.45-4.87Z"/></g></g></g></svg>