<svg xmlns="http://www.w3.org/2000/svg" viewBox="0 0 200 200"><defs><style>.cls-1{fill:#bc3c35;}.cls-2{fill:#dd463a;}.cls-3{fill:#3a3aba;}.cls-4{fill:#5452fd;}.cls-5{fill:#fff;stroke:#fff;stroke-miterlimit:10;stroke-width:1.5px;}</style></defs><g id="Isolation_Mode" data-name="Isolation Mode"><path class="cls-1" d="M187.74,110.4s-174.48-.62-174.82.12l-.66-.19v3h0a7,7,0,0,0,2.07,5.14l76.83,76.83a12.48,12.48,0,0,0,17.66,0l76.83-76.83a7,7,0,0,0,2.08-5Z"/><path class="cls-2" d="M48.37,46.28H157a7.1,7.1,0,0,1,7.1,7.1V162a12.49,12.49,0,0,1-12.49,12.49H43a7.1,7.1,0,0,1-7.1-7.1V58.76A12.49,12.49,0,0,1,48.37,46.28Z" transform="translate(92.65 259.17) rotate(-135)"/><path class="cls-3" d="M187.74,89.47h0V86.51H12.26v2.95h0v0h0a7,7,0,0,0,2.08,5l76.83,76.83a12.48,12.48,0,0,0,17.66,0l76.83-76.83a7.08,7.08,0,0,0,2.08-5h0Z"/><path class="cls-4" d="M48.37,22.39H157a7.1,7.1,0,0,1,7.1,7.1V138.14a12.49,12.49,0,0,1-12.49,12.49H43a7.1,7.1,0,0,1-7.1-7.1V34.87A12.49,12.49,0,0,1,48.37,22.39Z" transform="translate(109.54 218.39) rotate(-135)"/><polygon class="cls-5" points="73.72 111.55 82.89 111.55 82.89 76.81 90.77 76.81 90.77 85.86 108.91 85.86 108.91 76.81 117.25 76.81 117.25 111.55 126.28 111.55 126.28 59 117.13 59 117.13 67.53 108.6 67.53 108.6 76.35 91.37 76.35 91.37 67.5 83 67.5 83 59 73.72 59 73.72 111.55"/><rect class="cls-5" x="126.33" y="50.91" width="7.94" height="7.94"/><rect class="cls-5" x="134.96" y="59.54" width="7.94" height="7.94"/><rect class="cls-5" x="65.43" y="111.55" width="7.94" height="7.94"/><rect class="cls-5" x="74.06" y="120.18" width="7.94" height="7.94"/><rect class="cls-5" x="74.06" y="42.28" width="7.94" height="7.94" transform="translate(156.07 92.5) rotate(180)"/><rect class="cls-5" x="83.09" y="34.33" width="33.99" height="7.94" transform="translate(200.17 76.61) rotate(180)"/><rect class="cls-5" x="83.63" y="128.27" width="33.99" height="7.94" transform="translate(201.25 264.48) rotate(180)"/><rect class="cls-5" x="118.34" y="120.18" width="7.94" height="7.94"/><rect class="cls-5" x="118.34" y="42.28" width="7.94" height="7.94" transform="translate(244.62 92.5) rotate(180)"/><rect class="cls-5" x="65.43" y="50.91" width="7.94" height="7.94" transform="translate(138.81 109.77) rotate(180)"/><rect class="cls-5" x="57.01" y="59.55" width="7.94" height="7.94" transform="translate(121.96 127.05) rotate(180)"/><rect class="cls-5" x="57.01" y="59.55" width="7.94" height="7.94" transform="translate(121.96 127.05) rotate(180)"/><rect class="cls-5" x="57.01" y="103.04" width="7.94" height="7.94" transform="translate(121.96 214.03) rotate(180)"/><rect class="cls-5" x="134.96" y="102.92" width="7.94" height="7.94" transform="translate(277.87 213.77) rotate(180)"/><rect class="cls-5" x="126.33" y="111.55" width="7.94" height="7.94" transform="translate(260.6 231.04) rotate(180)"/><rect class="cls-5" x="36.04" y="81.3" width="33.99" height="7.94" transform="translate(-32.24 138.31) rotate(-90)"/><rect class="cls-5" x="129.97" y="81.3" width="33.99" height="7.94" transform="translate(61.69 232.24) rotate(-90)"/></g></svg>