<svg xmlns="http://www.w3.org/2000/svg" viewBox="0 0 200 200"><defs><style>.cls-1{fill:#43b649;}.cls-2{fill:#3ee028;}.cls-3{fill:#3a3aba;}.cls-4{fill:#5452fd;}.cls-5{fill:#fff;stroke:#fff;stroke-miterlimit:10;stroke-width:1.5px;}</style></defs><g id="Isolation_Mode" data-name="Isolation Mode"><path class="cls-1" d="M187.74,89.47h0V86.51H12.26v2.95h0v0h0a7,7,0,0,0,2.08,5l76.83,76.83a12.48,12.48,0,0,0,17.66,0l76.83-76.83a7.08,7.08,0,0,0,2.08-5h0Z"/><path class="cls-2" d="M108.83,4.66l76.83,76.83a7.1,7.1,0,0,1,0,10l-76.83,76.83a12.5,12.5,0,0,1-17.66,0L14.34,91.53a7.1,7.1,0,0,1,0-10L91.17,4.66A12.48,12.48,0,0,1,108.83,4.66Z"/><path class="cls-3" d="M187.74,113.49v-3H12.26v3h0a7.07,7.07,0,0,0,2.08,5l76.83,76.83a12.48,12.48,0,0,0,17.66,0l76.83-76.83a7.08,7.08,0,0,0,2.08-5h0Z"/><path class="cls-4" d="M48.37,46.4H157a7.1,7.1,0,0,1,7.1,7.1V162.16a12.49,12.49,0,0,1-12.49,12.49H43a7.1,7.1,0,0,1-7.1-7.1V58.89A12.49,12.49,0,0,1,48.37,46.4Z" transform="translate(92.56 259.39) rotate(-135)"/><polygon class="cls-5" points="73.72 135.56 82.89 135.56 82.89 100.82 90.77 100.82 90.77 109.87 108.91 109.87 108.91 100.82 117.25 100.82 117.25 135.56 126.28 135.56 126.28 83.01 117.13 83.01 117.13 91.55 108.6 91.55 108.6 100.36 91.37 100.36 91.37 91.52 83 91.52 83 83.01 73.72 83.01 73.72 135.56"/><rect class="cls-5" x="126.33" y="74.93" width="7.94" height="7.94"/><rect class="cls-5" x="134.96" y="83.56" width="7.94" height="7.94"/><rect class="cls-5" x="65.43" y="135.56" width="7.94" height="7.94"/><rect class="cls-5" x="74.06" y="144.2" width="7.94" height="7.94"/><rect class="cls-5" x="74.06" y="66.3" width="7.94" height="7.94" transform="translate(156.07 140.53) rotate(180)"/><rect class="cls-5" x="83.09" y="58.35" width="33.99" height="7.94" transform="translate(200.17 124.65) rotate(180)"/><rect class="cls-5" x="83.63" y="152.28" width="33.99" height="7.94" transform="translate(201.25 312.51) rotate(180)"/><rect class="cls-5" x="118.34" y="144.2" width="7.94" height="7.94"/><rect class="cls-5" x="118.34" y="66.3" width="7.94" height="7.94" transform="translate(244.62 140.53) rotate(180)"/><rect class="cls-5" x="65.43" y="74.93" width="7.94" height="7.94" transform="translate(138.81 157.8) rotate(180)"/><rect class="cls-5" x="57.01" y="83.57" width="7.94" height="7.94" transform="translate(121.96 175.08) rotate(180)"/><rect class="cls-5" x="57.01" y="83.57" width="7.94" height="7.94" transform="translate(121.96 175.08) rotate(180)"/><rect class="cls-5" x="57.01" y="127.06" width="7.94" height="7.94" transform="translate(121.96 262.06) rotate(180)"/><rect class="cls-5" x="134.96" y="126.93" width="7.94" height="7.94" transform="translate(277.87 261.81) rotate(180)"/><rect class="cls-5" x="126.33" y="135.56" width="7.94" height="7.94" transform="translate(260.6 279.07) rotate(180)"/><rect class="cls-5" x="36.04" y="105.32" width="33.99" height="7.94" transform="translate(-56.25 162.32) rotate(-90)"/><rect class="cls-5" x="129.97" y="105.32" width="33.99" height="7.94" transform="translate(37.68 256.25) rotate(-90)"/></g></svg>