<svg id="Layer_1" data-name="Layer 1" xmlns="http://www.w3.org/2000/svg" viewBox="0 0 150 150"><defs><style>.cls-1{fill:#718b95;}.cls-2{fill:#fdfdfd;}</style></defs><path class="cls-1" d="M150,75A75,75,0,0,1,22,128,75,75,0,1,1,150,75Z"/><path class="cls-2" d="M101.9,104.79H114c3.07.35,3.07.35,3.07,3.41,0,2.38,0,4.78,0,7.16,0,1.21-.31,1.72-1.58,1.72q-14.94-.06-29.87,0c-1.16,0-1.49-.48-1.48-1.58,0-4.3.07-8.6,0-12.9,0-1.38.7-1.66,1.74-2.09,9.73-4,16.22-10.92,18.32-21.3,3.14-15.48-6.41-30.13-21.78-33.94A29.82,29.82,0,0,0,45.56,68.9C43.17,81.75,50.76,95,63.65,100.23c1.79.72,2.34,1.59,2.27,3.45-.16,3.81-.11,7.64,0,11.46,0,1.44-.38,2-1.87,1.94q-14.58-.08-29.15,0c-1.36,0-2-.3-1.93-1.85.12-2.78.1-5.58,0-8.36-.05-1.41.51-1.77,1.8-1.75a68.66,68.66,0,0,1,11,.67h2.37a2.72,2.72,0,0,0-1.41-2.62C34.86,92,30.19,78.42,34.71,62.68c4.6-16,15.84-25.7,32.08-28.91,21.7-4.3,42.59,8.09,48.46,28.57,4.32,15.08.37,28.24-10.48,39.44-.5.51-1,1-1.57,1.47l-1.4,1.28C101.83,104.73,101.87,104.94,101.9,104.79Z"/></svg>