<svg xmlns="http://www.w3.org/2000/svg" viewBox="0 0 200 200"><defs><style>.cls-1{fill:#bc3c35;}.cls-2{fill:#dd463a;}.cls-3{fill:#586e72;}.cls-4{fill:#718b95;}.cls-5{fill:#fdfdfd;}</style></defs><g id="Isolation_Mode" data-name="Isolation Mode"><path class="cls-1" d="M187.74,110.4s-174.48-.62-174.82.12l-.66-.19v3h0a7,7,0,0,0,2.07,5.14l76.83,76.83a12.48,12.48,0,0,0,17.66,0l76.83-76.83a7,7,0,0,0,2.08-5Z"/><path class="cls-2" d="M48.37,46.28H157a7.1,7.1,0,0,1,7.1,7.1V162a12.49,12.49,0,0,1-12.49,12.49H43a7.1,7.1,0,0,1-7.1-7.1V58.76A12.49,12.49,0,0,1,48.37,46.28Z" transform="translate(92.65 259.17) rotate(-135)"/><path class="cls-3" d="M187.74,89.47h0V86.51H12.26v2.95h0v0h0a7,7,0,0,0,2.08,5l76.83,76.83a12.48,12.48,0,0,0,17.66,0l76.83-76.83a7.08,7.08,0,0,0,2.08-5h0Z"/><path class="cls-4" d="M48.37,22.39H157a7.1,7.1,0,0,1,7.1,7.1V138.14a12.49,12.49,0,0,1-12.49,12.49H43a7.1,7.1,0,0,1-7.1-7.1V34.87A12.49,12.49,0,0,1,48.37,22.39Z" transform="translate(109.54 218.39) rotate(-135)"/><path class="cls-5" d="M126.9,113.64H139c3.07.36,3.07.36,3.07,3.41,0,2.39-.05,4.78,0,7.17,0,1.21-.31,1.72-1.58,1.71q-14.94,0-29.87,0c-1.16,0-1.49-.48-1.48-1.58,0-4.3.07-8.6,0-12.9,0-1.37.7-1.66,1.74-2.08,9.73-4,16.22-10.92,18.32-21.3,3.14-15.48-6.41-30.13-21.78-33.94A29.82,29.82,0,0,0,70.56,77.76c-2.39,12.85,5.2,26.12,18.09,31.33,1.79.72,2.34,1.58,2.27,3.44-.16,3.82-.11,7.65,0,11.47,0,1.44-.38,2-1.87,1.94q-14.58-.07-29.15,0c-1.36,0-2-.3-1.93-1.86.12-2.78.1-5.57,0-8.35-.05-1.42.51-1.77,1.8-1.75a67.51,67.51,0,0,1,11,.66h2.37A2.74,2.74,0,0,0,71.7,112c-11.84-11.18-16.51-24.74-12-40.48,4.6-16,15.84-25.7,32.08-28.92,21.7-4.29,42.59,8.1,48.46,28.58,4.32,15.07.37,28.24-10.48,39.43-.5.52-1,1-1.57,1.47l-1.4,1.29C126.83,113.59,126.87,113.79,126.9,113.64Z"/></g></svg>