<svg xmlns="http://www.w3.org/2000/svg" viewBox="0 0 200 200"><defs><style>.cls-1{fill:#43b649;}.cls-2{fill:#3ee028;}.cls-3{fill:#586e72;}.cls-4{fill:#718b95;}.cls-5{fill:#fdfdfd;}</style></defs><g id="Isolation_Mode" data-name="Isolation Mode"><path class="cls-1" d="M187.74,89.47h0V86.51H12.26v2.95h0v0h0a7,7,0,0,0,2.08,5l76.83,76.83a12.48,12.48,0,0,0,17.66,0l76.83-76.83a7.08,7.08,0,0,0,2.08-5h0Z"/><path class="cls-2" d="M108.83,4.66l76.83,76.83a7.1,7.1,0,0,1,0,10l-76.83,76.83a12.5,12.5,0,0,1-17.66,0L14.34,91.53a7.1,7.1,0,0,1,0-10L91.17,4.66A12.48,12.48,0,0,1,108.83,4.66Z"/><path class="cls-3" d="M187.74,113.49v-3H12.26v3h0a7.07,7.07,0,0,0,2.08,5l76.83,76.83a12.48,12.48,0,0,0,17.66,0l76.83-76.83a7.08,7.08,0,0,0,2.08-5h0Z"/><path class="cls-4" d="M48.37,46.4H157a7.1,7.1,0,0,1,7.1,7.1V162.16a12.49,12.49,0,0,1-12.49,12.49H43a7.1,7.1,0,0,1-7.1-7.1V58.89A12.49,12.49,0,0,1,48.37,46.4Z" transform="translate(92.56 259.39) rotate(-135)"/><path class="cls-5" d="M126.9,137.66H139c3.07.35,3.07.35,3.07,3.41,0,2.39-.05,4.78,0,7.17,0,1.2-.31,1.71-1.58,1.71q-14.94,0-29.87,0c-1.16,0-1.49-.48-1.48-1.58,0-4.3.07-8.6,0-12.9,0-1.37.7-1.66,1.74-2.08,9.73-4,16.22-10.92,18.32-21.3,3.14-15.49-6.41-30.13-21.78-33.95a29.82,29.82,0,0,0-36.83,23.65c-2.39,12.85,5.2,26.12,18.09,31.32,1.79.73,2.34,1.59,2.27,3.45-.16,3.82-.11,7.65,0,11.47,0,1.44-.38,1.94-1.87,1.94-9.72-.06-19.43,0-29.15,0-1.36,0-2-.3-1.93-1.86.12-2.78.1-5.57,0-8.36-.05-1.41.51-1.76,1.8-1.74a67.51,67.51,0,0,1,11,.66h2.37A2.72,2.72,0,0,0,71.7,136c-11.84-11.18-16.51-24.75-12-40.49,4.6-16,15.84-25.7,32.08-28.91,21.7-4.3,42.59,8.09,48.46,28.57,4.32,15.08.37,28.25-10.48,39.44-.5.51-1,1-1.57,1.47l-1.4,1.28C126.83,137.61,126.87,137.81,126.9,137.66Z"/></g></svg>