<svg xmlns="http://www.w3.org/2000/svg" viewBox="0 0 200 200"><defs><style>.cls-1{fill:#bc3c35;}.cls-2{fill:#dd463a;}.cls-3{fill:#050083;}.cls-4{fill:#1565c0;}.cls-5{fill:#020ab9;}.cls-6{font-size:58px;fill:#fff;font-family:Akkurat-Bold;font-weight:700;}.cls-7{letter-spacing:-0.02em;}</style></defs><g id="Isolation_Mode" data-name="Isolation Mode"><path class="cls-1" d="M187.74,110.4s-174.48-.62-174.82.12l-.66-.19v3h0a7,7,0,0,0,2.07,5.14l76.83,76.83a12.48,12.48,0,0,0,17.66,0l76.83-76.83a7,7,0,0,0,2.08-5Z"/><path class="cls-2" d="M48.37,46.28H157a7.1,7.1,0,0,1,7.1,7.1V162a12.49,12.49,0,0,1-12.49,12.49H43a7.1,7.1,0,0,1-7.1-7.1V58.76A12.49,12.49,0,0,1,48.37,46.28Z" transform="translate(92.65 259.17) rotate(-135)"/><path class="cls-3" d="M188.1,89.47h0V86.51H12.62v2.95h0v0h0a7,7,0,0,0,2.08,5l76.83,76.83a12.48,12.48,0,0,0,17.66,0L186,94.48a7,7,0,0,0,2.08-5h0Z"/><path class="cls-4" d="M48.79,22.28H157.63a7.11,7.11,0,0,1,7.11,7.11V138.23a12.51,12.51,0,0,1-12.51,12.51H43.4a7.11,7.11,0,0,1-7.11-7.11V34.79A12.51,12.51,0,0,1,48.79,22.28Z" transform="translate(110.41 218.75) rotate(-135)"/></g><g id="Layer_6" data-name="Layer 6"><path class="cls-5" d="M48.52,21.84H157.65A7.13,7.13,0,0,1,164.78,29V138.09a12.54,12.54,0,0,1-12.54,12.54H43.11A7.13,7.13,0,0,1,36,143.5V34.38A12.54,12.54,0,0,1,48.52,21.84Z" transform="translate(110.38 218.19) rotate(-135)"/><text class="cls-6" transform="translate(43.51 105.79)">PH<tspan class="cls-7" x="77.66" y="0">P</tspan></text></g></svg>