<svg xmlns="http://www.w3.org/2000/svg" viewBox="0 0 200 200"><defs><style>.cls-1{fill:#43b649;}.cls-2{fill:#3ee028;}.cls-3{fill:#050083;}.cls-4{fill:#020ab9;}.cls-5{font-size:58px;fill:#fff;font-family:Akkurat-Bold;font-weight:700;}.cls-6{letter-spacing:-0.02em;}</style></defs><g id="Isolation_Mode" data-name="Isolation Mode"><path class="cls-1" d="M187.74,89.47h0V86.51H12.26v2.95h0v0h0a7,7,0,0,0,2.08,5l76.83,76.83a12.48,12.48,0,0,0,17.66,0l76.83-76.83a7.08,7.08,0,0,0,2.08-5h0Z"/><path class="cls-2" d="M108.83,4.66l76.83,76.83a7.1,7.1,0,0,1,0,10l-76.83,76.83a12.5,12.5,0,0,1-17.66,0L14.34,91.53a7.1,7.1,0,0,1,0-10L91.17,4.66A12.48,12.48,0,0,1,108.83,4.66Z"/><path class="cls-3" d="M187.74,113.49v-3H12.26v3h0a7.07,7.07,0,0,0,2.08,5l76.83,76.83a12.48,12.48,0,0,0,17.66,0l76.83-76.83a7.08,7.08,0,0,0,2.08-5h0Z"/><path class="cls-4" d="M48.43,46.3H157.27a7.11,7.11,0,0,1,7.11,7.11V162.24a12.51,12.51,0,0,1-12.51,12.51H43a7.11,7.11,0,0,1-7.11-7.11V58.81A12.51,12.51,0,0,1,48.43,46.3Z" transform="translate(92.82 259.49) rotate(-135)"/><text class="cls-5" transform="translate(43.51 130.73)">PH<tspan class="cls-6" x="77.66" y="0">P</tspan></text></g></svg>