<svg xmlns="http://www.w3.org/2000/svg" id="Layer_1" data-name="Layer 1" viewBox="0 0 150 150"><defs><style>.cls-1{fill:#7774f8;}.cls-2{fill:#fff;}</style></defs><path class="cls-1" d="M150,75A75,75,0,0,1,22,128,75,75,0,1,1,150,75Z"/><path class="cls-2" d="M86.39,16.74c3.15,3.15,6.26,6.33,9.47,9.43,1,1,1.12,1.63,0,2.62C94.2,30.31,92.71,32,91,33.55c-1,1-1.2,1.72,0,2.58,1.45,1,1.28,1.95,0,3.09-1.8,1.61-3.38,3.45-5.16,5.08-1.07,1-1.43,1.78-.07,2.73,1.54,1.07,1.09,2-.09,3.08-1.88,1.74-3.61,3.64-5.47,5.4-.82.78-.93,1.41,0,2.1,1.36,1,1.29,2,0,2.91s-1.13,1.83.07,2.71,1.34,1.81,0,2.76c-1,.73-1,1.49,0,2.24,1.26.93,1.21,1.84,0,2.76s-1.45,1.73-.11,2.71c1,.7,1.12,1.52.06,2.27-1.49,1.06-1.07,2,.14,2.88s1.14,1.75,0,2.59-1,1.62,0,2.41,1.21,1.61.06,2.44c-1.47,1.06-1.56,2.09,0,3.18,1.1.79,1.07,1.64,0,2.43s-1.11,1.74,0,2.56c1.51,1.07,1.23,2.08-.09,3.07-1.06.79-1.18,1.57,0,2.4,1.37,1,1,1.89-.15,2.75s-1.42,1.62-.13,2.56,1.61,2,.09,3.06c-1.22.88-.53,1.62.26,2.23,1.38,1,1.43,2,0,3.08-1,.73-1.35,1.52-.14,2.4s1.15,1.88-.07,2.74c-1.46,1-1.14,2,.1,2.87s1.21,1.73,0,2.6-1.06,1.6,0,2.4c1.3,1,1.63,2,.1,3.07-1.13.8-1.31,1.66-.07,2.55s.94,1.81-.14,2.59c-1.35,1-1.33,1.91,0,2.87s1,1.73,0,2.78c-4.07,4.12-4,4.1-8.08.1-1.3-1.26-1.24-2.09.1-3.08,1-.74,1.31-1.51.1-2.37-1.41-1-1.72-2.06-.11-3.2,1.1-.77.59-1.46-.19-2.05-1.35-1-1.79-2.06-.13-3.2,1.21-.84,1.17-1.68,0-2.53s-1.12-1.63,0-2.42c1.49-1,1.54-2.07,0-3.15-1.08-.76-1.16-1.6,0-2.42s1.29-1.66,0-2.52c-1.6-1.12-1.31-2.17.1-3.2,1-.71,1.16-1.45.07-2.22-1.42-1-1.21-2,.08-2.88s1.15-1.81-.06-2.69-1.46-1.77-.11-2.73c1.16-.81,1.06-1.6,0-2.37-1.52-1.08-1.47-2.14,0-3.2,1.12-.79,1.1-1.57,0-2.37s-1.18-1.72,0-2.57c1.39-1,1.47-2,0-3-1.15-.82-1.23-1.7,0-2.57s1.21-1.55,0-2.38-1.28-1.68-.06-2.57,1.6-1.94.08-3c-1-.7-.81-1.47.07-2.1,1.43-1,1.24-1.92-.06-2.84s-1.16-1.83,0-2.74c.83-.62,1.17-1.31.13-2.06-1.45-1-1.38-2,0-3,1.19-.85,1.15-1.67,0-2.53s-1.67-1.82-.16-2.89c1-.71,1-1.37,0-2.23-1.92-1.79-3.68-3.76-5.62-5.53-1.12-1-1.29-1.85,0-2.76s1.34-1.74.06-2.87c-1.91-1.69-3.6-3.62-5.46-5.37-.95-.89-1.19-1.65,0-2.44,1.77-1.19,1.24-2.15-.08-3.33-1.8-1.6-3.4-3.43-5.15-5.07-.94-.88-1.06-1.49-.07-2.47q9.39-9.23,18.66-18.57c.92-.92,1.48-.77,2.3.08,3.17,3.23,6.39,6.41,9.59,9.61ZM76.27,32.08a13,13,0,0,1,1.21-1.25c1-.83,1-1.5,0-2.45s-1.53-.94-2.48,0-1,1.63,0,2.45a13,13,0,0,1,1.21,1.25c-1.43,1.47-2.8,3-4.3,4.38-1,.93-1,1.57,0,2.44.84.73,1.53,1.74,2.56.26s2.24-1.61,3.36,0c.86,1.23,1.57.76,2.41-.11s1.44-1.51.19-2.6C79,35.1,77.69,33.55,76.27,32.08Z"/><path class="cls-2" d="M99.71,52.31c3.46,1.13,4.11,3.07,2.05,5.73-.41.53-.72,6.43-.21,6.79,1.7,1.23,1.24,2.19-.16,3.25S99,71.2,97.16,72c-.85.35-1.86.71-2.6-.48-.92-1.47-1.78-.88-2.68.17-1.19,1.38-.33,2.79-.14,4.14.13,1,.9.8,1.83.68s1.46,1.24,2.5,2A7.55,7.55,0,0,0,92.43,81c-.2.21-.6.48-.56.64.4,1.54-.31,1.34-1.55,1.88-1.7.73-3.23.48-4.81.8s-1.78-.76-2.32-1.44c-.41-.52,1-2.44-1.25-1.6.35-.8.69-1.53-.26-2.27-.58-.44-1.33-.89-1.4-1.86.76-.31,1.1.31,1.4.69,1,1.31,1.81.52,2.37-.36s.63-2,1.49-2.81a.87.87,0,0,0-.27-1.33c-.49-.33-.81.05-1.12.34-.48.45-.93.92-1.39,1.38-1.33-.65-.12-1.64-.36-2.49-.39-1.42,1-.6,1.69-.81s1.31-1.1,2-1.63,1.09-1.81,2.48-1.13c.48.24.88-.28.76-1-.26-1.51-.5-3,1-4.13a.59.59,0,0,0,.08-1c-2.1-1.46-1.05-3.71-1.22-5.56a3,3,0,0,0-.81-2.18c-.62-.63-1.25-1.07-1-2.34s-1.1-1-2.23-1.12c.53-.53,1-1.08,1.61-1.6C88,49,89,47.9,87.27,46.39a.7.7,0,0,1,0-1.13c.57-.53.93,0,1.28.3,1.4,1.38,2.78,2.79,4.19,4.16.33.32.62.94,1.24.51s.24-.73,0-1.13c-.34-.58.37-.88.4-1.39.07-1.24-.28-2.18-1.69-2.24a2.16,2.16,0,0,1-1.6-.47c-.71-.87-1.81-2-1.7-2.8s1.42-1.73,2.27-2.51c.54-.5,1,0,1.26.4.45.63,1.82,1,1.09,2s0,1.43.52,2c1.68,1.73,3.39,3.43,5.08,5.14C101,50.56,101,50.57,99.71,52.31Zm-1.86,4a2.86,2.86,0,0,0-3.08.73c-.34.32-.93.66-.38,1.22a1,1,0,0,0,1.39.1C96.47,57.76,97.09,57.07,97.85,56.31Z"/><path class="cls-2" d="M69.67,85.17c-.71-.73-1.43-1.45-2.12-2.2-.33-.35-.76-.59-1.15-.36a1,1,0,0,0-.18,1c.83.93-.4,2.23.64,3.12.33.28-.27.88-.32.82-1.6-1.64-2.71,1.15-4.34.44-1-.42-4.93-2.85-5.14-3.89,0-.14-.06-.36,0-.41,1.57-1.26.41-2.12,0-3.49-.8-2.43-2.56-4.51-2.64-7.18a1.77,1.77,0,0,0-.5-1.18c-1.22-1-1.56-2-.07-3.09.48-.35.48-.78.13-1.32s.2-1.06.5-.92c2.5,1.11,1.12-1.08,1.53-1.73s-.67-1.49.12-2.19c0,0-.21-.53-.23-.52-2.93.87-1.14-2.83-2.95-3.06-.12,0-.3-.36-.29-.54,0-.57,1-1.55-.42-1.43A1.51,1.51,0,0,0,51,58.94c.32,1.57-1.31,2-2.12,2.9-.07.08-.56-.08-.56-.1.12-1.83-1.46-3.28-1.18-5.08.16-1,1.26-1.55,2-2.29.48-.51,1-.23,1.29.2,1,1.25,1.61.52,2.42-.23,1.33-1.22,2.4-2.69,4-3.67a2.16,2.16,0,0,0,1-2.54c-.32-1,1-2.14,1.76-2,1,.18,2-.33,2.93.12,1.08-.89,2.27-1.69,0-2.62-.81-.33-1-1.2-.07-1.86,1.66.61,2.5,2.16,3.76,3.24.72.61.36,1.12-.16,1.63-1.2,1.18-2.24,2.42-2.2,4.26A1.67,1.67,0,0,1,63.09,52c-2.11,1.7-2.26,4.28-3.26,6.49-.91,2-.85,4-1.48,6a5.78,5.78,0,0,0,1.08,4.85c.57.86,2,1.36,1.26,2.86,0,.11.37.65.45.63,2-.7,2.48,1.7,3.67,1.8,1.51.12,2.53,1.4,4.16,1.14,1-.15,1.71,1.32,3,1.38.43,0,.06.76-.27,1-1.53,1.22-2.29,2.43-.19,3.84.62.42.5,1,0,1.46s-1.11,1.16-1.66,1.74Z"/><path class="cls-2" d="M81.3,89.23c-.34-.49-1.13-.72-1-1.51,0-.17.36-.47.42-.44,1.11.56,2.09,1.36,3.47,1.27.26,0,0,.59-.2.88C83,90.83,82.13,90.38,81.3,89.23Z"/></svg>