<svg xmlns="http://www.w3.org/2000/svg" viewBox="0 0 200 200"><defs><style>.cls-1{fill:#43b649;}.cls-2{fill:#3ee028;}.cls-3{fill:#5454af;}.cls-4{fill:#7774f8;}.cls-5{fill:#fff;}</style></defs><g id="Isolation_Mode" data-name="Isolation Mode"><path class="cls-1" d="M187.74,89.47h0V86.51H12.26v2.95h0v0h0a7,7,0,0,0,2.08,5l76.83,76.83a12.48,12.48,0,0,0,17.66,0l76.83-76.83a7.08,7.08,0,0,0,2.08-5h0Z"/><path class="cls-2" d="M108.83,4.66l76.83,76.83a7.1,7.1,0,0,1,0,10l-76.83,76.83a12.5,12.5,0,0,1-17.66,0L14.34,91.53a7.1,7.1,0,0,1,0-10L91.17,4.66A12.48,12.48,0,0,1,108.83,4.66Z"/><path class="cls-3" d="M187.74,113.49v-3H12.26v3h0a7.07,7.07,0,0,0,2.08,5l76.83,76.83a12.48,12.48,0,0,0,17.66,0l76.83-76.83a7.08,7.08,0,0,0,2.08-5h0Z"/><path class="cls-4" d="M48.37,46.4H157a7.1,7.1,0,0,1,7.1,7.1V162.16a12.49,12.49,0,0,1-12.49,12.49H43a7.1,7.1,0,0,1-7.1-7.1V58.89A12.49,12.49,0,0,1,48.37,46.4Z" transform="translate(92.56 259.39) rotate(-135)"/><path class="cls-5" d="M110.71,52.24c3.15,3.15,6.27,6.34,9.47,9.43,1,1,1.12,1.63,0,2.62-1.67,1.52-3.17,3.25-4.84,4.77-1.06,1-1.21,1.72,0,2.57,1.45,1,1.27,2,0,3.1-1.79,1.6-3.38,3.44-5.16,5.07-1.07,1-1.43,1.78-.07,2.73,1.54,1.08,1.1,2-.09,3.09-1.88,1.73-3.61,3.63-5.46,5.39-.83.79-.94,1.42,0,2.1,1.36,1,1.29,2,0,2.92s-1.14,1.83.06,2.71,1.35,1.8.05,2.75c-1,.74-1,1.49,0,2.24,1.27.93,1.21,1.85,0,2.76s-1.44,1.74-.11,2.72c1,.7,1.12,1.52.06,2.27-1.49,1.06-1.07,2,.14,2.87s1.14,1.75,0,2.6-1,1.61,0,2.4,1.21,1.61.06,2.44c-1.47,1.06-1.55,2.09,0,3.18,1.1.79,1.08,1.64,0,2.44s-1.1,1.74,0,2.55c1.51,1.08,1.23,2.09-.09,3.07-1.06.79-1.18,1.58,0,2.4,1.37,1,1,1.89-.15,2.75s-1.42,1.62-.13,2.56,1.61,2,.09,3.07c-1.22.87-.53,1.61.27,2.22,1.37,1.06,1.42,2,0,3.08-1,.73-1.35,1.53-.14,2.4s1.15,1.89-.06,2.75c-1.47,1-1.14,2,.1,2.87s1.2,1.73,0,2.59-1.06,1.6,0,2.41c1.3,1,1.63,2,.1,3.06-1.13.81-1.31,1.66-.07,2.56s.94,1.8-.13,2.58c-1.36,1-1.34,1.92,0,2.88s1,1.72,0,2.78c-4.07,4.11-4,4.09-8.08.1-1.3-1.26-1.23-2.09.1-3.08,1-.75,1.32-1.52.1-2.38-1.41-1-1.72-2.06-.11-3.19,1.1-.78.59-1.46-.19-2.05-1.34-1-1.79-2.06-.13-3.21,1.21-.84,1.17-1.68,0-2.53s-1.12-1.62,0-2.41c1.5-1.06,1.55-2.08,0-3.16-1.08-.76-1.16-1.59,0-2.41s1.29-1.67,0-2.53c-1.6-1.11-1.31-2.17.1-3.2,1-.7,1.16-1.45.07-2.21-1.42-1-1.21-2,.08-2.89s1.15-1.8,0-2.69-1.47-1.76-.11-2.72c1.15-.82,1-1.61,0-2.37-1.52-1.08-1.47-2.15,0-3.2,1.13-.8,1.1-1.58,0-2.38s-1.18-1.72,0-2.57c1.39-1,1.47-2,0-3-1.14-.81-1.23-1.69,0-2.57s1.21-1.54,0-2.38-1.28-1.68-.06-2.57,1.6-1.94.08-3c-1-.69-.81-1.47.08-2.09,1.42-1,1.23-1.93-.07-2.85s-1.16-1.83,0-2.73c.83-.63,1.17-1.32.12-2.06-1.45-1-1.37-2,0-3,1.19-.86,1.15-1.68,0-2.54s-1.67-1.82-.16-2.88c1-.72,1-1.37,0-2.23-1.92-1.8-3.68-3.76-5.62-5.54-1.12-1-1.29-1.84,0-2.75s1.34-1.75.06-2.87c-1.91-1.69-3.6-3.63-5.46-5.38-1-.89-1.19-1.65,0-2.43,1.78-1.19,1.25-2.15-.08-3.34-1.8-1.6-3.39-3.42-5.15-5.07-.94-.87-1.06-1.48-.06-2.46q9.38-9.23,18.66-18.57c.91-.92,1.47-.77,2.3.07,3.16,3.24,6.38,6.42,9.59,9.62ZM100.59,67.59a13.12,13.12,0,0,1,1.21-1.26c1-.82,1-1.49,0-2.45s-1.53-.94-2.48,0-1,1.63,0,2.46a11.94,11.94,0,0,1,1.21,1.25c-1.43,1.46-2.79,3-4.3,4.37-1,.94-1,1.57,0,2.44.84.74,1.53,1.75,2.56.27s2.24-1.61,3.36,0c.87,1.24,1.57.77,2.42-.11s1.43-1.51.18-2.6C103.35,70.61,102,69.05,100.59,67.59Z"/><path class="cls-5" d="M124,87.82c3.46,1.12,4.11,3.06,2.06,5.72-.41.53-.73,6.43-.22,6.8,1.7,1.22,1.24,2.19-.16,3.24s-2.37,3.13-4.23,3.9c-.85.35-1.86.7-2.6-.49-.92-1.47-1.78-.87-2.68.18-1.19,1.37-.33,2.78-.14,4.14.13,1,.9.79,1.83.67s1.46,1.24,2.5,2a7.65,7.65,0,0,0-3.64,2.53c-.2.21-.6.49-.56.64.4,1.54-.31,1.35-1.55,1.88-1.7.74-3.23.49-4.81.8s-1.78-.76-2.32-1.43,1-2.44-1.25-1.61c.35-.8.7-1.53-.26-2.26-.57-.45-1.33-.89-1.4-1.87.77-.3,1.1.32,1.41.7,1,1.3,1.81.51,2.36-.37s.63-2,1.49-2.81a.87.87,0,0,0-.27-1.33c-.49-.32-.81.05-1.12.34-.48.45-.93.93-1.39,1.38-1.32-.65-.12-1.63-.35-2.49-.4-1.42,1-.59,1.68-.81s1.31-1.1,2-1.63,1.09-1.81,2.49-1.12c.47.23.87-.28.75-1-.26-1.52-.5-3,1-4.13a.6.6,0,0,0,.08-1c-2.1-1.46-1-3.71-1.21-5.55a3.12,3.12,0,0,0-.82-2.19c-.62-.63-1.24-1.07-1-2.34s-1.09-1-2.23-1.11c.54-.54,1.06-1.09,1.61-1.6,1.22-1.14,2.18-2.29.47-3.79a.7.7,0,0,1,0-1.13c.57-.53.93,0,1.28.29,1.4,1.38,2.78,2.79,4.19,4.16.33.32.62,1,1.24.51s.25-.73,0-1.13c-.34-.57.37-.88.4-1.38C118.79,82,118.44,81,117,81a2.16,2.16,0,0,1-1.6-.47c-.71-.86-1.81-2-1.7-2.8S115.15,76,116,75.19c.55-.5,1,0,1.26.4.45.64,1.82,1,1.09,2s0,1.43.53,2c1.68,1.72,3.38,3.42,5.07,5.13C125.28,86.07,125.28,86.07,124,87.82Zm-1.86,4a2.84,2.84,0,0,0-3.08.73c-.34.31-.93.66-.38,1.22a1,1,0,0,0,1.39.09C120.8,93.27,121.41,92.58,122.17,91.82Z"/><path class="cls-5" d="M94,120.67c-.71-.73-1.43-1.45-2.12-2.19-.33-.35-.76-.6-1.15-.36a1,1,0,0,0-.18,1c.83.93-.4,2.23.65,3.12.33.28-.28.88-.33.83-1.6-1.64-2.71,1.14-4.34.44-1-.43-4.92-2.86-5.14-3.9,0-.13-.06-.35,0-.41,1.57-1.26.41-2.12,0-3.49-.8-2.42-2.56-4.5-2.63-7.18a1.87,1.87,0,0,0-.51-1.18c-1.22-1-1.56-2-.07-3.08.48-.36.48-.79.14-1.32s.19-1.06.49-.93c2.5,1.12,1.12-1.08,1.53-1.72s-.66-1.49.12-2.19c0,0-.21-.53-.23-.53-2.93.87-1.14-2.83-3-3-.12,0-.3-.37-.28-.55,0-.57,1-1.54-.43-1.42a1.51,1.51,0,0,0-1.24,1.91c.32,1.57-1.31,2-2.12,2.89-.07.08-.56-.07-.55-.1.12-1.83-1.47-3.28-1.19-5.08.16-1,1.26-1.55,1.95-2.28.48-.52,1-.24,1.29.19,1,1.26,1.61.53,2.42-.23,1.33-1.22,2.4-2.68,4-3.67a2.17,2.17,0,0,0,1-2.54c-.32-1,1-2.14,1.76-2,1,.19,2-.33,2.93.12,1.08-.88,2.27-1.69,0-2.62-.81-.32-1-1.19-.07-1.85,1.66.6,2.51,2.16,3.76,3.23.72.62.36,1.12-.16,1.63-1.2,1.18-2.24,2.42-2.2,4.27a1.61,1.61,0,0,1-.68,1c-2.11,1.7-2.25,4.28-3.26,6.49-.91,2-.85,4-1.47,6a5.72,5.72,0,0,0,1.07,4.84c.58.86,2,1.36,1.27,2.87-.06.11.36.65.44.62,2-.69,2.49,1.71,3.67,1.8,1.51.13,2.53,1.4,4.16,1.15,1-.16,1.71,1.31,3,1.37.44,0,.06.76-.26,1-1.54,1.22-2.3,2.43-.2,3.84.62.42.5,1,0,1.46s-1.11,1.16-1.66,1.74Z"/><path class="cls-5" d="M105.62,124.73c-.34-.48-1.12-.72-1-1.51,0-.17.36-.46.42-.43,1.11.55,2.09,1.35,3.48,1.26.25,0,0,.59-.21.89C107.31,126.34,106.45,125.88,105.62,124.73Z"/></g></svg>