<svg xmlns="http://www.w3.org/2000/svg" viewBox="0 0 200 200"><defs><style>.cls-1{fill:#bc3c35;}.cls-2{fill:#dd463a;}.cls-3{fill:#745eaa;}.cls-4{fill:#957bc6;}.cls-5,.cls-7{fill:none;}.cls-5{stroke:#fff;stroke-miterlimit:10;stroke-width:1.7px;}.cls-6{fill:#fff;}</style></defs><g id="Isolation_Mode" data-name="Isolation Mode"><path class="cls-1" d="M187.74,110.4s-174.48-.62-174.82.12l-.66-.19v3h0a7,7,0,0,0,2.07,5.14l76.83,76.83a12.48,12.48,0,0,0,17.66,0l76.83-76.83a7,7,0,0,0,2.08-5Z"/><path class="cls-2" d="M48.37,46.28H157a7.1,7.1,0,0,1,7.1,7.1V162a12.49,12.49,0,0,1-12.49,12.49H43a7.1,7.1,0,0,1-7.1-7.1V58.76A12.49,12.49,0,0,1,48.37,46.28Z" transform="translate(92.65 259.17) rotate(-135)"/></g><g id="Layer_6" data-name="Layer 6"><path class="cls-3" d="M187.74,89.47h0V86.51H12.26v2.95h0v0h0a7,7,0,0,0,2.08,5l76.83,76.83a12.48,12.48,0,0,0,17.66,0l76.83-76.83a7.08,7.08,0,0,0,2.08-5h0Z"/><path class="cls-4" d="M48.37,22.39H157a7.1,7.1,0,0,1,7.1,7.1V138.14a12.49,12.49,0,0,1-12.49,12.49H43a7.1,7.1,0,0,1-7.1-7.1V34.87A12.49,12.49,0,0,1,48.37,22.39Z" transform="translate(109.54 218.39) rotate(-135)"/><path class="cls-5" d="M49,74.86,69,45.74"/><path class="cls-5" d="M77.43,120C55.26,104.33,42.65,84.34,49.61,73.9"/><path class="cls-6" d="M150.56,101.34l-20,29.56c-7,10-30.43,5.65-52.6-9.56a131.09,131.09,0,0,1-12.17-9.57c3-.43,6.95-2.17,10.87-6.52,7-7.39,10.43-9.13,13.47-8.69,3.05,0,6.52,3,12.17,10.43s13.48,9.56,18.26,5.65c.44-.43.87-.43,1.31-.87,3.91-3,5.21-4.34,12.6-18.26,1.74-3.47,7.83-9.12,16.09-6.52Q153.82,95.48,150.56,101.34Z"/><path class="cls-6" d="M121.92,54.61c-22.45-16-46.22-20-53.26-9.77-6.6,10.21,5.72,31.08,28.61,46.62,22.45,16,46.22,20,53.26,9.76C157.14,91,144.81,69.7,121.92,54.61Zm6.16,31.52c-3.08,4.44-13.64,2.22-24.21-4.88-10.12-7.11-16.28-16.43-13.2-20.87s13.64-2.22,24.21,4.88C125,72.37,131.17,81.69,128.08,86.13Z"/><path class="cls-6" d="M65.59,56.35c0-.43-.44-.87-.87-.43s-.87.43-.87.87a10.82,10.82,0,0,1,.87,3c0,.43.43.87.87.43.43,0,.87-.43.43-.86A8.62,8.62,0,0,0,65.59,56.35Z"/><path class="cls-6" d="M67.51,63.09c0-.44-.44-.87-.87-.44s-.44.44-.44.87C71,74.39,81,86.12,94,94.82c.43.43.86,0,1.3,0,.43-.44,0-.87,0-1.31C81.85,84.82,72.29,73.52,67.51,63.09Z"/><path class="cls-7" d="M122.74,105.69c-.44,0-.87,0-.87.43s0,.87.43.87c1.3.44,3,.87,4.35,1.3.43,0,.87,0,.87-.43s0-.87-.44-.87C125.78,106.56,124,106.12,122.74,105.69Z"/><path class="cls-7" d="M130.56,107.43a.87.87,0,1,0,0,1.73c3.48.44,7.39.87,10.43.44a.87.87,0,0,0,0-1.74A42.43,42.43,0,0,1,130.56,107.43Z"/></g></svg>