<svg xmlns="http://www.w3.org/2000/svg" id="Layer_1" data-name="Layer 1" viewBox="0 0 150 150"><defs><style>.cls-1{fill:#957bc6;}.cls-2,.cls-4{fill:none;}.cls-2{stroke:#fff;stroke-miterlimit:10;stroke-width:1.7px;}.cls-3{fill:#fff;}</style></defs><path class="cls-1" d="M150,75A75,75,0,0,1,22,128,75,75,0,1,1,150,75Z"/><path class="cls-2" d="M24,62.11,44,33"/><path class="cls-2" d="M52.43,107.22C30.26,91.57,17.65,71.58,24.61,61.15"/><path class="cls-3" d="M125.56,88.58l-20,29.56c-7,10-30.43,5.65-52.6-9.56A129.43,129.43,0,0,1,40.79,99c3-.43,7-2.17,10.87-6.52,7-7.39,10.43-9.12,13.47-8.69,3.05,0,6.52,3,12.17,10.43s13.48,9.57,18.26,5.65c.44-.43.87-.43,1.31-.87,3.91-3,5.21-4.34,12.6-18.25,1.74-3.48,7.83-9.13,16.09-6.52Q128.82,82.72,125.56,88.58Z"/><path class="cls-3" d="M96.92,41.85c-22.45-16-46.22-20-53.26-9.76C37.06,42.3,49.38,63.16,72.27,78.7c22.45,16,46.22,20,53.26,9.77C132.14,78.25,119.81,57,96.92,41.85Zm6.16,31.52c-3.08,4.44-13.64,2.22-24.21-4.88-10.12-7.1-16.28-16.43-13.2-20.87s13.64-2.22,24.21,4.89C100,59.61,106.17,68.93,103.08,73.37Z"/><path class="cls-3" d="M40.59,43.59c0-.43-.44-.86-.87-.43s-.87.43-.87.87a11.17,11.17,0,0,1,.87,3c0,.44.43.87.87.44.43,0,.87-.44.43-.87A8.62,8.62,0,0,0,40.59,43.59Z"/><path class="cls-3" d="M42.51,50.33c0-.44-.44-.87-.87-.44s-.44.44-.44.87C46,61.63,56,73.37,69,82.06c.44.44.87,0,1.31,0,.43-.43,0-.87,0-1.3C56.85,72.06,47.29,60.76,42.51,50.33Z"/><path class="cls-4" d="M97.73,92.93c-.43,0-.86,0-.86.43s0,.87.43.87c1.3.44,3,.87,4.35,1.31.43,0,.87,0,.87-.44s0-.87-.44-.87C100.78,93.8,99,93.36,97.73,92.93Z"/><path class="cls-4" d="M105.56,94.67a.87.87,0,1,0,0,1.74c3.48.43,7.39.87,10.43.43a.87.87,0,0,0,0-1.74A42,42,0,0,1,105.56,94.67Z"/></svg>