<svg xmlns="http://www.w3.org/2000/svg" viewBox="0 0 200 200"><defs><style>.cls-1{fill:#43b649;}.cls-2{fill:#3ee028;}.cls-3{fill:#745eaa;}.cls-4{fill:#957bc6;}.cls-5,.cls-7{fill:none;}.cls-5{stroke:#fff;stroke-miterlimit:10;stroke-width:1.7px;}.cls-6{fill:#fff;}</style></defs><g id="Isolation_Mode" data-name="Isolation Mode"><path class="cls-1" d="M187.74,89.47h0V86.51H12.26v2.95h0v0h0a7,7,0,0,0,2.08,5l76.83,76.83a12.48,12.48,0,0,0,17.66,0l76.83-76.83a7.08,7.08,0,0,0,2.08-5h0Z"/><path class="cls-2" d="M108.83,4.66l76.83,76.83a7.1,7.1,0,0,1,0,10l-76.83,76.83a12.5,12.5,0,0,1-17.66,0L14.34,91.53a7.1,7.1,0,0,1,0-10L91.17,4.66A12.48,12.48,0,0,1,108.83,4.66Z"/></g><g id="Layer_6" data-name="Layer 6"><path class="cls-3" d="M187.74,113.49v-3H12.26v3h0a7.07,7.07,0,0,0,2.08,5l76.83,76.83a12.48,12.48,0,0,0,17.66,0l76.83-76.83a7.08,7.08,0,0,0,2.08-5h0Z"/><path class="cls-4" d="M48.37,46.4H157a7.1,7.1,0,0,1,7.1,7.1V162.16a12.49,12.49,0,0,1-12.49,12.49H43a7.1,7.1,0,0,1-7.1-7.1V58.89A12.49,12.49,0,0,1,48.37,46.4Z" transform="translate(92.56 259.39) rotate(-135)"/><path class="cls-5" d="M49,99.57,69,70.44"/><path class="cls-5" d="M77.43,144.68C55.26,129,42.65,109,49.61,98.6"/><path class="cls-6" d="M150.56,126l-20,29.56c-7,10-30.43,5.65-52.6-9.56a131.09,131.09,0,0,1-12.17-9.57c3-.43,6.95-2.17,10.87-6.52,7-7.39,10.43-9.13,13.47-8.69,3.05,0,6.52,3,12.17,10.43s13.48,9.56,18.26,5.65c.44-.43.87-.43,1.31-.87,3.91-3,5.21-4.34,12.6-18.25,1.74-3.48,7.83-9.13,16.09-6.53Q153.82,120.18,150.56,126Z"/><path class="cls-6" d="M121.92,79.31c-22.45-16-46.22-20-53.26-9.77-6.6,10.21,5.72,31.08,28.61,46.62,22.45,16,46.22,20,53.26,9.76C157.14,115.71,144.81,94.4,121.92,79.31Zm6.16,31.52c-3.08,4.44-13.64,2.22-24.21-4.88-10.12-7.11-16.28-16.43-13.2-20.87s13.64-2.22,24.21,4.89C125,97.07,131.17,106.39,128.08,110.83Z"/><path class="cls-6" d="M65.59,81.05c0-.43-.44-.87-.87-.43s-.87.43-.87.87a11.17,11.17,0,0,1,.87,3c0,.44.43.87.87.44.43,0,.87-.44.43-.87A8.62,8.62,0,0,0,65.59,81.05Z"/><path class="cls-6" d="M67.51,87.79c0-.44-.44-.87-.87-.44s-.44.44-.44.87C71,99.09,81,110.83,94,119.52c.44.43.87,0,1.31,0,.43-.44,0-.87,0-1.3C81.85,109.52,72.29,98.22,67.51,87.79Z"/><path class="cls-7" d="M122.73,130.39c-.43,0-.86,0-.86.43s0,.87.43.87c1.3.44,3,.87,4.35,1.31.43,0,.87,0,.87-.44s0-.87-.44-.87C125.78,131.26,124,130.82,122.73,130.39Z"/><path class="cls-7" d="M130.56,132.13a.87.87,0,1,0,0,1.73c3.48.44,7.39.87,10.43.44a.87.87,0,0,0,0-1.74A42,42,0,0,1,130.56,132.13Z"/></g></svg>