<svg xmlns="http://www.w3.org/2000/svg" viewBox="0 0 110 120"><defs><style>.cls-1{fill:#fff;}</style></defs><g id="Isolation_Mode" data-name="Isolation Mode"><path class="cls-1" d="M55,107.94,68.07,34.43c12.46,0,16.39,1.37,17,7,0,0,8.36-3.12,12.57-9.45a92.28,92.28,0,0,0-33-8L55,35.71h0L45.36,24a92.32,92.32,0,0,0-33,8C16.6,38.26,25,41.37,25,41.37c.57-5.57,4.5-6.94,16.87-6.95L55,107.94Z"/><path class="cls-1" d="M55,20.57a107.77,107.77,0,0,1,44.1,8.85,35.6,35.6,0,0,0,2.61-5.4A127.66,127.66,0,0,0,55,14.92,127.66,127.66,0,0,0,8.29,24a44.81,44.81,0,0,0,2.62,5.4A107.69,107.69,0,0,1,55,20.57Z"/></g></svg>