<svg xmlns="http://www.w3.org/2000/svg" viewBox="0 0 143.93 143.93"><defs><style>.cls-1{fill:#0000bd;}.cls-2{fill:#fff;}</style></defs><g id="Isolation_Mode" data-name="Isolation Mode"><circle class="cls-1" cx="71.96" cy="71.96" r="71.96"/><path class="cls-2" d="M72,119.9,84.11,51.63c11.57,0,15.22,1.27,15.74,6.45,0,0,7.77-2.9,11.68-8.78a85.59,85.59,0,0,0-30.62-7.39l-9,10.9h0L63,41.9a85.8,85.8,0,0,0-30.63,7.4c3.92,5.88,11.68,8.77,11.68,8.77.53-5.18,4.18-6.44,15.67-6.45L72,119.9Z"/><path class="cls-2" d="M72,38.75a100.23,100.23,0,0,1,41,8.22,33.61,33.61,0,0,0,2.43-5A118.65,118.65,0,0,0,72,33.5,118.64,118.64,0,0,0,28.58,42,40.46,40.46,0,0,0,31,47,100.15,100.15,0,0,1,72,38.75Z"/></g></svg>