<?xml version="1.0" encoding="utf-8"?>
<!-- Generator: Adobe Illustrator 26.0.2, SVG Export Plug-In . SVG Version: 6.00 Build 0)  -->
<svg version="1.1" id="Layer_1" xmlns="http://www.w3.org/2000/svg" xmlns:xlink="http://www.w3.org/1999/xlink" x="0px" y="0px"
	 viewBox="0 0 167.8 167.8" style="enable-background:new 0 0 167.8 167.8;" xml:space="preserve">
<style type="text/css">
	.st0{fill:#B5FF00;}
	.st1{fill:#231F20;}
</style>
<g id="Layer_1_00000052105652604328445820000011096749097525517729_">
</g>
<g id="Isolation_Mode">
	<g>
		<g>
			<path class="st0" d="M167.8,83.9c0,23.2-9.4,44.2-24.6,59.3c-15.2,15.2-36.2,24.6-59.3,24.6s-44.2-9.4-59.3-24.6
				C9.4,128.1,0,107.1,0,83.9s9.4-44.2,24.6-59.3S60.7,0,83.9,0C130.3,0,167.8,37.6,167.8,83.9z"/>
		</g>
	</g>
</g>
<polygon class="st1" points="157.9,80.8 62.5,80.8 62.5,42.2 56.2,42.2 56.2,80.8 9.9,80.8 9.9,87.1 110,87.1 110,125.6 
	116.3,125.6 116.3,87.1 157.9,87.1 "/>
</svg>
