<svg xmlns="http://www.w3.org/2000/svg" viewBox="0 0 200 200"><defs><style>.cls-1{fill:#bc3c35;}.cls-2{fill:#dd463a;}.cls-3{fill:#0273a5;}.cls-4{fill:#178dcf;}.cls-5{fill:#fff;}</style></defs><g id="Isolation_Mode" data-name="Isolation Mode"><path class="cls-1" d="M187.74,110.4s-174.48-.62-174.82.12l-.66-.19v3h0a7,7,0,0,0,2.07,5.14l76.83,76.83a12.48,12.48,0,0,0,17.66,0l76.83-76.83a7,7,0,0,0,2.08-5Z"/><path class="cls-2" d="M48.37,46.28H157a7.1,7.1,0,0,1,7.1,7.1V162a12.49,12.49,0,0,1-12.49,12.49H43a7.1,7.1,0,0,1-7.1-7.1V58.76A12.49,12.49,0,0,1,48.37,46.28Z" transform="translate(92.65 259.17) rotate(-135)"/><path class="cls-3" d="M187.74,89.47h0V86.51H12.26v2.95h0v0h0a7,7,0,0,0,2.08,5l76.83,76.83a12.48,12.48,0,0,0,17.66,0l76.83-76.83a7.08,7.08,0,0,0,2.08-5h0Z"/><path class="cls-4" d="M48.37,22.39H157a7.1,7.1,0,0,1,7.1,7.1V138.14a12.49,12.49,0,0,1-12.49,12.49H43a7.1,7.1,0,0,1-7.1-7.1V34.87A12.49,12.49,0,0,1,48.37,22.39Z" transform="translate(109.54 218.39) rotate(-135)"/><path class="cls-5" d="M90.36,93.42v30.23s.33,3.3-3.8,3.37-13.71,0-13.71,0-5.4.46-5.95-6-.48-14.33,0-32.08c0,0-.18-5.07,6-4.65S90.19,84.36,90.36,93.42Z"/><path class="cls-5" d="M109.64,93.42v30.23s-.33,3.3,3.8,3.37,13.71,0,13.71,0,5.4.46,5.95-6,.48-14.33,0-32.08c0,0,.18-5.07-6-4.65S109.81,84.36,109.64,93.42Z"/><path class="cls-5" d="M127.47,69.72a309.24,309.24,0,0,1-54.94,0,6,6,0,0,1-6-6V53a6,6,0,0,1,6-6,248.58,248.58,0,0,1,54.94,0,6,6,0,0,1,6,6V63.7A6,6,0,0,1,127.47,69.72Z"/></g></svg>