<svg xmlns="http://www.w3.org/2000/svg" viewBox="0 0 200 200"><defs><style>.cls-1{fill:#43b649;}.cls-2{fill:#3ee028;}.cls-3{fill:#0273a5;}.cls-4{fill:#178dcf;}.cls-5{fill:#fff;}</style></defs><g id="Isolation_Mode" data-name="Isolation Mode"><path class="cls-1" d="M187.74,89.47h0V86.51H12.26v2.95h0v0h0a7,7,0,0,0,2.08,5l76.83,76.83a12.48,12.48,0,0,0,17.66,0l76.83-76.83a7.08,7.08,0,0,0,2.08-5h0Z"/><path class="cls-2" d="M108.83,4.66l76.83,76.83a7.1,7.1,0,0,1,0,10l-76.83,76.83a12.5,12.5,0,0,1-17.66,0L14.34,91.53a7.1,7.1,0,0,1,0-10L91.17,4.66A12.48,12.48,0,0,1,108.83,4.66Z"/><path class="cls-3" d="M187.74,113.49v-3H12.26v3h0a7.07,7.07,0,0,0,2.08,5l76.83,76.83a12.48,12.48,0,0,0,17.66,0l76.83-76.83a7.08,7.08,0,0,0,2.08-5h0Z"/><path class="cls-4" d="M48.37,46.4H157a7.1,7.1,0,0,1,7.1,7.1V162.16a12.49,12.49,0,0,1-12.49,12.49H43a7.1,7.1,0,0,1-7.1-7.1V58.89A12.49,12.49,0,0,1,48.37,46.4Z" transform="translate(92.56 259.39) rotate(-135)"/><path class="cls-5" d="M90.36,117.44v30.23s.33,3.29-3.8,3.37-13.71,0-13.71,0-5.4.46-5.95-6-.48-14.33,0-32.09c0,0-.18-5.06,6-4.65S90.19,108.38,90.36,117.44Z"/><path class="cls-5" d="M109.64,117.44v30.23s-.33,3.29,3.8,3.37,13.71,0,13.71,0,5.4.46,5.95-6,.48-14.33,0-32.09c0,0,.18-5.06-6-4.65S109.81,108.38,109.64,117.44Z"/><path class="cls-5" d="M127.47,93.74a309.24,309.24,0,0,1-54.94,0,6,6,0,0,1-6-6V77a6,6,0,0,1,6-6,248.58,248.58,0,0,1,54.94,0,6,6,0,0,1,6,6V87.72A6,6,0,0,1,127.47,93.74Z"/></g></svg>