<svg xmlns="http://www.w3.org/2000/svg" xmlns:xlink="http://www.w3.org/1999/xlink" viewBox="0 0 200 200"><defs><style>.cls-1{fill:none;}.cls-2{fill:#43b649;}.cls-3{fill:#3ee028;}.cls-4{fill:#d178ba;}.cls-5{fill:#ff9cd2;}.cls-6{clip-path:url(#clip-path);}.cls-7,.cls-8{fill:#fff;}.cls-8{fill-rule:evenodd;}</style><clipPath id="clip-path"><rect class="cls-1" x="49.31" y="65.48" width="101.38" height="101.38"/></clipPath></defs><g id="Isolation_Mode" data-name="Isolation Mode"><path class="cls-2" d="M187.74,89.47h0V86.51H12.26v2.95h0v0h0a7,7,0,0,0,2.08,5l76.83,76.83a12.48,12.48,0,0,0,17.66,0l76.83-76.83a7.08,7.08,0,0,0,2.08-5h0Z"/><path class="cls-3" d="M108.83,4.66l76.83,76.83a7.1,7.1,0,0,1,0,10l-76.83,76.83a12.5,12.5,0,0,1-17.66,0L14.34,91.53a7.1,7.1,0,0,1,0-10L91.17,4.66A12.48,12.48,0,0,1,108.83,4.66Z"/></g><g id="Layer_6" data-name="Layer 6"><path class="cls-4" d="M187.74,113.49v-3H12.26v3h0a7.07,7.07,0,0,0,2.08,5l76.83,76.83a12.48,12.48,0,0,0,17.66,0l76.83-76.83a7.08,7.08,0,0,0,2.08-5h0Z"/><path class="cls-5" d="M48.37,46.4H157a7.1,7.1,0,0,1,7.1,7.1V162.16a12.49,12.49,0,0,1-12.49,12.49H43a7.1,7.1,0,0,1-7.1-7.1V58.89A12.49,12.49,0,0,1,48.37,46.4Z" transform="translate(92.56 259.39) rotate(-135)"/><g class="cls-6"><path class="cls-7" d="M92.28,88.55c-1.1-.16-1.15-.21-.63-.26a17,17,0,0,1,4.92.42c3.77.89,7.17,3.19,10.78,7.21l.94,1.1,1.36-.21a29.19,29.19,0,0,1,16.74,2.09,22.48,22.48,0,0,1,3.77,2.2,5.13,5.13,0,0,1,.36,1.47c.37,2.45.21,4.28-.57,5.7a1.52,1.52,0,0,0-.16,1.67,1.58,1.58,0,0,0,1.41.89c1.26,0,2.57-2,3.19-4.76l.26-1.1.47.52c2.67,3,4.76,7.12,5.08,10.05l.1.78-.47-.68a8.88,8.88,0,0,0-2.51-2.67c-1.77-1.2-3.66-1.56-8.63-1.83a35.18,35.18,0,0,1-9.57-1.47c-4.28-1.41-6.49-3.24-11.56-10a48.43,48.43,0,0,0-5.07-6,17.77,17.77,0,0,0-10.2-5.18Z"/><path class="cls-7" d="M131.25,95.19a11.25,11.25,0,0,1,.95-4.49,3.56,3.56,0,0,1,.47-.9,2.17,2.17,0,0,1-.21.79,10,10,0,0,0-.21,4.6c.36,2.36.52,2.67,3,5.23l3,3.35.89,1.15-.89-.83a32,32,0,0,0-4.18-3.3c-.37-.21-.42-.21-.68,0s-.27.53-.27,2a11.16,11.16,0,0,1-1.15,5.34c-.42.78-.47.63-.1-.26.26-.68.31-1,.31-3.25,0-4.55-.53-5.65-3.71-7.48-1-.55-1.94-1-2.94-1.52L124.18,95a24.1,24.1,0,0,1,4.4,1.31c1.83.73,2.14.79,2.35.73s.26-.57.31-1.88ZM94.43,103a18.52,18.52,0,0,1-3.3-11.25l.11-1.1.52.11A12.2,12.2,0,0,1,95.11,92c2.09,1.26,3,3,3.93,7.27l.78,3.19a19.26,19.26,0,0,0,2.09,3.77c.58.83.21,1.25-1.09,1.15-2-.21-4.66-2-6.39-4.4Zm34.16,22.75c-10.36-4.18-14-7.79-14-13.91l.05-1.62a9.23,9.23,0,0,1,.89.68c2.09,1.67,4.45,2.4,11,3.35a45.1,45.1,0,0,1,8,1.67c6.33,2.09,10.25,6.38,11.2,12.19a21.06,21.06,0,0,1-.32,6.53,13,13,0,0,1-1.67,3.77c-.05,0-.15-.26-.15-.68a8.55,8.55,0,0,0-3-5.91c-2.19-1.88-5-3.29-11.92-6.07Zm-7.33,1.73a11.74,11.74,0,0,0-.52-2.2l-.26-.78.47.57a9.08,9.08,0,0,1,1.67,3A6.46,6.46,0,0,1,123,131a6.54,6.54,0,0,1-.37,2.82,9.38,9.38,0,0,1-2.19,3.51c-1.89,1.93-4.34,3-7.85,3.45l-4,.31a30.62,30.62,0,0,0-8.89,1.47c-.31.1-.63.21-.68.15a12.31,12.31,0,0,1,2.83-1.67c1.83-.89,3.71-1.36,7.85-2.09l4.65-.94c5.18-1.62,7.74-5.65,6.91-10.57Zm4.76,8.42a12.21,12.21,0,0,1-.94-8.47c.11-.26.21-.52.32-.52a2.26,2.26,0,0,1,.73.36c.63.42,1.93,1.15,5.28,3,4.24,2.3,6.65,4.08,8.32,6.12a13,13,0,0,1,2.77,6.32,21,21,0,0,1-.26,6.23A15.42,15.42,0,0,1,134.65,159a7.35,7.35,0,0,1-1.1.52,4.42,4.42,0,0,1,.47-1.15,10.37,10.37,0,0,0,.47-8.11c-.57-1.77-1.78-3.92-4.19-7.53L126,135.9Zm-39,16a28.33,28.33,0,0,1,13-6.28,19.51,19.51,0,0,1,6.75.26,11.68,11.68,0,0,1,6.59,4.24c1.25,1.88,1.83,3.51,2.41,7.11l.52,3.2a7,7,0,0,0,2.3,4.13c1.63,1.2,4.45,1.25,7.22.21a3.73,3.73,0,0,1,.89-.27,7.86,7.86,0,0,1-2.24,1.52,7.43,7.43,0,0,1-3.77.89c-2.51,0-4.66-1.31-6.38-3.92a29.73,29.73,0,0,1-1.73-3.45c-1.83-4.24-2.77-5.5-4.92-6.91a6.45,6.45,0,0,0-6.12-.58,4,4,0,0,0-1.36,6.13,5.39,5.39,0,0,0,3,1.57,3.19,3.19,0,0,0,3.61-3.19A2.51,2.51,0,0,0,105.1,154c-1.67-.73-3.5.11-3.45,1.73a1.43,1.43,0,0,0,1,1.41c.42.21.42.21.11.16-1.52-.31-1.88-2.2-.68-3.4,1.47-1.47,4.55-.84,5.6,1.2a5.46,5.46,0,0,1,.1,3.56,4.88,4.88,0,0,1-6,2.82c-1.73-.46-2.46-.94-4.55-3.08-3.66-3.77-5.07-4.5-10.31-5.29L86,153l1.1-1Z"/><path class="cls-8" d="M59.54,67.73l31.91,39.08c.78,1,.47,2-.84,2.77a8,8,0,0,1-3,.84,3.77,3.77,0,0,1-2.51-1.1c-.47-.47-2.51-3.45-7.11-10.62L71.47,88.6c-.21-.1-.21-.1,6.17,11.3L83,110c0,.68-.21,1-1,2-1.42,1.57-2.05,3.35-2.51,7.06-.53,4.13-1.94,7.06-6,12-2.35,2.93-2.72,3.45-3.29,4.66a8.82,8.82,0,0,0-1,4.18,12.91,12.91,0,0,0,.68,5.13,17.58,17.58,0,0,0,2.51,4.92,12.08,12.08,0,0,1,1.93,3.82c0,.41.11.41,2,0,4.5-1.05,8.21-2.83,10.25-5a4.72,4.72,0,0,0,1.58-4,4.19,4.19,0,0,0-.37-2.2c-.53-1.15-1.52-2.09-3.66-3.55-2.83-1.94-4-3.51-4.35-5.6-.26-1.78,0-3,1.63-6.28a18.75,18.75,0,0,0,2.3-8.27c.15-2.19.42-3.08,1.05-3.76s1.25-1,2.87-1.21c2.67-.36,4.4-1,5.76-2.35a4.89,4.89,0,0,0,1.77-3.82l0-1.2-.68-.73C92,102.94,57.92,65.48,57.76,65.48S58.54,66.47,59.54,67.73ZM75.6,142.12a2.16,2.16,0,0,0-.68-2.88c-.89-.57-2.25-.31-2.25.47a.54.54,0,0,0,.41.53c.47.26.53.52.16,1.09s-.37,1.1.11,1.47a1.49,1.49,0,0,0,2.24-.68ZM96.78,114.6A4.65,4.65,0,0,0,94,117.69a4.43,4.43,0,0,0,.26,2.83c.57.73,1.1.94,2.56.94,2.88,0,5.34-1.25,5.6-2.77.26-1.26-.84-3-2.35-3.77a5.33,5.33,0,0,0-3.25-.31Zm3.35,2.62a1.18,1.18,0,0,0-.52-1.78c-1.41-.89-3.56-.16-3.56,1.2,0,.68,1.1,1.41,2.15,1.41A2.86,2.86,0,0,0,100.13,117.22Z"/></g></g></svg>