<svg xmlns="http://www.w3.org/2000/svg" xmlns:xlink="http://www.w3.org/1999/xlink" viewBox="0 0 200 200"><defs><style>.cls-1{fill:none;}.cls-2{fill:#bc3c35;}.cls-3{fill:#dd463a;}.cls-4{fill:#d178ba;}.cls-5{fill:#ff9cd2;}.cls-6{clip-path:url(#clip-path);}.cls-7,.cls-8{fill:#fff;}.cls-8{fill-rule:evenodd;}</style><clipPath id="clip-path"><rect class="cls-1" x="50.74" y="38.67" width="101.38" height="101.38"/></clipPath></defs><g id="Isolation_Mode" data-name="Isolation Mode"><path class="cls-2" d="M187.74,110.4s-174.48-.62-174.82.12l-.66-.19v3h0a7,7,0,0,0,2.07,5.14l76.83,76.83a12.48,12.48,0,0,0,17.66,0l76.83-76.83a7,7,0,0,0,2.08-5Z"/><path class="cls-3" d="M48.37,46.28H157a7.1,7.1,0,0,1,7.1,7.1V162a12.49,12.49,0,0,1-12.49,12.49H43a7.1,7.1,0,0,1-7.1-7.1V58.76A12.49,12.49,0,0,1,48.37,46.28Z" transform="translate(92.65 259.17) rotate(-135)"/></g><g id="Layer_6" data-name="Layer 6"><path class="cls-4" d="M187.74,89.47h0V86.51H12.26v2.95h0v0h0a7,7,0,0,0,2.08,5l76.83,76.83a12.48,12.48,0,0,0,17.66,0l76.83-76.83a7.08,7.08,0,0,0,2.08-5h0Z"/><path class="cls-5" d="M48.37,22.39H157a7.1,7.1,0,0,1,7.1,7.1V138.14a12.49,12.49,0,0,1-12.49,12.49H43a7.1,7.1,0,0,1-7.1-7.1V34.87A12.49,12.49,0,0,1,48.37,22.39Z" transform="translate(109.54 218.39) rotate(-135)"/><g class="cls-6"><path class="cls-7" d="M93.71,61.74c-1.1-.16-1.15-.21-.63-.26a17.32,17.32,0,0,1,4.92.41c3.77.9,7.17,3.19,10.78,7.22l.94,1.1,1.36-.21a29.19,29.19,0,0,1,16.74,2.09,22.48,22.48,0,0,1,3.77,2.2,5,5,0,0,1,.36,1.46c.37,2.46.21,4.29-.57,5.71a1.52,1.52,0,0,0-.16,1.67,1.58,1.58,0,0,0,1.41.89c1.26,0,2.57-2,3.19-4.76l.26-1.1.47.52c2.67,3,4.76,7.11,5.08,10l.1.78-.47-.68a8.88,8.88,0,0,0-2.51-2.67c-1.77-1.2-3.66-1.57-8.63-1.83a35.18,35.18,0,0,1-9.57-1.47c-4.29-1.41-6.49-3.24-11.56-10a48.43,48.43,0,0,0-5.07-6,17.77,17.77,0,0,0-10.2-5.18Z"/><path class="cls-7" d="M132.68,68.38a11.34,11.34,0,0,1,.95-4.5,4,4,0,0,1,.46-.89c.06,0-.05.37-.2.79a10,10,0,0,0-.21,4.6c.36,2.36.52,2.67,3,5.23l3,3.35.89,1.15-.89-.84A32.6,32.6,0,0,0,135.56,74c-.37-.21-.42-.21-.68,0s-.27.52-.27,2a11.16,11.16,0,0,1-1.15,5.34c-.42.78-.47.62-.1-.27.26-.68.31-1,.31-3.24,0-4.55-.53-5.65-3.72-7.48-.95-.55-1.93-1-2.93-1.52l-1.41-.68a24.1,24.1,0,0,1,4.4,1.31c1.82.73,2.14.79,2.35.73s.26-.57.31-1.88Zm-36.82,7.8a18.52,18.52,0,0,1-3.3-11.25l.11-1.1.52.1a12.56,12.56,0,0,1,3.35,1.26c2.09,1.25,3,3,3.93,7.27l.78,3.19a19.55,19.55,0,0,0,2.09,3.77c.58.83.21,1.25-1.1,1.14-2-.21-4.65-2-6.38-4.39ZM130,98.93c-10.36-4.18-14-7.79-14-13.91l0-1.62a9.23,9.23,0,0,1,.89.68c2.09,1.67,4.45,2.4,11,3.34a45.85,45.85,0,0,1,8,1.68c6.33,2.09,10.25,6.38,11.2,12.18a21.11,21.11,0,0,1-.32,6.54,13,13,0,0,1-1.67,3.77s-.16-.26-.16-.68a8.48,8.48,0,0,0-3-5.91c-2.2-1.88-5-3.29-11.92-6.07Zm-7.33,1.73a11.74,11.74,0,0,0-.52-2.2l-.26-.78.47.57a9.31,9.31,0,0,1,1.67,3,6.51,6.51,0,0,1,.37,2.94,6.54,6.54,0,0,1-.37,2.82,9.38,9.38,0,0,1-2.19,3.51c-1.89,1.93-4.35,3-7.85,3.45l-4,.31a30.62,30.62,0,0,0-8.89,1.47c-.31.1-.63.2-.68.15a12.31,12.31,0,0,1,2.83-1.67c1.83-.89,3.71-1.36,7.85-2.09l4.65-.94c5.18-1.62,7.74-5.65,6.91-10.57Zm4.76,8.42a12.21,12.21,0,0,1-.94-8.47c.11-.26.21-.53.31-.53a2.45,2.45,0,0,1,.74.37c.63.42,1.93,1.15,5.28,3,4.24,2.31,6.64,4.08,8.32,6.12a13,13,0,0,1,2.77,6.33,21.05,21.05,0,0,1-.26,6.23,15.4,15.4,0,0,1-7.59,10,6.85,6.85,0,0,1-1.1.53,4.28,4.28,0,0,1,.47-1.15,10.37,10.37,0,0,0,.47-8.11c-.58-1.78-1.78-3.92-4.19-7.53l-4.28-6.8Zm-39,16a28.33,28.33,0,0,1,13-6.28,19.51,19.51,0,0,1,6.75.26,11.63,11.63,0,0,1,6.59,4.24c1.25,1.88,1.83,3.5,2.41,7.11l.52,3.2a7,7,0,0,0,2.3,4.13c1.63,1.2,4.45,1.25,7.22.2a4,4,0,0,1,.89-.26,7.86,7.86,0,0,1-2.24,1.52,7.43,7.43,0,0,1-3.77.89c-2.51,0-4.66-1.31-6.38-3.92a29.24,29.24,0,0,1-1.73-3.46c-1.83-4.23-2.77-5.49-4.92-6.9a6.43,6.43,0,0,0-6.12-.58,3.94,3.94,0,0,0-1.36,6.12,5.4,5.4,0,0,0,3,1.58,3.19,3.19,0,0,0,3.61-3.19,2.51,2.51,0,0,0-1.73-2.57c-1.67-.73-3.5.11-3.45,1.73a1.43,1.43,0,0,0,1,1.41c.42.21.42.21.11.16-1.52-.32-1.88-2.2-.68-3.4,1.47-1.47,4.55-.84,5.6,1.2a5.52,5.52,0,0,1,.1,3.56,4.89,4.89,0,0,1-6,2.82c-1.73-.47-2.46-.94-4.55-3.08-3.66-3.77-5.08-4.5-10.31-5.29l-1-.16,1.1-1Z"/><path class="cls-8" d="M61,40.92,92.88,80c.78,1,.46,2-.84,2.77a8.15,8.15,0,0,1-3,.84,3.77,3.77,0,0,1-2.51-1.1C86.08,82,84,79.06,79.43,71.89L72.9,61.79c-.22-.1-.22-.1,6.17,11.3l5.33,10c0,.68-.21,1-1.05,2-1.41,1.56-2,3.35-2.5,7.06-.53,4.13-1.94,7.06-6,12-2.35,2.93-2.72,3.45-3.29,4.65a8.89,8.89,0,0,0-1,4.19,12.91,12.91,0,0,0,.68,5.13,17.58,17.58,0,0,0,2.51,4.92,12.17,12.17,0,0,1,1.93,3.81c0,.42.11.42,2,0,4.5-1,8.21-2.82,10.25-5a4.72,4.72,0,0,0,1.58-4,4.29,4.29,0,0,0-.37-2.2c-.53-1.15-1.52-2.09-3.66-3.56-2.83-1.93-4-3.5-4.35-5.59-.26-1.78.05-3,1.63-6.28A18.75,18.75,0,0,0,85,92c.15-2.19.42-3.08,1-3.76s1.26-1,2.88-1.21c2.67-.37,4.39-1,5.75-2.35a4.87,4.87,0,0,0,1.78-3.82l0-1.2L95.85,79C93.4,76.13,59.34,38.67,59.19,38.67S60,39.66,61,40.92ZM77,115.31a2.16,2.16,0,0,0-.68-2.88c-.89-.57-2.25-.31-2.25.47a.52.52,0,0,0,.41.52c.47.27.53.53.16,1.1s-.37,1.1.11,1.47a1.49,1.49,0,0,0,2.24-.68ZM98.21,87.79a4.69,4.69,0,0,0-2.83,3.09,4.49,4.49,0,0,0,.27,2.83c.57.73,1.1.94,2.56.94,2.88,0,5.34-1.26,5.6-2.77.26-1.26-.84-3-2.36-3.77a5.29,5.29,0,0,0-3.24-.31Zm3.35,2.62a1.18,1.18,0,0,0-.52-1.78c-1.41-.89-3.56-.16-3.56,1.2,0,.68,1.1,1.41,2.15,1.41A2.86,2.86,0,0,0,101.56,90.41Z"/></g></g></svg>