<svg viewBox="0 0 500 500" fill="none" xmlns="http://www.w3.org/2000/svg">
<path d="M500 250C500 388.071 388.071 500 250 500C111.929 500 0 388.071 0 250C0 111.929 111.929 0 250 0C388.071 0 500 111.929 500 250Z" fill="black"/>
<path d="M166.852 175.812H185.602V272.004C185.602 282.681 183.225 291.568 178.473 298.664C173.72 305.76 167.405 311.099 159.527 314.68C151.715 318.195 143.219 319.953 134.039 319.953C124.404 319.953 115.68 318.195 107.867 314.68C100.12 311.099 93.9674 305.76 89.4102 298.664C84.918 291.568 82.6719 282.681 82.6719 272.004V175.812H101.324V272.004C101.324 279.426 102.691 285.546 105.426 290.363C108.16 295.181 111.969 298.762 116.852 301.105C121.799 303.449 127.529 304.621 134.039 304.621C140.615 304.621 146.344 303.449 151.227 301.105C156.174 298.762 160.016 295.181 162.75 290.363C165.484 285.546 166.852 279.426 166.852 272.004V175.812Z" fill="white"/>
<path d="M290.973 282.062C290.973 278.742 290.452 275.812 289.41 273.273C288.434 270.669 286.676 268.326 284.137 266.242C281.663 264.159 278.212 262.173 273.785 260.285C269.423 258.397 263.889 256.477 257.184 254.523C250.152 252.44 243.805 250.129 238.141 247.59C232.477 244.986 227.626 242.023 223.59 238.703C219.553 235.383 216.461 231.574 214.312 227.277C212.164 222.98 211.09 218.065 211.09 212.531C211.09 206.997 212.229 201.887 214.508 197.199C216.786 192.512 220.042 188.443 224.273 184.992C228.57 181.477 233.681 178.742 239.605 176.789C245.53 174.836 252.138 173.859 259.43 173.859C270.107 173.859 279.156 175.91 286.578 180.012C294.065 184.048 299.762 189.354 303.668 195.93C307.574 202.44 309.527 209.406 309.527 216.828H290.777C290.777 211.49 289.638 206.77 287.359 202.668C285.081 198.501 281.63 195.246 277.008 192.902C272.385 190.493 266.526 189.289 259.43 189.289C252.724 189.289 247.19 190.298 242.828 192.316C238.466 194.335 235.211 197.069 233.062 200.52C230.979 203.97 229.938 207.909 229.938 212.336C229.938 215.331 230.556 218.065 231.793 220.539C233.095 222.948 235.081 225.194 237.75 227.277C240.484 229.361 243.935 231.281 248.102 233.039C252.333 234.797 257.379 236.49 263.238 238.117C271.311 240.396 278.277 242.935 284.137 245.734C289.996 248.534 294.814 251.691 298.59 255.207C302.431 258.658 305.263 262.596 307.086 267.023C308.974 271.385 309.918 276.333 309.918 281.867C309.918 287.661 308.746 292.902 306.402 297.59C304.059 302.277 300.706 306.281 296.344 309.602C291.982 312.922 286.741 315.493 280.621 317.316C274.566 319.074 267.796 319.953 260.309 319.953C253.733 319.953 247.255 319.042 240.875 317.219C234.56 315.396 228.798 312.661 223.59 309.016C218.447 305.37 214.312 300.878 211.188 295.539C208.128 290.135 206.598 283.885 206.598 276.789H225.348C225.348 281.672 226.292 285.871 228.18 289.387C230.068 292.837 232.639 295.702 235.895 297.98C239.215 300.259 242.958 301.952 247.125 303.059C251.357 304.1 255.751 304.621 260.309 304.621C266.884 304.621 272.451 303.71 277.008 301.887C281.565 300.064 285.016 297.46 287.359 294.074C289.768 290.689 290.973 286.685 290.973 282.062Z" fill="white"/>
<path d="M383.258 152.766V182.551H368.609V152.766H383.258ZM381.5 312.238V338.312H366.949V312.238H381.5ZM401.031 281.379C401.031 277.473 400.152 273.957 398.395 270.832C396.637 267.707 393.74 264.842 389.703 262.238C385.667 259.634 380.263 257.225 373.492 255.012C365.289 252.473 358.193 249.38 352.203 245.734C346.279 242.089 341.689 237.564 338.434 232.16C335.243 226.757 333.648 220.214 333.648 212.531C333.648 204.523 335.374 197.622 338.824 191.828C342.275 186.034 347.158 181.574 353.473 178.449C359.788 175.324 367.21 173.762 375.738 173.762C382.379 173.762 388.303 174.771 393.512 176.789C398.72 178.742 403.115 181.672 406.695 185.578C410.341 189.484 413.108 194.27 414.996 199.934C416.949 205.598 417.926 212.141 417.926 219.562H399.957C399.957 215.201 399.436 211.197 398.395 207.551C397.353 203.905 395.79 200.747 393.707 198.078C391.624 195.344 389.085 193.26 386.09 191.828C383.095 190.331 379.645 189.582 375.738 189.582C370.27 189.582 365.745 190.526 362.164 192.414C358.648 194.302 356.044 196.971 354.352 200.422C352.659 203.807 351.812 207.746 351.812 212.238C351.812 216.405 352.659 220.051 354.352 223.176C356.044 226.301 358.909 229.133 362.945 231.672C367.047 234.146 372.678 236.587 379.84 238.996C388.238 241.665 395.367 244.823 401.227 248.469C407.086 252.049 411.546 256.477 414.605 261.75C417.665 266.958 419.195 273.436 419.195 281.184C419.195 289.582 417.307 296.678 413.531 302.473C409.755 308.202 404.449 312.564 397.613 315.559C390.777 318.553 382.77 320.051 373.59 320.051C368.056 320.051 362.587 319.302 357.184 317.805C351.78 316.307 346.897 313.866 342.535 310.48C338.173 307.03 334.69 302.505 332.086 296.906C329.482 291.242 328.18 284.309 328.18 276.105H346.344C346.344 281.639 347.125 286.229 348.688 289.875C350.315 293.456 352.464 296.32 355.133 298.469C357.802 300.552 360.732 302.049 363.922 302.961C367.177 303.807 370.4 304.23 373.59 304.23C379.449 304.23 384.397 303.319 388.434 301.496C392.535 299.608 395.66 296.939 397.809 293.488C399.957 290.038 401.031 286.001 401.031 281.379Z" fill="white"/>
</svg>
