<svg xmlns="http://www.w3.org/2000/svg" viewBox="0 0 200 200"><defs><style>.cls-1{fill:#43b649;}.cls-2{fill:#3ee028;}.cls-3{fill:#315c9b;}.cls-4{fill:#3e73c3;}.cls-5{fill:#fff;}</style></defs><g id="Isolation_Mode" data-name="Isolation Mode"><path class="cls-1" d="M187.74,89.47h0V86.51H12.26v2.95h0v0h0a7,7,0,0,0,2.08,5l76.83,76.83a12.48,12.48,0,0,0,17.66,0l76.83-76.83a7.08,7.08,0,0,0,2.08-5h0Z"/><path class="cls-2" d="M108.83,4.66l76.83,76.83a7.1,7.1,0,0,1,0,10l-76.83,76.83a12.5,12.5,0,0,1-17.66,0L14.34,91.53a7.1,7.1,0,0,1,0-10L91.17,4.66A12.48,12.48,0,0,1,108.83,4.66Z"/><path class="cls-3" d="M187.74,113.49v-3H12.26v3h0a7.07,7.07,0,0,0,2.08,5l76.83,76.83a12.48,12.48,0,0,0,17.66,0l76.83-76.83a7.08,7.08,0,0,0,2.08-5h0Z"/><path class="cls-4" d="M48.37,46.4H157a7.1,7.1,0,0,1,7.1,7.1V162.16a12.49,12.49,0,0,1-12.49,12.49H43a7.1,7.1,0,0,1-7.1-7.1V58.89A12.49,12.49,0,0,1,48.37,46.4Z" transform="translate(92.56 259.39) rotate(-135)"/><path class="cls-5" d="M118,120.2c0-9.68-5.8-13-17.41-14.38-8.3-1.1-10-3.31-10-7.18s2.77-6.36,8.3-6.36c5,0,7.74,1.66,9.12,5.8a2.08,2.08,0,0,0,1.94,1.38h4.42a1.88,1.88,0,0,0,1.93-1.93v-.28a13.8,13.8,0,0,0-12.44-11.33V79.28c0-1.1-.83-1.93-2.21-2.21H97.49c-1.1,0-1.93.83-2.21,2.21v6.36C87,86.75,81.74,92.28,81.74,99.19c0,9.12,5.53,12.72,17.14,14.1,7.74,1.38,10.23,3,10.23,7.46s-3.87,7.47-9.13,7.47c-7.19,0-9.67-3-10.5-7.19a2,2,0,0,0-1.94-1.66h-4.7a1.89,1.89,0,0,0-1.93,1.94v.27c1.1,6.91,5.53,11.89,14.65,13.27v6.64c0,1.1.83,1.93,2.21,2.21h4.15c1.1,0,1.93-.83,2.21-2.21v-6.64c8.29-1.38,13.82-7.19,13.82-14.65Z"/><path class="cls-5" d="M85.61,149.23a41.37,41.37,0,0,1,0-77.69,2.78,2.78,0,0,0,1.66-2.76V64.91a2.1,2.1,0,0,0-1.66-2.21A1.7,1.7,0,0,0,84.5,63a49.76,49.76,0,0,0,0,94.83A1.68,1.68,0,0,0,87,156.69c.28-.27.28-.55.28-1.1v-3.87A3.68,3.68,0,0,0,85.61,149.23ZM114.91,63a1.69,1.69,0,0,0-2.49,1.11c-.27.28-.27.55-.27,1.1v3.87a3.66,3.66,0,0,0,1.66,2.77,41.37,41.37,0,0,1,0,77.68,2.79,2.79,0,0,0-1.66,2.77v3.87a2.1,2.1,0,0,0,1.66,2.21,1.63,1.63,0,0,0,1.1-.28,50,50,0,0,0,0-95.1Z"/></g></svg>