<svg viewBox="0 0 12 13" fill="none" xmlns="http://www.w3.org/2000/svg">
<g clip-path="url(#clip0_5864_287523)">
<path d="M6 12.5C9.32502 12.5 12 9.82502 12 6.5C12 3.17498 9.32502 0.5 6 0.5C2.67498 0.5 0 3.17498 0 6.5C0 9.82502 2.67498 12.5 6 12.5Z" fill="#3DA8F5"/>
<path d="M7.64999 7.44981C7.64999 6.57483 7.12499 6.27483 6.075 6.14985C5.325 6.04983 5.175 5.84985 5.175 5.49981C5.175 5.14977 5.42502 4.92483 5.925 4.92483C6.37499 4.92483 6.62501 5.07483 6.74999 5.44983C6.77501 5.52483 6.85001 5.57481 6.92501 5.57481H7.32497C7.42499 5.57481 7.49999 5.49981 7.49999 5.39985V5.37483C7.39997 4.82481 6.94997 4.39982 6.37499 4.34984V3.74984C6.37499 3.64982 6.3 3.57482 6.17502 3.5498H5.80002C5.7 3.5498 5.625 3.6248 5.59998 3.74984V4.32483C4.84998 4.42485 4.37502 4.92483 4.37502 5.54985C4.37502 6.37485 4.875 6.69981 5.925 6.82485C6.62501 6.94983 6.85001 7.09983 6.85001 7.49985C6.85001 7.89987 6.49997 8.17485 6.02502 8.17485C5.37498 8.17485 5.14998 7.89981 5.07498 7.52481C5.05002 7.42485 4.97502 7.37481 4.90002 7.37481H4.47498C4.37502 7.37481 4.30002 7.44981 4.30002 7.54983V7.57485C4.39998 8.19981 4.8 8.64981 5.625 8.77485V9.37485C5.625 9.47481 5.7 9.54981 5.82498 9.57483H6.19997C6.29999 9.57483 6.37499 9.49983 6.40001 9.37485V8.77485C7.15001 8.64981 7.64999 8.12481 7.64999 7.44981Z" fill="white"/>
<path d="M7.64996 7.44981C7.64996 6.57483 7.12496 6.27483 6.07496 6.14985C5.32497 6.04983 5.17497 5.84985 5.17497 5.49981C5.17497 5.14977 5.42499 4.92483 5.92497 4.92483C6.37496 4.92483 6.62498 5.07483 6.74996 5.44983C6.77498 5.52483 6.84998 5.57481 6.92498 5.57481H7.32494C7.42496 5.57481 7.49996 5.49981 7.49996 5.39985V5.37483C7.39994 4.82481 6.94994 4.39983 6.37496 4.34985V3.74984C6.37496 3.64982 6.29996 3.57482 6.17498 3.5498H5.79999C5.69997 3.5498 5.62497 3.6248 5.59995 3.74984V4.32483C4.84995 4.42485 4.37499 4.92483 4.37499 5.54985C4.37499 6.37485 4.87497 6.69981 5.92497 6.82485C6.62498 6.94983 6.84998 7.09983 6.84998 7.49985C6.84998 7.89987 6.49994 8.17485 6.02498 8.17485C5.37495 8.17485 5.14995 7.89981 5.07495 7.52481C5.04999 7.42485 4.97499 7.37481 4.89999 7.37481H4.47495C4.37499 7.37481 4.29999 7.44981 4.29999 7.54983V7.57485C4.39995 8.19981 4.79997 8.64981 5.62497 8.77485V9.37485C5.62497 9.47481 5.69997 9.54981 5.82495 9.57483H6.19994C6.29996 9.57483 6.37496 9.49983 6.39998 9.37485V8.77485C7.14998 8.64981 7.64996 8.12481 7.64996 7.44981Z" fill="white"/>
<path d="M4.72503 10.075C2.77503 9.375 1.77501 7.2 2.50005 5.27496C2.87505 4.22496 3.70005 3.42498 4.72503 3.04998C4.82505 3 4.87503 2.925 4.87503 2.79996V2.44998C4.87503 2.34996 4.82505 2.27496 4.72503 2.25C4.70001 2.25 4.65003 2.25 4.62501 2.27496C2.25003 3.02496 0.950009 5.55 1.70001 7.92498C2.15001 9.32496 3.22503 10.4 4.62501 10.85C4.72503 10.9 4.82505 10.85 4.85001 10.75C4.87503 10.725 4.87503 10.7 4.87503 10.65V10.3C4.87503 10.225 4.80003 10.125 4.72503 10.075ZM7.37505 2.27496C7.27503 2.22498 7.17501 2.27496 7.15005 2.37498C7.12503 2.4 7.12503 2.42496 7.12503 2.475V2.82498C7.12503 2.925 7.20003 3.02496 7.27503 3.075C9.22503 3.77496 10.2251 5.94996 9.50002 7.875C9.12501 8.925 8.30001 9.72498 7.27503 10.1C7.17501 10.15 7.12503 10.225 7.12503 10.35V10.7C7.12503 10.8 7.17501 10.875 7.27503 10.9C7.30005 10.9 7.35003 10.9 7.37505 10.875C9.75004 10.125 11.0501 7.59996 10.3001 5.22498C9.85006 3.79998 8.75001 2.72496 7.37505 2.27496Z" fill="white"/>
</g>
<defs>
<clipPath id="clip0_5864_287523">
<rect width="12" height="12" fill="white" transform="translate(0 0.5)"/>
</clipPath>
</defs>
</svg>
