<svg xmlns="http://www.w3.org/2000/svg" id="Layer_1" data-name="Layer 1" viewBox="0 0 150 150"><defs><style>.cls-1{fill:#3e73c3;}.cls-2{fill:#fff;}</style></defs><path class="cls-1" d="M150,75A75,75,0,0,1,22,128,75,75,0,1,1,150,75Z"/><path class="cls-2" d="M93.25,84.68c0-9.68-5.81-13-17.42-14.38-8.29-1.11-10-3.32-10-7.19s2.76-6.36,8.29-6.36c5,0,7.74,1.66,9.12,5.81a2.08,2.08,0,0,0,1.94,1.38h4.42A1.89,1.89,0,0,0,91.59,62v-.28A13.81,13.81,0,0,0,79.15,50.4V43.76c0-1.11-.83-1.93-2.21-2.21H72.79c-1.11,0-1.94.83-2.21,2.21v6.36C62.28,51.22,57,56.75,57,63.67c0,9.12,5.53,12.71,17.14,14.09,7.74,1.39,10.23,3,10.23,7.47s-3.87,7.46-9.12,7.46c-7.19,0-9.68-3-10.51-7.18a2,2,0,0,0-1.93-1.66h-4.7a1.89,1.89,0,0,0-1.94,1.93v.28C57.31,93,61.73,98,70.85,99.33V106c0,1.11.83,1.94,2.21,2.21h4.15c1.11,0,1.94-.82,2.21-2.21V99.33c8.3-1.38,13.83-7.19,13.83-14.65Z"/><path class="cls-2" d="M60.9,113.7A41.37,41.37,0,0,1,60.9,36a2.77,2.77,0,0,0,1.66-2.77V29.38a2.1,2.1,0,0,0-1.66-2.21,1.66,1.66,0,0,0-1.11.28,49.75,49.75,0,0,0,0,94.82,1.68,1.68,0,0,0,2.49-1.1c.28-.28.28-.55.28-1.11v-3.87A3.7,3.7,0,0,0,60.9,113.7ZM90.21,27.45a1.68,1.68,0,0,0-2.49,1.11c-.28.27-.28.55-.28,1.1v3.87A3.68,3.68,0,0,0,89.1,36.3a41.37,41.37,0,0,1,0,77.68,2.77,2.77,0,0,0-1.66,2.77v3.87a2.1,2.1,0,0,0,1.66,2.21,1.66,1.66,0,0,0,1.11-.28,50,50,0,0,0,0-95.1Z"/></svg>