<svg xmlns="http://www.w3.org/2000/svg" viewBox="0 0 200 200"><defs><style>.cls-1{fill:#bc3c35;}.cls-2{fill:#dd463a;}.cls-3{fill:#315c9b;}.cls-4{fill:#3e73c3;}.cls-5{fill:#fff;}</style></defs><g id="Isolation_Mode" data-name="Isolation Mode"><path class="cls-1" d="M187.74,110.4s-174.48-.62-174.82.12l-.66-.19v3h0a7,7,0,0,0,2.07,5.14l76.83,76.83a12.48,12.48,0,0,0,17.66,0l76.83-76.83a7,7,0,0,0,2.08-5Z"/><path class="cls-2" d="M48.37,46.28H157a7.1,7.1,0,0,1,7.1,7.1V162a12.49,12.49,0,0,1-12.49,12.49H43a7.1,7.1,0,0,1-7.1-7.1V58.76A12.49,12.49,0,0,1,48.37,46.28Z" transform="translate(92.65 259.17) rotate(-135)"/><path class="cls-3" d="M187.74,89.47h0V86.51H12.26v2.95h0v0h0a7,7,0,0,0,2.08,5l76.83,76.83a12.48,12.48,0,0,0,17.66,0l76.83-76.83a7.08,7.08,0,0,0,2.08-5h0Z"/><path class="cls-4" d="M48.37,22.39H157a7.1,7.1,0,0,1,7.1,7.1V138.14a12.49,12.49,0,0,1-12.49,12.49H43a7.1,7.1,0,0,1-7.1-7.1V34.87A12.49,12.49,0,0,1,48.37,22.39Z" transform="translate(109.54 218.39) rotate(-135)"/><path class="cls-5" d="M118.25,94.08c0-9.68-5.81-13-17.42-14.38-8.29-1.1-10-3.31-10-7.19s2.76-6.35,8.29-6.35c5,0,7.74,1.65,9.12,5.8a2.08,2.08,0,0,0,1.94,1.38h4.42a1.89,1.89,0,0,0,1.94-1.93v-.28A13.81,13.81,0,0,0,104.15,59.8V53.16c0-1.1-.83-1.93-2.21-2.21H97.79c-1.11,0-1.94.83-2.21,2.21v6.36C87.28,60.63,82,66.16,82,73.07c0,9.12,5.53,12.71,17.14,14.1,7.74,1.38,10.23,3,10.23,7.46s-3.87,7.47-9.12,7.47c-7.19,0-9.68-3-10.51-7.19a2,2,0,0,0-1.93-1.66h-4.7a1.89,1.89,0,0,0-1.94,1.93v.28c1.11,6.91,5.53,11.89,14.65,13.27v6.64c0,1.1.83,1.93,2.21,2.21h4.15c1.11,0,1.94-.83,2.21-2.21v-6.64c8.3-1.38,13.83-7.19,13.83-14.65Z"/><path class="cls-5" d="M85.9,123.11a41.38,41.38,0,0,1,0-77.69,2.76,2.76,0,0,0,1.66-2.76V38.79a2.09,2.09,0,0,0-1.66-2.21,1.7,1.7,0,0,0-1.11.27,49.76,49.76,0,0,0,0,94.83,1.68,1.68,0,0,0,2.49-1.11c.28-.28.28-.55.28-1.1v-3.88A3.66,3.66,0,0,0,85.9,123.11Zm29.31-86.26A1.68,1.68,0,0,0,112.72,38c-.28.27-.28.55-.28,1.1v3.87a3.66,3.66,0,0,0,1.66,2.77,41.37,41.37,0,0,1,0,77.68,2.78,2.78,0,0,0-1.66,2.77V130a2.1,2.1,0,0,0,1.66,2.21,1.66,1.66,0,0,0,1.11-.28,49.66,49.66,0,0,0,32.34-62.48,50.17,50.17,0,0,0-32.34-32.62Z"/></g></svg>