<?xml version="1.0" encoding="UTF-8"?><svg id="Layer_1" xmlns="http://www.w3.org/2000/svg" viewBox="0 0 179.04 179.04"><defs><style>.cls-1{fill:#fff;}.cls-2{fill:#1e1e1e;}</style></defs><circle class="cls-2" cx="89.52" cy="89.52" r="89.52"/><g><path class="cls-1" d="M115.38,37.05h-18.38c-1.18,0-2.04,.97-2.04,2.04v7.31c0,1.18,.97,2.04,2.04,2.04h18.38c1.18,0,2.04-.97,2.04-2.04v-7.31c0-1.07-.97-2.04-2.04-2.04Z"/><path class="cls-1" d="M97.47,96.23c3.65-4.99,7.45-10.01,11.14-14.87,1.46-1.95,2.95-3.88,4.41-5.86l4.31-5.71v-12.92c0-.98-.76-1.72-1.61-1.72h-19.35c-.98,0-2.04,.21-2.91,.74l-3.22,1.72-2.25-5.43c-1.51-2.8-3.99-4.84-7-5.81-2.99-.95-6.22-.64-9.02,.87l-15.81,8.27c-4.07,2.14-6.66,6.34-6.66,10.95v69.29c0,3.44,2.8,6.24,6.24,6.24h55.35c3.31,0,6.03-2.59,6.22-5.83-1.74-.11-3.5-.4-5.18-.89-12.14-3.37-20.07-14.89-18.9-27.39,.42-4.46,1.85-8.38,4.24-11.65Zm-39.48-21.83v-7.93c0-1.51,.87-2.78,2.16-3.44l15.78-8.38c.45-.32,.98-.42,1.61-.42,.34,0,.66,.11,.98,.21,.85,.32,1.61,.87,1.93,1.61l2.25,5.45-24.72,12.9Z"/><path class="cls-1" d="M135.66,118.45c-3.14,6.47-9.7,10.35-16.59,10.35-1.63,0-3.31-.21-4.94-.68-8.61-2.4-14.34-10.65-13.49-19.54,.28-2.89,1.15-5.64,2.82-7.96,5.05-6.9,10.25-13.66,15.51-20.66,1.76,2.25,3.33,4.22,4.88,6.24,3.29,4.26,6.7,8.44,9.82,12.84,4.31,6.03,5.33,12.56,1.99,19.41Z"/></g></svg>