<?xml version="1.0" encoding="UTF-8"?><svg xmlns="http://www.w3.org/2000/svg" viewBox="0 0 200 200"><defs><style>.g{fill:#050083;}.h{fill:#020ab9;}.i{fill:#3ee028;}.j{fill:#43b649;}.k{fill:#fff;font-family:Akkurat-Bold, Akkurat-Bold;font-size:58px;}</style></defs><g id="a"/><g id="b"><path class="j" d="M187.74,89.47v-2.96H12.26v2.99h0c0,1.81,.7,3.61,2.08,4.98l76.83,76.83c4.88,4.88,12.78,4.88,17.66,0l76.83-76.83c1.37-1.38,2.07-3.17,2.08-4.98h0v-.04Z"/><path class="i" d="M108.83,4.66l76.83,76.83c2.77,2.77,2.77,7.27,0,10.04l-76.83,76.83c-4.88,4.88-12.78,4.88-17.66,0L14.34,91.53c-2.77-2.77-2.77-7.27,0-10.04L91.17,4.66c4.88-4.88,12.78-4.88,17.66,0Z"/><g><path class="g" d="M187.74,113.49v-2.96H12.26v2.99h0c0,1.81,.7,3.61,2.08,4.98l76.83,76.83c4.88,4.88,12.78,4.88,17.66,0l76.83-76.83c1.37-1.38,2.07-3.17,2.08-4.98h0v-.04Z"/><path class="h" d="M48.37,46.4h108.65c3.92,0,7.1,3.18,7.1,7.1v108.65c0,6.89-5.6,12.49-12.49,12.49H42.98c-3.92,0-7.1-3.18-7.1-7.1V58.89c0-6.89,5.6-12.49,12.49-12.49Z" transform="translate(92.56 259.39) rotate(-135)"/></g><text class="k" transform="translate(49.42 130.73)"><tspan x="0" y="0">WTI</tspan></text></g><g id="c"/><g id="d"/><g id="e"/><g id="f"/></svg>