<?xml version="1.0" encoding="UTF-8"?><svg xmlns="http://www.w3.org/2000/svg" viewBox="0 0 200 200"><defs><style>.g{fill:#050083;}.h{fill:#020ab9;}.i{fill:#bc3c35;}.j{fill:#dd463a;}.k{fill:#fff;font-family:Akkurat-Bold, Akkurat-Bold;font-size:58px;}</style></defs><g id="a"/><g id="b"><path class="i" d="M187.74,110.4s-174.48-.62-174.82,.12l-.66-.19v3.03h0c-.03,1.87,.65,3.74,2.07,5.15l76.83,76.83c4.88,4.88,12.78,4.88,17.66,0l76.83-76.83c1.39-1.39,2.08-3.2,2.08-5.02v-3.1Z"/><path class="j" d="M48.37,46.28h108.65c3.92,0,7.1,3.18,7.1,7.1v108.65c0,6.89-5.6,12.49-12.49,12.49H42.98c-3.92,0-7.1-3.18-7.1-7.1V58.76c0-6.89,5.6-12.49,12.49-12.49Z" transform="translate(92.65 259.17) rotate(-135)"/><g><path class="g" d="M187.74,89.47v-2.96H12.26v2.99h0c0,1.81,.7,3.61,2.08,4.98l76.83,76.83c4.88,4.88,12.78,4.88,17.66,0l76.83-76.83c1.37-1.38,2.07-3.17,2.08-4.98h0v-.04Z"/><path class="h" d="M48.37,22.39h108.65c3.92,0,7.1,3.18,7.1,7.1v108.65c0,6.89-5.6,12.49-12.49,12.49H42.98c-3.92,0-7.1-3.18-7.1-7.1V34.87c0-6.89,5.6-12.49,12.49-12.49Z" transform="translate(109.54 218.39) rotate(-135)"/></g><text class="k" transform="translate(49.83 106.03)"><tspan x="0" y="0">WTI</tspan></text></g><g id="c"/><g id="d"/><g id="e"/><g id="f"/></svg>