<?xml version="1.0" encoding="UTF-8"?><svg id="Layer_1" xmlns="http://www.w3.org/2000/svg" viewBox="0 0 197.3 222.62"><defs><style>.cls-1{fill:#fff;}.cls-2{fill:#d63c36;}.cls-3{fill:#b13431;}.cls-4{fill:#1e1e1e;}</style></defs><path class="cls-3" d="M197.29,126.52l-.04-3.56-.59,.44c-.39-.93-.96-1.81-1.72-2.57L108.57,34.46c-5.48-5.48-14.37-5.48-19.85,0L2.34,120.84c-.76,.76-1.32,1.63-1.71,2.56l-.58-.44-.03,3.43c-.02,2.07,.75,4.15,2.33,5.73l86.38,86.38c5.48,5.48,14.37,5.48,19.85,0l86.38-86.38c1.54-1.54,2.32-3.57,2.33-5.59h0Z"/><path class="cls-2" d="M88.72,215.19L2.34,128.81c-3.12-3.12-3.12-8.17,0-11.28h0L88.73,31.14c5.48-5.48,14.37-5.48,19.85,0l86.38,86.38c3.12,3.12,3.12,8.17,0,11.28h0l-86.38,86.38c-5.48,5.49-14.37,5.49-19.85,.02h0Z"/><path d="M197.29,99.61l-.04-4.15-.95,.39c-.36-.67-.79-1.31-1.35-1.87L108.58,7.6c-5.48-5.48-14.37-5.48-19.85,0L2.35,93.98c-.56,.56-.99,1.2-1.35,1.87l-.95-.39-.03,4.14c0,2.05,.77,4.1,2.33,5.66l86.38,86.38c5.48,5.48,14.37,5.48,19.85,0l86.38-86.38c1.56-1.56,2.34-3.6,2.34-5.65Z"/><path class="cls-4" d="M108.58,4.12l86.38,86.38c3.12,3.1,3.13,8.15,.02,11.27l-.02,.02-86.38,86.39c-5.47,5.49-14.36,5.51-19.85,.03l-.03-.03L2.34,101.78c-3.12-3.1-3.13-8.15-.02-11.27l.02-.02L88.72,4.12c5.48-5.48,14.37-5.49,19.85-.01h.01Z"/><g><path class="cls-1" d="M125.86,40.98h-18.38c-1.18,0-2.04,.97-2.04,2.04v7.31c0,1.18,.97,2.04,2.04,2.04h18.38c1.18,0,2.04-.97,2.04-2.04v-7.31c0-1.07-.97-2.04-2.04-2.04Z"/><path class="cls-1" d="M107.95,100.16c3.65-4.99,7.45-10.01,11.14-14.87,1.46-1.95,2.95-3.88,4.41-5.86l4.31-5.71v-12.92c0-.98-.76-1.72-1.61-1.72h-19.35c-.98,0-2.04,.21-2.91,.74l-3.22,1.72-2.25-5.43c-1.51-2.8-3.99-4.84-7-5.81-2.99-.95-6.22-.64-9.02,.87l-15.81,8.27c-4.07,2.14-6.66,6.34-6.66,10.95v69.29c0,3.44,2.8,6.24,6.24,6.24h55.35c3.31,0,6.03-2.59,6.22-5.83-1.74-.11-3.5-.4-5.18-.89-12.14-3.37-20.07-14.89-18.9-27.39,.42-4.46,1.85-8.38,4.24-11.65Zm-39.48-21.83v-7.93c0-1.51,.87-2.78,2.16-3.44l15.78-8.38c.45-.32,.98-.42,1.61-.42,.34,0,.66,.11,.98,.21,.85,.32,1.61,.87,1.93,1.61l2.25,5.45-24.72,12.9Z"/><path class="cls-1" d="M146.14,122.38c-3.14,6.47-9.7,10.35-16.59,10.35-1.63,0-3.31-.21-4.94-.68-8.61-2.4-14.34-10.65-13.49-19.54,.28-2.89,1.15-5.64,2.82-7.96,5.05-6.9,10.25-13.66,15.51-20.66,1.76,2.25,3.33,4.22,4.88,6.24,3.29,4.26,6.7,8.44,9.82,12.84,4.31,6.03,5.33,12.56,1.99,19.41Z"/></g></svg>