<svg id="Layer_1" data-name="Layer 1" xmlns="http://www.w3.org/2000/svg" viewBox="0 0 150 150"><defs><style>.cls-1{fill:#006ae3;}.cls-2{fill:#fff;}</style></defs><path class="cls-1" d="M150,75A75,75,0,0,1,22,128,75,75,0,1,1,150,75Z"/><path class="cls-2" d="M71.36,111.37V39.62h7.82v71.74H71.36Zm39.77-47.85L87,69.93,81.62,44.88l7.18-1.62,2.82,11.86a19.54,19.54,0,0,0-2.17-21.76c-5.12-5.69-7.55-5.94-13.3-6.83-5.05-.73-16.8,1-20.3,14.69-1.49,8.83.19,15.37,11.57,23.92l-.64,9.52s-12.71-9-16-15.23c-2.53-5-6.88-14.78,1-28.44C56,24.17,64.31,17.61,79,18.3c7.38.31,25.4,9.33,22.61,30.41a47.76,47.76,0,0,1-2.54,9.21l9.9-2.21,2.16,7.81ZM97.35,119.66c-4.42,6.71-12.91,13-27.56,12-7.38-.5-25.14-10-21.79-31a46.78,46.78,0,0,1,2.77-9.12l-10,1.93-2-7.85,24.3-5.76L67.89,105l-7.23,1.43-2.51-12a19.58,19.58,0,0,0,1.59,21.82c5,5.83,7.38,6.12,13.13,7.17,5,.87,16.81-.55,20.68-14.16,1.71-8.77.2-15.37-10.93-24.23l.89-9.5S96,84.88,99.09,91.24c2.38,5.06,6.47,15-1.72,28.43h0Z"/></svg>