<svg xmlns="http://www.w3.org/2000/svg" viewBox="0 0 200 200"><defs><style>.cls-1{fill:#bc3c35;}.cls-2{fill:#dd463a;}.cls-3{fill:#005d91;}.cls-4{fill:#006ae3;}.cls-5{fill:#fff;}</style></defs><g id="Isolation_Mode" data-name="Isolation Mode"><path class="cls-1" d="M187.74,110.4s-174.48-.62-174.82.12l-.66-.19v3h0a7,7,0,0,0,2.07,5.14l76.83,76.83a12.48,12.48,0,0,0,17.66,0l76.83-76.83a7,7,0,0,0,2.08-5Z"/><path class="cls-2" d="M48.37,46.28H157a7.1,7.1,0,0,1,7.1,7.1V162a12.49,12.49,0,0,1-12.49,12.49H43a7.1,7.1,0,0,1-7.1-7.1V58.76A12.49,12.49,0,0,1,48.37,46.28Z" transform="translate(92.65 259.17) rotate(-135)"/></g><g id="Layer_6" data-name="Layer 6"><path class="cls-3" d="M187.74,89.47h0V86.51H12.26v2.95h0v0h0a7,7,0,0,0,2.08,5l76.83,76.83a12.48,12.48,0,0,0,17.66,0l76.83-76.83a7.08,7.08,0,0,0,2.08-5h0Z"/><path class="cls-4" d="M48.37,22.39H157a7.1,7.1,0,0,1,7.1,7.1V138.14a12.49,12.49,0,0,1-12.49,12.49H43a7.1,7.1,0,0,1-7.1-7.1V34.87A12.49,12.49,0,0,1,48.37,22.39Z" transform="translate(109.54 218.39) rotate(-135)"/><path class="cls-5" d="M96.36,122V50.24h7.82V122H96.36Zm39.77-47.85L112,80.55l-5.39-25,7.18-1.63,2.82,11.87A19.56,19.56,0,0,0,114.45,44c-5.12-5.69-7.55-5.93-13.3-6.83-5.05-.72-16.8,1-20.3,14.7-1.49,8.83.19,15.37,11.57,23.92l-.64,9.52s-12.71-9-16-15.23c-2.53-5-6.88-14.78,1-28.44C81,34.79,89.31,28.24,104,28.92c7.38.32,25.4,9.33,22.61,30.41a47.76,47.76,0,0,1-2.54,9.21l9.9-2.21,2.16,7.81Zm-13.78,56.14c-4.42,6.7-12.91,13-27.56,12-7.38-.5-25.14-10-21.79-31a46.78,46.78,0,0,1,2.77-9.12l-10,1.93-1.95-7.84,24.3-5.77,4.72,25.19-7.23,1.43-2.51-12A19.58,19.58,0,0,0,84.74,127c5,5.82,7.38,6.12,13.13,7.17,5,.86,16.81-.55,20.68-14.16,1.71-8.78.2-15.37-10.93-24.23l.89-9.5S121,95.5,124.09,101.87c2.38,5,6.47,15-1.72,28.42h0Z"/></g></svg>