<svg xmlns="http://www.w3.org/2000/svg" viewBox="0 0 200 200"><defs><style>.cls-1{fill:#43b649;}.cls-2{fill:#3ee028;}.cls-3{fill:#005d91;}.cls-4{fill:#006ae3;}.cls-5{fill:#fff;}</style></defs><g id="Isolation_Mode" data-name="Isolation Mode"><path class="cls-1" d="M187.74,89.47h0V86.51H12.26v2.95h0v0h0a7,7,0,0,0,2.08,5l76.83,76.83a12.48,12.48,0,0,0,17.66,0l76.83-76.83a7.08,7.08,0,0,0,2.08-5h0Z"/><path class="cls-2" d="M108.83,4.66l76.83,76.83a7.1,7.1,0,0,1,0,10l-76.83,76.83a12.5,12.5,0,0,1-17.66,0L14.34,91.53a7.1,7.1,0,0,1,0-10L91.17,4.66A12.48,12.48,0,0,1,108.83,4.66Z"/></g><g id="Layer_6" data-name="Layer 6"><path class="cls-3" d="M187.74,113.49v-3H12.26v3h0a7.07,7.07,0,0,0,2.08,5l76.83,76.83a12.48,12.48,0,0,0,17.66,0l76.83-76.83a7.08,7.08,0,0,0,2.08-5h0Z"/><path class="cls-4" d="M48.37,46.4H157a7.1,7.1,0,0,1,7.1,7.1V162.16a12.49,12.49,0,0,1-12.49,12.49H43a7.1,7.1,0,0,1-7.1-7.1V58.89A12.49,12.49,0,0,1,48.37,46.4Z" transform="translate(92.56 259.39) rotate(-135)"/><path class="cls-5" d="M96.36,146.83V75.07h7.82v71.75H96.36ZM136.13,99,112,105.38l-5.39-25,7.18-1.63,2.82,11.87a19.56,19.56,0,0,0-2.17-21.77c-5.12-5.69-7.55-5.93-13.3-6.83-5.05-.72-16.8,1-20.3,14.7-1.49,8.83.19,15.37,11.57,23.92l-.64,9.52s-12.71-9-16-15.23c-2.53-5-6.88-14.78,1-28.44C81,59.62,89.31,53.07,104,53.75c7.38.32,25.4,9.33,22.61,30.41a47.76,47.76,0,0,1-2.54,9.21l9.9-2.21L136.12,99Zm-13.78,56.14c-4.42,6.7-12.91,13-27.56,12-7.38-.5-25.14-10-21.79-31A46.78,46.78,0,0,1,75.77,127l-10,1.93-1.95-7.84,24.3-5.77,4.72,25.19-7.23,1.43L83.15,130a19.58,19.58,0,0,0,1.59,21.82c5,5.82,7.38,6.12,13.13,7.17,5,.86,16.81-.55,20.68-14.16,1.71-8.78.2-15.37-10.93-24.23l.89-9.5s12.47,9.27,15.58,15.64c2.38,5.06,6.47,15-1.72,28.42h0Z"/></g></svg>