<svg width="124" height="24" viewBox="0 0 124 24" fill="none" xmlns="http://www.w3.org/2000/svg">
<path d="M37.7261 1.77081L20.002 12L37.7261 22.2292V19.5447L24.661 12L37.7261 4.45417V1.77081Z" fill="#1C64F2"/>
<path d="M20.0524 1.77081H17.7229V22.2292H20.0524V1.77081Z" fill="#1C64F2"/>
<path d="M0 1.77081V4.45417L13.0651 12L0 19.5447V22.2292L17.7231 12L0 1.77081Z" fill="#1C64F2"/>
<path d="M82.2371 8.3028V17.6209H84.5157V10.43H87.3008V8.3028H82.2371Z" fill="#1C64F2"/>
<path d="M55.7529 8.3028H50.6892V17.6209H52.9679V10.43H55.7529V8.3028Z" fill="#1C64F2"/>
<path d="M47.8538 6.17676H42.79V8.30289H45.5751V17.621H47.8538V8.30289H50.6897V6.17676H47.8538Z" fill="#1C64F2"/>
<path d="M68.9189 10.0752C69.4761 10.0243 70.0334 10.2775 70.3363 10.7839C70.4878 11.0371 70.5895 11.3411 70.5895 11.6452H72.7665C72.7157 10.9365 72.4625 10.2277 72.0578 9.61967C71.2982 8.70862 70.134 8.15139 68.9178 8.20224C67.7028 8.20224 66.5375 8.70862 65.7281 9.67052C64.3605 11.696 64.3605 14.3296 65.7281 16.4059C66.5385 17.317 67.7028 17.8742 68.9178 17.8742C70.1329 17.8742 71.2982 17.3678 72.0578 16.4568C72.5133 15.8995 72.7665 15.1908 72.7665 14.4313H70.5895C70.5895 14.7353 70.4878 15.0393 70.3363 15.2925C70.0323 15.7481 69.4751 16.0012 68.9189 16.0012C68.4125 16.0012 67.9062 15.7989 67.5513 15.3932C67.0449 14.7353 66.8426 13.8741 66.9432 13.0636C66.8415 12.2532 67.0947 11.393 67.5513 10.7341C67.9062 10.2786 68.4125 10.0763 68.9189 10.0763" fill="#1C64F2"/>
<path d="M75.3503 12.1007C75.3503 11.5943 75.5017 11.0879 75.8058 10.6832C76.1607 10.2277 76.7677 9.92368 77.3249 9.97453C77.8313 9.92368 78.3376 10.126 78.7423 10.5317C79.147 10.9873 79.3504 11.5445 79.3504 12.1526L75.3503 12.1017V12.1007ZM77.4266 8.20116C76.3121 8.20116 75.2994 8.60584 74.49 9.3654C73.579 10.3781 73.1224 11.6949 73.1733 13.0615C73.1224 14.4291 73.6288 15.7449 74.5907 16.7576C75.3502 17.5172 76.4138 17.9218 77.5272 17.8721C78.6915 17.9229 79.8568 17.4674 80.6163 16.5553C81.021 16.0489 81.2742 15.4917 81.3759 14.8847H79.2487C79.1978 15.1887 79.0464 15.4419 78.7932 15.6442C78.4383 15.9991 77.9319 16.1506 77.4255 16.0997C76.9192 16.0997 76.4128 15.8974 76.0579 15.4917C75.6024 14.9853 75.3492 14.3274 75.4 13.6685H81.5782V13.0604C81.6799 11.946 81.3759 10.7818 80.7678 9.87071C80.0082 8.75626 78.7423 8.14925 77.4255 8.2001" fill="#1C64F2"/>
<path d="M61.5258 13.9238C61.5258 15.2915 60.5639 16.051 59.1963 16.051C58.5384 16.1019 57.9303 15.5955 57.8795 14.9366V14.8857C57.9303 14.2279 58.5373 13.6707 59.1963 13.7215L61.5258 13.5192V13.9238ZM63.7028 14.4811V11.8983C63.7536 11.2903 63.6519 10.6324 63.4496 10.0243C62.9432 8.6567 61.5756 8.15033 60.0067 8.15033C57.9303 8.15033 56.3106 9.06138 56.2089 11.1377H58.3361C58.3869 10.2765 58.9939 9.82094 60.0067 9.82094C61.2726 9.82094 61.5766 10.429 61.5766 11.2892V11.8973L58.8933 12.0996C57.121 12.2511 55.8042 13.2141 55.8042 14.9864C55.8042 16.5055 56.9684 17.8731 59.1465 17.8731C60.2609 17.924 61.3235 17.4176 61.9315 16.5055V17.7714H64.5651V16.1506H63.7547L63.7038 14.48L63.7028 14.4811Z" fill="#1C64F2"/>
<path d="M100.572 16.4748C99.8661 17.2333 98.6659 17.6221 97.4317 17.6221H92.386V5.11316H97.3777C98.5419 5.11316 99.7422 5.50088 100.43 6.25939C100.923 6.80602 101.241 7.44163 101.241 8.34103C101.241 9.54128 100.607 10.6875 99.4413 11.1113C100.729 11.535 101.523 12.8052 101.524 14.1283C101.524 15.1336 101.118 15.8932 100.572 16.4748ZM97.3777 6.50622H93.9199V10.4407H97.4317C98.7379 10.4407 99.6373 9.85803 99.6373 8.46391C99.6373 7.15772 98.579 6.50516 97.3787 6.50516L97.3777 6.50622ZM97.4667 11.8168H93.9199V16.175H97.4317C98.8078 16.175 99.9191 15.5044 99.9191 14.0224C99.9191 12.6283 98.7898 11.8168 97.4667 11.8168Z" fill="#1C64F2"/>
<path d="M104.983 17.7269C103.678 17.7269 103.112 16.9504 103.112 15.5394V4.8822H104.611V15.4504C104.611 16.05 104.806 16.3678 105.423 16.3678C105.917 16.3678 106.041 16.3498 106.041 16.3498V17.6199C106.041 17.6199 105.706 17.7259 104.983 17.7259V17.7269Z" fill="#1C64F2"/>
<path d="M113.398 16.8084C112.746 17.4441 111.828 17.8498 110.699 17.8498C109.57 17.8498 108.652 17.4441 108 16.8095C107.029 15.8571 106.729 14.569 106.729 13.1579C106.729 11.7458 107.029 10.4586 108 9.50522C108.652 8.8696 109.57 8.46387 110.699 8.46387C111.828 8.46387 112.746 8.8696 113.398 9.50416C114.369 10.4565 114.668 11.7447 114.669 13.1568C114.669 14.5679 114.37 15.8561 113.399 16.8095L113.398 16.8084ZM112.304 10.3866C111.933 10.0158 111.403 9.75099 110.698 9.75205C109.992 9.75205 109.463 10.0169 109.092 10.3877C108.456 11.0402 108.262 12.1165 108.262 13.1579C108.262 14.1992 108.456 15.2745 109.092 15.9281C109.463 16.2989 109.991 16.5627 110.698 16.5627C111.403 16.5627 111.933 16.2978 112.304 15.9271C112.939 15.2745 113.133 14.1982 113.133 13.1568C113.133 12.1155 112.939 11.0392 112.304 10.3866Z" fill="#1C64F2"/>
<path d="M123.244 20.7429C122.379 21.5893 120.897 21.7843 119.644 21.7843C118.462 21.7843 117.121 21.6084 116.256 20.744C115.885 20.3732 115.621 19.8615 115.621 19.156C115.621 18.2206 116.185 17.5331 116.891 17.1792C116.291 16.9504 115.849 16.3678 115.849 15.6792C115.849 14.8847 116.361 14.2681 117.032 13.9503C116.379 13.3677 116.008 12.4863 116.008 11.6388C116.008 10.6684 116.343 9.99783 116.855 9.46815C117.472 8.83254 118.319 8.46176 119.501 8.46176C120.347 8.46176 121.001 8.65563 121.548 8.99144C121.848 8.19798 122.536 7.73822 123.383 7.73822C123.523 7.73822 123.682 7.75623 123.823 7.77318V8.99038C123.735 8.97237 123.611 8.97237 123.488 8.97237C122.906 8.97237 122.483 9.29018 122.394 9.78384C122.765 10.2606 122.977 10.8421 122.977 11.6367C122.977 12.4841 122.659 13.2246 122.165 13.7713C121.583 14.4069 120.683 14.8296 119.501 14.8296C118.901 14.8296 118.566 14.7766 118.001 14.5827C117.666 14.6887 117.277 14.9535 117.242 15.3773C117.19 16.1538 118.019 16.2417 118.584 16.2597C119.166 16.2777 120.349 16.2597 120.349 16.2597C121.407 16.2597 122.589 16.4716 123.295 17.1951C123.718 17.6189 124 18.2005 124 18.942C124 19.7185 123.665 20.3181 123.242 20.7419L123.244 20.7429ZM119.732 17.532H118.109C117.509 17.7259 116.98 18.2555 116.98 18.9441C116.98 19.3499 117.121 19.6497 117.351 19.8795C117.933 20.4622 118.957 20.4971 119.733 20.4971C120.492 20.4971 121.603 20.4262 122.167 19.8615C122.397 19.6316 122.538 19.3318 122.538 18.9441C122.538 17.4271 120.862 17.5331 119.733 17.5331L119.732 17.532ZM119.484 9.68108C118.267 9.68108 117.455 10.5106 117.455 11.6398C117.455 12.7691 118.214 13.6336 119.485 13.6336C120.702 13.6336 121.514 12.7691 121.514 11.6398C121.514 10.5106 120.755 9.68108 119.485 9.68108H119.484Z" fill="#1C64F2"/>
</svg>
