<svg id="Layer_1" data-name="Layer 1" xmlns="http://www.w3.org/2000/svg" viewBox="0 0 299.21 35.67">
    <defs>
        <style>
            .cls-1{fill:#fff}
        </style>
    </defs>
    <g id="Group_232" data-name="Group 232">
        <g id="Group_8" data-name="Group 8">
            <g id="Group_5" data-name="Group 5">
                <g id="Group_3" data-name="Group 3">
                    <path id="Path_9" data-name="Path 9" class="cls-1" d="M140.39 11.14v16h3.92V14.79h4.8v-3.65z"/>
                    <path id="Path_10" data-name="Path 10" class="cls-1" d="M95.12 11.14h-8.73v16h3.92V14.79h4.8z"/>
                    <path id="Path_11" data-name="Path 11" class="cls-1" d="M81.59 7.51h-8.7v3.63h4.8v16h3.9v-16h4.8V7.51z"/>
                    <path id="Path_12" data-name="Path 12" class="cls-1" d="M117.65 14.24a2.75 2.75 0 012.42 1.17 3 3 0 01.44 1.46h3.72a6.27 6.27 0 00-1.23-3.43 6.81 6.81 0 00-5.37-2.44 7.13 7.13 0 00-5.47 2.48 10.46 10.46 0 000 11.51 7.13 7.13 0 005.47 2.48A6.87 6.87 0 00123 25a6.08 6.08 0 001.22-3.43h-3.72a3.27 3.27 0 01-.44 1.46 2.79 2.79 0 01-2.42 1.17 3.15 3.15 0 01-2.3-1 5.82 5.82 0 01-1.06-4 6 6 0 011.06-4 3.1 3.1 0 012.31-.96z"/>
                    <path id="Path_13" data-name="Path 13" class="cls-1" d="M132.16 11a6.88 6.88 0 00-5 2 8.89 8.89 0 00-2.28 6.29 8.55 8.55 0 002.41 6.29 6.91 6.91 0 005 2 6.76 6.76 0 005.29-2.22 6.13 6.13 0 001.33-2.9h-3.61a2.77 2.77 0 01-.75 1.33 2.9 2.9 0 01-2.3.75 3.3 3.3 0 01-2.33-1 4.24 4.24 0 01-1.15-3.1h10.54v-1.11a8.79 8.79 0 00-1.37-5.49 6.7 6.7 0 00-5.78-2.84zm-3.48 6.71a3.84 3.84 0 01.82-2.46 3.24 3.24 0 012.63-1.25 3.13 3.13 0 012.39.91 4.17 4.17 0 011 2.74h-6.82z"/>
                    <path id="Path_14" data-name="Path 14" class="cls-1" d="M108.69 21.79v-4.43a8.34 8.34 0 00-.47-3.17c-.9-2.37-3.21-3.21-5.89-3.21-3.52.02-6.33 1.57-6.53 5.12h3.66c.09-1.46 1.13-2.24 2.87-2.24 2.15 0 2.66 1 2.66 2.48v1l-4.63.34c-3 .22-5.33 1.94-5.33 4.93 0 2.57 2 4.94 5.69 4.94a5.44 5.44 0 004.78-2.37v2.13h4.5v-2.76h-1.37zm-3.7-1c0 2.33-1.66 3.61-4 3.61a2.08 2.08 0 01-2.24-1.91v-.05a2.2 2.2 0 012.25-2l4-.31v.69z"/>
                </g>
                <g id="Group_4" data-name="Group 4">
                    <path id="Path_15" data-name="Path 15" class="cls-1" d="M64.58 0L34.27 17.52 64.58 35v-4.58l-22.34-12.9L64.58 4.61z"/>
                    <path id="Rectangle_2" data-name="Rectangle 2" class="cls-1" d="M30.31 0h3.98v35h-3.98z"/>
                    <path id="Path_16" data-name="Path 16" class="cls-1" d="M0 4.61l22.34 12.91L0 30.42V35l30.31-17.48L0 0z"/>
                </g>
            </g>
        </g>
    </g>
    <path class="cls-1" d="M172.19 17.58a6.67 6.67 0 01-4.92 1.67h-4.94V27h-2.52V7h7.43a6.6 6.6 0 015.09 1.81 6.13 6.13 0 011.53 4.19 6.21 6.21 0 01-1.67 4.58zm-5-8.31h-4.86V17h4.89c2.68 0 4-1.24 4-3.93.04-2.58-1.55-3.8-4.03-3.8z"/>
    <path class="cls-1" d="M188.83 20.66h-10.11a5.3 5.3 0 001.38 3.59 4.08 4.08 0 005.29.09 3.06 3.06 0 00.84-1.56h2.35a5.3 5.3 0 01-2.2 3.53 6.59 6.59 0 01-3.65 1.08 6.09 6.09 0 01-4.73-2.15 8.09 8.09 0 01-1.78-5.31 8.74 8.74 0 011.1-4.58 6.12 6.12 0 015.4-3 5.74 5.74 0 014.35 1.84 7.36 7.36 0 011.81 5zm-3.3-5a3.41 3.41 0 00-2.83-1.3c-2.6 0-3.87 2.12-3.93 4.21h7.63a5 5 0 00-.87-2.88z"/>
    <path class="cls-1" d="M199.29 15a3.93 3.93 0 00-2.71 1.13c-1.16 1.11-1.3 3.08-1.3 4.58V27h-2.38V12.72h2.1l.2 2.52a4.42 4.42 0 014.27-2.6 7.24 7.24 0 011.13.08v2.35a6.71 6.71 0 00-1.31-.07z"/>
    <path class="cls-1" d="M214.24 26a5.6 5.6 0 01-3.93 1.45 5 5 0 01-4.16-2v7.77h-2.4V12.75h2.12l.17 1.86a5 5 0 014.27-2.23 5.45 5.45 0 014 1.56 8.44 8.44 0 012.06 5.93 8.42 8.42 0 01-2.13 6.13zm-4.33-11.55a3.27 3.27 0 00-2.31.93 5.91 5.91 0 00-1.6 4.52 5.92 5.92 0 001.59 4.55 3.27 3.27 0 002.31.93c3.2 0 4-2.85 4-5.48s-.79-5.48-3.99-5.48z"/>
    <path class="cls-1" d="M232.07 20.66H222a5.3 5.3 0 001.38 3.59 4.08 4.08 0 005.29.09 3.14 3.14 0 00.85-1.56h2.34a5.23 5.23 0 01-2.2 3.53 6.59 6.59 0 01-3.66 1.08 6.09 6.09 0 01-4.74-2.15 8.09 8.09 0 01-1.78-5.31 8.74 8.74 0 011.1-4.58 6.1 6.1 0 015.39-3 5.78 5.78 0 014.36 1.84 7.4 7.4 0 011.81 5zm-3.31-5a3.39 3.39 0 00-2.83-1.3c-2.6 0-3.87 2.12-3.92 4.21h7.63a4.94 4.94 0 00-.88-2.88z"/>
    <path class="cls-1" d="M240.68 27.22c-3.08 0-3.92-1.95-3.92-3.87v-8.57H234v-2.06h2.77V9.08l2.4-.57v4.21h4.24v2.06h-4.24v8.28c0 1.39.59 2 1.92 2a17.91 17.91 0 002.46-.25v2.06a10.34 10.34 0 01-2.87.35z"/>
    <path class="cls-1" d="M256.11 27l-.19-2.18a4.67 4.67 0 01-4.24 2.52c-3.25 0-4.89-1.95-4.89-5.26v-9.36h2.4v9c0 2.15.79 3.42 3.05 3.42a3.25 3.25 0 002.38-1.07 5.78 5.78 0 001.18-4v-7.35h2.4V27z"/>
    <path class="cls-1" d="M273.86 27.22A2 2 0 01271.8 25h-.06a5.22 5.22 0 01-4.61 2.35c-3.28 0-4.91-2.21-4.91-4.41 0-1.84 1.18-4.24 5.08-4.47l4.35-.25v-1.01a2.8 2.8 0 00-.73-2.17 3.24 3.24 0 00-2.35-.74 3.56 3.56 0 00-2.6.85 2.35 2.35 0 00-.7 1.73h-2.35a4.23 4.23 0 011.25-3 6.12 6.12 0 014.4-1.53c2.77 0 4.36 1.19 5 2.74a5.38 5.38 0 01.43 2.21v6.92c0 .77.31 1 .79 1a3.72 3.72 0 00.62-.08v1.78a3.38 3.38 0 01-1.55.3zm-2.21-7.1l-3.84.23c-1.44.09-3.14.76-3.14 2.57 0 1.27.8 2.46 2.83 2.46a4 4 0 002.94-1.16 4.58 4.58 0 001.21-3.22z"/>
    <path class="cls-1" d="M282.17 27.19c-2.1 0-3-1.24-3-3.5V6.62h2.4v16.92c0 1 .31 1.47 1.3 1.47h1v2a6.26 6.26 0 01-1.7.18z"/>
    <path class="cls-1" d="M296.94 25.78a7.51 7.51 0 01-9.29 0 4.63 4.63 0 01-1.39-3.28h2.41a2.78 2.78 0 001.15 2.23 4.54 4.54 0 002.57.65 3.88 3.88 0 002.63-.79 2 2 0 00.71-1.55c0-1.08-.76-1.84-2.23-2-.62-.08-2.24-.28-3.22-.42a3.73 3.73 0 01-3.51-3.85 4.1 4.1 0 011.23-2.83 5.83 5.83 0 014.21-1.59 5.7 5.7 0 014.55 1.81 4.08 4.08 0 011 2.74h-2.41a2.54 2.54 0 00-.82-1.78 3.37 3.37 0 00-2.34-.76 3.74 3.74 0 00-1.67.28 2.15 2.15 0 00-1.44 1.92c0 1.19.73 1.7 1.92 1.87.79.11 1.92.23 3.45.48a4.07 4.07 0 012.51 6.87z"/>
</svg>
