<svg viewBox="0 0 102 30" fill="none" xmlns="http://www.w3.org/2000/svg">
    <path d="M47.8152 0.211731L38.2871 5.71173L47.8152 11.2117V9.76895L40.7919 5.71173L47.8152 1.65508V0.211731Z" fill="currentColor" />
    <path d="M38.3149 0.211731H37.0625V11.2117H38.3149V0.211731Z" fill="currentColor" />
    <path d="M27.5332 0.211731V1.65508L34.5571 5.71173L27.5332 9.76895V11.2117L37.0618 5.71173L27.5332 0.211731Z" fill="currentColor" />
    <path d="M71.7441 3.72345V8.73303H72.9697V4.86662H74.467V3.72345H71.7441Z" fill="currentColor" />
    <path d="M57.5065 3.72345H54.7842V8.73303H56.0092V4.86662H57.5065V3.72345Z" fill="currentColor" />
    <path d="M53.26 2.5799H50.5371V3.72364H52.0344V8.73322H53.26V3.72364H54.784V2.5799H53.26Z" fill="currentColor" />
    <path d="M64.5852 4.67661C64.8848 4.64927 65.1843 4.78541 65.3472 5.05767C65.4286 5.19381 65.4833 5.35728 65.4833 5.52075H66.6537C66.6263 5.13969 66.4902 4.75864 66.2727 4.43169C65.8643 3.94184 65.2384 3.64223 64.5846 3.66957C63.9314 3.66957 63.3049 3.94184 62.8698 4.45903C62.1345 5.54809 62.1345 6.9641 62.8698 8.08051C63.3055 8.57036 63.9314 8.86997 64.5846 8.86997C65.2379 8.86997 65.8643 8.5977 66.2727 8.10785C66.5176 7.80824 66.6537 7.42718 66.6537 7.01879H65.4833C65.4833 7.18226 65.4286 7.34573 65.3472 7.48187C65.1838 7.72679 64.8842 7.86292 64.5852 7.86292C64.313 7.86292 64.0407 7.75413 63.8499 7.53598C63.5777 7.18226 63.4689 6.71918 63.523 6.28344C63.4684 5.8477 63.6045 5.38519 63.8499 5.0309C64.0407 4.78598 64.313 4.67718 64.5852 4.67718" fill="currentColor" />
    <path d="M68.0425 5.76546C68.0425 5.4932 68.124 5.22093 68.2874 5.00334C68.4782 4.75842 68.8046 4.59495 69.1041 4.62229C69.3764 4.59495 69.6486 4.70374 69.8661 4.92189C70.0837 5.16682 70.1931 5.46643 70.1931 5.79337L68.0425 5.76603V5.76546ZM69.1588 3.66879C68.5597 3.66879 68.0152 3.88637 67.5801 4.29477C67.0903 4.8393 66.8448 5.54731 66.8722 6.28208C66.8448 7.01743 67.1171 7.72487 67.6342 8.2694C68.0425 8.6778 68.6143 8.89538 69.2129 8.86861C69.8388 8.89595 70.4653 8.65103 70.8736 8.16061C71.0912 7.88834 71.2273 7.58873 71.282 7.26236H70.1384C70.111 7.42583 70.0296 7.56196 69.8935 7.67075C69.7027 7.86157 69.4305 7.94302 69.1582 7.91568C68.886 7.91568 68.6138 7.80689 68.423 7.58873C68.1781 7.31647 68.042 6.96275 68.0693 6.60846H71.3908V6.28151C71.4454 5.6823 71.282 5.05632 70.9551 4.56647C70.5467 3.96725 69.8661 3.64088 69.1582 3.66822" fill="currentColor" />
    <path d="M60.6102 6.74571C60.6102 7.48105 60.093 7.88945 59.3578 7.88945C59.0041 7.91679 58.6772 7.64453 58.6499 7.29024V7.2629C58.6772 6.90918 59.0035 6.60957 59.3578 6.63691L60.6102 6.52812V6.74571ZM61.7805 7.04531V5.65664C61.8079 5.3297 61.7532 4.97598 61.6444 4.64903C61.3722 3.91368 60.6369 3.64142 59.7935 3.64142C58.6772 3.64142 57.8064 4.13127 57.7517 5.24767H58.8953C58.9227 4.78459 59.249 4.53967 59.7935 4.53967C60.474 4.53967 60.6375 4.86662 60.6375 5.32913V5.65607L59.1949 5.76487C58.2421 5.84632 57.5342 6.36408 57.5342 7.31701C57.5342 8.13381 58.1601 8.86915 59.331 8.86915C59.9302 8.89649 60.5014 8.62423 60.8283 8.13381V8.81447H62.2441V7.94299H61.8084L61.7811 7.04474L61.7805 7.04531Z" fill="currentColor" />
    <path d="M7.49025 21.2347C6.90031 21.8247 6.00001 22.151 4.78935 22.151H2.07261V26.4198H0.691406V15.414H4.77351C6.06152 15.414 6.97767 15.771 7.56762 16.4076C8.09512 16.9817 8.40547 17.774 8.40547 18.7359C8.40547 19.8068 8.07927 20.6457 7.48932 21.2347H7.49025ZM4.74275 16.6704H2.07261V20.8927H4.75766C6.23207 20.8927 6.97766 20.2095 6.97766 18.7349C6.97766 17.3378 6.10812 16.6704 4.74275 16.6704Z" fill="currentColor" />
    <path d="M15.8567 22.9273H10.3001C10.3001 23.6413 10.5797 24.4177 11.0607 24.8986C11.4176 25.2556 11.8985 25.4579 12.5043 25.4579C13.1101 25.4579 13.6376 25.2873 13.9638 24.9453C14.1809 24.7281 14.3207 24.5109 14.4298 24.0915H15.7178C15.6088 24.8679 15.1437 25.5977 14.5071 26.032C13.948 26.4049 13.2499 26.622 12.5043 26.622C11.4018 26.622 10.5024 26.156 9.8966 25.442C9.24421 24.6815 8.91895 23.6413 8.91895 22.5238C8.91895 21.5768 9.0895 20.7388 9.52474 20.009C10.0839 19.0621 11.124 18.364 12.4894 18.364C13.4987 18.364 14.3058 18.7517 14.8799 19.3734C15.5165 20.0724 15.8893 21.0809 15.8734 22.1369L15.8576 22.9283L15.8567 22.9273ZM14.0402 20.1955C13.714 19.7611 13.1865 19.4815 12.4885 19.4815C11.0606 19.4815 10.3617 20.6456 10.3309 21.7949H14.5221C14.5221 21.2049 14.3515 20.6149 14.0412 20.1964L14.0402 20.1955Z" fill="currentColor" />
    <path d="M20.8244 19.7916C20.2037 19.7916 19.6911 20.0712 19.3342 20.4123C18.6976 21.0182 18.6203 22.104 18.6203 22.927V26.4195H17.3164V18.565H18.4805L18.5895 19.9463C18.9931 18.9835 19.94 18.5184 20.9335 18.5184C21.1357 18.5184 21.3529 18.5342 21.5542 18.565V19.8531C21.3212 19.8065 21.0574 19.7906 20.8244 19.7906V19.7916Z" fill="currentColor" />
    <path d="M28.3362 25.8456C27.8236 26.3266 27.0948 26.6369 26.1786 26.6369C25.3249 26.6369 24.3156 26.2334 23.8971 25.5194V29.7882H22.5774V18.5802H23.7414L23.8346 19.6045C24.2848 18.8132 25.2941 18.3779 26.1786 18.3779C27.1414 18.3779 27.886 18.7042 28.3986 19.2317C29.1433 19.9923 29.5319 21.1872 29.5319 22.4921C29.5319 23.7969 29.1284 25.0841 28.3371 25.8447L28.3362 25.8456ZM25.9615 19.4964C25.3874 19.4964 24.9987 19.7294 24.6884 20.009C24.036 20.5832 23.8188 21.5302 23.8188 22.5079C23.8188 23.4856 24.036 24.4326 24.6884 25.0068C24.9987 25.2864 25.3874 25.5194 25.9615 25.5194C27.7155 25.5194 28.1815 23.9517 28.1815 22.5079C28.1815 21.0641 27.7155 19.4964 25.9615 19.4964Z" fill="currentColor" />
    <path d="M37.355 22.9273H31.7984C31.7984 23.6413 32.078 24.4177 32.5589 24.8986C32.9159 25.2556 33.3968 25.4579 34.0026 25.4579C34.6084 25.4579 35.1359 25.2873 35.4621 24.9453C35.6792 24.7281 35.819 24.5109 35.9281 24.0915H37.2161C37.107 24.8679 36.642 25.5977 36.0054 26.032C35.4462 26.4049 34.7482 26.622 34.0026 26.622C32.9 26.622 32.0007 26.156 31.3949 25.442C30.7425 24.6815 30.4172 23.6413 30.4172 22.5238C30.4172 21.5768 30.5878 20.7388 31.023 20.009C31.5822 19.0621 32.6223 18.364 33.9877 18.364C34.997 18.364 35.8041 18.7517 36.3782 19.3734C37.0148 20.0724 37.3876 21.0809 37.3717 22.1369L37.3559 22.9283L37.355 22.9273ZM35.5385 20.1955C35.2123 19.7611 34.6848 19.4815 33.9868 19.4815C32.5589 19.4815 31.86 20.6456 31.8292 21.7949H36.0203C36.0203 21.2049 35.8498 20.6149 35.5394 20.1964L35.5385 20.1955Z" fill="currentColor" />
    <path d="M41.5458 26.5287C39.8542 26.5287 39.3882 25.4578 39.3882 24.4017V19.6985H37.8672V18.5651H39.3882V16.5621L40.7079 16.2518V18.5651H43.036V19.6985H40.7079V24.247C40.7079 25.0076 41.0341 25.3179 41.7639 25.3179C42.3231 25.3179 43.1143 25.1781 43.1143 25.1781V26.3115C42.7574 26.4047 42.2765 26.5287 41.5467 26.5287H41.5458Z" fill="currentColor" />
    <path d="M49.3226 26.4198L49.2136 25.2249C48.8101 26.1253 47.8007 26.6062 46.8855 26.6062C45.1007 26.6062 44.2004 25.5353 44.2004 23.7187V18.5653H45.5201V23.5332C45.5201 24.7132 45.9544 25.4113 47.1968 25.4113C47.7243 25.4113 48.1595 25.1783 48.5006 24.8213C48.9974 24.3087 49.153 23.4549 49.153 22.6477V18.5653H50.4727V26.4198H49.3245H49.3226Z" fill="currentColor" />
    <path d="M58.2937 26.529C57.5947 26.529 57.1604 26.0014 57.1604 25.3341H57.1297C56.6795 26.1254 55.7019 26.6222 54.5993 26.6222C52.7987 26.6222 51.8984 25.4114 51.8984 24.2007C51.8984 23.1913 52.5508 21.8724 54.6925 21.7475L57.0831 21.6077V21.0335C57.0831 20.6458 57.0365 20.1639 56.6795 19.8386C56.4158 19.5907 56.0271 19.4351 55.3915 19.4351C54.6776 19.4351 54.2275 19.6373 53.9637 19.9011C53.7149 20.149 53.576 20.4603 53.576 20.8481H52.288C52.3039 20.1341 52.5676 19.6215 52.9712 19.203C53.4987 18.6437 54.4306 18.3651 55.3924 18.3651C56.9134 18.3651 57.783 19.0175 58.1558 19.8713C58.3114 20.2282 58.3888 20.6318 58.3888 21.082V24.8848C58.3888 25.3043 58.5593 25.4124 58.8231 25.4124C58.9629 25.4124 59.1642 25.3658 59.1642 25.3658V26.3435C58.8846 26.4833 58.6208 26.5299 58.2946 26.5299L58.2937 26.529ZM57.0831 22.633L54.9721 22.7569C54.1809 22.8035 53.2489 23.1764 53.2489 24.1699C53.2489 24.8681 53.6832 25.5205 54.8016 25.5205C55.4074 25.5205 55.9964 25.3182 56.4158 24.8839C56.8817 24.403 57.0831 23.7505 57.0831 23.099V22.633Z" fill="currentColor" />
    <path d="M62.0815 26.513C60.9333 26.513 60.4365 25.8298 60.4365 24.5883V15.2117H61.7562V24.51C61.7562 25.0375 61.9268 25.3172 62.4701 25.3172C62.9044 25.3172 63.0135 25.3013 63.0135 25.3013V26.4189C63.0135 26.4189 62.719 26.5121 62.0824 26.5121L62.0815 26.513Z" fill="currentColor" />
    <path d="M73.9248 21.2346C73.3349 21.8246 72.4346 22.1508 71.2239 22.1508H68.5072V26.4197H67.126V15.4139H71.2081C72.4961 15.4139 73.4123 15.7709 74.0022 16.4075C74.5297 16.9816 74.8401 17.7739 74.8401 18.7358C74.8401 19.8067 74.5139 20.6455 73.9239 21.2346H73.9248ZM71.1773 16.6703H68.5072V20.8925H71.1922C72.6667 20.8925 73.4123 20.2093 73.4123 18.7348C73.4123 17.3377 72.5427 16.6703 71.1773 16.6703Z" fill="currentColor" />
    <path d="M81.2358 25.7058C80.6617 26.2651 79.8546 26.6221 78.8611 26.6221C77.8676 26.6221 77.0605 26.2651 76.4864 25.7058C75.6326 24.8679 75.3689 23.7345 75.3689 22.4921C75.3689 21.2497 75.6326 20.1172 76.4864 19.2783C77.0605 18.7191 77.8676 18.3621 78.8611 18.3621C79.8546 18.3621 80.6617 18.7191 81.2358 19.2783C82.0895 20.1163 82.3532 21.2497 82.3532 22.4921C82.3532 23.7345 82.0895 24.867 81.2358 25.7058ZM80.273 20.0557C79.9468 19.7295 79.4818 19.4964 78.8601 19.4964C78.2385 19.4964 77.7734 19.7295 77.4472 20.0557C76.888 20.6298 76.7175 21.5768 76.7175 22.493C76.7175 23.4092 76.888 24.3562 77.4472 24.9304C77.7734 25.2566 78.2385 25.4896 78.8601 25.4896C79.4818 25.4896 79.9468 25.2566 80.273 24.9304C80.8322 24.3562 81.0028 23.4092 81.0028 22.493C81.0028 21.5768 80.8322 20.6298 80.273 20.0557Z" fill="currentColor" />
    <path d="M89.1218 25.7058C88.5477 26.2651 87.7406 26.6221 86.7471 26.6221C85.7536 26.6221 84.9464 26.2651 84.3723 25.7058C83.5186 24.8679 83.2549 23.7345 83.2549 22.4921C83.2549 21.2497 83.5186 20.1172 84.3723 19.2783C84.9464 18.7191 85.7536 18.3621 86.7471 18.3621C87.7406 18.3621 88.5477 18.7191 89.1218 19.2783C89.9755 20.1163 90.2392 21.2497 90.2392 22.4921C90.2392 23.7345 89.9755 24.867 89.1218 25.7058ZM88.159 20.0557C87.8328 19.7295 87.3678 19.4964 86.7461 19.4964C86.1245 19.4964 85.6594 19.7295 85.3332 20.0557C84.774 20.6298 84.6035 21.5768 84.6035 22.493C84.6035 23.4092 84.774 24.3562 85.3332 24.9304C85.6594 25.2566 86.1245 25.4896 86.7461 25.4896C87.3678 25.4896 87.8328 25.2566 88.159 24.9304C88.7182 24.3562 88.8888 23.4092 88.8888 22.493C88.8888 21.5768 88.7182 20.6298 88.159 20.0557Z" fill="currentColor" />
    <path d="M93.3432 26.513C92.195 26.513 91.6982 25.8298 91.6982 24.5883V15.2117H93.0179V24.51C93.0179 25.0375 93.1885 25.3172 93.7318 25.3172C94.1662 25.3172 94.2752 25.3013 94.2752 25.3013V26.4189C94.2752 26.4189 93.9807 26.5121 93.3441 26.5121L93.3432 26.513Z" fill="currentColor" />
    <path d="M100.685 25.7366C100.079 26.3574 99.1484 26.6212 98.1241 26.6212C97.0999 26.6212 96.2462 26.3882 95.5789 25.7366C95.098 25.2706 94.8184 24.6033 94.8184 23.9359H96.1381C96.1539 24.4793 96.4018 24.8829 96.7746 25.1625C97.1316 25.4263 97.6908 25.5195 98.1875 25.5195C98.7309 25.5195 99.2276 25.4263 99.6312 25.0851C99.8483 24.9146 100.019 24.5883 100.019 24.2314C100.019 23.6414 99.5995 23.2219 98.7924 23.1138C98.4513 23.0672 97.5659 22.9582 97.0225 22.8808C95.8426 22.6944 95.098 21.9646 95.098 20.7697C95.098 20.1638 95.3934 19.5897 95.7504 19.2327C96.2629 18.7052 97.085 18.3631 98.0636 18.3631C99.1037 18.3631 100.035 18.6893 100.562 19.3567C100.903 19.7761 101.121 20.2263 101.121 20.8629H99.8017C99.7859 20.4593 99.5846 20.0865 99.3516 19.8852C99.0254 19.5906 98.5911 19.4657 98.0636 19.4657C97.7532 19.4657 97.5202 19.4657 97.1474 19.6214C96.6507 19.8236 96.3561 20.2421 96.3561 20.6774C96.3561 21.3299 96.7597 21.6085 97.4121 21.7017C97.8464 21.7642 98.468 21.8257 99.3059 21.9655C100.423 22.1519 101.309 22.9591 101.309 24.1391C101.309 24.8223 101.06 25.3498 100.688 25.7376L100.685 25.7366Z" fill="currentColor" />
</svg>