<svg id="Layer_1" data-name="Layer 1" xmlns="http://www.w3.org/2000/svg" viewBox="0 0 217.55 35.67">
    <defs>
        <style>
            .cls-1{fill:#fff}
        </style>
    </defs>
    <g id="Group_232" data-name="Group 232">
        <g id="Group_8" data-name="Group 8">
            <g id="Group_5" data-name="Group 5">
                <g id="Group_3" data-name="Group 3">
                    <path id="Path_9" data-name="Path 9" class="cls-1" d="M140.39 11.14v16h3.92V14.79h4.8v-3.65z"/>
                    <path id="Path_10" data-name="Path 10" class="cls-1" d="M95.12 11.14h-8.73v16h3.92V14.79h4.8z"/>
                    <path id="Path_11" data-name="Path 11" class="cls-1" d="M81.59 7.51h-8.7v3.63h4.8v16h3.9v-16h4.8V7.51z"/>
                    <path id="Path_12" data-name="Path 12" class="cls-1" d="M117.65 14.24a2.75 2.75 0 012.42 1.17 3 3 0 01.44 1.46h3.72a6.27 6.27 0 00-1.23-3.43 6.81 6.81 0 00-5.37-2.44 7.13 7.13 0 00-5.47 2.48 10.46 10.46 0 000 11.51 7.13 7.13 0 005.47 2.48A6.87 6.87 0 00123 25a6.08 6.08 0 001.22-3.43h-3.72a3.27 3.27 0 01-.44 1.46 2.79 2.79 0 01-2.42 1.17 3.15 3.15 0 01-2.3-1 5.82 5.82 0 01-1.06-4 6 6 0 011.06-4 3.1 3.1 0 012.31-.96z"/>
                    <path id="Path_13" data-name="Path 13" class="cls-1" d="M132.16 11a6.88 6.88 0 00-5 2 8.89 8.89 0 00-2.28 6.29 8.55 8.55 0 002.41 6.29 6.91 6.91 0 005 2 6.76 6.76 0 005.29-2.22 6.13 6.13 0 001.33-2.9h-3.61a2.77 2.77 0 01-.75 1.33 2.9 2.9 0 01-2.3.75 3.3 3.3 0 01-2.33-1 4.24 4.24 0 01-1.15-3.1h10.54v-1.11a8.79 8.79 0 00-1.37-5.49 6.7 6.7 0 00-5.78-2.84zm-3.48 6.71a3.84 3.84 0 01.82-2.46 3.24 3.24 0 012.63-1.25 3.13 3.13 0 012.39.91 4.17 4.17 0 011 2.74h-6.82z"/>
                    <path id="Path_14" data-name="Path 14" class="cls-1" d="M108.69 21.79v-4.43a8.34 8.34 0 00-.47-3.17c-.9-2.37-3.21-3.21-5.89-3.21-3.52.02-6.33 1.57-6.53 5.12h3.66c.09-1.46 1.13-2.24 2.87-2.24 2.15 0 2.66 1 2.66 2.48v1l-4.63.34c-3 .22-5.33 1.94-5.33 4.93 0 2.57 2 4.94 5.69 4.94a5.44 5.44 0 004.78-2.37v2.13h4.5v-2.76h-1.37zm-3.7-1c0 2.33-1.66 3.61-4 3.61a2.08 2.08 0 01-2.24-1.91v-.05a2.2 2.2 0 012.25-2l4-.31v.69z"/>
                </g>
                <g id="Group_4" data-name="Group 4">
                    <path id="Path_15" data-name="Path 15" class="cls-1" d="M64.58 0L34.27 17.52 64.58 35v-4.58l-22.34-12.9L64.58 4.61z"/>
                    <path id="Rectangle_2" data-name="Rectangle 2" class="cls-1" d="M30.31 0h3.98v35h-3.98z"/>
                    <path id="Path_16" data-name="Path 16" class="cls-1" d="M0 4.61l22.34 12.91L0 30.42V35l30.31-17.48L0 0z"/>
                </g>
            </g>
        </g>
    </g>
    <g id="Blog">
        <path class="cls-1" d="M175.69 21.06a5.62 5.62 0 01-1.62 4 6.91 6.91 0 01-5.34 1.94h-8.58V5.73h8.49a6.65 6.65 0 015.19 1.95 5.12 5.12 0 011.38 3.54 5.41 5.41 0 01-.81 2.9 4.24 4.24 0 01-2.25 1.81 4.89 4.89 0 012.58 2 5.53 5.53 0 01.96 3.13zm-3.21-9.63A2.94 2.94 0 00171.37 9a4.32 4.32 0 00-2.73-.87h-5.88v6.69h6a4.16 4.16 0 002.74-.82 3.08 3.08 0 00.98-2.57zm.48 9.45a3.4 3.4 0 00-1.2-2.73 4.41 4.41 0 00-3-1h-6v7.41h6a4.75 4.75 0 003-.93 3.26 3.26 0 001.24-2.75z"/>
        <path class="cls-1" d="M184.3 27a6.8 6.8 0 01-1.8.18q-3.18 0-3.18-3.72V5.34h2.55v18a1.8 1.8 0 00.31 1.19 1.33 1.33 0 001.07.37h1.05z"/>
        <path class="cls-1" d="M199.9 19.41q0 4.08-2.16 6.21a6.84 6.84 0 01-9.18 0q-2.16-2.13-2.16-6.21t2.16-6.21a6.84 6.84 0 019.18 0q2.16 2.13 2.16 6.21zm-2.61 0q0-3.27-1.41-4.71a4 4 0 00-5.46 0Q189 16.14 189 19.41t1.41 4.71a4 4 0 005.46 0q1.43-1.44 1.42-4.71z"/>
        <path class="cls-1" d="M216.7 29.25a4.21 4.21 0 01-1.29 3.06q-1.8 1.77-6.12 1.77-4 0-5.76-1.77a3.64 3.64 0 01-1.08-2.7 3.55 3.55 0 012.16-3.36 2.81 2.81 0 01-1.28-1 2.56 2.56 0 01-.49-1.56 3.11 3.11 0 012-2.94 5.06 5.06 0 01-1.74-3.93 5.13 5.13 0 011.44-3.69 6 6 0 014.5-1.71 6.54 6.54 0 013.48.9 3.27 3.27 0 011.21-1.58 3.4 3.4 0 011.91-.55l.75.06v2.07a2.71 2.71 0 00-.57 0 2 2 0 00-1.25.37 1.62 1.62 0 00-.61 1 4.9 4.9 0 011 3.15 5.25 5.25 0 01-1.38 3.63 5.85 5.85 0 01-4.53 1.8 7.88 7.88 0 01-2.55-.42q-1.2.39-1.29 1.35a1.3 1.3 0 00.16.8 1.08 1.08 0 00.59.44 3.76 3.76 0 00.73.2 5.29 5.29 0 00.8.06h3q3.45 0 5 1.59a4 4 0 011.21 2.96zm-2.49 0a2.46 2.46 0 00-.18-1 1.45 1.45 0 00-.57-.7c-.26-.17-.5-.3-.72-.42a2.89 2.89 0 00-1-.21l-1-.05h-4.12a3.18 3.18 0 00-1.37.91 2.25 2.25 0 00-.55 1.49 2.16 2.16 0 00.63 1.59q1 1 4 1.05t4.14-1.08a2.16 2.16 0 00.69-1.58zm-2.7-10a3.28 3.28 0 001-2.43 3.26 3.26 0 00-.93-2.4 3.8 3.8 0 00-5 0 3.2 3.2 0 00-1 2.38 3.52 3.52 0 005.94 2.43z"/>
    </g>
</svg>
