<svg version="1.1" id="Layer_1" xmlns="http://www.w3.org/2000/svg" x="0" y="0" viewBox="0 0 317.8 35.7" xml:space="preserve">
    <style>
        .st0{fill:#fff}
    </style>
    <g id="Group_231">
        <g id="Group_8_11_">
            <g id="Group_5_11_">
                <g id="Group_3_11_">
                    <path id="Path_9_11_" class="st0" d="M140.4 11.1v16h3.9V14.8h4.8v-3.6h-8.7z"/>
                    <path id="Path_10_11_" class="st0" d="M95.1 11.1h-8.7v16h3.9V14.8h4.8v-3.7z"/>
                    <path id="Path_11_11_" class="st0" d="M81.6 7.5h-8.7v3.6h4.8v16h3.9v-16h4.8V7.5h-4.8z"/>
                    <path id="Path_12_11_" class="st0" d="M117.7 14.2c1-.1 1.9.4 2.4 1.2.3.4.4.9.4 1.5h3.7c-.1-1.2-.5-2.4-1.2-3.4-1.3-1.6-3.3-2.5-5.4-2.4-2.1 0-4.1.9-5.5 2.5-2.3 3.5-2.3 8 0 11.5 1.4 1.6 3.4 2.5 5.5 2.5s4-.9 5.4-2.5c.7-1 1.2-2.2 1.2-3.4h-3.7c0 .5-.2 1-.4 1.5-.6.8-1.5 1.2-2.4 1.2-.9 0-1.7-.4-2.3-1-.8-1.2-1.2-2.6-1.1-4-.1-1.4.2-2.8 1.1-4 .5-.8 1.4-1.2 2.3-1.2z"/>
                    <path id="Path_13_11_" class="st0" d="M132.2 11c-1.9 0-3.7.7-5 2-1.6 1.7-2.4 4-2.3 6.3-.1 2.3.8 4.6 2.4 6.3 1.3 1.3 3.1 2 5 2 2 .1 3.9-.7 5.3-2.2.7-.8 1.1-1.8 1.3-2.9h-3.6c-.1.5-.4 1-.8 1.3-.6.6-1.5.8-2.3.8-.9 0-1.7-.4-2.3-1-.8-.8-1.2-2-1.1-3.1h10.5v-1.1c.2-1.9-.3-3.9-1.4-5.5-1.3-1.9-3.5-3-5.7-2.9zm-3.5 6.7c0-.9.3-1.8.8-2.5.6-.8 1.6-1.3 2.6-1.2.9-.1 1.8.3 2.4.9.7.8 1 1.7 1 2.7l-6.8.1z"/>
                    <path id="Path_14_11_" class="st0" d="M108.7 21.8v-4.4c0-1.1-.1-2.2-.5-3.2-.9-2.4-3.2-3.2-5.9-3.2-3.5 0-6.3 1.6-6.5 5.1h3.7c.1-1.5 1.1-2.2 2.9-2.2 2.2 0 2.7 1 2.7 2.5v1l-4.6.3c-3 .2-5.3 1.9-5.3 4.9 0 2.6 2 4.9 5.7 4.9 1.9.1 3.7-.8 4.8-2.4v2.1h4.5v-2.8h-1.4l-.1-2.6zm-3.7-1c0 2.3-1.7 3.6-4 3.6-1.1.1-2.1-.8-2.2-1.9.1-1.2 1.1-2 2.2-2l4-.3v.6z"/>
                </g>
                <g id="Group_4_11_">
                    <path id="Path_15_11_" class="st0" d="M64.6 0L34.3 17.5 64.6 35v-4.6L42.2 17.5 64.6 4.6V0z"/>
                    <path id="Rectangle_2_11_" class="st0" d="M30.3 0h4v35h-4z"/>
                    <path id="Path_16_11_" class="st0" d="M0 4.6l22.3 12.9L0 30.4V35l30.3-17.5L0 0v4.6z"/>
                </g>
            </g>
        </g>
    </g>
</svg>
