<svg version="1.1" id="Layer_1" xmlns="http://www.w3.org/2000/svg" x="0" y="0" viewBox="0 0 317.8 35.7" xml:space="preserve">
    <style>
        .st0{fill:#fff}
    </style>
    <g id="Group_231">
        <g id="Group_8_11_">
            <g id="Group_5_11_">
                <g id="Group_3_11_">
                    <path id="Path_9_11_" class="st0" d="M140.4 11.1v16h3.9V14.8h4.8v-3.6h-8.7z"/>
                    <path id="Path_10_11_" class="st0" d="M95.1 11.1h-8.7v16h3.9V14.8h4.8v-3.7z"/>
                    <path id="Path_11_11_" class="st0" d="M81.6 7.5h-8.7v3.6h4.8v16h3.9v-16h4.8V7.5h-4.8z"/>
                    <path id="Path_12_11_" class="st0" d="M117.7 14.2c1-.1 1.9.4 2.4 1.2.3.4.4.9.4 1.5h3.7c-.1-1.2-.5-2.4-1.2-3.4-1.3-1.6-3.3-2.5-5.4-2.4-2.1 0-4.1.9-5.5 2.5-2.3 3.5-2.3 8 0 11.5 1.4 1.6 3.4 2.5 5.5 2.5s4-.9 5.4-2.5c.7-1 1.2-2.2 1.2-3.4h-3.7c0 .5-.2 1-.4 1.5-.6.8-1.5 1.2-2.4 1.2-.9 0-1.7-.4-2.3-1-.8-1.2-1.2-2.6-1.1-4-.1-1.4.2-2.8 1.1-4 .5-.8 1.4-1.2 2.3-1.2z"/>
                    <path id="Path_13_11_" class="st0" d="M132.2 11c-1.9 0-3.7.7-5 2-1.6 1.7-2.4 4-2.3 6.3-.1 2.3.8 4.6 2.4 6.3 1.3 1.3 3.1 2 5 2 2 .1 3.9-.7 5.3-2.2.7-.8 1.1-1.8 1.3-2.9h-3.6c-.1.5-.4 1-.8 1.3-.6.6-1.5.8-2.3.8-.9 0-1.7-.4-2.3-1-.8-.8-1.2-2-1.1-3.1h10.5v-1.1c.2-1.9-.3-3.9-1.4-5.5-1.3-1.9-3.5-3-5.7-2.9zm-3.5 6.7c0-.9.3-1.8.8-2.5.6-.8 1.6-1.3 2.6-1.2.9-.1 1.8.3 2.4.9.7.8 1 1.7 1 2.7l-6.8.1z"/>
                    <path id="Path_14_11_" class="st0" d="M108.7 21.8v-4.4c0-1.1-.1-2.2-.5-3.2-.9-2.4-3.2-3.2-5.9-3.2-3.5 0-6.3 1.6-6.5 5.1h3.7c.1-1.5 1.1-2.2 2.9-2.2 2.2 0 2.7 1 2.7 2.5v1l-4.6.3c-3 .2-5.3 1.9-5.3 4.9 0 2.6 2 4.9 5.7 4.9 1.9.1 3.7-.8 4.8-2.4v2.1h4.5v-2.8h-1.4l-.1-2.6zm-3.7-1c0 2.3-1.7 3.6-4 3.6-1.1.1-2.1-.8-2.2-1.9.1-1.2 1.1-2 2.2-2l4-.3v.6z"/>
                </g>
                <g id="Group_4_11_">
                    <path id="Path_15_11_" class="st0" d="M64.6 0L34.3 17.5 64.6 35v-4.6L42.2 17.5 64.6 4.6V0z"/>
                    <path id="Rectangle_2_11_" class="st0" d="M30.3 0h4v35h-4z"/>
                    <path id="Path_16_11_" class="st0" d="M0 4.6l22.3 12.9L0 30.4V35l30.3-17.5L0 0v4.6z"/>
                </g>
            </g>
        </g>
    </g>
    <path class="st0" d="M173.4 27l-.5-2.5c-1 1.7-3.4 3-5.8 3-2.1 0-4.2-.7-5.7-2.2-2.2-2.1-2.8-5-2.8-8.8 0-3.4.5-6.5 2.8-8.8 1.5-1.5 3.6-2.3 5.7-2.3 2.4 0 4.6.8 6.1 2.4 1 1.1 1.7 2.4 1.8 4.1h-2.8c-.1-1-.4-1.7-1-2.3-1-1.1-2.4-1.7-4.2-1.7-1.4 0-2.9.6-3.9 1.6-1.7 1.8-1.9 4.7-1.9 6.9 0 2.1.2 5.2 1.9 7 1 1 2.4 1.5 3.8 1.5 1.5 0 2.9-.5 3.9-1.5 1.4-1.4 1.8-3.4 1.8-5.4h-5.7v-2.5h8.1V27h-1.6z"/>
    <path class="st0" d="M189.8 25.6c-1.1 1.1-2.7 1.8-4.6 1.8s-3.5-.7-4.6-1.8c-1.7-1.6-2.2-3.8-2.2-6.2s.5-4.6 2.2-6.2c1.1-1.1 2.7-1.8 4.6-1.8s3.5.7 4.6 1.8c1.6 1.6 2.2 3.8 2.2 6.2s-.5 4.6-2.2 6.2zM188 14.7c-.6-.6-1.5-1.1-2.7-1.1-1.2 0-2.1.4-2.7 1.1-1.1 1.1-1.4 2.9-1.4 4.7s.3 3.6 1.4 4.7c.6.6 1.5 1.1 2.7 1.1 1.2 0 2.1-.5 2.7-1.1 1.1-1.1 1.4-2.9 1.4-4.7s-.3-3.6-1.4-4.7z"/>
    <path class="st0" d="M201.7 27H199l-5.6-15.2h2.7l4.4 12.2 4.2-12.2h2.6L201.7 27z"/>
    <path class="st0" d="M222 20.2h-10.7c0 1.4.5 2.9 1.5 3.8.7.7 1.6 1.1 2.8 1.1 1.2 0 2.2-.3 2.8-1 .4-.4.7-.8.9-1.6h2.5c-.2 1.5-1.1 2.9-2.3 3.8-1.1.7-2.4 1.1-3.9 1.1-2.1 0-3.9-.9-5-2.3-1.3-1.5-1.9-3.5-1.9-5.6 0-1.8.3-3.4 1.2-4.9 1.1-1.8 3.1-3.2 5.7-3.2 2 0 3.5.8 4.6 1.9 1.2 1.4 2 3.3 1.9 5.3l-.1 1.6zm-3.5-5.2c-.6-.8-1.6-1.4-3-1.4-2.8 0-4.1 2.2-4.2 4.5h8.1c0-1.2-.3-2.3-.9-3.1z"/>
    <path class="st0" d="M232.5 14.2c-1.2 0-2.2.5-2.9 1.2-1.2 1.2-1.4 3.3-1.4 4.9V27h-2.5V11.8h2.2l.2 2.7c.8-1.9 2.6-2.8 4.5-2.8.4 0 .8 0 1.2.1v2.5c-.3-.1-.8-.1-1.3-.1z"/>
    <path class="st0" d="M246.4 27v-9.6c0-2.3-.9-3.6-3.3-3.6-1.5 0-2.6 1-3.3 2.3-.5 1.1-.5 2.7-.5 3.9v7h-2.5V11.8h2.2l.2 2.3c.8-1.7 2.9-2.7 4.6-2.7 3.5 0 5.2 2.1 5.2 5.6v10h-2.6z"/>
    <path class="st0" d="M264.6 27.2c-1.3 0-2.2-1-2.2-2.3h-.1c-.9 1.5-2.8 2.5-4.9 2.5-3.5 0-5.2-2.3-5.2-4.7 0-1.9 1.3-4.5 5.4-4.7l4.6-.3v-1.1c0-.8-.1-1.7-.8-2.3-.5-.5-1.3-.8-2.5-.8-1.4 0-2.2.4-2.8.9-.5.5-.8 1.1-.8 1.8H253c0-1.4.5-2.4 1.3-3.2 1-1.1 2.8-1.6 4.7-1.6 2.9 0 4.6 1.3 5.3 2.9.3.7.5 1.5.5 2.3V24c0 .8.3 1 .8 1 .3 0 .7-.1.7-.1v1.9c-.5.3-1 .4-1.7.4zm-2.3-7.5l-4.1.2c-1.5.1-3.3.8-3.3 2.7 0 1.3.8 2.6 3 2.6 1.2 0 2.3-.4 3.1-1.2.9-.9 1.3-2.2 1.3-3.5v-.8z"/>
    <path class="st0" d="M279.5 27v-9.6c0-2.3-.9-3.6-3.3-3.6-1.5 0-2.6 1-3.3 2.3-.5 1.1-.5 2.7-.5 3.9v7h-2.5V11.8h2.2l.2 2.3c.8-1.7 2.9-2.7 4.6-2.7 3.5 0 5.2 2.1 5.2 5.6v10h-2.6z"/>
    <path class="st0" d="M296.7 25.7c-1.1 1-2.5 1.6-4.4 1.6-2.7 0-4.5-1.3-5.5-2.9-.8-1.2-1.3-2.8-1.3-5.1s.5-3.9 1.3-5.1c1.1-1.6 2.8-2.9 5.5-2.9 1.8 0 3.3.6 4.3 1.6s1.7 2.2 1.8 3.9h-2.6c-.1-1-.5-1.8-1.1-2.4-.6-.6-1.5-.9-2.5-.9-1.2 0-2 .4-2.6 1-1.2 1-1.5 2.9-1.5 4.8s.3 3.8 1.5 4.8c.7.6 1.5 1 2.6 1 1 0 2-.4 2.6-1 .5-.6.9-1.3 1-2.2h2.6c0 1.6-.6 2.8-1.7 3.8z"/>
    <path class="st0" d="M314.3 20.2h-10.7c0 1.4.5 2.9 1.5 3.8.7.7 1.6 1.1 2.8 1.1 1.2 0 2.2-.3 2.8-1 .4-.4.7-.8.9-1.6h2.5c-.2 1.5-1.1 2.9-2.3 3.8-1.1.7-2.4 1.1-3.9 1.1-2.1 0-3.9-.9-5-2.3-1.3-1.5-1.9-3.5-1.9-5.6 0-1.8.3-3.4 1.2-4.9 1.1-1.8 3.1-3.2 5.7-3.2 2 0 3.5.8 4.6 1.9 1.2 1.4 2 3.3 1.9 5.3l-.1 1.6zm-3.5-5.2c-.6-.8-1.6-1.4-3-1.4-2.8 0-4.1 2.2-4.2 4.5h8.1c0-1.2-.3-2.3-.9-3.1z"/>
</svg>
