<svg viewBox="0 0 203 20" fill="none" xmlns="http://www.w3.org/2000/svg">
    <path d="M36.8807 0L19.5547 10L36.8807 20V17.3768L24.1094 10L36.8807 2.62428V0Z" fill="currentColor" />
    <path d="M19.6044 0H17.327V20H19.6044V0Z" fill="currentColor" />
    <path d="M0 0V2.62428L12.7724 10L0 17.3768V20L17.327 10L0 0Z" fill="currentColor" />
    <path d="M80.3947 6.38672V15.495H82.6233V8.46522H85.346V6.38672H80.3947Z" fill="currentColor" />
    <path d="M54.504 6.38672H49.5537V15.495H51.7813V8.46522H54.504V6.38672Z" fill="currentColor" />
    <path d="M46.7824 4.30719H41.8311V6.38673H44.5537V15.495H46.7824V6.38673H49.5537V4.30719H46.7824Z" fill="currentColor" />
    <path d="M67.3758 8.11934C67.9206 8.06963 68.4653 8.31714 68.7615 8.81217C68.9096 9.05969 69.009 9.35691 69.009 9.65414H71.1372C71.0875 8.9613 70.84 8.26847 70.4444 7.67402C69.7018 6.78338 68.5637 6.23864 67.3748 6.28835C66.1869 6.28835 65.0477 6.78338 64.2565 7.72373C62.9195 9.70385 62.9195 12.2784 64.2565 14.3082C65.0488 15.1989 66.1869 15.7436 67.3748 15.7436C68.5627 15.7436 69.7018 15.2486 70.4444 14.3579C70.8897 13.8132 71.1372 13.1204 71.1372 12.3778H69.009C69.009 12.6751 68.9096 12.9723 68.7615 13.2198C68.4643 13.6651 67.9195 13.9126 67.3758 13.9126C66.8808 13.9126 66.3858 13.7148 66.0388 13.3182C65.5438 12.6751 65.346 11.8331 65.4444 11.0408C65.345 10.2486 65.5925 9.40766 66.0388 8.7635C66.3858 8.31818 66.8808 8.12038 67.3758 8.12038" fill="currentColor" />
    <path d="M73.6631 10.0995C73.6631 9.60442 73.8112 9.10939 74.1084 8.71378C74.4553 8.26846 75.0487 7.97124 75.5935 8.02095C76.0885 7.97124 76.5835 8.16905 76.9792 8.56569C77.3748 9.01101 77.5736 9.55575 77.5736 10.1502L73.6631 10.1005V10.0995ZM75.6929 6.28731C74.6034 6.28731 73.6134 6.68292 72.8222 7.42546C71.9315 8.41552 71.4852 9.70281 71.5349 11.0388C71.4852 12.3758 71.9802 13.662 72.9205 14.6521C73.6631 15.3946 74.7028 15.7902 75.7913 15.7415C76.9294 15.7913 78.0686 15.3459 78.8112 14.4543C79.2068 13.9592 79.4543 13.4145 79.5537 12.8211H77.4742C77.4245 13.1183 77.2764 13.3658 77.0289 13.5636C76.6819 13.9106 76.1869 14.0586 75.6919 14.0089C75.1968 14.0089 74.7018 13.8111 74.3549 13.4145C73.9096 12.9195 73.662 12.2763 73.7118 11.6322H79.7515V11.0377C79.8509 9.94825 79.5537 8.8101 78.9593 7.91946C78.2167 6.82998 76.9792 6.23657 75.6919 6.28628" fill="currentColor" />
    <path d="M60.1481 11.8818C60.1481 13.2188 59.2078 13.9613 57.8708 13.9613C57.2276 14.011 56.6332 13.516 56.5835 12.8718V12.8221C56.6332 12.179 57.2266 11.6343 57.8708 11.684L60.1481 11.4862V11.8818ZM62.2763 12.4265V9.90165C62.326 9.3072 62.2266 8.66408 62.0288 8.06963C61.5338 6.73264 60.1968 6.23761 58.663 6.23761C56.6332 6.23761 55.0497 7.12825 54.9503 9.15808H57.0298C57.0795 8.31611 57.673 7.87079 58.663 7.87079C59.9006 7.87079 60.1978 8.46524 60.1978 9.30617V9.90062L57.5746 10.0984C55.842 10.2465 54.5547 11.1879 54.5547 12.9205C54.5547 14.4056 55.6928 15.7426 57.8221 15.7426C58.9116 15.7923 59.9503 15.2973 60.5448 14.4056V15.6432H63.1193V14.0587H62.3271L62.2774 12.4255L62.2763 12.4265Z" fill="currentColor" />
    <path d="M97.8698 9.73384C97.2143 10.3894 96.2138 10.7519 94.8686 10.7519H91.8497V15.495H90.3149V3.26636H94.851C96.2822 3.26636 97.3002 3.663 97.9558 4.37033C98.5419 5.00828 98.8868 5.88856 98.8868 6.95733C98.8868 8.14726 98.5243 9.07932 97.8688 9.73384H97.8698ZM94.8168 4.66238H91.8497V9.35376H94.8334C96.4717 9.35376 97.3002 8.59465 97.3002 6.95629C97.3002 5.40389 96.334 4.66238 94.8168 4.66238Z" fill="currentColor" />
    <path d="M107.167 11.6146H100.992C100.992 12.4078 101.303 13.2705 101.837 13.8049C102.234 14.2015 102.768 14.4263 103.441 14.4263C104.115 14.4263 104.701 14.2368 105.063 13.8567C105.305 13.6154 105.46 13.3741 105.581 12.908H107.012C106.891 13.7707 106.374 14.5816 105.667 15.0642C105.046 15.4785 104.27 15.7198 103.441 15.7198C102.216 15.7198 101.217 15.202 100.544 14.4087C99.8188 13.5636 99.4574 12.4078 99.4574 11.1661C99.4574 10.1139 99.6469 9.1829 100.131 8.37201C100.752 7.31981 101.908 6.54413 103.425 6.54413C104.546 6.54413 105.443 6.97495 106.081 7.66571C106.789 8.44243 107.203 9.56298 107.185 10.7363L107.168 11.6156L107.167 11.6146ZM105.148 8.57913C104.786 8.09653 104.2 7.78584 103.424 7.78584C101.837 7.78584 101.061 9.07934 101.026 10.3563H105.684C105.684 9.70072 105.494 9.04516 105.149 8.58017L105.148 8.57913Z" fill="currentColor" />
    <path d="M112.687 8.13067C111.997 8.13067 111.427 8.44135 111.031 8.82039C110.323 9.49355 110.237 10.7001 110.237 11.6145V15.495H108.788V6.76778H110.082L110.203 8.30258C110.652 7.23278 111.704 6.716 112.808 6.716C113.032 6.716 113.274 6.73361 113.497 6.76778V8.19902C113.239 8.14724 112.945 8.12963 112.687 8.12963V8.13067Z" fill="currentColor" />
    <path d="M121.034 14.8571C120.464 15.3914 119.654 15.7363 118.636 15.7363C117.688 15.7363 116.566 15.2879 116.101 14.4946V19.2378H114.635V6.78436H115.928L116.032 7.92252C116.532 7.04327 117.653 6.55963 118.636 6.55963C119.706 6.55963 120.533 6.9221 121.103 7.50826C121.931 8.35334 122.362 9.68101 122.362 11.1309C122.362 12.5808 121.914 14.011 121.035 14.856L121.034 14.8571ZM118.395 7.80238C117.757 7.80238 117.325 8.06129 116.98 8.37198C116.255 9.00992 116.014 10.0621 116.014 11.1485C116.014 12.2349 116.255 13.2871 116.98 13.925C117.325 14.2357 117.757 14.4946 118.395 14.4946C120.344 14.4946 120.862 12.7527 120.862 11.1485C120.862 9.54431 120.344 7.80238 118.395 7.80238Z" fill="currentColor" />
    <path d="M131.055 11.6146H124.881C124.881 12.4078 125.192 13.2705 125.726 13.8049C126.123 14.2015 126.657 14.4263 127.33 14.4263C128.003 14.4263 128.59 14.2368 128.952 13.8567C129.193 13.6154 129.349 13.3741 129.47 12.908H130.901C130.78 13.7707 130.263 14.5816 129.556 15.0642C128.934 15.4785 128.159 15.7198 127.33 15.7198C126.105 15.7198 125.106 15.202 124.433 14.4087C123.708 13.5636 123.346 12.4078 123.346 11.1661C123.346 10.1139 123.536 9.1829 124.019 8.37201C124.641 7.31981 125.796 6.54413 127.314 6.54413C128.435 6.54413 129.332 6.97495 129.97 7.66571C130.677 8.44243 131.092 9.56298 131.074 10.7363L131.056 11.6156L131.055 11.6146ZM129.037 8.57913C128.674 8.09653 128.088 7.78584 127.313 7.78584C125.726 7.78584 124.949 9.07934 124.915 10.3563H129.572C129.572 9.70072 129.383 9.04516 129.038 8.58017L129.037 8.57913Z" fill="currentColor" />
    <path d="M135.713 15.6162C133.833 15.6162 133.315 14.4263 133.315 13.2529V8.02713H131.625V6.76781H133.315V4.54225L134.782 4.19739V6.76781H137.369V8.02713H134.782V13.081C134.782 13.926 135.144 14.2709 135.955 14.2709C136.576 14.2709 137.456 14.1156 137.456 14.1156V15.3749C137.059 15.4785 136.525 15.6162 135.714 15.6162H135.713Z" fill="currentColor" />
    <path d="M144.354 15.495L144.233 14.1674C143.784 15.1678 142.663 15.7022 141.646 15.7022C139.663 15.7022 138.662 14.5122 138.662 12.4938V6.76782H140.129V12.2877C140.129 13.5988 140.611 14.3745 141.992 14.3745C142.578 14.3745 143.061 14.1156 143.44 13.7189C143.992 13.1493 144.165 12.2007 144.165 11.3039V6.76782H145.632V15.495H144.356H144.354Z" fill="currentColor" />
    <path d="M154.323 15.6162C153.546 15.6162 153.063 15.03 153.063 14.2885H153.029C152.529 15.1678 151.443 15.7198 150.218 15.7198C148.217 15.7198 147.216 14.3745 147.216 13.0292C147.216 11.9076 147.941 10.4422 150.321 10.3035L152.977 10.1481V9.51016C152.977 9.07934 152.926 8.54392 152.529 8.18249C152.236 7.90701 151.804 7.73407 151.098 7.73407C150.305 7.73407 149.804 7.9588 149.511 8.25188C149.235 8.52735 149.08 8.87325 149.08 9.30407H147.649C147.667 8.51078 147.96 7.94119 148.408 7.47619C148.994 6.85482 150.03 6.54517 151.099 6.54517C152.789 6.54517 153.755 7.2701 154.169 8.21874C154.342 8.61538 154.428 9.06381 154.428 9.56402V13.7894C154.428 14.2554 154.618 14.3755 154.911 14.3755C155.066 14.3755 155.29 14.3237 155.29 14.3237V15.4101C154.979 15.5655 154.686 15.6172 154.324 15.6172L154.323 15.6162ZM152.977 11.2873L150.632 11.425C149.753 11.4768 148.717 11.8911 148.717 12.995C148.717 13.7707 149.2 14.4957 150.442 14.4957C151.115 14.4957 151.77 14.2709 152.236 13.7883C152.754 13.2539 152.977 12.529 152.977 11.8051V11.2873Z" fill="currentColor" />
    <path d="M158.532 15.5986C157.256 15.5986 156.704 14.8395 156.704 13.46V3.04163H158.17V13.373C158.17 13.9592 158.36 14.2699 158.963 14.2699C159.446 14.2699 159.567 14.2523 159.567 14.2523V15.494C159.567 15.494 159.24 15.5976 158.533 15.5976L158.532 15.5986Z" fill="currentColor" />
    <path d="M171.692 9.73384C171.037 10.3894 170.036 10.7519 168.691 10.7519H165.672V15.495H164.137V3.26636H168.673C170.105 3.26636 171.123 3.663 171.778 4.37033C172.364 5.00828 172.709 5.88856 172.709 6.95733C172.709 8.14726 172.347 9.07932 171.691 9.73384H171.692ZM168.639 4.66238H165.672V9.35376H168.656C170.294 9.35376 171.123 8.59465 171.123 6.95629C171.123 5.40389 170.156 4.66238 168.639 4.66238Z" fill="currentColor" />
    <path d="M179.816 14.7017C179.178 15.3231 178.281 15.7198 177.177 15.7198C176.073 15.7198 175.176 15.3231 174.538 14.7017C173.59 13.7707 173.297 12.5114 173.297 11.1309C173.297 9.75042 173.59 8.49214 174.538 7.56007C175.176 6.9387 176.073 6.54205 177.177 6.54205C178.281 6.54205 179.178 6.9387 179.816 7.56007C180.764 8.4911 181.057 9.75042 181.057 11.1309C181.057 12.5114 180.764 13.7697 179.816 14.7017ZM178.746 8.42378C178.384 8.06132 177.867 7.80241 177.176 7.80241C176.485 7.80241 175.968 8.06132 175.606 8.42378C174.985 9.06173 174.795 10.1139 174.795 11.1319C174.795 12.15 174.985 13.2022 175.606 13.8401C175.968 14.2026 176.485 14.4615 177.176 14.4615C177.867 14.4615 178.384 14.2026 178.746 13.8401C179.367 13.2022 179.557 12.15 179.557 11.1319C179.557 10.1139 179.367 9.06173 178.746 8.42378Z" fill="currentColor" />
    <path d="M188.578 14.7017C187.94 15.3231 187.043 15.7198 185.939 15.7198C184.835 15.7198 183.939 15.3231 183.301 14.7017C182.352 13.7707 182.059 12.5114 182.059 11.1309C182.059 9.75042 182.352 8.49214 183.301 7.56007C183.939 6.9387 184.835 6.54205 185.939 6.54205C187.043 6.54205 187.94 6.9387 188.578 7.56007C189.527 8.4911 189.82 9.75042 189.82 11.1309C189.82 12.5114 189.527 13.7697 188.578 14.7017ZM187.508 8.42378C187.146 8.06132 186.629 7.80241 185.938 7.80241C185.248 7.80241 184.731 8.06132 184.368 8.42378C183.747 9.06173 183.558 10.1139 183.558 11.1319C183.558 12.15 183.747 13.2022 184.368 13.8401C184.731 14.2026 185.248 14.4615 185.938 14.4615C186.629 14.4615 187.146 14.2026 187.508 13.8401C188.13 13.2022 188.319 12.15 188.319 11.1319C188.319 10.1139 188.13 9.06173 187.508 8.42378Z" fill="currentColor" />
    <path d="M193.27 15.5986C191.994 15.5986 191.442 14.8395 191.442 13.46V3.04163H192.908V13.373C192.908 13.9592 193.098 14.2699 193.701 14.2699C194.184 14.2699 194.305 14.2523 194.305 14.2523V15.494C194.305 15.494 193.978 15.5976 193.271 15.5976L193.27 15.5986Z" fill="currentColor" />
    <path d="M201.428 14.7359C200.755 15.4257 199.72 15.7187 198.582 15.7187C197.444 15.7187 196.496 15.4598 195.754 14.7359C195.22 14.2181 194.909 13.4766 194.909 12.7351H196.375C196.393 13.3389 196.668 13.7873 197.083 14.098C197.479 14.3911 198.101 14.4946 198.653 14.4946C199.257 14.4946 199.808 14.3911 200.257 14.012C200.498 13.8225 200.688 13.46 200.688 13.0634C200.688 12.4078 200.222 11.9418 199.325 11.8217C198.946 11.7699 197.962 11.6487 197.358 11.5628C196.047 11.3556 195.22 10.5447 195.22 9.21708C195.22 8.54392 195.548 7.90597 195.945 7.50933C196.514 6.92317 197.428 6.54309 198.515 6.54309C199.671 6.54309 200.705 6.90556 201.292 7.64707C201.671 8.1131 201.913 8.61331 201.913 9.32064H200.446C200.429 8.87221 200.205 8.45796 199.946 8.23427C199.584 7.90701 199.101 7.76824 198.515 7.76824C198.17 7.76824 197.911 7.76824 197.497 7.94119C196.945 8.16592 196.618 8.63091 196.618 9.11455C196.618 9.83949 197.066 10.1491 197.791 10.2527C198.274 10.3221 198.964 10.3904 199.895 10.5458C201.137 10.7529 202.121 11.6498 202.121 12.9609C202.121 13.72 201.845 14.3061 201.431 14.737L201.428 14.7359Z" fill="currentColor" />
</svg>