<svg width="100" height="24" viewBox="0 0 100 24" fill="none" xmlns="http://www.w3.org/2000/svg">
<path d="M94.1484 7.73334V18.4382H96.7768V10.1824H99.9984V7.73242L94.1484 7.73334Z" fill="white"/>
<path d="M63.7874 7.73438H57.9375V18.4392H60.5658V10.1835H63.7874V7.73438Z" fill="white"/>
<path d="M54.7138 5.29883H48.8789V7.73379H52.1014V18.4386H54.7147V7.73379H57.9363V5.29883H54.7138Z" fill="white"/>
<path d="M78.9 9.81145C79.2145 9.79304 79.5285 9.85574 79.8118 9.99348C80.0952 10.1312 80.3384 10.3394 80.5183 10.5981C80.7002 10.8936 80.8024 11.2313 80.8149 11.5781H83.309C83.2711 10.7469 82.9868 9.94569 82.4923 9.27646C82.0545 8.74599 81.5027 8.32102 80.878 8.0332C80.2533 7.74538 79.5718 7.60207 78.8841 7.61397C78.1888 7.60895 77.5008 7.75505 76.8676 8.04209C76.2344 8.32913 75.6711 8.7503 75.2166 9.27646C74.4612 10.4222 74.0586 11.7645 74.0586 13.1368C74.0586 14.5092 74.4612 15.8514 75.2166 16.9972C75.6711 17.5233 76.2344 17.9444 76.8676 18.2314C77.5008 18.5185 78.1888 18.6646 78.8841 18.6596C79.5713 18.6682 80.2517 18.5234 80.8759 18.2359C81.5001 17.9483 82.0523 17.5251 82.4923 16.9972C82.9913 16.3304 83.2761 15.5277 83.309 14.6955H80.8131C80.7935 15.0411 80.6918 15.3771 80.5165 15.6755C80.3342 15.9317 80.0905 16.1379 79.8077 16.2754C79.525 16.4128 79.2122 16.477 78.8982 16.4621C78.6088 16.4621 78.3225 16.4028 78.0569 16.2878C77.7913 16.1729 77.5521 16.0047 77.354 15.7938C76.7992 15.0251 76.5457 14.0795 76.6415 13.1363C76.5476 12.1839 76.8006 11.2297 77.354 10.4489C77.5533 10.2411 77.7937 10.0771 78.0599 9.96739C78.326 9.85765 78.6121 9.80452 78.9 9.81145Z" fill="white"/>
<path d="M88.6272 7.61401C88.0043 7.59734 87.3844 7.70715 86.805 7.93674C86.2257 8.16633 85.6989 8.51093 85.2564 8.9498C84.2168 10.1024 83.6682 11.6153 83.7273 13.1664C83.696 13.9424 83.8233 14.7166 84.1015 15.4416C84.3798 16.1667 84.8031 16.8273 85.3456 17.383C85.7855 17.8106 86.3061 18.1464 86.8771 18.3707C87.4481 18.5951 88.058 18.7035 88.6714 18.6897C89.3356 18.718 89.9979 18.5996 90.6112 18.343C91.2244 18.0863 91.7736 17.6977 92.2196 17.2047C92.6776 16.644 92.9843 15.9753 93.1105 15.2624H90.6905C90.6055 15.5994 90.431 15.9072 90.1855 16.1532C89.979 16.3425 89.7343 16.4855 89.468 16.5726C89.2017 16.6597 88.9199 16.6889 88.6414 16.6582C88.056 16.6535 87.4961 16.4188 87.0822 16.0049C86.8205 15.7281 86.6171 15.4014 86.4844 15.0443C86.3517 14.6873 86.2923 14.3071 86.3097 13.9266H93.3771C93.3771 13.7041 93.3921 13.2141 93.3921 13.2141C93.4971 11.9189 93.1736 10.625 92.4713 9.53166C92.041 8.9171 91.464 8.41976 90.7927 8.08487C90.1213 7.74998 89.377 7.58811 88.6272 7.61401ZM86.2964 12.1167C86.2818 11.52 86.476 10.937 86.8456 10.4684C87.056 10.2041 87.3252 9.99267 87.6317 9.85089C87.9383 9.7091 88.2738 9.64091 88.6113 9.65172C88.9064 9.63452 89.2017 9.67978 89.4779 9.78461C89.7542 9.88943 90.0053 10.0514 90.2146 10.26C90.6452 10.7759 90.877 11.4289 90.8679 12.1008H86.2947L86.2964 12.1167Z" fill="white"/>
<path d="M72.8887 14.8752L72.9038 11.9061C72.9343 11.1865 72.8285 10.4676 72.5921 9.7872C71.9829 8.19803 70.4396 7.63477 68.6421 7.63477C66.2813 7.63477 64.3955 8.68892 64.2622 11.0647H66.7122C66.7713 10.0847 67.4697 9.56384 68.6421 9.56384C70.0821 9.56384 70.4238 10.2322 70.4238 11.2272V11.8805L67.3205 12.103C65.3164 12.2513 63.7422 13.4097 63.7422 15.4138C63.7422 17.1363 65.0489 18.7246 67.558 18.7246C68.1838 18.7552 68.807 18.6253 69.3684 18.3471C69.9298 18.069 70.4108 17.6518 70.7655 17.1353V18.5612H73.8096V16.7345H72.8887V14.8752ZM70.4088 14.2369C70.4088 15.7961 69.2954 16.6568 67.7063 16.6568C67.5202 16.671 67.3333 16.6477 67.1564 16.5884C66.9795 16.5291 66.8163 16.4349 66.6763 16.3115C66.5364 16.188 66.4227 16.0378 66.3418 15.8697C66.2609 15.7015 66.2146 15.5189 66.2054 15.3325C66.2302 14.9512 66.4017 14.5944 66.6841 14.3369C66.9664 14.0794 67.3376 13.9413 67.7195 13.9517L70.392 13.7442V14.2343L70.4088 14.2369Z" fill="white"/>
<path d="M43.3107 0.265625L22.9844 12.0079L43.3107 23.7377V20.6644L28.3293 12.0123L43.3107 3.3601V0.265625Z" fill="white"/>
<path d="M23.0006 0.265625H20.3281V23.7394H23.0006V0.265625Z" fill="white"/>
<path d="M0 3.35424L14.9815 12.0064L0 20.6585V23.7318L20.3264 12.002L0 0.259766V3.35424Z" fill="white"/>
</svg>
