<svg width="25" height="25" viewBox="0 0 21 16" fill="none" xmlns="http://www.w3.org/2000/svg">
    <path
        d="M17.7466 1.75468C16.4356 1.16064 15.0488 0.738695 13.6228 0.5C13.4285 0.84571 13.2522 1.20065 13.0946 1.56349C11.5801 1.33932 10.0392 1.33932 8.52466 1.56349C8.36554 1.20032 8.18718 0.845349 7.99031 0.5C6.56202 0.739114 5.17322 1.1627 3.86101 1.75946C1.52789 5.04131 0.477135 9.02157 0.89716 12.9865C2.42051 14.1014 4.13194 14.9514 5.95525 15.4988C6.36503 14.9523 6.72722 14.3738 7.0381 13.7691C6.4459 13.5506 5.87498 13.2812 5.33214 12.9643C5.47513 12.8616 5.61504 12.754 5.75001 12.6435C7.32736 13.3798 9.05556 13.7622 10.8063 13.7622C12.5569 13.7622 14.2851 13.3798 15.8625 12.6435C15.9993 12.754 16.1392 12.8616 16.2803 12.9643C15.7367 13.282 15.1647 13.5518 14.5713 13.7703C14.8821 14.3751 15.2446 14.9537 15.6548 15.5C17.4796 14.953 19.1922 14.1023 20.716 12.9859C21.1368 9.01883 20.0839 5.0364 17.7466 1.75468ZM7.4874 10.7244C6.97949 10.6888 6.50639 10.4611 6.17017 10.0903C5.83395 9.71957 5.66157 9.23553 5.69024 8.74265C5.65862 8.24896 5.82992 7.76322 6.16669 7.39163C6.50346 7.02004 6.9783 6.79282 7.4874 6.75966C7.74005 6.77454 7.98716 6.83776 8.21449 6.94566C8.44182 7.05356 8.64488 7.20402 8.81194 7.38836C8.97901 7.5727 9.10679 7.78727 9.1879 8.01971C9.26902 8.25214 9.30188 8.49785 9.28458 8.74265C9.31651 9.23629 9.14527 9.72207 8.8084 10.0935C8.47154 10.465 7.9965 10.6919 7.4874 10.7244ZM14.1288 10.7244C13.6209 10.6888 13.1478 10.4611 12.8116 10.0903C12.4753 9.71957 12.303 9.23553 12.3316 8.74265C12.3 8.24896 12.4713 7.76322 12.8081 7.39163C13.1449 7.02004 13.6197 6.79282 14.1288 6.75966C14.3814 6.77454 14.6286 6.83776 14.8559 6.94566C15.0832 7.05356 15.2863 7.20402 15.4533 7.38836C15.6204 7.5727 15.7482 7.78727 15.8293 8.01971C15.9104 8.25214 15.9433 8.49785 15.926 8.74265C15.9577 9.23625 15.7864 9.72195 15.4496 10.0934C15.1128 10.4648 14.6378 10.6917 14.1288 10.7244Z"
        fill="#ffffff"
    />
</svg>