<svg width="25" height="25" viewBox="0 0 16 16" fill="none" xmlns="http://www.w3.org/2000/svg">
    <path
        d="M7.97153 0.0976786C5.87896 0.0927459 3.86873 0.905194 2.37656 2.35893C0.884384 3.81266 0.0305089 5.79053 0 7.86386V15.9037L7.96902 15.8962C10.0609 15.8661 12.0566 15.0204 13.5236 13.5423C14.9905 12.0642 15.8106 10.0728 15.806 7.99968C15.8101 5.92664 14.9904 3.93534 13.5242 2.45655C12.0581 0.977759 10.0633 0.130364 7.97153 0.0976786ZM12.4807 9.89869C12.2184 10.475 11.844 10.9945 11.3791 11.4274C10.9141 11.8603 10.3676 12.1983 9.77084 12.4219C9.17406 12.6456 8.53866 12.7506 7.90094 12.7309C7.26321 12.7112 6.63565 12.5672 6.05409 12.3071L2.89851 13.0136L3.77615 10.2126C3.37666 9.47865 3.17593 8.65462 3.19352 7.82089C3.21112 6.98716 3.44645 6.17217 3.87656 5.4554C4.30726 4.73915 4.91821 4.14594 5.64964 3.7338C6.38107 3.32166 7.20794 3.1047 8.04936 3.10415C8.73888 3.10407 9.42047 3.24977 10.0486 3.53151C10.6304 3.79119 11.1548 4.16191 11.5919 4.62247C12.029 5.08303 12.3703 5.62442 12.5962 6.21571C12.8221 6.807 12.9282 7.43659 12.9085 8.06853C12.8888 8.70047 12.7436 9.32236 12.4812 9.89869H12.4807Z"
        fill="#ffffff"
    />
</svg>