<svg width="25" height="25" viewBox="0 0 19 18" fill="none" xmlns="http://www.w3.org/2000/svg">
    <path
        d="M6.60742 13.7109C6.60742 13.6406 6.53711 13.5703 6.43164 13.5703C6.32617 13.5703 6.25586 13.6406 6.25586 13.7109C6.25586 13.7812 6.32617 13.8516 6.43164 13.8164C6.53711 13.8164 6.60742 13.7812 6.60742 13.7109ZM5.51758 13.5352C5.51758 13.6055 5.58789 13.7109 5.69336 13.7109C5.76367 13.7461 5.86914 13.7109 5.9043 13.6406C5.9043 13.5703 5.86914 13.5 5.76367 13.4648C5.6582 13.4297 5.55273 13.4648 5.51758 13.5352ZM7.09961 13.5C6.99414 13.5 6.92383 13.5703 6.92383 13.6758C6.92383 13.7461 7.0293 13.7812 7.13477 13.7461C7.24023 13.7109 7.31055 13.6758 7.27539 13.6055C7.27539 13.5352 7.16992 13.4648 7.09961 13.5ZM9.38477 0C4.5332 0 0.806641 3.72656 0.806641 8.57812C0.806641 12.4805 3.23242 15.8203 6.74805 17.0156C7.20508 17.0859 7.3457 16.8047 7.3457 16.5938C7.3457 16.3477 7.3457 15.1523 7.3457 14.4141C7.3457 14.4141 4.88477 14.9414 4.35742 13.3594C4.35742 13.3594 3.9707 12.3398 3.4082 12.0938C3.4082 12.0938 2.59961 11.5312 3.44336 11.5312C3.44336 11.5312 4.32227 11.6016 4.81445 12.4453C5.58789 13.8164 6.85352 13.4297 7.38086 13.1836C7.45117 12.6211 7.66211 12.2344 7.94336 11.9883C5.97461 11.7773 3.9707 11.4961 3.9707 8.12109C3.9707 7.13672 4.25195 6.67969 4.81445 6.04688C4.70898 5.80078 4.42773 4.88672 4.91992 3.65625C5.62305 3.44531 7.3457 4.60547 7.3457 4.60547C8.04883 4.39453 8.78711 4.32422 9.52539 4.32422C10.2988 4.32422 11.0371 4.39453 11.7402 4.60547C11.7402 4.60547 13.4277 3.41016 14.166 3.65625C14.6582 4.88672 14.3418 5.80078 14.2715 6.04688C14.834 6.67969 15.1855 7.13672 15.1855 8.12109C15.1855 11.4961 13.1113 11.7773 11.1426 11.9883C11.459 12.2695 11.7402 12.7969 11.7402 13.6406C11.7402 14.8008 11.7051 16.2773 11.7051 16.5586C11.7051 16.8047 11.8809 17.0859 12.3379 16.9805C15.8535 15.8203 18.2441 12.4805 18.2441 8.57812C18.2441 3.72656 14.2715 0 9.38477 0ZM4.2168 12.1289C4.14648 12.1641 4.18164 12.2695 4.2168 12.3398C4.28711 12.375 4.35742 12.4102 4.42773 12.375C4.46289 12.3398 4.46289 12.2344 4.39258 12.1641C4.32227 12.1289 4.25195 12.0938 4.2168 12.1289ZM3.83008 11.8477C3.79492 11.918 3.83008 11.9531 3.90039 11.9883C3.9707 12.0234 4.04102 12.0234 4.07617 11.9531C4.07617 11.918 4.04102 11.8828 3.9707 11.8477C3.90039 11.8125 3.86523 11.8125 3.83008 11.8477ZM4.95508 13.1133C4.91992 13.1484 4.91992 13.2539 5.02539 13.3242C5.0957 13.3945 5.20117 13.4297 5.23633 13.3594C5.27148 13.3242 5.27148 13.2188 5.20117 13.1484C5.13086 13.0781 5.02539 13.043 4.95508 13.1133ZM4.56836 12.5859C4.49805 12.6211 4.49805 12.7266 4.56836 12.7969C4.63867 12.8672 4.70898 12.9023 4.7793 12.8672C4.81445 12.832 4.81445 12.7266 4.7793 12.6562C4.70898 12.5859 4.63867 12.5508 4.56836 12.5859Z"
        fill="#ffffff"
    />
</svg>