<svg width="25" height="25" viewBox="0 0 19 15" fill="none" xmlns="http://www.w3.org/2000/svg">
    <path
        d="M16.9434 3.62109C17.6465 3.09375 18.2793 2.46094 18.7715 1.72266C18.1387 2.00391 17.4004 2.21484 16.6621 2.28516C17.4355 1.82812 17.998 1.125 18.2793 0.246094C17.5762 0.667969 16.7676 0.984375 15.959 1.16016C15.2559 0.421875 14.3066 0 13.252 0C11.2129 0 9.56055 1.65234 9.56055 3.69141C9.56055 3.97266 9.5957 4.25391 9.66602 4.53516C6.60742 4.35938 3.86523 2.88281 2.03711 0.667969C1.7207 1.19531 1.54492 1.82812 1.54492 2.53125C1.54492 3.79688 2.17773 4.92188 3.19727 5.58984C2.59961 5.55469 2.00195 5.41406 1.50977 5.13281V5.16797C1.50977 6.96094 2.77539 8.4375 4.46289 8.78906C4.18164 8.85938 3.83008 8.92969 3.51367 8.92969C3.26758 8.92969 3.05664 8.89453 2.81055 8.85938C3.26758 10.3359 4.63867 11.3906 6.25586 11.4258C4.99023 12.4102 3.4082 13.0078 1.68555 13.0078C1.36914 13.0078 1.08789 12.9727 0.806641 12.9375C2.42383 13.9922 4.35742 14.5898 6.4668 14.5898C13.252 14.5898 16.9434 9 16.9434 4.11328C16.9434 3.9375 16.9434 3.79688 16.9434 3.62109Z"
        fill="#ffffff"
    />
</svg>