<svg width="53" height="66" viewBox="0 0 53 66" fill="none" xmlns="http://www.w3.org/2000/svg">
    <path d="M52.1294 26.5529C53.2233 19.7399 47.7201 16.1048 40.1829 13.6675L42.5947 4.40935L36.6534 3.01064L34.2964 12.0087C32.7561 11.6461 31.1058 11.2836 29.5105 10.973L31.8675 1.92289L25.9262 0.524175L23.5144 9.73033C22.1942 9.4715 20.9289 9.16063 19.7187 8.90171L19.7186 8.84971L11.5219 6.933L9.93224 12.9144C9.93224 12.9144 14.3331 13.8465 14.2232 13.9506C15.9283 14.1571 17.1396 15.612 16.9761 17.2242L14.2354 27.7306C14.4555 27.7824 14.6755 27.8342 14.8406 27.9381L14.2905 27.7826L10.4536 42.502C10.0695 43.5943 8.86004 44.1674 7.75977 43.8564C7.81486 43.9603 3.41385 42.8202 3.41385 42.8202L0.449589 49.2709L8.2062 51.084C9.63652 51.4467 11.0668 51.7575 12.4421 52.1202L9.97545 61.4824L15.9167 62.8812L18.3285 53.623C19.9238 54.0376 21.5191 54.4002 23.0595 54.7628L20.6477 63.9689L26.5889 65.3677L29.0556 56.0575C39.1772 57.8685 46.8216 57.1337 50.0038 48.4468C52.5826 41.4765 49.884 37.4229 44.5467 34.8277C48.4509 33.9402 51.3638 31.5456 52.1294 26.5529ZM38.5604 44.557C36.7516 51.5266 24.3183 47.7937 20.2474 46.8093L23.4814 34.4304C27.5522 35.4148 40.4789 37.2753 38.5604 44.557ZM40.4143 26.4593C38.7699 32.8048 28.4271 29.59 25.0714 28.813L28.0314 17.5783C31.3321 18.3554 42.1134 19.8538 40.4143 26.4593Z" fill="white"/>
</svg>
