<svg width="72" height="69" viewBox="0 0 72 69" fill="none" xmlns="http://www.w3.org/2000/svg">
    <path fill-rule="evenodd" clip-rule="evenodd" d="M1.31802 1.81802C2.16193 0.974106 3.30653 0.5 4.5 0.5H67.5C68.6935 0.5 69.8381 0.974106 70.682 1.81802C71.5259 2.66193 72 3.80653 72 5C72 6.19347 71.5259 7.33807 70.682 8.18198C69.8381 9.02589 68.6935 9.5 67.5 9.5V45.5C67.5 47.8869 66.5518 50.1761 64.864 51.864C63.1761 53.5518 60.8869 54.5 58.5 54.5H46.863L52.6815 60.3185C53.5012 61.1672 53.9548 62.3039 53.9445 63.4838C53.9343 64.6637 53.461 65.7923 52.6267 66.6267C51.7923 67.461 50.6637 67.9343 49.4838 67.9445C48.3039 67.9548 47.1672 67.5012 46.3185 66.6815L36 56.363L25.6815 66.6815C25.2664 67.1113 24.7698 67.4541 24.2208 67.69C23.6718 67.9258 23.0813 68.0499 22.4838 68.0551C21.8863 68.0603 21.2937 67.9465 20.7407 67.7202C20.1877 67.4939 19.6852 67.1598 19.2627 66.7373C18.8402 66.3148 18.5061 65.8123 18.2798 65.2593C18.0535 64.7063 17.9397 64.1137 17.9449 63.5162C17.9501 62.9187 18.0742 62.3282 18.31 61.7792C18.5459 61.2302 18.8887 60.7336 19.3185 60.3185L25.137 54.5H13.5C11.1131 54.5 8.82387 53.5518 7.13604 51.864C5.44821 50.1761 4.5 47.8869 4.5 45.5V9.5C3.30653 9.5 2.16193 9.02589 1.31802 8.18198C0.474105 7.33807 0 6.19347 0 5C0 3.80653 0.474105 2.66193 1.31802 1.81802ZM23.8175 15.3738C24.6614 14.5302 25.8058 14.0563 26.999 14.0563C28.1923 14.0563 29.3367 14.5302 30.1805 15.3738L35.999 21.1923L41.8175 15.3738C42.2327 14.944 42.7292 14.6012 43.2782 14.3653C43.8272 14.1295 44.4177 14.0054 45.0152 14.0002C45.6127 13.995 46.2053 14.1088 46.7583 14.3351C47.3114 14.5614 47.8138 14.8955 48.2363 15.318C48.6588 15.7405 48.993 16.243 49.2192 16.796C49.4455 17.349 49.5594 17.9416 49.5542 18.5391C49.549 19.1366 49.4248 19.7271 49.189 20.2761C48.9532 20.8251 48.6103 21.3217 48.1805 21.7368L42.362 27.5553L48.1805 33.3738C49.0003 34.2225 49.4538 35.3592 49.4436 36.5391C49.4333 37.719 48.9601 38.8476 48.1257 39.682C47.2914 40.5163 46.1627 40.9896 44.9828 40.9998C43.803 41.0101 42.6662 40.5565 41.8175 39.7368L35.999 33.9183L30.1805 39.7368C29.3318 40.5565 28.1951 41.0101 27.0152 40.9998C25.8354 40.9896 24.7067 40.5163 23.8724 39.682C23.038 38.8476 22.5648 37.719 22.5545 36.5391C22.5443 35.3592 22.9978 34.2225 23.8175 33.3738L29.636 27.5553L23.8175 21.7368C22.9739 20.8929 22.5 19.7485 22.5 18.5553C22.5 17.3621 22.9739 16.2177 23.8175 15.3738Z" fill="#9CA3AF"/>
</svg>
