<svg width="219" height="22" viewBox="0 0 219 22" fill="none" xmlns="http://www.w3.org/2000/svg">
<path d="M35.46 16.5V6.21684L31.6947 16.3393H30.514L26.7487 6.15257V16.5321H25.3127V4.32089H27.4826L31.1203 14.2505L34.7899 4.32089H36.9278V16.5H35.46ZM46.3412 7.82358H44.8095L42.3844 14.6683L39.8316 7.82358H38.2042L41.6505 16.5321L41.108 17.9782C40.8527 18.6209 40.4379 18.8458 39.7997 18.8458C39.2253 18.8458 38.7786 18.7173 38.7786 18.7173V20.0027C38.9062 20.0348 39.3849 20.1633 40.0869 20.1633C41.3952 20.1633 42.0015 19.4242 42.4163 18.2995L46.3412 7.82358ZM53.0422 15.793C53.6166 15.2146 53.9676 14.5076 54.0633 13.6078H52.5955C52.5316 14.1863 52.3083 14.5719 52.0211 14.8932C51.6701 15.2467 51.1595 15.4717 50.5532 15.4717C49.8831 15.4717 49.4364 15.2467 49.0535 14.8932C48.3834 14.3148 48.1919 13.2222 48.1919 12.1618C48.1919 11.1013 48.3834 10.0087 49.0535 9.43032C49.4364 9.10897 49.8831 8.85189 50.5532 8.85189C51.1276 8.85189 51.6063 9.0447 51.9573 9.39818C52.2764 9.71953 52.4997 10.1694 52.5635 10.7478H54.0314C53.9676 9.81594 53.5847 9.07684 53.0103 8.49841C52.404 7.91998 51.5743 7.5665 50.5532 7.5665C48.9897 7.5665 48.0324 8.27347 47.4261 9.20538C46.9794 9.88021 46.7241 10.8442 46.7241 12.1296C46.7241 13.4472 46.9794 14.3791 47.4261 15.0539C48.0324 15.9537 49.0216 16.6928 50.5852 16.6928C51.6063 16.7249 52.4359 16.4036 53.0422 15.793ZM62.6151 11.7762C62.647 10.6193 62.2322 9.49459 61.5301 8.72335C60.892 8.04852 59.9985 7.59864 58.9136 7.59864C57.4138 7.59864 56.2651 8.36987 55.6588 9.43032C55.1801 10.2337 54.9887 11.1656 54.9887 12.226C54.9887 13.4793 55.3397 14.604 56.0736 15.4717C56.7437 16.275 57.7329 16.7892 58.9455 16.7892C59.7751 16.7892 60.541 16.5642 61.1472 16.1465C61.8492 15.6645 62.3598 14.8611 62.4874 13.9935H61.0834C60.9558 14.4433 60.7962 14.7004 60.5729 14.9254C60.2219 15.311 59.6475 15.5038 58.9774 15.5038C58.3073 15.5038 57.7967 15.2788 57.3819 14.8932C56.8394 14.3469 56.5522 13.5114 56.5522 12.7081H62.647L62.6151 11.7762ZM60.6048 9.62313C60.9558 10.073 61.1472 10.7478 61.1472 11.3905H56.5522C56.5842 10.1051 57.35 8.81976 58.9136 8.81976C59.6794 8.81976 60.2538 9.14111 60.6048 9.62313ZM66.1251 16.5964C66.8271 16.5964 67.1462 16.5 67.1462 16.5V15.2467C67.1462 15.2467 67.0186 15.2788 66.54 15.2788C65.9337 15.2788 65.7422 14.9575 65.7422 14.3791V4.09595H64.3063V14.4755C64.3382 15.8573 64.8807 16.5964 66.1251 16.5964ZM68.5503 5.83122H70.2415V4.09595H68.5503V5.83122ZM68.6779 16.5H70.1776V7.82358H68.6779V16.5ZM79.0485 16.5V7.82358H77.6126V12.3546C77.6126 13.2544 77.453 14.1863 76.9106 14.7647C76.5277 15.1503 76.049 15.4074 75.4746 15.4074C74.1025 15.4074 73.6239 14.6361 73.6239 13.3186V7.82358H72.188V13.5436C72.188 15.5681 73.1772 16.757 75.1555 16.757C76.1767 16.757 77.2616 16.2108 77.7083 15.2146L77.836 16.5321H79.0485V16.5ZM93.4078 16.5V10.78C93.4078 8.85189 92.4825 7.5665 90.536 7.5665C89.4511 7.5665 88.3342 8.14493 87.8875 9.20538C87.5046 8.14493 86.5792 7.5665 85.3028 7.5665C84.3455 7.5665 83.3244 8.04852 82.8777 9.01257L82.75 7.75931H81.4736V16.4678H82.9096V11.8726C82.9096 11.1656 83.0691 10.2337 83.484 9.6874C83.835 9.23751 84.3455 8.91616 84.9518 8.91616C86.3239 8.91616 86.7068 9.75167 86.7068 10.9728V16.5H88.1428V11.8726C88.1428 10.9728 88.3023 10.073 88.8767 9.49459C89.2277 9.1411 89.6425 8.91616 90.185 8.91616C91.5571 8.91616 91.94 9.75167 91.94 10.9728V16.5H93.4078Z" fill="white"/>
<path d="M1.52825 11.1205H0.0639648C0.282049 14.1114 1.90211 16.7284 4.23873 18.3484L4.98644 17.0711C3.05484 15.7314 1.74633 13.5817 1.52825 11.1205ZM17.8846 11.1205C17.6665 13.5817 16.358 15.7314 14.4575 17.0711L15.2053 18.3484C17.5419 16.7284 19.1308 14.1114 19.38 11.1205H17.8846ZM15.2053 2.39712L14.4575 3.64331C16.358 4.98298 17.6665 7.13267 17.8846 9.59391H19.38C19.1308 6.60303 17.5419 3.98602 15.2053 2.39712ZM4.23873 2.39712C1.87095 3.98602 0.282049 6.60303 0.0639648 9.59391H1.52825C1.74633 7.13267 3.05484 4.98298 4.95529 3.64331L4.23873 2.39712ZM9.722 0.683594C8.22656 0.683594 6.82459 1.0263 5.54723 1.61824L6.29495 2.89559C7.35422 2.39712 8.50695 2.14788 9.722 2.14788C10.937 2.14788 12.1209 2.42827 13.149 2.89559L13.8968 1.61824C12.6194 1.0263 11.1863 0.683594 9.722 0.683594ZM13.149 17.8188C12.0898 18.3173 10.937 18.5665 9.722 18.5665C8.50695 18.5665 7.32307 18.2861 6.29495 17.8188L5.54723 19.0962C6.82459 19.7193 8.22656 20.0308 9.722 20.0308C11.2174 20.0308 12.6194 19.6881 13.8968 19.0962L13.149 17.8188ZM3.05484 9.59391H4.51912C4.86183 7.3196 6.66881 5.51261 8.94312 5.20106V3.73678C5.85878 4.04833 3.39754 6.50957 3.05484 9.59391ZM14.8937 11.1205C14.551 13.3948 12.744 15.2018 10.4697 15.5445V17.0088C13.5541 16.6661 16.0153 14.2048 16.358 11.1205H14.8937ZM10.4697 3.70562V5.20106C12.744 5.54376 14.551 7.35075 14.8937 9.62506H16.358C16.0153 6.50957 13.5541 4.04833 10.4697 3.70562ZM4.51912 11.1205H3.05484C3.39754 14.2048 5.85878 16.6661 8.94312 17.0088V15.5445C6.66881 15.2018 4.86183 13.3948 4.51912 11.1205ZM11.8405 11.1205C11.529 11.9928 10.6878 12.6159 9.722 12.6159C8.75619 12.6159 7.91501 11.9928 7.60346 11.1205H6.07687C6.41957 12.8029 7.91501 14.0802 9.722 14.0802C11.529 14.0802 13.0244 12.8029 13.3671 11.1205H11.8405ZM9.722 6.63419C7.94616 6.63419 6.41957 7.91154 6.07687 9.59391H7.60346C7.91501 8.72157 8.75619 8.09847 9.722 8.09847C10.6878 8.09847 11.529 8.72157 11.8405 9.59391H13.3671C12.9933 7.91154 11.4978 6.63419 9.722 6.63419Z" fill="white"/>
<path d="M106.958 7.90883C106.958 6.83675 106.612 5.95488 106.024 5.31509C105.367 4.60614 104.347 4.20843 102.911 4.20843H98.3638V16.4682H99.9027V11.713H102.929C104.277 11.713 105.28 11.3498 105.937 10.6928C106.595 10.0357 106.958 9.10195 106.958 7.90883ZM105.367 7.90883C105.367 9.55153 104.537 10.3124 102.894 10.3124H99.9027V5.60905H102.877C104.399 5.60905 105.367 6.35259 105.367 7.90883Z" fill="white"/>
<path d="M115.274 11.6957C115.291 10.5199 114.876 9.3959 114.167 8.61778C113.528 7.92612 112.629 7.49383 111.505 7.49383C109.983 7.49383 108.824 8.27195 108.202 9.32674C107.718 10.1394 107.527 11.0732 107.527 12.128C107.527 13.373 107.891 14.5315 108.617 15.3788C109.291 16.1742 110.294 16.6929 111.522 16.6929C112.352 16.6929 113.13 16.4509 113.752 16.0359C114.461 15.5517 114.98 14.739 115.101 13.8744H113.666C113.545 14.3413 113.389 14.5834 113.147 14.8255C112.784 15.2059 112.214 15.3961 111.522 15.3961C110.847 15.3961 110.311 15.1713 109.914 14.7736C109.378 14.2375 109.066 13.373 109.066 12.5776H115.257L115.274 11.6957ZM113.77 11.3153H109.101C109.136 10.0357 109.914 8.73882 111.505 8.73882C112.283 8.73882 112.871 9.05007 113.234 9.53424C113.58 10.0011 113.77 10.6582 113.77 11.3153Z" fill="white"/>
<path d="M121.599 9.15382V7.71862C121.374 7.68404 121.132 7.66675 120.907 7.66675C119.801 7.66675 118.746 8.18549 118.296 9.25757L118.175 7.71862H116.878V16.4682H118.331V12.5776C118.331 11.6611 118.417 10.4507 119.126 9.77632C119.524 9.3959 120.095 9.08465 120.786 9.08465C121.046 9.08465 121.34 9.10195 121.599 9.15382Z" fill="white"/>
<path d="M130.397 12.0934C130.397 10.6409 129.965 9.30945 129.135 8.46216C128.564 7.87425 127.734 7.51112 126.662 7.51112C125.676 7.51112 124.552 7.99529 124.051 8.87716L123.947 7.73591H122.65V20.2204H124.12V15.4652C124.587 16.2607 125.711 16.7102 126.662 16.7102C127.682 16.7102 128.495 16.3644 129.065 15.8284C129.947 14.9811 130.397 13.5978 130.397 12.0934ZM128.892 12.1107C128.892 13.7188 128.374 15.4652 126.42 15.4652C125.78 15.4652 125.348 15.2059 125.002 14.8946C124.276 14.2548 124.034 13.2 124.034 12.1107C124.034 11.0213 124.276 9.96653 125.002 9.32674C125.348 9.01549 125.78 8.75612 126.42 8.75612C128.374 8.75612 128.892 10.5026 128.892 12.1107Z" fill="white"/>
<path d="M139.124 11.6957C139.142 10.5199 138.727 9.3959 138.018 8.61778C137.378 7.92612 136.479 7.49383 135.355 7.49383C133.833 7.49383 132.675 8.27195 132.052 9.32674C131.568 10.1394 131.378 11.0732 131.378 12.128C131.378 13.373 131.741 14.5315 132.467 15.3788C133.141 16.1742 134.144 16.6929 135.372 16.6929C136.202 16.6929 136.98 16.4509 137.603 16.0359C138.312 15.5517 138.83 14.739 138.951 13.8744H137.516C137.395 14.3413 137.24 14.5834 136.997 14.8255C136.634 15.2059 136.064 15.3961 135.372 15.3961C134.698 15.3961 134.162 15.1713 133.764 14.7736C133.228 14.2375 132.917 13.373 132.917 12.5776H139.107L139.124 11.6957ZM137.62 11.3153H132.951C132.986 10.0357 133.764 8.73882 135.355 8.73882C136.133 8.73882 136.721 9.05007 137.084 9.53424C137.43 10.0011 137.62 10.6582 137.62 11.3153Z" fill="white"/>
<path d="M145.259 16.3471V15.0848C145.259 15.0848 144.377 15.2405 143.755 15.2405C142.942 15.2405 142.579 14.8946 142.579 14.0473V8.98091H145.173V7.71862H142.579V5.14218L141.109 5.48801V7.71862H139.414V8.98091H141.109V14.2203C141.109 15.3961 141.628 16.5892 143.513 16.5892C144.325 16.5892 144.861 16.4509 145.259 16.3471Z" fill="white"/>
<path d="M153.365 16.4682V7.71862H151.895V12.2663C151.895 13.1655 151.722 14.1165 151.169 14.6871C150.788 15.0848 150.304 15.3442 149.716 15.3442C148.333 15.3442 147.849 14.5661 147.849 13.2519V7.71862H146.379V13.4594C146.379 15.4825 147.382 16.6757 149.37 16.6757C150.391 16.6757 151.515 16.1396 151.964 15.1367L152.085 16.4682H153.365Z" fill="white"/>
<path d="M163.049 16.3817V15.2923C163.049 15.2923 162.824 15.3442 162.668 15.3442C162.374 15.3442 162.184 15.2232 162.184 14.7563V10.5199C162.184 10.0184 162.098 9.56882 161.925 9.17111C161.51 8.22008 160.541 7.49383 158.847 7.49383C157.775 7.49383 156.737 7.80508 156.149 8.42758C155.7 8.89445 155.406 9.46507 155.388 10.2605H156.824C156.824 9.82819 156.979 9.48236 157.256 9.2057C157.55 8.91174 158.051 8.68695 158.847 8.68695C159.556 8.68695 159.988 8.85986 160.282 9.13653C160.68 9.49965 160.731 10.0357 160.731 10.468V11.1078L158.069 11.2634C155.682 11.4017 154.956 12.8715 154.956 13.9955C154.956 15.3442 155.959 16.6929 157.965 16.6929C159.193 16.6929 160.282 16.1396 160.783 15.2577H160.818C160.818 16.0013 161.302 16.5892 162.08 16.5892C162.443 16.5892 162.737 16.5373 163.049 16.3817ZM160.731 12.7678C160.731 13.494 160.507 14.2203 159.988 14.7563C159.521 15.2405 158.864 15.4652 158.19 15.4652C156.945 15.4652 156.46 14.739 156.46 13.9609C156.46 12.8542 157.498 12.4392 158.38 12.3873L160.731 12.249V12.7678Z" fill="white"/>
<path d="M167.33 16.4682V15.2232C167.33 15.2232 167.209 15.2405 166.725 15.2405C166.119 15.2405 165.929 14.9292 165.929 14.3413V3.98364H164.459V14.4277C164.459 15.8111 165.013 16.5719 166.292 16.5719C167.001 16.5719 167.33 16.4682 167.33 16.4682Z" fill="white"/>
<path d="M180.307 13.0963C180.307 11.1596 178.941 9.91465 176.9 9.62069C176.226 9.51694 175.552 9.3959 174.86 9.30945C173.944 9.1884 173.027 8.68695 173.027 7.58029C173.027 7.02696 173.217 6.61196 173.529 6.24884C174.065 5.64363 174.825 5.40155 175.707 5.40155C176.658 5.40155 177.402 5.7128 177.869 6.24884C178.215 6.64654 178.439 7.18258 178.474 7.78779H180.082C180.048 6.75029 179.65 5.86842 178.906 5.15947C178.094 4.38135 176.918 3.98364 175.725 3.98364C174.445 3.98364 173.356 4.39864 172.508 5.19405C171.851 5.81655 171.436 6.69842 171.436 7.61487C171.436 9.56882 172.871 10.589 174.704 10.8657L176.641 11.1596C178.094 11.3844 178.699 12.1798 178.699 13.1309C178.699 13.788 178.457 14.2203 178.076 14.5661C177.523 15.0848 176.728 15.275 175.794 15.275C174.929 15.275 173.995 15.0502 173.442 14.5142C172.941 14.03 172.578 13.3038 172.578 12.5776H170.969C170.969 13.7361 171.505 14.7909 172.284 15.5171C173.114 16.2779 174.307 16.6929 175.794 16.6929C177.108 16.6929 178.422 16.2952 179.269 15.4652C179.875 14.8773 180.307 14.1165 180.307 13.0963Z" fill="white"/>
<path d="M192.908 7.71862H191.473L189.779 14.324L187.583 7.82237H186.32L184.09 14.324L182.412 7.71862H180.96L183.208 16.4682H184.608L186.943 9.77632L189.225 16.4682H190.643L192.908 7.71862Z" fill="white"/>
<path d="M201.634 16.3817V15.2923C201.634 15.2923 201.409 15.3442 201.253 15.3442C200.959 15.3442 200.769 15.2232 200.769 14.7563V10.5199C200.769 10.0184 200.683 9.56882 200.51 9.17111C200.095 8.22008 199.126 7.49383 197.432 7.49383C196.36 7.49383 195.322 7.80508 194.734 8.42758C194.285 8.89445 193.991 9.46507 193.974 10.2605H195.409C195.409 9.82819 195.564 9.48236 195.841 9.2057C196.135 8.91174 196.636 8.68695 197.432 8.68695C198.141 8.68695 198.573 8.85986 198.867 9.13653C199.265 9.49965 199.317 10.0357 199.317 10.468V11.1078L196.654 11.2634C194.268 11.4017 193.541 12.8715 193.541 13.9955C193.541 15.3442 194.544 16.6929 196.55 16.6929C197.778 16.6929 198.867 16.1396 199.369 15.2577H199.403C199.403 16.0013 199.887 16.5892 200.665 16.5892C201.029 16.5892 201.322 16.5373 201.634 16.3817ZM199.317 12.7678C199.317 13.494 199.092 14.2203 198.573 14.7563C198.106 15.2405 197.449 15.4652 196.775 15.4652C195.53 15.4652 195.046 14.739 195.046 13.9609C195.046 12.8542 196.083 12.4392 196.965 12.3873L199.317 12.249V12.7678Z" fill="white"/>
<path d="M210.843 12.0934C210.843 10.6409 210.411 9.30945 209.581 8.46216C209.01 7.87425 208.18 7.51112 207.108 7.51112C206.123 7.51112 204.999 7.99529 204.497 8.87716L204.393 7.73591H203.096V20.2204H204.566V15.4652C205.033 16.2607 206.157 16.7102 207.108 16.7102C208.128 16.7102 208.941 16.3644 209.512 15.8284C210.394 14.9811 210.843 13.5978 210.843 12.0934ZM209.339 12.1107C209.339 13.7188 208.82 15.4652 206.866 15.4652C206.226 15.4652 205.794 15.2059 205.448 14.8946C204.722 14.2548 204.48 13.2 204.48 12.1107C204.48 11.0213 204.722 9.96653 205.448 9.32674C205.794 9.01549 206.226 8.75612 206.866 8.75612C208.82 8.75612 209.339 10.5026 209.339 12.1107Z" fill="white"/>
<path d="M219 13.9263C219 12.6121 218.014 11.713 216.769 11.5055C215.836 11.3499 215.144 11.2807 214.66 11.2115C213.934 11.1078 213.484 10.7965 213.484 10.0703C213.484 9.58611 213.813 9.11924 214.366 8.89445C214.781 8.72153 215.04 8.72153 215.386 8.72153C215.974 8.72153 216.458 8.85986 216.821 9.1884C217.081 9.41319 217.305 9.82819 217.323 10.2778H218.792C218.792 9.56882 218.55 9.06736 218.17 8.60049C217.582 7.85695 216.545 7.49383 215.386 7.49383C214.297 7.49383 213.38 7.87425 212.81 8.46216C212.412 8.85986 212.083 9.49965 212.083 10.174C212.083 11.5055 212.913 12.3182 214.228 12.5257C214.833 12.6121 215.818 12.7332 216.199 12.785C217.098 12.9061 217.565 13.373 217.565 14.03C217.565 14.4277 217.375 14.7909 217.133 14.9811C216.683 15.3615 216.13 15.4652 215.524 15.4652C214.971 15.4652 214.349 15.3615 213.951 15.0675C213.536 14.7563 213.259 14.3067 213.242 13.7015H211.772C211.772 14.445 212.083 15.1886 212.619 15.7073C213.363 16.4336 214.366 16.6929 215.455 16.6929C216.596 16.6929 217.634 16.399 218.308 15.7073C218.723 15.275 219 14.6871 219 13.9263Z" fill="white"/>
</svg>
