<svg version="1.2" xmlns="http://www.w3.org/2000/svg" viewBox="0 0 20 21" width="358" height="358">
	<title>logo_MYC_small-svg</title>
	<style>
		.s0 { fill: #ffffff } 
	</style>
	<path id="Layer" class="s0" d="m4.9 17.1l-0.7 1.2c-2.3-1.6-3.9-4.2-4.1-7.2h1.4c0.2 2.5 1.5 4.6 3.4 6zm14.3-6c-0.3 3-1.9 5.6-4.2 7.2l-0.7-1.2c1.9-1.4 3.2-3.5 3.4-6zm0-1.5h-1.5c-0.2-2.5-1.5-4.6-3.4-5.9l0.8-1.3c2.3 1.6 3.8 4.2 4.1 7.2zm-14.3-5.9c-1.9 1.3-3.2 3.4-3.4 5.9h-1.4c0.2-3 1.8-5.6 4.1-7.2zm8.8-2l-0.7 1.3c-1-0.5-2.2-0.8-3.4-0.8q-1.8 0-3.4 0.8l-0.7-1.3c1.3-0.6 2.6-1 4.1-1 1.5 0 2.9 0.4 4.1 1zm0 17.4c-1.2 0.6-2.6 1-4.1 1q-2.2 0-4.1-1l0.7-1.2c1.1 0.4 2.2 0.7 3.4 0.7q1.8 0 3.4-0.7zm-4.9-15.4v1.5c-2.2 0.3-4 2.1-4.4 4.4h-1.4c0.3-3.1 2.8-5.6 5.8-5.9zm7.3 7.4c-0.3 3.1-2.7 5.5-5.8 5.9v-1.5c2.3-0.3 4.1-2.1 4.4-4.4zm0-1.5h-1.5c-0.3-2.3-2.1-4.1-4.3-4.4v-1.5c3 0.3 5.5 2.8 5.8 5.9zm-7.3 5.9v1.5c-3.1-0.4-5.5-2.8-5.9-5.9h1.5c0.3 2.3 2.1 4.1 4.4 4.4zm4.3-4.4c-0.3 1.7-1.8 3-3.6 3-1.7 0-3.2-1.3-3.6-3h1.5c0.4 0.9 1.2 1.5 2.1 1.5 1 0 1.8-0.6 2.1-1.5zm0-1.5h-1.5c-0.3-0.9-1.1-1.5-2.1-1.5-0.9 0-1.8 0.6-2.1 1.5h-1.5c0.4-1.7 1.9-3 3.6-3 1.8 0 3.3 1.3 3.6 3z"/>
</svg>