<svg width="194" height="18" viewBox="0 0 194 18" fill="none" xmlns="http://www.w3.org/2000/svg">
<path d="M97.4489 9.24674C96.8449 9.85052 95.9232 10.1844 94.6837 10.1844H91.9023V14.5529H90.4883V3.29004H94.6675C95.9862 3.29004 96.9241 3.65536 97.5281 4.30683C98.0682 4.89439 98.3859 5.70515 98.3859 6.68951C98.3859 7.78547 98.0519 8.64392 97.4479 9.24674H97.4489ZM94.636 4.57581H91.9023V8.89669H94.6513C96.1608 8.89669 96.9241 8.19752 96.9241 6.68855C96.9241 5.25876 96.0339 4.57581 94.636 4.57581V4.57581Z" fill="white"/>
<path d="M106.014 10.9788H100.325C100.325 11.7095 100.611 12.504 101.104 12.9962C101.469 13.3615 101.962 13.5685 102.582 13.5685C103.202 13.5685 103.742 13.3939 104.076 13.0439C104.298 12.8216 104.441 12.5994 104.553 12.1702H105.872C105.76 12.9647 105.284 13.7116 104.632 14.156C104.06 14.5376 103.345 14.7598 102.582 14.7598C101.453 14.7598 100.532 14.2829 99.912 13.5523C99.2441 12.7739 98.9111 11.7095 98.9111 10.5658C98.9111 9.59671 99.0857 8.73921 99.5313 7.99236C100.104 7.02326 101.169 6.30884 102.567 6.30884C103.6 6.30884 104.426 6.70563 105.014 7.34184C105.666 8.05722 106.047 9.08927 106.031 10.17L106.015 10.9798L106.014 10.9788ZM104.154 8.18312C103.82 7.73864 103.28 7.45249 102.566 7.45249C101.104 7.45249 100.388 8.64383 100.357 9.81991H104.648C104.648 9.21613 104.473 8.61235 104.155 8.18408L104.154 8.18312Z" fill="white"/>
<path d="M111.1 7.77022C110.464 7.77022 109.94 8.05637 109.574 8.40548C108.922 9.02547 108.843 10.1367 108.843 10.9789V14.5529H107.508V6.51498H108.7L108.812 7.92856C109.225 6.94325 110.194 6.46729 111.211 6.46729C111.418 6.46729 111.641 6.4835 111.847 6.51498V7.83318C111.608 7.78548 111.338 7.76927 111.1 7.76927V7.77022Z" fill="white"/>
<path d="M118.791 13.9654C118.266 14.4576 117.52 14.7752 116.582 14.7752C115.708 14.7752 114.675 14.3622 114.246 13.6315V18.0001H112.895V6.53023H114.087L114.182 7.57849C114.643 6.76868 115.676 6.32324 116.582 6.32324C117.568 6.32324 118.33 6.65709 118.855 7.19696C119.617 7.97529 120.015 9.1981 120.015 10.5335C120.015 11.8688 119.602 13.1861 118.792 13.9644L118.791 13.9654ZM116.36 7.46785C115.772 7.46785 115.374 7.7063 115.056 7.99245C114.388 8.58002 114.166 9.54912 114.166 10.5497C114.166 11.5503 114.388 12.5194 115.056 13.1069C115.374 13.3931 115.772 13.6315 116.36 13.6315C118.155 13.6315 118.632 12.0272 118.632 10.5497C118.632 9.0722 118.155 7.46785 116.36 7.46785Z" fill="white"/>
<path d="M128.024 10.9788H122.335C122.335 11.7095 122.622 12.504 123.114 12.9962C123.479 13.3615 123.972 13.5685 124.592 13.5685C125.212 13.5685 125.752 13.3939 126.086 13.0439C126.309 12.8216 126.452 12.5994 126.563 12.1702H127.882C127.77 12.9647 127.294 13.7116 126.643 14.156C126.07 14.5376 125.355 14.7598 124.592 14.7598C123.463 14.7598 122.543 14.2829 121.922 13.5523C121.254 12.7739 120.921 11.7095 120.921 10.5658C120.921 9.59671 121.096 8.73921 121.542 7.99236C122.114 7.02326 123.179 6.30884 124.577 6.30884C125.61 6.30884 126.436 6.70563 127.024 7.34184C127.676 8.05722 128.058 9.08927 128.041 10.17L128.025 10.9798L128.024 10.9788ZM126.165 8.18312C125.831 7.73864 125.29 7.45249 124.576 7.45249C123.114 7.45249 122.398 8.64383 122.367 9.81991H126.658C126.658 9.21613 126.483 8.61235 126.165 8.18408L126.165 8.18312Z" fill="white"/>
<path d="M132.315 14.6644C130.583 14.6644 130.106 13.5685 130.106 12.4878V7.67474H128.549V6.51488H130.106V4.46509L131.457 4.14746V6.51488H133.841V7.67474H131.457V12.3295C131.457 13.1078 131.791 13.4254 132.538 13.4254C133.111 13.4254 133.921 13.2823 133.921 13.2823V14.4422C133.555 14.5376 133.063 14.6644 132.316 14.6644H132.315Z" fill="white"/>
<path d="M140.276 14.553L140.165 13.3302C139.752 14.2516 138.718 14.7438 137.781 14.7438C135.954 14.7438 135.032 13.6478 135.032 11.7888V6.51501H136.383V11.599C136.383 12.8065 136.828 13.5209 138.1 13.5209C138.64 13.5209 139.086 13.2825 139.435 12.9172C139.943 12.3925 140.103 11.5188 140.103 10.6928V6.51501H141.454V14.553H140.278H140.276Z" fill="white"/>
<path d="M149.461 14.6645C148.746 14.6645 148.301 14.1246 148.301 13.4416H148.27C147.809 14.2515 146.808 14.7598 145.679 14.7598C143.836 14.7598 142.914 13.5208 142.914 12.2818C142.914 11.2488 143.582 9.8991 145.775 9.77129L148.222 9.62821V9.04065C148.222 8.64385 148.174 8.15072 147.809 7.81783C147.539 7.56411 147.141 7.40482 146.49 7.40482C145.759 7.40482 145.299 7.6118 145.028 7.88174C144.774 8.13546 144.632 8.45404 144.632 8.85083H143.313C143.329 8.12019 143.599 7.59559 144.012 7.16731C144.552 6.59501 145.507 6.30981 146.491 6.30981C148.048 6.30981 148.939 6.9775 149.32 7.85121C149.48 8.21653 149.559 8.62954 149.559 9.09025V12.9819C149.559 13.4111 149.733 13.5218 150.003 13.5218C150.147 13.5218 150.353 13.4741 150.353 13.4741V14.4747C150.066 14.6177 149.796 14.6654 149.462 14.6654L149.461 14.6645ZM148.222 10.6774L146.061 10.8043C145.251 10.852 144.297 11.2335 144.297 12.2503C144.297 12.9647 144.741 13.6324 145.886 13.6324C146.506 13.6324 147.109 13.4254 147.539 12.9809C148.016 12.4888 148.222 11.8211 148.222 11.1543V10.6774Z" fill="white"/>
<path d="M153.339 14.6483C152.163 14.6483 151.655 13.9491 151.655 12.6786V3.08301H153.006V12.5985C153.006 13.1383 153.181 13.4245 153.737 13.4245C154.181 13.4245 154.293 13.4083 154.293 13.4083V14.5519C154.293 14.5519 153.992 14.6473 153.34 14.6473L153.339 14.6483Z" fill="white"/>
<path d="M165.465 9.24662C164.861 9.8504 163.939 10.1842 162.699 10.1842H159.918V14.5528H158.504V3.28992H162.683C164.002 3.28992 164.94 3.65524 165.544 4.30671C166.084 4.89427 166.402 5.70503 166.402 6.68939C166.402 7.78534 166.068 8.6438 165.464 9.24662H165.465ZM162.652 4.57569H159.918V8.89656H162.667C164.176 8.89656 164.94 8.1974 164.94 6.68843C164.94 5.25863 164.05 4.57569 162.652 4.57569V4.57569Z" fill="white"/>
<path d="M172.949 13.8223C172.362 14.3946 171.535 14.7599 170.518 14.7599C169.501 14.7599 168.675 14.3946 168.087 13.8223C167.213 12.9648 166.943 11.8049 166.943 10.5335C166.943 9.26199 167.213 8.10308 168.087 7.24463C168.675 6.67233 169.501 6.30701 170.518 6.30701C171.535 6.30701 172.362 6.67233 172.949 7.24463C173.823 8.10213 174.093 9.26199 174.093 10.5335C174.093 11.8049 173.823 12.9638 172.949 13.8223ZM171.964 8.04013C171.63 7.70628 171.154 7.46782 170.517 7.46782C169.881 7.46782 169.405 7.70628 169.071 8.04013C168.498 8.62769 168.324 9.59679 168.324 10.5344C168.324 11.472 168.498 12.4411 169.071 13.0287C169.405 13.3625 169.881 13.601 170.517 13.601C171.154 13.601 171.63 13.3625 171.964 13.0287C172.536 12.4411 172.711 11.472 172.711 10.5344C172.711 9.59679 172.536 8.62769 171.964 8.04013Z" fill="white"/>
<path d="M181.022 13.8223C180.434 14.3946 179.608 14.7599 178.591 14.7599C177.574 14.7599 176.747 14.3946 176.16 13.8223C175.286 12.9648 175.016 11.8049 175.016 10.5335C175.016 9.26199 175.286 8.10308 176.16 7.24463C176.747 6.67233 177.574 6.30701 178.591 6.30701C179.608 6.30701 180.434 6.67233 181.022 7.24463C181.896 8.10213 182.166 9.26199 182.166 10.5335C182.166 11.8049 181.896 12.9638 181.022 13.8223ZM180.036 8.04013C179.702 7.70628 179.226 7.46782 178.59 7.46782C177.953 7.46782 177.477 7.70628 177.143 8.04013C176.571 8.62769 176.396 9.59679 176.396 10.5344C176.396 11.472 176.571 12.4411 177.143 13.0287C177.477 13.3625 177.953 13.601 178.59 13.601C179.226 13.601 179.702 13.3625 180.036 13.0287C180.609 12.4411 180.784 11.472 180.784 10.5344C180.784 9.59679 180.609 8.62769 180.036 8.04013Z" fill="white"/>
<path d="M185.345 14.6483C184.169 14.6483 183.661 13.9491 183.661 12.6786V3.08301H185.012V12.5985C185.012 13.1383 185.186 13.4245 185.743 13.4245C186.187 13.4245 186.299 13.4083 186.299 13.4083V14.5519C186.299 14.5519 185.997 14.6473 185.346 14.6473L185.345 14.6483Z" fill="white"/>
<path d="M192.862 13.8538C192.242 14.489 191.289 14.759 190.24 14.759C189.191 14.759 188.317 14.5205 187.634 13.8538C187.142 13.3769 186.855 12.6939 186.855 12.011H188.207C188.223 12.5671 188.477 12.9801 188.858 13.2662C189.224 13.5362 189.796 13.6315 190.305 13.6315C190.861 13.6315 191.37 13.5362 191.783 13.187C192.005 13.0125 192.18 12.6787 192.18 12.3133C192.18 11.7096 191.75 11.2803 190.924 11.1697C190.575 11.122 189.668 11.0104 189.112 10.9312C187.904 10.7405 187.142 9.9936 187.142 8.77079C187.142 8.15079 187.444 7.56323 187.81 7.19791C188.334 6.65804 189.176 6.30798 190.178 6.30798C191.243 6.30798 192.196 6.64182 192.736 7.32477C193.085 7.754 193.309 8.2147 193.309 8.86617H191.957C191.941 8.45316 191.735 8.07163 191.497 7.8656C191.163 7.56419 190.718 7.43637 190.178 7.43637C189.86 7.43637 189.622 7.43637 189.24 7.59566C188.731 7.80264 188.43 8.23092 188.43 8.67636C188.43 9.34404 188.843 9.62924 189.511 9.72462C189.956 9.78853 190.592 9.85148 191.45 9.99456C192.594 10.1853 193.5 11.0113 193.5 12.2189C193.5 12.9181 193.246 13.4579 192.865 13.8547L192.862 13.8538Z" fill="white"/>
<path d="M32.5783 14.5524V5.09105L29.1127 14.4046H28.026L24.5604 5.03192V14.582H23.2388V3.34662H25.2359L28.584 12.4827L31.9616 3.34662H33.9293V14.5524H32.5783ZM42.5934 6.56939H41.1836L38.9515 12.8671L36.602 6.56939H35.1041L38.276 14.582L37.7767 15.9125C37.5418 16.5038 37.16 16.7108 36.5726 16.7108C36.0439 16.7108 35.6328 16.5925 35.6328 16.5925V17.7752C35.7502 17.8047 36.1908 17.923 36.8369 17.923C38.0411 17.923 38.5991 17.243 38.9809 16.2081L42.5934 6.56939ZM48.761 13.9019C49.2896 13.3697 49.6127 12.7193 49.7008 11.8914H48.3498C48.2911 12.4236 48.0855 12.7784 47.8212 13.0741C47.4981 13.3993 47.0282 13.6063 46.4702 13.6063C45.8534 13.6063 45.4422 13.3993 45.0898 13.0741C44.473 12.5419 44.2968 11.5366 44.2968 10.5609C44.2968 9.58519 44.473 8.57992 45.0898 8.04772C45.4422 7.75205 45.8534 7.51552 46.4702 7.51552C46.9988 7.51552 47.4394 7.69292 47.7624 8.01815C48.0561 8.31382 48.2617 8.72775 48.3204 9.25995H49.6714C49.6127 8.40252 49.2603 7.72249 48.7316 7.19029C48.1736 6.65809 47.41 6.33285 46.4702 6.33285C45.031 6.33285 44.15 6.98332 43.5919 7.84075C43.1808 8.46165 42.9458 9.34865 42.9458 10.5313C42.9458 11.7436 43.1808 12.601 43.5919 13.2219C44.15 14.0498 45.0604 14.7298 46.4995 14.7298C47.4394 14.7594 48.203 14.4637 48.761 13.9019ZM57.5719 10.2061C57.6012 9.14169 57.2194 8.10685 56.5733 7.39725C55.9859 6.77635 55.1636 6.36242 54.165 6.36242C52.7846 6.36242 51.7273 7.07202 51.1693 8.04772C50.7288 8.78689 50.5525 9.64432 50.5525 10.62C50.5525 11.7731 50.8756 12.808 51.5511 13.6063C52.1679 14.3454 53.0783 14.8185 54.1944 14.8185C54.958 14.8185 55.6629 14.6115 56.2209 14.2272C56.867 13.7837 57.3369 13.0445 57.4544 12.2462H56.1621C56.0447 12.6601 55.8978 12.8967 55.6922 13.1036C55.3692 13.4584 54.8405 13.6358 54.2237 13.6358C53.607 13.6358 53.1371 13.4289 52.7553 13.0741C52.256 12.5714 51.9916 11.8027 51.9916 11.0635H57.6012L57.5719 10.2061ZM55.7216 8.22512C56.0447 8.63905 56.2209 9.25995 56.2209 9.85129H51.9916C52.021 8.66862 52.7259 7.48595 54.165 7.48595C54.8699 7.48595 55.3985 7.78162 55.7216 8.22512ZM60.8025 14.6411C61.4487 14.6411 61.7424 14.5524 61.7424 14.5524V13.3993C61.7424 13.3993 61.6249 13.4289 61.1843 13.4289C60.6263 13.4289 60.4501 13.1332 60.4501 12.601V3.13965H59.1285V12.6897C59.1578 13.9611 59.6571 14.6411 60.8025 14.6411ZM63.0346 4.73625H64.5912V3.13965H63.0346V4.73625ZM63.1521 14.5524H64.5325V6.56939H63.1521V14.5524ZM72.6972 14.5524V6.56939H71.3756V10.7383C71.3756 11.5662 71.2288 12.4236 70.7295 12.9558C70.377 13.3106 69.9365 13.5471 69.4078 13.5471C68.1449 13.5471 67.7044 12.8375 67.7044 11.6253V6.56939H66.3828V11.8323C66.3828 13.695 67.2932 14.7889 69.1141 14.7889C70.054 14.7889 71.0525 14.2863 71.4637 13.3697L71.5812 14.582H72.6972V14.5524ZM85.9136 14.5524V9.28952C85.9136 7.51552 85.0619 6.33285 83.2703 6.33285C82.2717 6.33285 81.2438 6.86505 80.8326 7.84075C80.4802 6.86505 79.6285 6.33285 78.4537 6.33285C77.5726 6.33285 76.6328 6.77635 76.2216 7.66335L76.1041 6.51025H74.9293V14.5228H76.251V10.2948C76.251 9.64432 76.3978 8.78689 76.7796 8.28425C77.1027 7.87032 77.5726 7.57465 78.1306 7.57465C79.3935 7.57465 79.746 8.34339 79.746 9.46692V14.5524H81.0676V10.2948C81.0676 9.46692 81.2144 8.63905 81.7431 8.10685C82.0662 7.78162 82.448 7.57465 82.9472 7.57465C84.2101 7.57465 84.5626 8.34339 84.5626 9.46692V14.5524H85.9136Z" fill="white"/>
<path d="M1.34773 9.60283H0C0.200725 12.3547 1.69183 14.7626 3.84246 16.2532L4.53066 15.0779C2.7528 13.8453 1.54845 11.8674 1.34773 9.60283ZM16.4021 9.60283C16.2014 11.8674 14.9971 13.8453 13.2479 15.0779L13.9361 16.2532C16.0867 14.7626 17.5491 12.3547 17.7785 9.60283H16.4021ZM13.9361 1.57658L13.2479 2.72319C14.9971 3.95579 16.2014 5.93369 16.4021 8.19824H17.7785C17.5491 5.44638 16.0867 3.03851 13.9361 1.57658ZM3.84246 1.57658C1.66315 3.03851 0.200725 5.44638 0 8.19824H1.34773C1.54845 5.93369 2.75281 3.95579 4.50198 2.72319L3.84246 1.57658ZM8.88927 0C7.51286 0 6.22249 0.315317 5.04681 0.859955L5.73501 2.03523C6.70996 1.57658 7.77094 1.34726 8.88927 1.34726C10.0076 1.34726 11.0972 1.60525 12.0435 2.03523L12.7317 0.859955C11.556 0.315317 10.237 0 8.88927 0ZM12.0435 15.7658C11.0686 16.2245 10.0076 16.4538 8.88927 16.4538C7.77094 16.4538 6.68129 16.1958 5.73501 15.7658L5.04681 16.9411C6.22249 17.5144 7.51286 17.8011 8.88927 17.8011C10.2657 17.8011 11.556 17.4858 12.7317 16.9411L12.0435 15.7658ZM2.7528 8.19824H4.10053C4.41596 6.10568 6.07911 4.4431 8.17239 4.15645V2.80919C5.33356 3.09584 3.06823 5.36039 2.7528 8.19824ZM13.6493 9.60283C13.3339 11.6954 11.6707 13.358 9.57747 13.6733V15.0206C12.4163 14.7052 14.6816 12.4407 14.9971 9.60283H13.6493V9.60283ZM9.57747 2.78052V4.15645C11.6707 4.47177 13.3339 6.13435 13.6493 8.2269H14.9971C14.6816 5.36039 12.4163 3.09584 9.57747 2.78052ZM4.10053 9.60283H2.7528C3.06823 12.4407 5.33356 14.7052 8.17239 15.0206V13.6733C6.07911 13.358 4.41596 11.6954 4.10053 9.60283ZM10.8392 9.60283C10.5524 10.4055 9.77819 10.9788 8.88927 10.9788C8.00034 10.9788 7.22611 10.4055 6.93936 9.60283H5.53428C5.84971 11.1508 7.22611 12.326 8.88927 12.326C10.5524 12.326 11.9288 11.1508 12.2442 9.60283H10.8392ZM8.88927 5.47505C7.25479 5.47505 5.84971 6.65032 5.53428 8.19824H6.93936C7.22611 7.39561 8.00034 6.82231 8.88927 6.82231C9.77819 6.82231 10.5524 7.39561 10.8392 8.19824H12.2442C11.9001 6.65032 10.5237 5.47505 8.88927 5.47505Z" fill="white"/>
</svg>