<svg viewBox="0 0 33 33" fill="none" xmlns="http://www.w3.org/2000/svg">
    <circle cx="16.5" cy="16.5" r="16.5" fill="#FBD5D5"/>
    <path fill-rule="evenodd" clip-rule="evenodd" d="M14.1338 9.3291C15.2885 7.3291 18.1753 7.3291 19.33 9.3291L24.5261 18.3291C25.6808 20.3291 24.2374 22.8291 21.928 22.8291H11.5357C9.22633 22.8291 7.78295 20.3291 8.93765 18.3291L14.1338 9.3291ZM17.5979 10.3291C17.213 9.66244 16.2508 9.66243 15.8659 10.3291L10.6697 19.3291C10.2848 19.9958 10.7659 20.8291 11.5357 20.8291H21.928C22.6978 20.8291 23.179 19.9958 22.7941 19.3291L17.5979 10.3291Z" fill="#EC5050"/>
    <path d="M15.7324 12.8291C15.7324 12.2768 16.1801 11.8291 16.7324 11.8291C17.2847 11.8291 17.7324 12.2768 17.7324 12.8291V15.8291C17.7324 16.3814 17.2847 16.8291 16.7324 16.8291C16.1801 16.8291 15.7324 16.3814 15.7324 15.8291V12.8291Z" fill="#EC5050"/>
    <path d="M15.7324 18.8291C15.7324 18.2768 16.1801 17.8291 16.7324 17.8291C17.2847 17.8291 17.7324 18.2768 17.7324 18.8291C17.7324 19.3814 17.2847 19.8291 16.7324 19.8291C16.1801 19.8291 15.7324 19.3814 15.7324 18.8291Z" fill="#EC5050"/>
</svg>
