<svg viewBox="0 0 33 33" fill="none" xmlns="http://www.w3.org/2000/svg">
    <circle cx="16.5" cy="16.5" r="16.5" fill="#BCF0DA"/>
    <path fill-rule="evenodd" clip-rule="evenodd" d="M23.7064 11.293C23.8939 11.4806 23.9992 11.7349 23.9992 12C23.9992 12.2652 23.8939 12.5195 23.7064 12.707L15.7064 20.707C15.5189 20.8945 15.2646 20.9998 14.9994 20.9998C14.7343 20.9998 14.48 20.8945 14.2924 20.707L10.2924 16.707C10.1103 16.5184 10.0095 16.2658 10.0118 16.0036C10.014 15.7414 10.1192 15.4906 10.3046 15.3052C10.49 15.1198 10.7408 15.0146 11.003 15.0124C11.2652 15.0101 11.5178 15.1109 11.7064 15.293L14.9994 18.586L22.2924 11.293C22.48 11.1056 22.7343 11.0002 22.9994 11.0002C23.2646 11.0002 23.5189 11.1056 23.7064 11.293Z" fill="#0E9F6E"/>
</svg>
