<svg viewBox="0 0 33 33" fill="none" xmlns="http://www.w3.org/2000/svg">
    <circle cx="16.5" cy="16.5" r="16.5" fill="#FDF6B2"/>
    <path fill-rule="evenodd" clip-rule="evenodd" d="M11.2928 10.293C11.4803 10.1055 11.7346 10.0002 11.9998 10.0002C12.265 10.0002 12.5193 10.1055 12.7068 10.293L16.9998 14.586L21.2928 10.293C21.385 10.1974 21.4954 10.1213 21.6174 10.0689C21.7394 10.0164 21.8706 9.98886 22.0034 9.98771C22.1362 9.98655 22.2678 10.0119 22.3907 10.0621C22.5136 10.1124 22.6253 10.1867 22.7192 10.2806C22.8131 10.3745 22.8873 10.4861 22.9376 10.609C22.9879 10.7319 23.0132 10.8636 23.012 10.9964C23.0109 11.1291 22.9833 11.2604 22.9309 11.3824C22.8785 11.5044 22.8023 11.6147 22.7068 11.707L18.4138 16L22.7068 20.293C22.8889 20.4816 22.9897 20.7342 22.9875 20.9964C22.9852 21.2586 22.88 21.5094 22.6946 21.6948C22.5092 21.8802 22.2584 21.9854 21.9962 21.9876C21.734 21.9899 21.4814 21.8891 21.2928 21.707L16.9998 17.414L12.7068 21.707C12.5182 21.8891 12.2656 21.9899 12.0034 21.9876C11.7412 21.9854 11.4904 21.8802 11.305 21.6948C11.1196 21.5094 11.0144 21.2586 11.0121 20.9964C11.0098 20.7342 11.1106 20.4816 11.2928 20.293L15.5858 16L11.2928 11.707C11.1053 11.5194 11 11.2651 11 11C11 10.7348 11.1053 10.4805 11.2928 10.293Z" fill="#E3A008"/>
</svg>
