<svg width="51" height="51" viewBox="0 0 51 51" fill="none" xmlns="http://www.w3.org/2000/svg">
<path d="M25.5 0.389038C11.6914 0.389038 0.5 11.5804 0.5 25.389C0.5 39.1976 11.6914 50.389 25.5 50.389C39.3086 50.389 50.5 39.1976 50.5 25.389C50.5 11.5804 39.3086 0.389038 25.5 0.389038ZM25.5 39.4515C23.7422 39.4515 22.375 38.0844 22.375 36.3265C22.375 34.5687 23.6543 33.2015 25.5 33.2015C27.1699 33.2015 28.625 34.5687 28.625 36.3265C28.625 38.0844 27.1699 39.4515 25.5 39.4515ZM32.248 25.5844L27.8438 28.3187V28.514C27.8438 29.7836 26.7695 30.8578 25.5 30.8578C24.2305 30.8578 23.1562 29.7836 23.1562 28.514V26.9515C23.1562 26.1703 23.5469 25.389 24.3281 24.9008L29.8945 21.5804C30.5781 21.1898 30.9688 20.5062 30.9688 19.725C30.9688 18.5531 29.9043 17.5765 28.7324 17.5765H23.7422C22.4824 17.5765 21.5938 18.5531 21.5938 19.725C21.5938 20.9945 20.5195 22.0687 19.25 22.0687C17.9805 22.0687 16.9062 20.9945 16.9062 19.725C16.9062 15.9164 19.9336 12.889 23.6543 12.889H28.6445C32.6289 12.889 35.6562 15.9164 35.6562 19.725C35.6562 22.0687 34.3867 24.3148 32.248 25.5844Z" fill="#374151"/>
</svg>
