<svg width="51" height="51" viewBox="0 0 51 51" fill="none" xmlns="http://www.w3.org/2000/svg">
<path d="M25.5 0.38916C11.6914 0.38916 0.5 11.5806 0.5 25.3892C0.5 39.1978 11.6914 50.3892 25.5 50.3892C39.3086 50.3892 50.5 39.1978 50.5 25.3892C50.5 11.5806 39.3086 0.38916 25.5 0.38916ZM25.5 39.4517C23.7422 39.4517 22.375 38.0845 22.375 36.3267C22.375 34.5688 23.6543 33.2017 25.5 33.2017C27.1699 33.2017 28.625 34.5688 28.625 36.3267C28.625 38.0845 27.1699 39.4517 25.5 39.4517ZM32.248 25.5845L27.8438 28.3188V28.5142C27.8438 29.7837 26.7695 30.8579 25.5 30.8579C24.2305 30.8579 23.1562 29.7837 23.1562 28.5142V26.9517C23.1562 26.1704 23.5469 25.3892 24.3281 24.9009L29.8945 21.5806C30.5781 21.1899 30.9688 20.5063 30.9688 19.7251C30.9688 18.5532 29.9043 17.5767 28.7324 17.5767H23.7422C22.4824 17.5767 21.5938 18.5532 21.5938 19.7251C21.5938 20.9946 20.5195 22.0688 19.25 22.0688C17.9805 22.0688 16.9062 20.9946 16.9062 19.7251C16.9062 15.9165 19.9336 12.8892 23.6543 12.8892H28.6445C32.6289 12.8892 35.6562 15.9165 35.6562 19.7251C35.6562 22.0688 34.3867 24.3149 32.248 25.5845Z" />
</svg>
