<?xml version="1.0" standalone="no"?>
<!DOCTYPE svg PUBLIC "-//W3C//DTD SVG 20010904//EN"
 "http://www.w3.org/TR/2001/REC-SVG-20010904/DTD/svg10.dtd">
<svg version="1.0" xmlns="http://www.w3.org/2000/svg"
 width="700.000000pt" height="700.000000pt" viewBox="0 0 700.000000 700.000000"
 preserveAspectRatio="xMidYMid meet">
<metadata>
Created by potrace 1.14, written by Peter Selinger 2001-2017
</metadata>
<g transform="translate(0.000000,700.000000) scale(0.100000,-0.100000)"
fill="#000000" stroke="none">
<path d="M3150 6997 c-3 -3 -34 -7 -70 -11 -238 -23 -539 -95 -806 -191 -109
-40 -282 -111 -293 -121 -2 -2 31 -63 74 -136 43 -73 85 -146 95 -163 84 -144
96 -162 110 -157 8 3 60 24 115 47 88 37 242 91 285 100 8 2 15 4 15 5 0 1 7
3 15 5 8 1 42 10 75 18 74 20 195 44 255 51 25 3 56 8 69 11 134 26 739 26
781 0 3 -2 32 -6 64 -10 33 -3 62 -8 65 -10 4 -2 27 -6 51 -10 135 -19 456
-117 633 -194 55 -24 57 -24 57 -13 0 5 55 103 123 218 68 115 126 217 129
226 5 12 -1 19 -20 27 -15 5 -74 30 -132 54 -233 98 -552 189 -775 221 -65 10
-108 16 -145 23 -40 7 -763 16 -770 10z"/>
<path d="M1454 6357 c-23 -18 -54 -41 -70 -52 -100 -72 -285 -237 -410 -365
-387 -398 -685 -905 -844 -1433 -23 -74 -43 -143 -45 -154 -26 -115 -55 -257
-60 -293 -4 -25 -10 -64 -14 -86 -5 -23 -9 -78 -10 -123 l-2 -81 260 0 261 0
1 23 c0 12 2 29 3 37 2 8 6 38 10 65 3 28 8 59 10 70 2 11 7 40 11 65 13 82
16 91 50 224 157 612 520 1171 1011 1562 66 52 126 99 133 103 9 6 -23 70
-110 227 -67 120 -126 224 -133 231 -8 8 -21 3 -52 -20z"/>
<path d="M5346 6169 c-71 -121 -129 -226 -130 -233 0 -7 42 -47 95 -88 53 -41
111 -88 129 -104 67 -57 248 -240 301 -304 30 -36 56 -67 59 -70 19 -17 156
-209 200 -279 187 -300 334 -662 395 -972 14 -67 35 -201 40 -254 11 -105 -19
-95 280 -95 l263 0 -3 38 c-11 117 -15 155 -25 227 -83 592 -334 1167 -723
1653 -107 134 -352 387 -477 492 -64 55 -235 185 -265 202 -6 4 -67 -90 -139
-213z"/>
<path d="M3775 5902 c-3 -3 -5 -124 -5 -269 l0 -263 23 -1 c12 0 29 -2 37 -4
8 -2 31 -6 50 -10 19 -3 76 -18 125 -32 649 -185 1162 -710 1329 -1358 15 -60
21 -87 32 -157 l7 -38 262 0 c144 0 264 2 266 5 7 6 -24 189 -49 295 -115 480
-411 960 -781 1268 -33 28 -66 56 -73 62 -33 28 -181 130 -248 171 -237 144
-533 257 -790 304 -52 9 -114 20 -137 25 -23 4 -45 5 -48 2z"/>
<path d="M3105 5889 c-22 -4 -56 -10 -76 -13 -20 -3 -42 -8 -50 -10 -8 -3 -25
-7 -39 -10 -22 -4 -91 -23 -210 -58 -70 -21 -238 -91 -335 -141 -304 -156
-549 -353 -785 -633 -221 -262 -420 -676 -487 -1014 -25 -125 -39 -226 -34
-233 4 -4 124 -6 266 -5 l259 3 22 110 c128 611 569 1134 1158 1372 104 42
353 113 396 113 10 0 21 8 24 18 2 9 4 129 4 265 l0 248 -37 -3 c-20 -1 -54
-5 -76 -9z"/>
<path d="M3407 4843 c-1 -1 -30 -4 -64 -8 -69 -7 -73 -7 -163 -28 -391 -92
-740 -374 -912 -737 -35 -75 -98 -257 -98 -285 0 -13 38 -15 273 -15 l274 0
42 85 c42 85 113 180 181 243 113 105 287 186 445 208 39 6 181 5 220 -1 206
-31 413 -156 538 -324 41 -56 106 -177 107 -198 0 -10 63 -13 281 -13 262 0
280 1 275 18 -3 9 -10 37 -16 62 -19 76 -40 131 -81 220 -199 425 -621 723
-1082 766 -59 6 -217 11 -220 7z"/>
<path d="M5 3162 c6 -68 14 -136 20 -177 3 -16 7 -41 9 -55 28 -182 104 -488
145 -585 5 -11 28 -69 51 -130 47 -124 170 -380 224 -469 20 -32 36 -62 36
-67 0 -5 5 -9 10 -9 6 0 10 -5 10 -11 0 -10 150 -237 174 -262 6 -7 33 -41 61
-77 138 -180 380 -424 565 -570 36 -28 72 -56 80 -63 37 -30 122 -88 124 -85
4 5 206 348 226 384 10 17 24 41 32 53 9 16 10 24 2 29 -84 53 -237 185 -380
327 -283 282 -486 581 -642 945 -47 108 -125 335 -135 390 -3 14 -12 52 -20
85 -21 82 -37 171 -57 317 l-12 87 -264 0 -264 -1 5 -56z"/>
<path d="M1088 3202 c-7 -36 45 -285 92 -437 73 -242 222 -531 382 -740 85
-112 253 -288 367 -385 234 -200 558 -377 854 -466 112 -34 301 -75 373 -81
l62 -5 -2 263 -1 263 -45 9 c-602 111 -1101 487 -1382 1042 -66 130 -137 346
-166 505 l-8 45 -261 2 c-239 2 -262 0 -265 -15z"/>
<path d="M2170 3205 c0 -29 63 -211 98 -285 74 -157 147 -257 276 -385 293
-289 667 -420 1086 -381 405 39 785 275 1005 625 68 109 149 304 168 408 l6
32 -275 0 -275 -1 -23 -53 c-24 -52 -88 -158 -109 -180 -7 -6 -26 -27 -43 -47
-164 -187 -439 -286 -704 -254 -256 32 -506 212 -619 445 -20 42 -40 79 -46
83 -5 4 -130 7 -277 7 -227 0 -268 -2 -268 -14z"/>
<path d="M5375 3207 c-2 -7 -13 -56 -25 -110 -46 -207 -114 -382 -220 -562
-58 -98 -62 -103 -154 -220 -276 -347 -668 -590 -1095 -679 l-106 -22 -3 -267
c-2 -211 0 -266 10 -262 7 2 33 6 58 9 400 49 842 242 1180 514 113 92 268
246 347 345 32 40 61 74 64 77 3 3 39 55 80 115 66 99 188 325 230 430 73 177
139 427 154 577 l7 66 -262 1 c-196 0 -262 -3 -265 -12z"/>
<path d="M6461 3202 c-5 -9 -11 -46 -15 -82 -7 -77 -18 -142 -51 -300 -19 -92
-91 -330 -119 -395 -8 -16 -30 -70 -51 -120 -85 -206 -253 -485 -413 -685
-107 -134 -359 -380 -485 -475 -72 -54 -104 -85 -101 -95 4 -11 248 -434 259
-448 2 -3 138 92 169 118 11 10 53 45 91 77 484 401 852 929 1065 1523 61 171
132 444 154 590 11 80 26 199 31 251 l6 56 -266 1 c-239 1 -266 -1 -274 -16z"/>
<path d="M2232 762 c-34 -49 -255 -433 -251 -436 8 -8 207 -94 274 -119 240
-88 442 -140 725 -184 95 -15 179 -18 480 -18 201 0 397 3 435 7 80 8 292 44
345 58 19 5 49 12 66 15 53 9 263 72 379 113 90 33 301 119 313 127 4 3 -247
436 -262 452 -8 9 -23 6 -61 -12 -179 -83 -461 -168 -665 -200 -19 -3 -60 -10
-90 -15 -187 -33 -607 -35 -821 -5 -204 30 -522 107 -634 155 -11 5 -64 27
-117 49 l-98 40 -18 -27z"/>
</g>
</svg>
