<svg width="20" height="19" viewBox="0 0 20 19" fill="none" xmlns="http://www.w3.org/2000/svg">
<path d="M10.0802 0C4.88267 0 0.5 4.17578 0.5 9.33533C0.5 9.5 0.504222 19 0.504222 19L10.0802 18.9916C15.2862 18.9916 19.5 14.6511 19.5 9.49578C19.5 4.34044 15.2862 0 10.0802 0ZM10 14.9298C9.17667 14.9298 8.39133 14.7482 7.69467 14.4147L4.25356 15.2676L5.22467 12.0882C4.81089 11.3198 4.57022 10.4373 4.57022 9.5C4.57022 6.50222 7.00222 4.07022 10 4.07022C12.9978 4.07022 15.4298 6.50222 15.4298 9.5C15.4298 12.4978 12.9978 14.9298 10 14.9298Z" fill="#1A55F5"/>
</svg>
