<svg width="20" height="16" viewBox="0 0 20 16" fill="none" xmlns="http://www.w3.org/2000/svg">
    <path d="M16.9399 1.75468C15.629 1.16064 14.2422 0.738695 12.8162 0.5C12.6219 0.84571 12.4456 1.20065 12.288 1.56349C10.7734 1.33932 9.23257 1.33932 7.71802 1.56349C7.5589 1.20032 7.38054 0.845349 7.18367 0.5C5.75538 0.739114 4.36658 1.1627 3.05437 1.75946C0.721251 5.04131 -0.329506 9.02157 0.0905192 12.9865C1.61387 14.1014 3.3253 14.9514 5.14861 15.4988C5.55839 14.9523 5.92058 14.3738 6.23146 13.7691C5.63926 13.5506 5.06834 13.2812 4.5255 12.9643C4.66849 12.8616 4.8084 12.754 4.94337 12.6435C6.52072 13.3798 8.24892 13.7622 9.99961 13.7622C11.7503 13.7622 13.4785 13.3798 15.0558 12.6435C15.1927 12.754 15.3326 12.8616 15.4737 12.9643C14.93 13.282 14.3581 13.5518 13.7647 13.7703C14.0755 14.3751 14.4379 14.9537 14.8481 15.5C16.6729 14.953 18.3856 14.1023 19.9093 12.9859C20.3301 9.01883 19.2772 5.0364 16.9399 1.75468ZM6.68076 10.7244C6.17285 10.6888 5.69975 10.4611 5.36353 10.0903C5.02731 9.71957 4.85493 9.23553 4.8836 8.74265C4.85198 8.24896 5.02328 7.76322 5.36005 7.39163C5.69682 7.02004 6.17166 6.79282 6.68076 6.75966C6.93341 6.77454 7.18052 6.83776 7.40785 6.94566C7.63518 7.05356 7.83824 7.20402 8.0053 7.38836C8.17237 7.5727 8.30015 7.78727 8.38126 8.01971C8.46238 8.25214 8.49524 8.49785 8.47794 8.74265C8.50987 9.23629 8.33863 9.72207 8.00176 10.0935C7.6649 10.465 7.18986 10.6919 6.68076 10.7244ZM13.3222 10.7244C12.8142 10.6888 12.3411 10.4611 12.0049 10.0903C11.6687 9.71957 11.4963 9.23553 11.525 8.74265C11.4934 8.24896 11.6647 7.76322 12.0014 7.39163C12.3382 7.02004 12.8131 6.79282 13.3222 6.75966C13.5748 6.77454 13.8219 6.83776 14.0493 6.94566C14.2766 7.05356 14.4796 7.20402 14.6467 7.38836C14.8138 7.5727 14.9415 7.78727 15.0227 8.01971C15.1038 8.25214 15.1366 8.49785 15.1193 8.74265C15.1511 9.23625 14.9798 9.72195 14.643 10.0934C14.3061 10.4648 13.8312 10.6917 13.3222 10.7244Z" fill="currentColor" />
</svg>