<svg width="25" height="18" viewBox="0 0 25 18" fill="none" xmlns="http://www.w3.org/2000/svg">
<path d="M11.3099 14.7432C11.6826 14.7432 12.0179 15.0413 12.0179 15.4512C12.0179 15.8238 11.7198 16.1592 11.3099 16.1592C10.9373 16.1592 10.6019 15.861 10.6019 15.4512C10.6019 15.0413 10.9373 14.7432 11.3099 14.7432ZM22.2653 10.4206C21.8927 10.4206 21.5573 10.1225 21.5573 9.71262C21.5573 9.33999 21.8554 9.00462 22.2653 9.00462C22.6379 9.00462 22.9733 9.30273 22.9733 9.71262C22.9733 10.0853 22.6379 10.4206 22.2653 10.4206ZM22.2653 7.55136C21.0729 7.55136 20.104 8.5202 20.104 9.71262C20.104 9.9362 20.1413 10.1598 20.2158 10.3834L13.0986 14.1842C12.6887 13.588 12.0179 13.2526 11.3099 13.2526C10.4901 13.2526 9.74489 13.737 9.37226 14.445L2.96299 11.0914C2.29225 10.7187 1.77057 9.6381 1.84509 8.59473C1.88236 8.07304 2.06867 7.66315 2.32952 7.5141C2.51583 7.40231 2.70215 7.43957 2.96299 7.55136L3.00025 7.58862C4.71436 8.48294 10.2666 11.3895 10.4902 11.5013C10.8628 11.6503 11.0491 11.7248 11.6826 11.4267L23.1596 5.46462C23.3459 5.3901 23.5323 5.24104 23.5323 4.9802C23.5323 4.64483 23.1969 4.49578 23.1969 4.49578C22.5262 4.19767 21.52 3.71325 20.5512 3.2661C18.4645 2.29725 16.0796 1.17936 15.0363 0.62041C14.1419 0.135989 13.3967 0.545884 13.2849 0.62041L13.024 0.7322C8.29162 3.11704 2.03141 6.20989 1.65878 6.43347C1.0253 6.8061 0.61541 7.58862 0.578146 8.55747C0.50362 10.0853 1.28615 11.6876 2.40404 12.2465L9.18594 15.7493C9.33499 16.7926 10.2666 17.6124 11.3099 17.6124C12.5024 17.6124 13.4339 16.6808 13.4712 15.4884L20.9238 11.464C21.2965 11.7621 21.7809 11.9112 22.2653 11.9112C23.4577 11.9112 24.4266 10.9423 24.4266 9.74989C24.4266 8.5202 23.4577 7.55136 22.2653 7.55136Z" fill="#1A55F5"/>
</svg>
