<svg viewBox="0 0 24 14" fill="none" xmlns="http://www.w3.org/2000/svg">
    <path d="M13.6651 7.00001C13.6651 10.866 10.6062 14.0001 6.83243 14.0001C3.05867 14.0001 0 10.866 0 7.00001C0 3.13403 3.05893 -0.00012207 6.83268 -0.00012207C10.6064 -0.00012207 13.6654 3.13377 13.6654 7.00001H13.6651ZM17.6815 0.503053C15.8134 0.503053 14.2991 3.41171 14.2991 7.00001C14.2991 10.5883 15.8134 13.497 17.6815 13.497C19.5496 13.497 21.0639 10.5883 21.0639 7.00001C21.0639 3.41171 19.5496 0.503053 17.6815 0.503053ZM22.8073 1.26004C22.1486 1.26004 21.6147 3.82993 21.6147 7.00001C21.6147 10.1701 22.1486 12.74 22.8073 12.74C23.4661 12.74 24 10.1701 24 7.00001C24 3.82993 23.4661 1.26004 22.8073 1.26004Z" fill="currentColor" />
</svg>