<svg width="197" height="28" viewBox="0 0 197 28" fill="none" xmlns="http://www.w3.org/2000/svg">
<path d="M51.6334 0L27.3755 14L51.6334 28V24.326L33.752 14L51.6334 3.67399V0Z" fill="white"/>
<path d="M27.4441 0H24.2559V28H27.4441V0Z" fill="white"/>
<path d="M0 0V3.67399L17.8813 14L0 24.326V28L24.2564 14L0 0Z" fill="white"/>
<path d="M112.552 8.9397V21.6928H115.671V11.851H119.483V8.9397H112.552Z" fill="white"/>
<path d="M76.3059 8.9397H69.3755V21.6928H72.4942V11.851H76.3059V8.9397Z" fill="white"/>
<path d="M65.4934 6.02979H58.563V8.93969H62.3747V21.6928H65.4934V8.93969H69.3747V6.02979H65.4934Z" fill="white"/>
<path d="M94.3241 11.3656C94.7074 11.326 95.0941 11.3963 95.4389 11.5684C95.7837 11.7404 96.0724 12.007 96.2713 12.3371C96.4895 12.6916 96.6092 13.0981 96.6178 13.5144H99.5915C99.5107 12.5225 99.1767 11.568 98.6215 10.7422C98.1003 10.1129 97.4421 9.61098 96.6974 9.27478C95.9526 8.93857 95.1409 8.77696 94.3241 8.80225C93.4935 8.79601 92.6717 8.97283 91.9172 9.32015C91.1627 9.66746 90.4939 10.1767 89.9585 10.8118C88.0867 13.5839 88.0867 17.1912 89.9585 20.0301C90.5046 20.6524 91.1755 21.1528 91.9276 21.4987C92.6797 21.8447 93.4963 22.0285 94.3241 22.0382C95.9886 22.0382 97.582 21.3451 98.6215 20.0968C99.2565 19.3131 99.5994 18.3332 99.5915 17.3246H96.612C96.6034 17.7414 96.4838 18.1483 96.2655 18.5034C95.8494 19.1268 95.0867 19.4733 94.3241 19.4733C93.9711 19.4763 93.6216 19.4038 93.299 19.2605C92.9764 19.1172 92.6882 18.9065 92.4538 18.6426C91.7724 17.7279 91.4739 16.5838 91.6215 15.4528C91.5078 14.3242 91.8031 13.1923 92.4538 12.2631C92.674 11.9778 92.9577 11.7478 93.2824 11.5913C93.6071 11.4347 93.9637 11.356 94.3241 11.3613" fill="white"/>
<path d="M103.126 14.1382C103.121 13.4414 103.339 12.7613 103.75 12.1983C104.236 11.5748 105.068 11.1587 105.829 11.2283C106.522 11.1587 107.215 11.4357 107.77 11.991C108.313 12.6014 108.607 13.3927 108.595 14.2093L103.121 14.1397L103.126 14.1382ZM105.968 8.80268C104.472 8.79369 103.031 9.36542 101.948 10.3975C100.709 11.7843 100.063 13.6004 100.147 15.4576C100.115 16.3878 100.27 17.315 100.603 18.184C100.936 19.053 101.441 19.8461 102.087 20.5162C102.614 21.0356 103.244 21.4393 103.937 21.7014C104.629 21.9635 105.368 22.0784 106.107 22.0386C106.903 22.0828 107.698 21.9434 108.431 21.6311C109.164 21.3189 109.816 20.8422 110.335 20.2378C110.875 19.5788 111.233 18.7901 111.375 17.9499H108.463C108.395 18.3636 108.173 18.7358 107.84 18.991C107.593 19.2269 107.298 19.4052 106.974 19.513C106.65 19.6208 106.307 19.6555 105.968 19.6144C105.616 19.6167 105.267 19.5437 104.944 19.4001C104.622 19.2566 104.335 19.0459 104.101 18.7822C103.79 18.4484 103.55 18.0553 103.396 17.6265C103.241 17.1977 103.174 16.7421 103.2 16.2869H111.656V15.4562C111.785 13.9174 111.394 12.38 110.547 11.0891C110.041 10.3509 109.356 9.75356 108.556 9.35353C107.755 8.95349 106.866 8.76391 105.972 8.80268" fill="white"/>
<path d="M84.2068 16.6333C84.2068 18.5051 82.8903 19.5446 81.017 19.5446C80.5771 19.5754 80.1425 19.4332 79.8059 19.1483C79.4693 18.8634 79.2572 18.4583 79.2148 18.0194V17.9498C79.2844 17.0494 80.1152 16.2868 81.017 16.3549L84.2068 16.078V16.6318V16.6333ZM87.1877 17.3988V13.8611C87.2459 12.9926 87.1305 12.1212 86.8484 11.2977C86.1481 9.4245 84.2763 8.73291 82.1276 8.73291C79.2873 8.73291 77.069 9.9798 76.9298 12.8216H79.8412C79.9108 11.6443 80.7415 11.0194 82.1276 11.0194C83.8602 11.0194 84.2763 11.8516 84.2763 13.0303V13.8611L80.6038 14.138C78.1782 14.3541 76.376 15.659 76.376 18.089C76.376 20.1681 77.9708 22.0399 80.9503 22.0399C81.6931 22.0826 82.4343 21.9327 83.1021 21.6048C83.7699 21.2768 84.3417 20.7819 84.7621 20.1681V21.9079H88.365V19.6838H87.2573L87.1877 17.3988Z" fill="white"/>
<path d="M126.44 21.6934V4.57324H128.636V21.6934H126.44Z" fill="white"/>
<path d="M139.913 21.6929V13.9418C139.913 12.1063 139.166 11.0189 137.234 11.0189C136.05 11.0189 135.108 11.7917 134.577 12.9037C134.167 13.7983 134.142 15.0785 134.142 16.0195V21.6943H132.091V9.47333H133.877L134.047 11.3089C134.674 9.90829 136.367 9.16016 137.741 9.16016C140.518 9.16016 141.967 10.8261 141.967 13.6548V21.6958L139.913 21.6929Z" fill="white"/>
<path d="M153.075 21.6924L152.93 20.0976C152.23 21.3285 150.66 22.0042 149.284 22.0042C147.786 22.0042 146.628 21.4982 145.83 20.6761C144.671 19.493 144.067 17.6313 144.067 15.6015C144.067 13.5006 144.695 11.568 145.928 10.382C146.724 9.63383 147.859 9.15102 149.284 9.15102C150.612 9.15102 152.184 9.77882 152.833 10.8909V4.25769H154.886V21.6924H153.075ZM151.602 11.6956C151.072 11.1803 150.361 10.8939 149.622 10.8981C146.893 10.8981 146.168 13.3368 146.168 15.5827C146.168 17.8285 146.893 20.2672 149.622 20.2672C150.361 20.2712 151.072 19.9854 151.602 19.4712C152.617 18.5767 152.954 17.1036 152.954 15.5827C152.954 14.0617 152.616 12.5887 151.602 11.6956Z" fill="white"/>
<path d="M158.026 6.66883V4.25769H160.417V6.66883H158.026ZM158.171 21.6881V9.47289H160.272V21.6924L158.171 21.6881Z" fill="white"/>
<path d="M171.621 20.678C170.751 21.5232 169.591 22.0061 168.095 22.0061C165.897 22.0061 164.496 20.9911 163.628 19.7124C162.975 18.7467 162.613 17.4186 162.613 15.5831C162.613 13.7476 162.975 12.4195 163.628 11.4539C164.498 10.1736 165.874 9.16016 168.07 9.16016C169.52 9.16016 170.703 9.64296 171.55 10.465C172.415 11.2885 172.934 12.4112 173 13.604H170.923C170.866 12.8862 170.558 12.2114 170.054 11.6974C169.514 11.2032 168.805 10.9349 168.073 10.9479C167.289 10.9344 166.53 11.2195 165.949 11.7453C164.983 12.5659 164.717 14.0883 164.717 15.5846C164.717 17.0808 164.983 18.6032 165.949 19.4238C166.53 19.9503 167.289 20.2355 168.073 20.2213C168.457 20.2308 168.838 20.163 169.195 20.022C169.552 19.881 169.877 19.6697 170.151 19.4006C170.62 18.9064 170.909 18.2684 170.971 17.5897H173.048C172.985 18.7639 172.475 19.8694 171.621 20.678Z" fill="white"/>
<path d="M185.021 16.2602H176.377C176.377 17.3708 176.812 18.58 177.56 19.3267C178.116 19.882 178.865 20.1966 179.806 20.1966C180.772 20.1966 181.569 19.9313 182.075 19.4006C182.443 19.0392 182.695 18.5771 182.8 18.0725H184.804C184.712 18.6773 184.497 19.2568 184.173 19.7756C183.849 20.2944 183.422 20.7416 182.919 21.0897C181.994 21.6953 180.91 22.0146 179.805 22.0075C179.034 22.0212 178.271 21.8637 177.569 21.5466C176.867 21.2294 176.244 20.7604 175.745 20.1734C174.73 18.9903 174.223 17.3723 174.223 15.6339C174.223 14.1608 174.489 12.8559 175.165 11.7192C176.035 10.2461 177.652 9.16016 179.777 9.16016C181.347 9.16016 182.603 9.7633 183.496 10.7304C184.486 11.8163 185.066 13.3865 185.042 15.0278L185.021 16.2602ZM182.197 12.0092C181.69 11.3335 180.867 10.8986 179.781 10.8986C177.56 10.8986 176.473 12.7095 176.425 14.4971H182.949C182.945 13.5794 182.684 12.6616 182.197 12.0092Z" fill="white"/>
<path d="M195.381 20.6301C194.44 21.5957 192.99 22.0061 191.397 22.0061C189.876 22.0061 188.475 21.645 187.437 20.6301C187.064 20.2646 186.768 19.8289 186.565 19.3481C186.362 18.8672 186.256 18.3509 186.254 17.829H188.305C188.31 18.2023 188.401 18.5695 188.573 18.901C188.745 19.2324 188.993 19.5188 189.296 19.737C189.851 20.1473 190.721 20.2923 191.494 20.2923C192.339 20.2923 193.112 20.1473 193.74 19.6167C193.93 19.4521 194.083 19.2482 194.187 19.0189C194.291 18.7896 194.344 18.5404 194.343 18.2886C194.343 17.3708 193.69 16.7184 192.435 16.5487C191.904 16.4762 190.528 16.308 189.68 16.1877C187.844 15.8977 186.685 14.7625 186.685 12.9023C186.705 12.0055 187.068 11.1506 187.699 10.5129C188.497 9.69081 189.776 9.16016 191.298 9.16016C192.915 9.16016 194.365 9.66761 195.185 10.7057C195.716 11.3582 196.055 12.0585 196.055 13.0473H194.002C193.977 12.468 193.726 11.9217 193.302 11.5264C192.794 11.0682 192.119 10.8739 191.298 10.8739C190.811 10.8433 190.323 10.9262 189.873 11.116C189.1 11.4307 188.64 12.0817 188.64 12.7587C188.64 13.7737 189.27 14.2086 190.283 14.3536C190.959 14.4493 191.926 14.5464 193.229 14.7639C194.969 15.0539 196.344 16.3095 196.344 18.145C196.354 18.6022 196.275 19.057 196.11 19.4834C195.944 19.9098 195.697 20.2995 195.381 20.6301Z" fill="white"/>
</svg>
