<svg width="219" height="28" viewBox="0 0 219 28" fill="none" xmlns="http://www.w3.org/2000/svg">
<path d="M51.6263 0.00012207L27.373 14.0001L51.6263 28.0001V24.3276L33.7488 14.0001L51.6263 3.67411V0.00012207Z" fill="white"/>
<path d="M27.4427 0.00012207H24.2549V28.0001H27.4427V0.00012207Z" fill="white"/>
<path d="M0 0.00012207V3.67411L17.879 14.0001L0 24.3276V28.0001L24.2547 14.0001L0 0.00012207Z" fill="white"/>
<path d="M112.538 8.94153V21.6932H115.657V11.8514H119.469V8.94153H112.538Z" fill="white"/>
<path d="M76.2952 8.94153H69.3657V21.6932H72.484V11.8514H76.2952V8.94153Z" fill="white"/>
<path d="M65.4866 6.03015H58.5557V8.9415H62.3669V21.6932H65.4866V8.9415H69.366V6.03015H65.4866Z" fill="white"/>
<path d="M94.3136 11.3671C95.0761 11.2975 95.8386 11.644 96.2533 12.3371C96.4606 12.6836 96.5997 13.0997 96.5997 13.5158H99.5788C99.5092 12.5458 99.1628 11.5759 98.609 10.7436C97.5696 9.49675 95.9764 8.73411 94.3121 8.80371C92.6493 8.80371 91.0547 9.49675 89.9471 10.8132C88.0756 13.5854 88.0756 17.1898 89.9471 20.0315C91.0561 21.2784 92.6493 22.0411 94.3121 22.0411C95.9749 22.0411 97.5696 21.348 98.609 20.1011C99.2324 19.3385 99.5788 18.3685 99.5788 17.329H96.5997C96.5997 17.7451 96.4606 18.1612 96.2533 18.5077C95.8372 19.1312 95.0747 19.4777 94.3136 19.4777C93.6206 19.4777 92.9277 19.2008 92.442 18.6455C91.7491 17.7451 91.4722 16.5663 91.6099 15.4572C91.4707 14.348 91.8172 13.1707 92.442 12.2689C92.9277 11.6455 93.6206 11.3685 94.3136 11.3685" fill="white"/>
<path d="M103.115 14.1394C103.115 13.4463 103.322 12.7533 103.738 12.1994C104.224 11.576 105.054 11.1599 105.817 11.2295C106.51 11.1599 107.203 11.4368 107.757 11.9921C108.31 12.6155 108.589 13.3782 108.589 14.2104L103.115 14.1408V14.1394ZM105.956 8.80237C104.431 8.80237 103.045 9.35622 101.938 10.3958C100.691 11.7819 100.066 13.5841 100.136 15.4544C100.066 17.3262 100.759 19.1269 102.075 20.513C103.115 21.5526 104.57 22.1064 106.094 22.0383C107.687 22.1079 109.282 21.4844 110.321 20.2361C110.875 19.5431 111.221 18.7804 111.361 17.9496H108.45C108.38 18.3658 108.173 18.7123 107.826 18.9892C107.341 19.4749 106.648 19.6822 105.955 19.6126C105.262 19.6126 104.569 19.3357 104.083 18.7804C103.46 18.0874 103.113 17.187 103.183 16.2852H111.637V15.453C111.777 13.9277 111.361 12.3343 110.528 11.0874C109.489 9.56211 107.757 8.73133 105.955 8.80092" fill="white"/>
<path d="M84.1965 16.6345C84.1965 18.5063 82.8802 19.5458 81.0086 19.5458C80.1084 19.6154 79.2762 18.9224 79.2066 18.0206V17.951C79.2762 17.0506 80.1069 16.288 81.0086 16.3576L84.1965 16.0806V16.6345ZM87.1756 17.3971V13.8623C87.2452 13.0301 87.106 12.1297 86.8291 11.2975C86.1362 9.42571 84.2646 8.73267 82.1176 8.73267C79.2762 8.73267 77.0597 9.97956 76.9205 12.8213H79.8315C79.901 11.6426 80.7317 11.0191 82.1176 11.0191C83.85 11.0191 84.2661 11.8513 84.2661 13.0286V13.8609L80.594 14.1378C78.1687 14.3451 76.3667 15.6631 76.3667 18.0887C76.3667 20.1678 77.9599 22.0396 80.9405 22.0396C82.4656 22.1092 83.9196 21.4162 84.7517 20.1678V21.9004H88.3556V19.6821H87.2466L87.177 17.3957L87.1756 17.3971Z" fill="white"/>
<path d="M128.573 6.55353V12.1312H136.54V14.1596H128.573V21.6931H126.424V4.573H137.507V6.55353H128.574H128.573Z" fill="white"/>
<path d="M148.106 21.8628C147.02 21.8628 146.343 21.0422 146.343 20.0041H146.295C145.595 21.235 144.074 22.0078 142.359 22.0078C139.559 22.0078 138.158 20.1244 138.158 18.241C138.158 16.6708 139.173 14.6192 142.504 14.4249L146.223 14.2075V13.3143C146.223 12.7112 146.15 11.9616 145.595 11.4556C145.185 11.0699 144.58 10.8278 143.592 10.8278C142.481 10.8278 141.781 11.1424 141.371 11.5527C140.984 11.9384 140.768 12.4227 140.768 13.0258H138.764C138.789 11.9152 139.199 11.1178 139.827 10.4668C140.647 9.59684 142.097 9.16333 143.593 9.16333C145.959 9.16333 147.312 10.1782 147.891 11.5063C148.133 12.0616 148.254 12.6894 148.254 13.3897V19.3052C148.254 19.9577 148.519 20.1258 148.929 20.1258C149.147 20.1258 149.46 20.0533 149.46 20.0533V21.5743C149.025 21.7918 148.615 21.8642 148.107 21.8642L148.106 21.8628ZM146.223 15.8023L142.939 15.9951C141.708 16.0676 140.259 16.6476 140.259 18.1932C140.259 19.2791 140.934 20.294 142.674 20.294C143.616 20.294 144.532 19.9794 145.185 19.3038C145.91 18.5556 146.223 17.5407 146.223 16.5273V15.8023Z" fill="white"/>
<path d="M159.574 20.6797C158.705 21.525 157.546 22.0078 156.049 22.0078C153.851 22.0078 152.451 20.9929 151.582 19.7141C150.93 18.7484 150.569 17.4204 150.569 15.5848C150.569 13.7493 150.931 12.4212 151.582 11.4556C152.452 10.1753 153.828 9.16187 156.025 9.16187C157.474 9.16187 158.657 9.64467 159.502 10.4653C160.322 11.2627 160.854 12.2762 160.95 13.6043H158.874C158.777 12.759 158.464 12.1559 158.004 11.6962C157.522 11.2381 156.821 10.9481 156.024 10.9481C155.082 10.9481 154.431 11.2859 153.899 11.7455C152.933 12.5662 152.668 14.0885 152.668 15.5848C152.668 17.0811 152.933 18.6035 153.899 19.4241C154.429 19.8822 155.082 20.2215 156.024 20.2215C156.869 20.2215 157.617 19.9069 158.1 19.4009C158.535 18.9427 158.825 18.386 158.921 17.59H160.997C160.899 18.8934 160.393 19.8837 159.571 20.6811L159.574 20.6797Z" fill="white"/>
<path d="M167.036 21.8628C164.405 21.8628 163.68 20.1969 163.68 18.5542V11.2381H161.314V9.47506H163.68V6.35927L165.733 5.87646V9.47506H169.354V11.2381H165.733V18.3135C165.733 19.4966 166.24 19.9794 167.375 19.9794C168.245 19.9794 169.476 19.7619 169.476 19.7619V21.525C168.92 21.67 168.172 21.8628 167.037 21.8628H167.036Z" fill="white"/>
<path d="M179.422 20.5826C178.529 21.4526 177.274 22.0079 175.728 22.0079C174.183 22.0079 172.928 21.4526 172.035 20.5826C170.707 19.2792 170.296 17.5161 170.296 15.5835C170.296 13.6508 170.707 11.8892 172.035 10.5843C172.928 9.71436 174.183 9.15906 175.728 9.15906C177.274 9.15906 178.529 9.71436 179.422 10.5843C180.75 11.8877 181.16 13.6508 181.16 15.5835C181.16 17.5161 180.75 19.2777 179.422 20.5826ZM177.925 11.7935C177.417 11.286 176.694 10.9236 175.727 10.9236C174.76 10.9236 174.037 11.286 173.529 11.7935C172.659 12.6866 172.394 14.1597 172.394 15.5849C172.394 17.0101 172.659 18.4832 173.529 19.3763C174.037 19.8838 174.76 20.2463 175.727 20.2463C176.694 20.2463 177.417 19.8838 177.925 19.3763C178.794 18.4832 179.06 17.0101 179.06 15.5849C179.06 14.1597 178.794 12.6866 177.925 11.7935Z" fill="white"/>
<path d="M188.958 11.3831C187.993 11.3831 187.195 11.8181 186.64 12.3487C185.65 13.2912 185.53 14.9803 185.53 16.2605V21.6932H183.501V9.47508H185.312L185.482 11.6238C186.109 10.1261 187.582 9.40259 189.128 9.40259C189.442 9.40259 189.78 9.42724 190.093 9.47508V11.4788C189.731 11.4063 189.321 11.3817 188.958 11.3817V11.3831Z" fill="white"/>
<path d="M191.421 6.67391V4.25842H193.811V6.67391H191.421ZM191.566 21.6932V9.47507H193.666V21.6932H191.566Z" fill="white"/>
<path d="M206.777 16.2605H198.134C198.134 17.3711 198.569 18.5788 199.317 19.3269C199.872 19.8822 200.621 20.1969 201.563 20.1969C202.505 20.1969 203.326 19.9315 203.833 19.3994C204.171 19.0616 204.388 18.7238 204.558 18.0714H206.561C206.392 19.2791 205.668 20.4144 204.678 21.09C203.808 21.6699 202.723 22.0078 201.563 22.0078C199.848 22.0078 198.449 21.2828 197.507 20.1722C196.492 18.9891 195.986 17.3711 195.986 15.6327C195.986 14.1596 196.251 12.8561 196.928 11.7209C197.798 10.2478 199.416 9.16187 201.54 9.16187C203.11 9.16187 204.365 9.76501 205.258 10.7321C206.248 11.8195 206.828 13.3883 206.803 15.031L206.779 16.2619L206.777 16.2605ZM203.952 12.0109C203.444 11.3352 202.624 10.9003 201.538 10.9003C199.317 10.9003 198.23 12.7112 198.182 14.4989H204.701C204.701 13.5811 204.436 12.6633 203.953 12.0123L203.952 12.0109Z" fill="white"/>
<path d="M217.136 20.6304C216.193 21.596 214.745 22.0063 213.152 22.0063C211.559 22.0063 210.231 21.6438 209.193 20.6304C208.445 19.9054 208.01 18.8673 208.01 17.8292H210.063C210.087 18.6745 210.473 19.3023 211.053 19.7372C211.608 20.1476 212.478 20.2925 213.25 20.2925C214.096 20.2925 214.868 20.1476 215.496 19.6169C215.834 19.3516 216.099 18.8441 216.099 18.2888C216.099 17.371 215.447 16.7186 214.191 16.5504C213.661 16.4779 212.283 16.3083 211.438 16.1879C209.603 15.898 208.445 14.7627 208.445 12.904C208.445 11.9616 208.904 11.0684 209.459 10.5131C210.257 9.69251 211.535 9.1604 213.058 9.1604C214.675 9.1604 216.124 9.66786 216.944 10.706C217.475 11.3584 217.814 12.0587 217.814 13.049H215.761C215.737 12.4212 215.423 11.8412 215.061 11.528C214.554 11.0699 213.878 10.8756 213.058 10.8756C212.575 10.8756 212.212 10.8756 211.633 11.1177C210.86 11.4324 210.402 12.0834 210.402 12.7604C210.402 13.7754 211.029 14.2089 212.044 14.3539C212.72 14.451 213.687 14.5467 214.99 14.7642C216.728 15.0541 218.105 16.3097 218.105 18.1453C218.105 19.208 217.718 20.0287 217.14 20.6318L217.136 20.6304Z" fill="white"/>
</svg>
