<svg width="120" height="28" viewBox="0 0 120 28" fill="none" xmlns="http://www.w3.org/2000/svg">
<path d="M51.6268 0L27.3735 14L51.6268 28V24.3275L33.7493 14L51.6268 3.67399V0Z" fill="white"/>
<path d="M27.4437 0H24.2559V28H27.4437V0Z" fill="white"/>
<path d="M0 0V3.67399L17.879 14L0 24.3275V28L24.2547 14L0 0Z" fill="white"/>
<path d="M112.536 8.93823V21.6899H115.655V11.8481H119.467V8.93823H112.536Z" fill="white"/>
<path d="M76.2957 8.93823H69.3662V21.6899H72.4845V11.8481H76.2957V8.93823Z" fill="white"/>
<path d="M65.4866 6.02698H58.5557V8.93833H62.3669V21.69H65.4866V8.93833H69.366V6.02698H65.4866Z" fill="white"/>
<path d="M94.3146 11.3643C95.0771 11.2947 95.8396 11.6412 96.2542 12.3342C96.4615 12.6808 96.6007 13.0969 96.6007 13.513H99.5798C99.5102 12.543 99.1637 11.5731 98.61 10.7408C97.5705 9.49394 95.9773 8.73131 94.3131 8.8009C92.6503 8.8009 91.0557 9.49394 89.9481 10.8104C88.0765 13.5826 88.0765 17.187 89.9481 20.0287C91.0571 21.2756 92.6503 22.0383 94.3131 22.0383C95.9759 22.0383 97.5705 21.3452 98.61 20.0983C99.2333 19.3357 99.5798 18.3657 99.5798 17.3262H96.6007C96.6007 17.7423 96.4615 18.1584 96.2542 18.5049C95.8382 19.1284 95.0756 19.4749 94.3146 19.4749C93.6216 19.4749 92.9287 19.198 92.443 18.6427C91.7501 17.7423 91.4732 16.5635 91.6109 15.4544C91.4717 14.3452 91.8182 13.1679 92.443 12.2661C92.9287 11.6427 93.6216 11.3657 94.3146 11.3657" fill="white"/>
<path d="M103.115 13.1358C103.115 12.4428 103.323 11.7497 103.739 11.1959C104.224 10.5724 105.055 10.1563 105.817 10.2259C106.51 10.1563 107.203 10.4333 107.757 10.9886C108.311 11.612 108.589 12.3746 108.589 13.2069L103.115 13.1373V13.1358ZM105.957 7.79883C104.432 7.79883 103.046 8.35268 101.938 9.39225C100.691 10.7783 100.067 12.5805 100.136 14.4509C100.067 16.3227 100.759 18.1234 102.076 19.5095C103.115 20.549 104.571 21.1029 106.094 21.0348C107.688 21.1043 109.282 20.4809 110.322 19.2326C110.875 18.5395 111.222 17.7769 111.361 16.9461H108.45C108.38 17.3622 108.173 17.7087 107.827 17.9857C107.341 18.4714 106.648 18.6787 105.955 18.6091C105.262 18.6091 104.569 18.3322 104.084 17.7769C103.46 17.0838 103.114 16.1835 103.183 15.2816H111.638V14.4494C111.777 12.9241 111.361 11.3307 110.529 10.0838C109.489 8.55857 107.757 7.72779 105.955 7.79738" fill="white"/>
<path d="M84.1965 16.6308C84.1965 18.5026 82.8802 19.5422 81.0086 19.5422C80.1084 19.6118 79.2762 18.9187 79.2066 18.0169V17.9473C79.2762 17.0469 80.1069 16.2843 81.0086 16.3539L84.1965 16.077V16.6308ZM87.1756 17.3935V13.8587C87.2452 13.0264 87.106 12.1261 86.8291 11.2938C86.1362 9.42204 84.2646 8.729 82.1176 8.729C79.2762 8.729 77.0597 9.9759 76.9205 12.8177H79.8315C79.901 11.6389 80.7317 11.0155 82.1176 11.0155C83.85 11.0155 84.2661 11.8477 84.2661 13.025V13.8572L80.594 14.1341C78.1687 14.3415 76.3667 15.6594 76.3667 18.0851C76.3667 20.1642 77.9599 22.036 80.9405 22.036C82.4656 22.1056 83.9196 21.4125 84.7517 20.1642V21.8968H88.3556V19.6785H87.2466L87.177 17.392L87.1756 17.3935Z" fill="white"/>
</svg>
