<svg width="283" height="28" viewBox="0 0 283 28" fill="none" xmlns="http://www.w3.org/2000/svg">
<path d="M51.6329 0L27.3765 14L51.6329 28V24.3275L33.753 14L51.6329 3.67399V0Z" fill="white"/>
<path d="M27.4461 0H24.2578V28H27.4461V0Z" fill="white"/>
<path d="M0 0V3.67399L17.8813 14L0 24.3275V28L24.2579 14L0 0Z" fill="white"/>
<path d="M112.552 8.94141V21.6931H115.672V11.8513H119.484V8.94141H112.552Z" fill="white"/>
<path d="M76.3054 8.94141H69.375V21.6931H72.4937V11.8513H76.3054V8.94141Z" fill="white"/>
<path d="M65.4953 6.03003H58.5635V8.94138H62.3752V21.693H65.4953V8.94138H69.3752V6.03003H65.4953Z" fill="white"/>
<path d="M94.326 11.367C95.0887 11.2974 95.8513 11.6439 96.266 12.3369C96.4733 12.6835 96.6125 13.0996 96.6125 13.5157H99.592C99.5224 12.5457 99.1759 11.5757 98.622 10.7435C97.5825 9.49663 95.9891 8.73399 94.3246 8.80358C92.6616 8.80358 91.0667 9.49663 89.959 10.8131C88.0872 13.5853 88.0872 17.1897 89.959 20.0314C91.0682 21.2783 92.6616 22.041 94.3246 22.041C95.9876 22.041 97.5825 21.3479 98.622 20.101C99.2455 19.3384 99.592 18.3684 99.592 17.3289H96.6125C96.6125 17.745 96.4733 18.1611 96.266 18.5076C95.8499 19.1311 95.0872 19.4776 94.326 19.4776C93.633 19.4776 92.94 19.2006 92.4543 18.6453C91.7612 17.745 91.4843 16.5662 91.622 15.4571C91.4828 14.3479 91.8294 13.1706 92.4543 12.2688C92.94 11.6453 93.633 11.3684 94.326 11.3684" fill="white"/>
<path d="M103.128 14.1392C103.128 13.4462 103.336 12.7532 103.752 12.1993C104.237 11.5759 105.068 11.1597 105.831 11.2293C106.524 11.1597 107.217 11.4367 107.771 11.992C108.325 12.6154 108.603 13.3781 108.603 14.2103L103.128 14.1407V14.1392ZM105.97 8.80225C104.445 8.80225 103.059 9.3561 101.951 10.3957C100.704 11.7817 100.079 13.5839 100.149 15.4543C100.079 17.3261 100.772 19.1268 102.089 20.5129C103.128 21.5525 104.584 22.1063 106.108 22.0382C107.701 22.1078 109.296 21.4843 110.336 20.236C110.889 19.5429 111.236 18.7803 111.375 17.9495H108.464C108.394 18.3656 108.187 18.7122 107.84 18.9891C107.355 19.4748 106.662 19.6821 105.969 19.6125C105.276 19.6125 104.583 19.3356 104.097 18.7803C103.473 18.0873 103.127 17.1869 103.196 16.2851H111.652V15.4528C111.791 13.9276 111.375 12.3341 110.543 11.0873C109.503 9.56198 107.771 8.73121 105.969 8.8008" fill="white"/>
<path d="M84.2072 16.6344C84.2072 18.5062 82.8908 19.5457 81.019 19.5457C80.1186 19.6153 79.2864 18.9223 79.2168 18.0205V17.9509C79.2864 17.0505 80.1171 16.2878 81.019 16.3574L84.2072 16.0805V16.6344ZM87.1867 17.397V13.8622C87.2563 13.03 87.1172 12.1296 86.8402 11.2974C86.1472 9.42558 84.2754 8.73254 82.1281 8.73254C79.2864 8.73254 77.0695 9.97944 76.9303 12.8212H79.8417C79.9113 11.6424 80.742 11.019 82.1281 11.019C83.8607 11.019 84.2768 11.8512 84.2768 13.0285V13.8608L80.6043 14.1377C78.1787 14.345 76.3765 15.663 76.3765 18.0886C76.3765 20.1677 77.9699 22.0395 80.9508 22.0395C82.4761 22.1091 83.9303 21.4161 84.7626 20.1677V21.9003H88.3669V19.682H87.2578L87.1882 17.3956L87.1867 17.397Z" fill="white"/>
<path d="M137.018 13.6273C136.1 14.5451 134.699 15.0526 132.816 15.0526H128.59V21.693H126.441V4.57288H132.791C134.795 4.57288 136.22 5.12818 137.138 6.11844C137.959 7.01157 138.442 8.24396 138.442 9.74023C138.442 11.4061 137.934 12.711 137.016 13.6273H137.018ZM132.744 6.52731H128.59V13.0952H132.767C135.06 13.0952 136.22 12.0325 136.22 9.73878C136.22 7.56542 134.868 6.52731 132.744 6.52731Z" fill="white"/>
<path d="M150.033 16.2603H141.389C141.389 17.3709 141.824 18.5787 142.572 19.3268C143.127 19.8821 143.875 20.1967 144.818 20.1967C145.76 20.1967 146.581 19.9314 147.088 19.3993C147.426 19.0615 147.644 18.7237 147.813 18.0712H149.817C149.647 19.279 148.924 20.4142 147.934 21.0899C147.064 21.6698 145.978 22.0076 144.818 22.0076C143.103 22.0076 141.704 21.2827 140.761 20.1721C139.746 18.989 139.24 17.3709 139.24 15.6325C139.24 14.1595 139.506 12.856 140.183 11.7208C141.053 10.2477 142.671 9.16174 144.795 9.16174C146.365 9.16174 147.62 9.76489 148.514 10.732C149.504 11.8194 150.084 13.3881 150.059 15.0308L150.035 16.2618L150.033 16.2603ZM147.207 12.0107C146.7 11.3351 145.879 10.9001 144.793 10.9001C142.572 10.9001 141.485 12.711 141.437 14.4987H147.957C147.957 13.581 147.692 12.6632 147.209 12.0122L147.207 12.0107Z" fill="white"/>
<path d="M157.761 11.383C156.795 11.383 155.998 11.818 155.443 12.3486C154.452 13.291 154.332 14.9801 154.332 16.2604V21.6931H152.304V9.47496H154.115L154.284 11.6237C154.912 10.126 156.385 9.40247 157.931 9.40247C158.245 9.40247 158.583 9.42711 158.896 9.47496V11.4787C158.534 11.4062 158.124 11.3815 157.761 11.3815V11.383Z" fill="white"/>
<path d="M169.447 20.7999C168.65 21.548 167.516 22.0308 166.091 22.0308C164.763 22.0308 163.192 21.403 162.541 20.2924V26.9329H160.488V9.4981H162.299L162.444 11.0915C163.144 9.86056 164.715 9.18347 166.091 9.18347C167.588 9.18347 168.747 9.69093 169.544 10.5116C170.703 11.6947 171.307 13.5534 171.307 15.5832C171.307 17.6131 170.679 19.6153 169.449 20.7984L169.447 20.7999ZM165.753 10.9233C164.86 10.9233 164.255 11.2858 163.772 11.7208C162.757 12.6139 162.42 14.087 162.42 15.6079C162.42 17.1288 162.757 18.6019 163.772 19.495C164.255 19.93 164.86 20.2924 165.753 20.2924C168.481 20.2924 169.206 17.8537 169.206 15.6079C169.206 13.362 168.481 10.9233 165.753 10.9233Z" fill="white"/>
<path d="M183.477 16.2603H174.833C174.833 17.3709 175.268 18.5787 176.016 19.3268C176.572 19.8821 177.32 20.1967 178.262 20.1967C179.205 20.1967 180.025 19.9314 180.533 19.3993C180.871 19.0615 181.088 18.7237 181.258 18.0712H183.261C183.092 19.279 182.368 20.4142 181.378 21.0899C180.508 21.6698 179.422 22.0076 178.262 22.0076C176.547 22.0076 175.148 21.2827 174.205 20.1721C173.191 18.989 172.685 17.3709 172.685 15.6325C172.685 14.1595 172.95 12.856 173.627 11.7208C174.497 10.2477 176.115 9.16174 178.239 9.16174C179.809 9.16174 181.065 9.76489 181.958 10.732C182.948 11.8194 183.528 13.3881 183.504 15.0308L183.479 16.2618L183.477 16.2603ZM180.652 12.0107C180.144 11.3351 179.324 10.9001 178.238 10.9001C176.016 10.9001 174.929 12.711 174.881 14.4987H181.401C181.401 13.581 181.136 12.6632 180.653 12.0122L180.652 12.0107Z" fill="white"/>
<path d="M189.998 21.8627C187.366 21.8627 186.641 20.1968 186.641 18.5541V11.238H184.275V9.47493H186.641V6.35915L188.694 5.87634V9.47493H192.316V11.238H188.694V18.3134C188.694 19.4965 189.202 19.9793 190.337 19.9793C191.207 19.9793 192.438 19.7618 192.438 19.7618V21.5248C191.882 21.6698 191.134 21.8627 189.999 21.8627H189.998Z" fill="white"/>
<path d="M202.095 21.6931L201.926 19.8343C201.298 21.2349 199.728 21.9831 198.304 21.9831C195.528 21.9831 194.127 20.3171 194.127 17.4913V9.47498H196.18V17.2028C196.18 19.0384 196.856 20.1243 198.788 20.1243C199.609 20.1243 200.286 19.7618 200.817 19.2065C201.589 18.4091 201.832 17.081 201.832 15.8254V9.47498H203.885V21.6931H202.098H202.095Z" fill="white"/>
<path d="M216.052 21.8627C214.965 21.8627 214.289 21.042 214.289 20.0039H214.241C213.541 21.2349 212.02 22.0077 210.305 22.0077C207.504 22.0077 206.103 20.1243 206.103 18.2409C206.103 16.6707 207.118 14.6191 210.45 14.4248L214.169 14.2073V13.3142C214.169 12.7111 214.096 11.9615 213.541 11.4555C213.131 11.0698 212.526 10.8277 211.537 10.8277C210.427 10.8277 209.726 11.1423 209.316 11.5526C208.929 11.9383 208.713 12.4225 208.713 13.0257H206.709C206.734 11.9151 207.144 11.1176 207.772 10.4666C208.592 9.59672 210.042 9.16321 211.539 9.16321C213.905 9.16321 215.257 10.1781 215.837 11.5062C216.08 12.0615 216.2 12.6893 216.2 13.3896V19.3051C216.2 19.9575 216.465 20.1257 216.876 20.1257C217.093 20.1257 217.406 20.0532 217.406 20.0532V21.5741C216.971 21.7916 216.561 21.8641 216.053 21.8641L216.052 21.8627ZM214.169 15.8022L210.885 15.995C209.654 16.0675 208.204 16.6475 208.204 18.193C208.204 19.279 208.88 20.2939 210.619 20.2939C211.562 20.2939 212.478 19.9793 213.131 19.3036C213.855 18.5555 214.169 17.5406 214.169 16.5271V15.8022Z" fill="white"/>
<path d="M221.944 21.838C220.158 21.838 219.385 20.7753 219.385 18.8441V4.2583H221.438V18.7223C221.438 19.5429 221.704 19.9779 222.549 19.9779C223.225 19.9779 223.394 19.9532 223.394 19.9532V21.6916C223.394 21.6916 222.936 21.8366 221.946 21.8366L221.944 21.838Z" fill="white"/>
<path d="M240.369 13.6273C239.452 14.5451 238.051 15.0526 236.168 15.0526H231.941V21.693H229.792V4.57288H236.143C238.147 4.57288 239.572 5.12818 240.49 6.11844C241.31 7.01157 241.793 8.24396 241.793 9.74023C241.793 11.4061 241.286 12.711 240.368 13.6273H240.369ZM236.095 6.52731H231.941V13.0952H236.118C238.412 13.0952 239.572 12.0325 239.572 9.73878C239.572 7.56542 238.219 6.52731 236.095 6.52731Z" fill="white"/>
<path d="M251.742 20.5825C250.849 21.4524 249.593 22.0077 248.048 22.0077C246.502 22.0077 245.247 21.4524 244.354 20.5825C243.026 19.2791 242.615 17.516 242.615 15.5833C242.615 13.6507 243.026 11.8891 244.354 10.5842C245.247 9.71424 246.502 9.15894 248.048 9.15894C249.593 9.15894 250.849 9.71424 251.742 10.5842C253.07 11.8876 253.481 13.6507 253.481 15.5833C253.481 17.516 253.07 19.2776 251.742 20.5825ZM250.244 11.7934C249.737 11.2859 249.014 10.9234 248.046 10.9234C247.079 10.9234 246.356 11.2859 245.848 11.7934C244.979 12.6865 244.713 14.1596 244.713 15.5848C244.713 17.01 244.979 18.4831 245.848 19.3762C246.356 19.8837 247.079 20.2461 248.046 20.2461C249.014 20.2461 249.737 19.8837 250.244 19.3762C251.114 18.4831 251.38 17.01 251.38 15.5848C251.38 14.1596 251.114 12.6865 250.244 11.7934Z" fill="white"/>
<path d="M264.009 20.5825C263.116 21.4524 261.861 22.0077 260.315 22.0077C258.769 22.0077 257.514 21.4524 256.621 20.5825C255.293 19.2791 254.882 17.516 254.882 15.5833C254.882 13.6507 255.293 11.8891 256.621 10.5842C257.514 9.71424 258.769 9.15894 260.315 9.15894C261.861 9.15894 263.116 9.71424 264.009 10.5842C265.337 11.8876 265.748 13.6507 265.748 15.5833C265.748 17.516 265.337 19.2776 264.009 20.5825ZM262.512 11.7934C262.004 11.2859 261.281 10.9234 260.314 10.9234C259.346 10.9234 258.623 11.2859 258.116 11.7934C257.246 12.6865 256.98 14.1596 256.98 15.5848C256.98 17.01 257.246 18.4831 258.116 19.3762C258.623 19.8837 259.346 20.2461 260.314 20.2461C261.281 20.2461 262.004 19.8837 262.512 19.3762C263.382 18.4831 263.647 17.01 263.647 15.5848C263.647 14.1596 263.382 12.6865 262.512 11.7934Z" fill="white"/>
<path d="M270.578 21.838C268.791 21.838 268.019 20.7753 268.019 18.8441V4.2583H270.072V18.7223C270.072 19.5429 270.337 19.9779 271.182 19.9779C271.858 19.9779 272.027 19.9532 272.027 19.9532V21.6916C272.027 21.6916 271.569 21.8366 270.579 21.8366L270.578 21.838Z" fill="white"/>
<path d="M282 20.6302C281.057 21.5959 279.609 22.0062 278.015 22.0062C276.422 22.0062 275.094 21.6437 274.056 20.6302C273.308 19.9053 272.873 18.8672 272.873 17.8291H274.926C274.95 18.6744 275.336 19.3022 275.916 19.7371C276.471 20.1474 277.341 20.2924 278.114 20.2924C278.959 20.2924 279.732 20.1474 280.36 19.6168C280.698 19.3515 280.963 18.844 280.963 18.2887C280.963 17.3709 280.31 16.7185 279.055 16.5503C278.524 16.4778 277.147 16.3082 276.302 16.1878C274.466 15.8979 273.308 14.7626 273.308 12.9039C273.308 11.9614 273.767 11.0683 274.322 10.513C275.12 9.69238 276.399 9.16028 277.921 9.16028C279.539 9.16028 280.988 9.66773 281.808 10.7058C282.339 11.3583 282.678 12.0586 282.678 13.0488H280.625C280.6 12.421 280.287 11.8411 279.925 11.5279C279.417 11.0698 278.742 10.8755 277.921 10.8755C277.438 10.8755 277.076 10.8755 276.496 11.1176C275.723 11.4322 275.265 12.0832 275.265 12.7603C275.265 13.7752 275.893 14.2087 276.908 14.3537C277.583 14.4509 278.55 14.5466 279.854 14.764C281.592 15.054 282.97 16.3096 282.97 18.1452C282.97 19.2079 282.582 20.0285 282.004 20.6317L282 20.6302Z" fill="white"/>
</svg>
