<svg width="106" height="18" viewBox="0 0 106 18" fill="none" xmlns="http://www.w3.org/2000/svg">
<path d="M26.8535 1.37674C26.9532 1.36566 27.0418 1.35458 27.1415 1.34351C28.9472 1.35458 30.7529 1.34351 32.5586 1.38782C33.5556 1.40997 34.5193 1.66476 35.3723 2.21865C37.4882 3.60337 37.3774 6.8713 35.184 8.13416C34.8738 8.31141 34.5415 8.45542 34.1648 8.64374C34.331 8.69913 34.4529 8.73236 34.5636 8.7656C36.2918 9.23086 37.1891 10.1946 37.3552 11.7123C37.5325 13.3739 36.7349 14.8916 35.2726 15.667C34.4861 16.088 33.622 16.3095 32.7358 16.3317C30.7861 16.3649 28.8364 16.3428 26.8535 16.3428V1.37674ZM28.8586 14.7365C29.9996 14.7365 31.1074 14.7476 32.2041 14.7254C32.6472 14.7254 33.0792 14.659 33.5112 14.5482C34.4418 14.2934 35.0954 13.7284 35.3058 12.7536C35.5052 11.8341 35.4055 10.9701 34.6744 10.2832C34.1427 9.78475 33.4891 9.57427 32.7912 9.55211C31.5172 9.49673 30.2433 9.5078 28.9804 9.49673C28.9472 9.49673 28.914 9.51888 28.8586 9.55211V14.7365ZM28.8697 2.92762V8.00123C30.0993 8.00123 31.2957 8.07878 32.481 7.97908C33.9322 7.8683 34.7852 6.98208 34.8517 5.61951C34.907 4.46743 34.5415 3.51474 33.2454 3.16026C31.8163 2.77253 30.343 2.99409 28.8697 2.92762Z" fill="white"/>
<path d="M89.212 11.0365C89.2452 12.1775 89.4446 13.2077 90.1868 14.0496C91.0066 14.9801 92.1033 15.1795 93.2554 14.9691C93.9089 14.8472 94.5293 14.5481 95.1275 14.249C95.7811 13.9278 95.8365 13.9056 96.2796 14.4816C96.3682 14.5924 96.4457 14.7143 96.5787 14.8804C96.2907 15.1242 96.0359 15.4011 95.7257 15.5783C93.8535 16.6197 91.926 16.8634 89.9542 15.8774C88.5584 15.1795 87.8383 13.9499 87.5503 12.4766C87.1847 10.5934 87.3288 8.79876 88.5805 7.22572C90.3973 4.96586 94.3631 5.04341 95.914 7.36973C96.5565 8.3335 96.7448 9.43019 96.7005 10.5712C96.6895 10.9478 96.4568 11.0365 96.1245 11.0365C93.9754 11.0254 91.8374 11.0365 89.6883 11.0365H89.212ZM95.0278 9.87331C95.1164 8.16733 94.0419 6.98201 92.4024 6.94878C90.4527 6.90447 89.4335 8.30027 89.3338 9.87331H95.0278Z" fill="white"/>
<path d="M62.1023 10.3719C62.0248 9.7072 62.0248 9.0093 61.8365 8.36679C61.5374 7.31441 60.5736 6.83806 59.3329 7.115C58.8122 7.22578 58.3248 7.50273 57.8263 7.72428C57.6269 7.8129 57.4607 7.96799 57.2613 8.07877C56.8958 8.27817 56.5856 8.18955 56.353 7.83506C55.9763 7.27009 55.9763 7.24794 56.5081 6.81591C57.7488 5.81891 59.1778 5.44227 60.7398 5.60843C62.3571 5.7746 63.5092 6.93776 63.764 8.59943C63.8194 8.94284 63.8415 9.29732 63.8415 9.65181C63.8526 11.7344 63.8415 13.806 63.8415 15.8886V16.4203C63.3763 16.3538 62.8445 16.4092 62.5676 16.1766C62.2906 15.944 62.2685 15.4122 62.1245 14.9802C61.914 15.1464 61.7035 15.3347 61.482 15.5009C60.1305 16.52 58.635 16.8634 57.0509 16.2209C55.2784 15.5119 54.9572 13.0416 56.4305 11.8452C57.3832 11.0698 58.5242 10.7707 59.6985 10.6045C60.4517 10.4716 61.2161 10.4494 62.1023 10.3719ZM62.0359 11.5683C61.4487 11.6015 60.917 11.6126 60.3964 11.679C59.5544 11.7787 58.7236 11.9338 58.0036 12.3991C57.3943 12.7868 57.1838 13.385 57.361 14.0829C57.5272 14.7365 58.0036 15.1242 58.7015 15.1907C59.9865 15.3125 61.0278 14.8362 61.9029 13.9278C61.9805 13.8614 62.0248 13.7617 62.0359 13.662C62.0359 12.9862 62.0359 12.3105 62.0359 11.5683Z" fill="white"/>
<path d="M47.8253 16.3207C47.8032 16.3318 47.7921 16.3318 47.77 16.3428C46.5403 16.4093 46.5403 16.4093 46.2412 15.2129C46.2191 15.1464 46.208 15.0689 46.1858 14.947C45.92 15.1575 45.6984 15.3569 45.4658 15.5231C44.1143 16.509 42.641 16.8524 41.0568 16.2099C39.3066 15.5009 38.9742 13.0749 40.4365 11.8563C41.2562 11.1695 42.2532 10.8483 43.2835 10.671C44.1918 10.527 45.1113 10.4605 46.064 10.3608C46.0861 9.6851 46.0972 8.97613 45.8535 8.28931C45.5766 7.51386 45.0005 7.1483 44.2029 7.07075C43.3832 6.99321 42.6299 7.21477 41.9431 7.65788L41.8101 7.7465C40.791 8.40008 40.6359 8.36685 40.0598 7.248C40.8907 6.42825 41.8655 5.87436 43.0287 5.67496C44.0035 5.50879 44.9784 5.47556 45.8978 5.91867C47.2161 6.53902 47.8032 7.69111 47.8475 9.06475C47.914 11.4575 47.8697 13.8503 47.8697 16.2431C47.8586 16.2653 47.8364 16.2874 47.8253 16.3207ZM46.064 11.5905C45.7981 11.5905 45.5876 11.5794 45.3661 11.5905C44.2915 11.6459 43.217 11.7456 42.2311 12.2551C41.4667 12.6539 41.1787 13.2632 41.3449 14.0165C41.5221 14.7698 42.0538 15.1575 42.9179 15.2018C44.1143 15.2572 45.0891 14.7698 45.8978 13.9279C45.9864 13.8393 46.0418 13.7174 46.0529 13.5955C46.064 12.953 46.064 12.2995 46.064 11.5905Z" fill="white"/>
<path d="M68.4397 7.22595C68.8496 6.89361 69.193 6.59452 69.5586 6.32865C70.6109 5.57536 71.7741 5.42027 73.0148 5.69722C74.4106 6.01847 75.4187 7.31457 75.463 8.98731C75.5295 11.3801 75.4962 13.7729 75.4962 16.1657C75.4852 16.2211 75.4852 16.2765 75.463 16.3319H73.6573V15.8666C73.6573 13.8947 73.6573 11.9118 73.6573 9.93999C73.6573 9.61874 73.6352 9.28641 73.6019 8.96515C73.4358 7.61367 72.3834 6.86038 70.9765 7.08194C70.0349 7.22595 69.2927 7.73552 68.6613 8.41127C68.5616 8.51097 68.5394 8.72144 68.5394 8.87653C68.5283 11.1918 68.5394 13.507 68.5394 15.8223V16.3208H66.7227V5.75261C67.1104 5.75261 67.487 5.74153 67.8526 5.75261C68.1295 5.76368 68.2625 5.95201 68.2957 6.20679L68.4397 7.22595Z" fill="white"/>
<path d="M86.1526 14.8805C85.6209 15.534 84.8898 16.0104 84.07 16.2209C82.364 16.6972 80.7467 16.6197 79.3287 15.4233C78.3982 14.6478 77.9329 13.6065 77.7224 12.4323C77.4566 10.9811 77.5452 9.55206 78.1877 8.21165C78.9853 6.52783 80.3811 5.70808 82.2089 5.58622C83.6601 5.4976 84.9562 5.87425 86.0086 6.91555C86.0086 6.95986 86.0197 6.9931 86.0086 7.00417C85.3439 7.94578 85.3772 8.05656 84.358 7.44728C82.8625 6.57214 80.2703 6.80478 79.6721 9.51882C79.4284 10.6044 79.4284 11.6901 79.7275 12.7535C80.3479 14.9248 82.641 15.7778 84.491 14.4817C85.3772 13.8613 85.4215 13.7727 86.1526 14.8805Z" fill="white"/>
<path d="M52.7432 16.3318H50.9375V0.944824H52.7432V16.3318Z" fill="white"/>
<path d="M99.1478 5.74146C99.4912 5.74146 99.8014 5.74146 100.112 5.74146C100.544 5.75254 100.699 5.88547 100.732 6.31751C100.776 6.79385 100.798 7.27019 100.843 7.87947C100.965 7.68007 101.031 7.56929 101.097 7.45851C101.64 6.57229 102.327 5.84116 103.402 5.61961C104.022 5.49775 104.642 5.50883 105.241 5.7747C105.451 5.86332 105.54 5.98517 105.484 6.22888C105.418 6.5169 105.385 6.816 105.329 7.1151C105.241 7.55821 105.13 7.60253 104.687 7.53606C104.177 7.45851 103.645 7.38097 103.147 7.44743C101.95 7.62468 100.942 8.88754 100.942 10.1061V16.3207H99.1367L99.1478 5.74146Z" fill="white"/>
<path d="M15.0118 11.0697C18.6343 11.6014 21.1711 12.82 21.1711 14.2269C21.1711 16.1322 16.5406 17.6831 10.8355 17.6831C5.1305 17.6831 0.5 16.1322 0.5 14.2269C0.5 12.82 3.02573 11.6014 6.65923 11.0697C8.03287 11.3356 9.43974 11.4685 10.8355 11.4685C12.2092 11.4796 13.5717 11.3466 14.9232 11.0919L15.0118 11.0697Z" fill="white"/>
<path d="M13.4396 5.39795C16.7297 5.76351 19.0892 6.79375 19.0892 8.02338C19.0892 9.55211 15.3892 10.7817 10.8141 10.7817C6.23903 10.7817 2.53906 9.54103 2.53906 8.02338C2.53906 6.80482 4.9097 5.76351 8.18871 5.39795C9.05278 5.53088 9.92792 5.60843 10.8031 5.59735C11.645 5.59735 12.498 5.53088 13.3399 5.40903L13.4396 5.39795Z" fill="white"/>
<path d="M10.8246 5.04347C14.2508 5.04347 17.0282 4.11601 17.0282 2.97193C17.0282 1.82785 14.2508 0.900391 10.8246 0.900391C7.39851 0.900391 4.62109 1.82785 4.62109 2.97193C4.62109 4.11601 7.39851 5.04347 10.8246 5.04347Z" fill="white"/>
</svg>
